%TF.GenerationSoftware,KiCad,Pcbnew,(5.1.10)-1*%
%TF.CreationDate,2021-08-04T23:13:12+07:00*%
%TF.ProjectId,busdisplay_r2,62757364-6973-4706-9c61-795f72322e6b,3*%
%TF.SameCoordinates,Original*%
%TF.FileFunction,Copper,L1,Top*%
%TF.FilePolarity,Positive*%
%FSLAX46Y46*%
G04 Gerber Fmt 4.6, Leading zero omitted, Abs format (unit mm)*
G04 Created by KiCad (PCBNEW (5.1.10)-1) date 2021-08-04 23:13:12*
%MOMM*%
%LPD*%
G01*
G04 APERTURE LIST*
%TA.AperFunction,SMDPad,CuDef*%
%ADD10R,0.900000X0.800000*%
%TD*%
%TA.AperFunction,ComponentPad*%
%ADD11C,1.500000*%
%TD*%
%TA.AperFunction,ComponentPad*%
%ADD12R,1.500000X1.500000*%
%TD*%
%TA.AperFunction,ComponentPad*%
%ADD13O,1.700000X1.700000*%
%TD*%
%TA.AperFunction,ComponentPad*%
%ADD14R,1.700000X1.700000*%
%TD*%
%TA.AperFunction,ViaPad*%
%ADD15C,0.800000*%
%TD*%
%TA.AperFunction,ViaPad*%
%ADD16C,0.600000*%
%TD*%
%TA.AperFunction,Conductor*%
%ADD17C,0.400000*%
%TD*%
%TA.AperFunction,Conductor*%
%ADD18C,0.250000*%
%TD*%
%TA.AperFunction,Conductor*%
%ADD19C,0.254000*%
%TD*%
%TA.AperFunction,Conductor*%
%ADD20C,0.100000*%
%TD*%
G04 APERTURE END LIST*
D10*
%TO.P,Q3,3*%
%TO.N,Net-(LED1-Pad8)*%
X36316000Y-76252500D03*
%TO.P,Q3,2*%
%TO.N,+5V*%
X38316000Y-75302500D03*
%TO.P,Q3,1*%
%TO.N,DIG3*%
X38316000Y-77202500D03*
%TD*%
%TO.P,Q2,3*%
%TO.N,Net-(LED1-Pad9)*%
X36316000Y-72586500D03*
%TO.P,Q2,2*%
%TO.N,+5V*%
X38316000Y-71636500D03*
%TO.P,Q2,1*%
%TO.N,DIG2*%
X38316000Y-73536500D03*
%TD*%
%TO.P,Q1,3*%
%TO.N,Net-(LED1-Pad12)*%
X36316000Y-68920500D03*
%TO.P,Q1,2*%
%TO.N,+5V*%
X38316000Y-67970500D03*
%TO.P,Q1,1*%
%TO.N,DIG1*%
X38316000Y-69870500D03*
%TD*%
%TO.P,C3,2*%
%TO.N,GND*%
%TA.AperFunction,SMDPad,CuDef*%
G36*
G01*
X59763500Y-76213000D02*
X61013500Y-76213000D01*
G75*
G02*
X61263500Y-76463000I0J-250000D01*
G01*
X61263500Y-77213000D01*
G75*
G02*
X61013500Y-77463000I-250000J0D01*
G01*
X59763500Y-77463000D01*
G75*
G02*
X59513500Y-77213000I0J250000D01*
G01*
X59513500Y-76463000D01*
G75*
G02*
X59763500Y-76213000I250000J0D01*
G01*
G37*
%TD.AperFunction*%
%TO.P,C3,1*%
%TO.N,+5V*%
%TA.AperFunction,SMDPad,CuDef*%
G36*
G01*
X59763500Y-73413000D02*
X61013500Y-73413000D01*
G75*
G02*
X61263500Y-73663000I0J-250000D01*
G01*
X61263500Y-74413000D01*
G75*
G02*
X61013500Y-74663000I-250000J0D01*
G01*
X59763500Y-74663000D01*
G75*
G02*
X59513500Y-74413000I0J250000D01*
G01*
X59513500Y-73663000D01*
G75*
G02*
X59763500Y-73413000I250000J0D01*
G01*
G37*
%TD.AperFunction*%
%TD*%
%TO.P,U1,28*%
%TO.N,Net-(J2-Pad4)*%
%TA.AperFunction,SMDPad,CuDef*%
G36*
G01*
X42695000Y-54541000D02*
X42395000Y-54541000D01*
G75*
G02*
X42245000Y-54391000I0J150000D01*
G01*
X42245000Y-52641000D01*
G75*
G02*
X42395000Y-52491000I150000J0D01*
G01*
X42695000Y-52491000D01*
G75*
G02*
X42845000Y-52641000I0J-150000D01*
G01*
X42845000Y-54391000D01*
G75*
G02*
X42695000Y-54541000I-150000J0D01*
G01*
G37*
%TD.AperFunction*%
%TO.P,U1,27*%
%TO.N,Net-(J2-Pad5)*%
%TA.AperFunction,SMDPad,CuDef*%
G36*
G01*
X43965000Y-54541000D02*
X43665000Y-54541000D01*
G75*
G02*
X43515000Y-54391000I0J150000D01*
G01*
X43515000Y-52641000D01*
G75*
G02*
X43665000Y-52491000I150000J0D01*
G01*
X43965000Y-52491000D01*
G75*
G02*
X44115000Y-52641000I0J-150000D01*
G01*
X44115000Y-54391000D01*
G75*
G02*
X43965000Y-54541000I-150000J0D01*
G01*
G37*
%TD.AperFunction*%
%TO.P,U1,26*%
%TO.N,DIG1*%
%TA.AperFunction,SMDPad,CuDef*%
G36*
G01*
X45235000Y-54541000D02*
X44935000Y-54541000D01*
G75*
G02*
X44785000Y-54391000I0J150000D01*
G01*
X44785000Y-52641000D01*
G75*
G02*
X44935000Y-52491000I150000J0D01*
G01*
X45235000Y-52491000D01*
G75*
G02*
X45385000Y-52641000I0J-150000D01*
G01*
X45385000Y-54391000D01*
G75*
G02*
X45235000Y-54541000I-150000J0D01*
G01*
G37*
%TD.AperFunction*%
%TO.P,U1,25*%
%TO.N,DIG2*%
%TA.AperFunction,SMDPad,CuDef*%
G36*
G01*
X46505000Y-54541000D02*
X46205000Y-54541000D01*
G75*
G02*
X46055000Y-54391000I0J150000D01*
G01*
X46055000Y-52641000D01*
G75*
G02*
X46205000Y-52491000I150000J0D01*
G01*
X46505000Y-52491000D01*
G75*
G02*
X46655000Y-52641000I0J-150000D01*
G01*
X46655000Y-54391000D01*
G75*
G02*
X46505000Y-54541000I-150000J0D01*
G01*
G37*
%TD.AperFunction*%
%TO.P,U1,24*%
%TO.N,DIG3*%
%TA.AperFunction,SMDPad,CuDef*%
G36*
G01*
X47775000Y-54541000D02*
X47475000Y-54541000D01*
G75*
G02*
X47325000Y-54391000I0J150000D01*
G01*
X47325000Y-52641000D01*
G75*
G02*
X47475000Y-52491000I150000J0D01*
G01*
X47775000Y-52491000D01*
G75*
G02*
X47925000Y-52641000I0J-150000D01*
G01*
X47925000Y-54391000D01*
G75*
G02*
X47775000Y-54541000I-150000J0D01*
G01*
G37*
%TD.AperFunction*%
%TO.P,U1,23*%
%TO.N,Net-(U1-Pad23)*%
%TA.AperFunction,SMDPad,CuDef*%
G36*
G01*
X49045000Y-54541000D02*
X48745000Y-54541000D01*
G75*
G02*
X48595000Y-54391000I0J150000D01*
G01*
X48595000Y-52641000D01*
G75*
G02*
X48745000Y-52491000I150000J0D01*
G01*
X49045000Y-52491000D01*
G75*
G02*
X49195000Y-52641000I0J-150000D01*
G01*
X49195000Y-54391000D01*
G75*
G02*
X49045000Y-54541000I-150000J0D01*
G01*
G37*
%TD.AperFunction*%
%TO.P,U1,22*%
%TO.N,Net-(U1-Pad22)*%
%TA.AperFunction,SMDPad,CuDef*%
G36*
G01*
X50315000Y-54541000D02*
X50015000Y-54541000D01*
G75*
G02*
X49865000Y-54391000I0J150000D01*
G01*
X49865000Y-52641000D01*
G75*
G02*
X50015000Y-52491000I150000J0D01*
G01*
X50315000Y-52491000D01*
G75*
G02*
X50465000Y-52641000I0J-150000D01*
G01*
X50465000Y-54391000D01*
G75*
G02*
X50315000Y-54541000I-150000J0D01*
G01*
G37*
%TD.AperFunction*%
%TO.P,U1,21*%
%TO.N,Net-(J1-Pad2)*%
%TA.AperFunction,SMDPad,CuDef*%
G36*
G01*
X51585000Y-54541000D02*
X51285000Y-54541000D01*
G75*
G02*
X51135000Y-54391000I0J150000D01*
G01*
X51135000Y-52641000D01*
G75*
G02*
X51285000Y-52491000I150000J0D01*
G01*
X51585000Y-52491000D01*
G75*
G02*
X51735000Y-52641000I0J-150000D01*
G01*
X51735000Y-54391000D01*
G75*
G02*
X51585000Y-54541000I-150000J0D01*
G01*
G37*
%TD.AperFunction*%
%TO.P,U1,20*%
%TO.N,+5V*%
%TA.AperFunction,SMDPad,CuDef*%
G36*
G01*
X52855000Y-54541000D02*
X52555000Y-54541000D01*
G75*
G02*
X52405000Y-54391000I0J150000D01*
G01*
X52405000Y-52641000D01*
G75*
G02*
X52555000Y-52491000I150000J0D01*
G01*
X52855000Y-52491000D01*
G75*
G02*
X53005000Y-52641000I0J-150000D01*
G01*
X53005000Y-54391000D01*
G75*
G02*
X52855000Y-54541000I-150000J0D01*
G01*
G37*
%TD.AperFunction*%
%TO.P,U1,19*%
%TO.N,GND*%
%TA.AperFunction,SMDPad,CuDef*%
G36*
G01*
X54125000Y-54541000D02*
X53825000Y-54541000D01*
G75*
G02*
X53675000Y-54391000I0J150000D01*
G01*
X53675000Y-52641000D01*
G75*
G02*
X53825000Y-52491000I150000J0D01*
G01*
X54125000Y-52491000D01*
G75*
G02*
X54275000Y-52641000I0J-150000D01*
G01*
X54275000Y-54391000D01*
G75*
G02*
X54125000Y-54541000I-150000J0D01*
G01*
G37*
%TD.AperFunction*%
%TO.P,U1,18*%
%TO.N,DP*%
%TA.AperFunction,SMDPad,CuDef*%
G36*
G01*
X55395000Y-54541000D02*
X55095000Y-54541000D01*
G75*
G02*
X54945000Y-54391000I0J150000D01*
G01*
X54945000Y-52641000D01*
G75*
G02*
X55095000Y-52491000I150000J0D01*
G01*
X55395000Y-52491000D01*
G75*
G02*
X55545000Y-52641000I0J-150000D01*
G01*
X55545000Y-54391000D01*
G75*
G02*
X55395000Y-54541000I-150000J0D01*
G01*
G37*
%TD.AperFunction*%
%TO.P,U1,17*%
%TO.N,C*%
%TA.AperFunction,SMDPad,CuDef*%
G36*
G01*
X56665000Y-54541000D02*
X56365000Y-54541000D01*
G75*
G02*
X56215000Y-54391000I0J150000D01*
G01*
X56215000Y-52641000D01*
G75*
G02*
X56365000Y-52491000I150000J0D01*
G01*
X56665000Y-52491000D01*
G75*
G02*
X56815000Y-52641000I0J-150000D01*
G01*
X56815000Y-54391000D01*
G75*
G02*
X56665000Y-54541000I-150000J0D01*
G01*
G37*
%TD.AperFunction*%
%TO.P,U1,16*%
%TO.N,G*%
%TA.AperFunction,SMDPad,CuDef*%
G36*
G01*
X57935000Y-54541000D02*
X57635000Y-54541000D01*
G75*
G02*
X57485000Y-54391000I0J150000D01*
G01*
X57485000Y-52641000D01*
G75*
G02*
X57635000Y-52491000I150000J0D01*
G01*
X57935000Y-52491000D01*
G75*
G02*
X58085000Y-52641000I0J-150000D01*
G01*
X58085000Y-54391000D01*
G75*
G02*
X57935000Y-54541000I-150000J0D01*
G01*
G37*
%TD.AperFunction*%
%TO.P,U1,15*%
%TO.N,D*%
%TA.AperFunction,SMDPad,CuDef*%
G36*
G01*
X59205000Y-54541000D02*
X58905000Y-54541000D01*
G75*
G02*
X58755000Y-54391000I0J150000D01*
G01*
X58755000Y-52641000D01*
G75*
G02*
X58905000Y-52491000I150000J0D01*
G01*
X59205000Y-52491000D01*
G75*
G02*
X59355000Y-52641000I0J-150000D01*
G01*
X59355000Y-54391000D01*
G75*
G02*
X59205000Y-54541000I-150000J0D01*
G01*
G37*
%TD.AperFunction*%
%TO.P,U1,14*%
%TO.N,B*%
%TA.AperFunction,SMDPad,CuDef*%
G36*
G01*
X59205000Y-63841000D02*
X58905000Y-63841000D01*
G75*
G02*
X58755000Y-63691000I0J150000D01*
G01*
X58755000Y-61941000D01*
G75*
G02*
X58905000Y-61791000I150000J0D01*
G01*
X59205000Y-61791000D01*
G75*
G02*
X59355000Y-61941000I0J-150000D01*
G01*
X59355000Y-63691000D01*
G75*
G02*
X59205000Y-63841000I-150000J0D01*
G01*
G37*
%TD.AperFunction*%
%TO.P,U1,13*%
%TO.N,F*%
%TA.AperFunction,SMDPad,CuDef*%
G36*
G01*
X57935000Y-63841000D02*
X57635000Y-63841000D01*
G75*
G02*
X57485000Y-63691000I0J150000D01*
G01*
X57485000Y-61941000D01*
G75*
G02*
X57635000Y-61791000I150000J0D01*
G01*
X57935000Y-61791000D01*
G75*
G02*
X58085000Y-61941000I0J-150000D01*
G01*
X58085000Y-63691000D01*
G75*
G02*
X57935000Y-63841000I-150000J0D01*
G01*
G37*
%TD.AperFunction*%
%TO.P,U1,12*%
%TO.N,A*%
%TA.AperFunction,SMDPad,CuDef*%
G36*
G01*
X56665000Y-63841000D02*
X56365000Y-63841000D01*
G75*
G02*
X56215000Y-63691000I0J150000D01*
G01*
X56215000Y-61941000D01*
G75*
G02*
X56365000Y-61791000I150000J0D01*
G01*
X56665000Y-61791000D01*
G75*
G02*
X56815000Y-61941000I0J-150000D01*
G01*
X56815000Y-63691000D01*
G75*
G02*
X56665000Y-63841000I-150000J0D01*
G01*
G37*
%TD.AperFunction*%
%TO.P,U1,11*%
%TO.N,E*%
%TA.AperFunction,SMDPad,CuDef*%
G36*
G01*
X55395000Y-63841000D02*
X55095000Y-63841000D01*
G75*
G02*
X54945000Y-63691000I0J150000D01*
G01*
X54945000Y-61941000D01*
G75*
G02*
X55095000Y-61791000I150000J0D01*
G01*
X55395000Y-61791000D01*
G75*
G02*
X55545000Y-61941000I0J-150000D01*
G01*
X55545000Y-63691000D01*
G75*
G02*
X55395000Y-63841000I-150000J0D01*
G01*
G37*
%TD.AperFunction*%
%TO.P,U1,10*%
%TO.N,BUF6*%
%TA.AperFunction,SMDPad,CuDef*%
G36*
G01*
X54125000Y-63841000D02*
X53825000Y-63841000D01*
G75*
G02*
X53675000Y-63691000I0J150000D01*
G01*
X53675000Y-61941000D01*
G75*
G02*
X53825000Y-61791000I150000J0D01*
G01*
X54125000Y-61791000D01*
G75*
G02*
X54275000Y-61941000I0J-150000D01*
G01*
X54275000Y-63691000D01*
G75*
G02*
X54125000Y-63841000I-150000J0D01*
G01*
G37*
%TD.AperFunction*%
%TO.P,U1,9*%
%TO.N,BUF7*%
%TA.AperFunction,SMDPad,CuDef*%
G36*
G01*
X52855000Y-63841000D02*
X52555000Y-63841000D01*
G75*
G02*
X52405000Y-63691000I0J150000D01*
G01*
X52405000Y-61941000D01*
G75*
G02*
X52555000Y-61791000I150000J0D01*
G01*
X52855000Y-61791000D01*
G75*
G02*
X53005000Y-61941000I0J-150000D01*
G01*
X53005000Y-63691000D01*
G75*
G02*
X52855000Y-63841000I-150000J0D01*
G01*
G37*
%TD.AperFunction*%
%TO.P,U1,8*%
%TO.N,GND*%
%TA.AperFunction,SMDPad,CuDef*%
G36*
G01*
X51585000Y-63841000D02*
X51285000Y-63841000D01*
G75*
G02*
X51135000Y-63691000I0J150000D01*
G01*
X51135000Y-61941000D01*
G75*
G02*
X51285000Y-61791000I150000J0D01*
G01*
X51585000Y-61791000D01*
G75*
G02*
X51735000Y-61941000I0J-150000D01*
G01*
X51735000Y-63691000D01*
G75*
G02*
X51585000Y-63841000I-150000J0D01*
G01*
G37*
%TD.AperFunction*%
%TO.P,U1,7*%
%TO.N,BUF5*%
%TA.AperFunction,SMDPad,CuDef*%
G36*
G01*
X50315000Y-63841000D02*
X50015000Y-63841000D01*
G75*
G02*
X49865000Y-63691000I0J150000D01*
G01*
X49865000Y-61941000D01*
G75*
G02*
X50015000Y-61791000I150000J0D01*
G01*
X50315000Y-61791000D01*
G75*
G02*
X50465000Y-61941000I0J-150000D01*
G01*
X50465000Y-63691000D01*
G75*
G02*
X50315000Y-63841000I-150000J0D01*
G01*
G37*
%TD.AperFunction*%
%TO.P,U1,6*%
%TO.N,BUF4*%
%TA.AperFunction,SMDPad,CuDef*%
G36*
G01*
X49045000Y-63841000D02*
X48745000Y-63841000D01*
G75*
G02*
X48595000Y-63691000I0J150000D01*
G01*
X48595000Y-61941000D01*
G75*
G02*
X48745000Y-61791000I150000J0D01*
G01*
X49045000Y-61791000D01*
G75*
G02*
X49195000Y-61941000I0J-150000D01*
G01*
X49195000Y-63691000D01*
G75*
G02*
X49045000Y-63841000I-150000J0D01*
G01*
G37*
%TD.AperFunction*%
%TO.P,U1,5*%
%TO.N,BUF3*%
%TA.AperFunction,SMDPad,CuDef*%
G36*
G01*
X47775000Y-63841000D02*
X47475000Y-63841000D01*
G75*
G02*
X47325000Y-63691000I0J150000D01*
G01*
X47325000Y-61941000D01*
G75*
G02*
X47475000Y-61791000I150000J0D01*
G01*
X47775000Y-61791000D01*
G75*
G02*
X47925000Y-61941000I0J-150000D01*
G01*
X47925000Y-63691000D01*
G75*
G02*
X47775000Y-63841000I-150000J0D01*
G01*
G37*
%TD.AperFunction*%
%TO.P,U1,4*%
%TO.N,BUF2*%
%TA.AperFunction,SMDPad,CuDef*%
G36*
G01*
X46505000Y-63841000D02*
X46205000Y-63841000D01*
G75*
G02*
X46055000Y-63691000I0J150000D01*
G01*
X46055000Y-61941000D01*
G75*
G02*
X46205000Y-61791000I150000J0D01*
G01*
X46505000Y-61791000D01*
G75*
G02*
X46655000Y-61941000I0J-150000D01*
G01*
X46655000Y-63691000D01*
G75*
G02*
X46505000Y-63841000I-150000J0D01*
G01*
G37*
%TD.AperFunction*%
%TO.P,U1,3*%
%TO.N,BUF1*%
%TA.AperFunction,SMDPad,CuDef*%
G36*
G01*
X45235000Y-63841000D02*
X44935000Y-63841000D01*
G75*
G02*
X44785000Y-63691000I0J150000D01*
G01*
X44785000Y-61941000D01*
G75*
G02*
X44935000Y-61791000I150000J0D01*
G01*
X45235000Y-61791000D01*
G75*
G02*
X45385000Y-61941000I0J-150000D01*
G01*
X45385000Y-63691000D01*
G75*
G02*
X45235000Y-63841000I-150000J0D01*
G01*
G37*
%TD.AperFunction*%
%TO.P,U1,2*%
%TO.N,BUF0*%
%TA.AperFunction,SMDPad,CuDef*%
G36*
G01*
X43965000Y-63841000D02*
X43665000Y-63841000D01*
G75*
G02*
X43515000Y-63691000I0J150000D01*
G01*
X43515000Y-61941000D01*
G75*
G02*
X43665000Y-61791000I150000J0D01*
G01*
X43965000Y-61791000D01*
G75*
G02*
X44115000Y-61941000I0J-150000D01*
G01*
X44115000Y-63691000D01*
G75*
G02*
X43965000Y-63841000I-150000J0D01*
G01*
G37*
%TD.AperFunction*%
%TO.P,U1,1*%
%TO.N,~MCLR*%
%TA.AperFunction,SMDPad,CuDef*%
G36*
G01*
X42695000Y-63841000D02*
X42395000Y-63841000D01*
G75*
G02*
X42245000Y-63691000I0J150000D01*
G01*
X42245000Y-61941000D01*
G75*
G02*
X42395000Y-61791000I150000J0D01*
G01*
X42695000Y-61791000D01*
G75*
G02*
X42845000Y-61941000I0J-150000D01*
G01*
X42845000Y-63691000D01*
G75*
G02*
X42695000Y-63841000I-150000J0D01*
G01*
G37*
%TD.AperFunction*%
%TD*%
%TO.P,U2,1*%
%TO.N,+5V*%
%TA.AperFunction,SMDPad,CuDef*%
G36*
G01*
X45362000Y-77094000D02*
X45062000Y-77094000D01*
G75*
G02*
X44912000Y-76944000I0J150000D01*
G01*
X44912000Y-75269000D01*
G75*
G02*
X45062000Y-75119000I150000J0D01*
G01*
X45362000Y-75119000D01*
G75*
G02*
X45512000Y-75269000I0J-150000D01*
G01*
X45512000Y-76944000D01*
G75*
G02*
X45362000Y-77094000I-150000J0D01*
G01*
G37*
%TD.AperFunction*%
%TO.P,U2,2*%
%TO.N,Net-(J3-Pad1)*%
%TA.AperFunction,SMDPad,CuDef*%
G36*
G01*
X46632000Y-77094000D02*
X46332000Y-77094000D01*
G75*
G02*
X46182000Y-76944000I0J150000D01*
G01*
X46182000Y-75269000D01*
G75*
G02*
X46332000Y-75119000I150000J0D01*
G01*
X46632000Y-75119000D01*
G75*
G02*
X46782000Y-75269000I0J-150000D01*
G01*
X46782000Y-76944000D01*
G75*
G02*
X46632000Y-77094000I-150000J0D01*
G01*
G37*
%TD.AperFunction*%
%TO.P,U2,3*%
%TO.N,Net-(J3-Pad2)*%
%TA.AperFunction,SMDPad,CuDef*%
G36*
G01*
X47902000Y-77094000D02*
X47602000Y-77094000D01*
G75*
G02*
X47452000Y-76944000I0J150000D01*
G01*
X47452000Y-75269000D01*
G75*
G02*
X47602000Y-75119000I150000J0D01*
G01*
X47902000Y-75119000D01*
G75*
G02*
X48052000Y-75269000I0J-150000D01*
G01*
X48052000Y-76944000D01*
G75*
G02*
X47902000Y-77094000I-150000J0D01*
G01*
G37*
%TD.AperFunction*%
%TO.P,U2,4*%
%TO.N,Net-(J3-Pad3)*%
%TA.AperFunction,SMDPad,CuDef*%
G36*
G01*
X49172000Y-77094000D02*
X48872000Y-77094000D01*
G75*
G02*
X48722000Y-76944000I0J150000D01*
G01*
X48722000Y-75269000D01*
G75*
G02*
X48872000Y-75119000I150000J0D01*
G01*
X49172000Y-75119000D01*
G75*
G02*
X49322000Y-75269000I0J-150000D01*
G01*
X49322000Y-76944000D01*
G75*
G02*
X49172000Y-77094000I-150000J0D01*
G01*
G37*
%TD.AperFunction*%
%TO.P,U2,5*%
%TO.N,Net-(J3-Pad4)*%
%TA.AperFunction,SMDPad,CuDef*%
G36*
G01*
X50442000Y-77094000D02*
X50142000Y-77094000D01*
G75*
G02*
X49992000Y-76944000I0J150000D01*
G01*
X49992000Y-75269000D01*
G75*
G02*
X50142000Y-75119000I150000J0D01*
G01*
X50442000Y-75119000D01*
G75*
G02*
X50592000Y-75269000I0J-150000D01*
G01*
X50592000Y-76944000D01*
G75*
G02*
X50442000Y-77094000I-150000J0D01*
G01*
G37*
%TD.AperFunction*%
%TO.P,U2,6*%
%TO.N,Net-(J3-Pad5)*%
%TA.AperFunction,SMDPad,CuDef*%
G36*
G01*
X51712000Y-77094000D02*
X51412000Y-77094000D01*
G75*
G02*
X51262000Y-76944000I0J150000D01*
G01*
X51262000Y-75269000D01*
G75*
G02*
X51412000Y-75119000I150000J0D01*
G01*
X51712000Y-75119000D01*
G75*
G02*
X51862000Y-75269000I0J-150000D01*
G01*
X51862000Y-76944000D01*
G75*
G02*
X51712000Y-77094000I-150000J0D01*
G01*
G37*
%TD.AperFunction*%
%TO.P,U2,7*%
%TO.N,Net-(J3-Pad6)*%
%TA.AperFunction,SMDPad,CuDef*%
G36*
G01*
X52982000Y-77094000D02*
X52682000Y-77094000D01*
G75*
G02*
X52532000Y-76944000I0J150000D01*
G01*
X52532000Y-75269000D01*
G75*
G02*
X52682000Y-75119000I150000J0D01*
G01*
X52982000Y-75119000D01*
G75*
G02*
X53132000Y-75269000I0J-150000D01*
G01*
X53132000Y-76944000D01*
G75*
G02*
X52982000Y-77094000I-150000J0D01*
G01*
G37*
%TD.AperFunction*%
%TO.P,U2,8*%
%TO.N,Net-(J3-Pad7)*%
%TA.AperFunction,SMDPad,CuDef*%
G36*
G01*
X54252000Y-77094000D02*
X53952000Y-77094000D01*
G75*
G02*
X53802000Y-76944000I0J150000D01*
G01*
X53802000Y-75269000D01*
G75*
G02*
X53952000Y-75119000I150000J0D01*
G01*
X54252000Y-75119000D01*
G75*
G02*
X54402000Y-75269000I0J-150000D01*
G01*
X54402000Y-76944000D01*
G75*
G02*
X54252000Y-77094000I-150000J0D01*
G01*
G37*
%TD.AperFunction*%
%TO.P,U2,9*%
%TO.N,Net-(J3-Pad8)*%
%TA.AperFunction,SMDPad,CuDef*%
G36*
G01*
X55522000Y-77094000D02*
X55222000Y-77094000D01*
G75*
G02*
X55072000Y-76944000I0J150000D01*
G01*
X55072000Y-75269000D01*
G75*
G02*
X55222000Y-75119000I150000J0D01*
G01*
X55522000Y-75119000D01*
G75*
G02*
X55672000Y-75269000I0J-150000D01*
G01*
X55672000Y-76944000D01*
G75*
G02*
X55522000Y-77094000I-150000J0D01*
G01*
G37*
%TD.AperFunction*%
%TO.P,U2,10*%
%TO.N,GND*%
%TA.AperFunction,SMDPad,CuDef*%
G36*
G01*
X56792000Y-77094000D02*
X56492000Y-77094000D01*
G75*
G02*
X56342000Y-76944000I0J150000D01*
G01*
X56342000Y-75269000D01*
G75*
G02*
X56492000Y-75119000I150000J0D01*
G01*
X56792000Y-75119000D01*
G75*
G02*
X56942000Y-75269000I0J-150000D01*
G01*
X56942000Y-76944000D01*
G75*
G02*
X56792000Y-77094000I-150000J0D01*
G01*
G37*
%TD.AperFunction*%
%TO.P,U2,11*%
%TO.N,BUF0*%
%TA.AperFunction,SMDPad,CuDef*%
G36*
G01*
X56792000Y-70169000D02*
X56492000Y-70169000D01*
G75*
G02*
X56342000Y-70019000I0J150000D01*
G01*
X56342000Y-68344000D01*
G75*
G02*
X56492000Y-68194000I150000J0D01*
G01*
X56792000Y-68194000D01*
G75*
G02*
X56942000Y-68344000I0J-150000D01*
G01*
X56942000Y-70019000D01*
G75*
G02*
X56792000Y-70169000I-150000J0D01*
G01*
G37*
%TD.AperFunction*%
%TO.P,U2,12*%
%TO.N,BUF1*%
%TA.AperFunction,SMDPad,CuDef*%
G36*
G01*
X55522000Y-70169000D02*
X55222000Y-70169000D01*
G75*
G02*
X55072000Y-70019000I0J150000D01*
G01*
X55072000Y-68344000D01*
G75*
G02*
X55222000Y-68194000I150000J0D01*
G01*
X55522000Y-68194000D01*
G75*
G02*
X55672000Y-68344000I0J-150000D01*
G01*
X55672000Y-70019000D01*
G75*
G02*
X55522000Y-70169000I-150000J0D01*
G01*
G37*
%TD.AperFunction*%
%TO.P,U2,13*%
%TO.N,BUF2*%
%TA.AperFunction,SMDPad,CuDef*%
G36*
G01*
X54252000Y-70169000D02*
X53952000Y-70169000D01*
G75*
G02*
X53802000Y-70019000I0J150000D01*
G01*
X53802000Y-68344000D01*
G75*
G02*
X53952000Y-68194000I150000J0D01*
G01*
X54252000Y-68194000D01*
G75*
G02*
X54402000Y-68344000I0J-150000D01*
G01*
X54402000Y-70019000D01*
G75*
G02*
X54252000Y-70169000I-150000J0D01*
G01*
G37*
%TD.AperFunction*%
%TO.P,U2,14*%
%TO.N,BUF3*%
%TA.AperFunction,SMDPad,CuDef*%
G36*
G01*
X52982000Y-70169000D02*
X52682000Y-70169000D01*
G75*
G02*
X52532000Y-70019000I0J150000D01*
G01*
X52532000Y-68344000D01*
G75*
G02*
X52682000Y-68194000I150000J0D01*
G01*
X52982000Y-68194000D01*
G75*
G02*
X53132000Y-68344000I0J-150000D01*
G01*
X53132000Y-70019000D01*
G75*
G02*
X52982000Y-70169000I-150000J0D01*
G01*
G37*
%TD.AperFunction*%
%TO.P,U2,15*%
%TO.N,BUF4*%
%TA.AperFunction,SMDPad,CuDef*%
G36*
G01*
X51712000Y-70169000D02*
X51412000Y-70169000D01*
G75*
G02*
X51262000Y-70019000I0J150000D01*
G01*
X51262000Y-68344000D01*
G75*
G02*
X51412000Y-68194000I150000J0D01*
G01*
X51712000Y-68194000D01*
G75*
G02*
X51862000Y-68344000I0J-150000D01*
G01*
X51862000Y-70019000D01*
G75*
G02*
X51712000Y-70169000I-150000J0D01*
G01*
G37*
%TD.AperFunction*%
%TO.P,U2,16*%
%TO.N,BUF5*%
%TA.AperFunction,SMDPad,CuDef*%
G36*
G01*
X50442000Y-70169000D02*
X50142000Y-70169000D01*
G75*
G02*
X49992000Y-70019000I0J150000D01*
G01*
X49992000Y-68344000D01*
G75*
G02*
X50142000Y-68194000I150000J0D01*
G01*
X50442000Y-68194000D01*
G75*
G02*
X50592000Y-68344000I0J-150000D01*
G01*
X50592000Y-70019000D01*
G75*
G02*
X50442000Y-70169000I-150000J0D01*
G01*
G37*
%TD.AperFunction*%
%TO.P,U2,17*%
%TO.N,BUF6*%
%TA.AperFunction,SMDPad,CuDef*%
G36*
G01*
X49172000Y-70169000D02*
X48872000Y-70169000D01*
G75*
G02*
X48722000Y-70019000I0J150000D01*
G01*
X48722000Y-68344000D01*
G75*
G02*
X48872000Y-68194000I150000J0D01*
G01*
X49172000Y-68194000D01*
G75*
G02*
X49322000Y-68344000I0J-150000D01*
G01*
X49322000Y-70019000D01*
G75*
G02*
X49172000Y-70169000I-150000J0D01*
G01*
G37*
%TD.AperFunction*%
%TO.P,U2,18*%
%TO.N,BUF7*%
%TA.AperFunction,SMDPad,CuDef*%
G36*
G01*
X47902000Y-70169000D02*
X47602000Y-70169000D01*
G75*
G02*
X47452000Y-70019000I0J150000D01*
G01*
X47452000Y-68344000D01*
G75*
G02*
X47602000Y-68194000I150000J0D01*
G01*
X47902000Y-68194000D01*
G75*
G02*
X48052000Y-68344000I0J-150000D01*
G01*
X48052000Y-70019000D01*
G75*
G02*
X47902000Y-70169000I-150000J0D01*
G01*
G37*
%TD.AperFunction*%
%TO.P,U2,19*%
%TO.N,GND*%
%TA.AperFunction,SMDPad,CuDef*%
G36*
G01*
X46632000Y-70169000D02*
X46332000Y-70169000D01*
G75*
G02*
X46182000Y-70019000I0J150000D01*
G01*
X46182000Y-68344000D01*
G75*
G02*
X46332000Y-68194000I150000J0D01*
G01*
X46632000Y-68194000D01*
G75*
G02*
X46782000Y-68344000I0J-150000D01*
G01*
X46782000Y-70019000D01*
G75*
G02*
X46632000Y-70169000I-150000J0D01*
G01*
G37*
%TD.AperFunction*%
%TO.P,U2,20*%
%TO.N,+5V*%
%TA.AperFunction,SMDPad,CuDef*%
G36*
G01*
X45362000Y-70169000D02*
X45062000Y-70169000D01*
G75*
G02*
X44912000Y-70019000I0J150000D01*
G01*
X44912000Y-68344000D01*
G75*
G02*
X45062000Y-68194000I150000J0D01*
G01*
X45362000Y-68194000D01*
G75*
G02*
X45512000Y-68344000I0J-150000D01*
G01*
X45512000Y-70019000D01*
G75*
G02*
X45362000Y-70169000I-150000J0D01*
G01*
G37*
%TD.AperFunction*%
%TD*%
%TO.P,R13,2*%
%TO.N,Net-(LED1-Pad3)*%
%TA.AperFunction,SMDPad,CuDef*%
G36*
G01*
X54323250Y-49650000D02*
X53810750Y-49650000D01*
G75*
G02*
X53592000Y-49431250I0J218750D01*
G01*
X53592000Y-48993750D01*
G75*
G02*
X53810750Y-48775000I218750J0D01*
G01*
X54323250Y-48775000D01*
G75*
G02*
X54542000Y-48993750I0J-218750D01*
G01*
X54542000Y-49431250D01*
G75*
G02*
X54323250Y-49650000I-218750J0D01*
G01*
G37*
%TD.AperFunction*%
%TO.P,R13,1*%
%TO.N,DP*%
%TA.AperFunction,SMDPad,CuDef*%
G36*
G01*
X54323250Y-51225000D02*
X53810750Y-51225000D01*
G75*
G02*
X53592000Y-51006250I0J218750D01*
G01*
X53592000Y-50568750D01*
G75*
G02*
X53810750Y-50350000I218750J0D01*
G01*
X54323250Y-50350000D01*
G75*
G02*
X54542000Y-50568750I0J-218750D01*
G01*
X54542000Y-51006250D01*
G75*
G02*
X54323250Y-51225000I-218750J0D01*
G01*
G37*
%TD.AperFunction*%
%TD*%
%TO.P,R12,2*%
%TO.N,Net-(LED1-Pad5)*%
%TA.AperFunction,SMDPad,CuDef*%
G36*
G01*
X57523250Y-49650000D02*
X57010750Y-49650000D01*
G75*
G02*
X56792000Y-49431250I0J218750D01*
G01*
X56792000Y-48993750D01*
G75*
G02*
X57010750Y-48775000I218750J0D01*
G01*
X57523250Y-48775000D01*
G75*
G02*
X57742000Y-48993750I0J-218750D01*
G01*
X57742000Y-49431250D01*
G75*
G02*
X57523250Y-49650000I-218750J0D01*
G01*
G37*
%TD.AperFunction*%
%TO.P,R12,1*%
%TO.N,G*%
%TA.AperFunction,SMDPad,CuDef*%
G36*
G01*
X57523250Y-51225000D02*
X57010750Y-51225000D01*
G75*
G02*
X56792000Y-51006250I0J218750D01*
G01*
X56792000Y-50568750D01*
G75*
G02*
X57010750Y-50350000I218750J0D01*
G01*
X57523250Y-50350000D01*
G75*
G02*
X57742000Y-50568750I0J-218750D01*
G01*
X57742000Y-51006250D01*
G75*
G02*
X57523250Y-51225000I-218750J0D01*
G01*
G37*
%TD.AperFunction*%
%TD*%
%TO.P,R11,2*%
%TO.N,Net-(LED1-Pad10)*%
%TA.AperFunction,SMDPad,CuDef*%
G36*
G01*
X63923250Y-49650000D02*
X63410750Y-49650000D01*
G75*
G02*
X63192000Y-49431250I0J218750D01*
G01*
X63192000Y-48993750D01*
G75*
G02*
X63410750Y-48775000I218750J0D01*
G01*
X63923250Y-48775000D01*
G75*
G02*
X64142000Y-48993750I0J-218750D01*
G01*
X64142000Y-49431250D01*
G75*
G02*
X63923250Y-49650000I-218750J0D01*
G01*
G37*
%TD.AperFunction*%
%TO.P,R11,1*%
%TO.N,F*%
%TA.AperFunction,SMDPad,CuDef*%
G36*
G01*
X63923250Y-51225000D02*
X63410750Y-51225000D01*
G75*
G02*
X63192000Y-51006250I0J218750D01*
G01*
X63192000Y-50568750D01*
G75*
G02*
X63410750Y-50350000I218750J0D01*
G01*
X63923250Y-50350000D01*
G75*
G02*
X64142000Y-50568750I0J-218750D01*
G01*
X64142000Y-51006250D01*
G75*
G02*
X63923250Y-51225000I-218750J0D01*
G01*
G37*
%TD.AperFunction*%
%TD*%
%TO.P,R10,2*%
%TO.N,Net-(LED1-Pad1)*%
%TA.AperFunction,SMDPad,CuDef*%
G36*
G01*
X60723250Y-49650000D02*
X60210750Y-49650000D01*
G75*
G02*
X59992000Y-49431250I0J218750D01*
G01*
X59992000Y-48993750D01*
G75*
G02*
X60210750Y-48775000I218750J0D01*
G01*
X60723250Y-48775000D01*
G75*
G02*
X60942000Y-48993750I0J-218750D01*
G01*
X60942000Y-49431250D01*
G75*
G02*
X60723250Y-49650000I-218750J0D01*
G01*
G37*
%TD.AperFunction*%
%TO.P,R10,1*%
%TO.N,E*%
%TA.AperFunction,SMDPad,CuDef*%
G36*
G01*
X60723250Y-51225000D02*
X60210750Y-51225000D01*
G75*
G02*
X59992000Y-51006250I0J218750D01*
G01*
X59992000Y-50568750D01*
G75*
G02*
X60210750Y-50350000I218750J0D01*
G01*
X60723250Y-50350000D01*
G75*
G02*
X60942000Y-50568750I0J-218750D01*
G01*
X60942000Y-51006250D01*
G75*
G02*
X60723250Y-51225000I-218750J0D01*
G01*
G37*
%TD.AperFunction*%
%TD*%
%TO.P,R9,2*%
%TO.N,Net-(LED1-Pad2)*%
%TA.AperFunction,SMDPad,CuDef*%
G36*
G01*
X59123250Y-49650000D02*
X58610750Y-49650000D01*
G75*
G02*
X58392000Y-49431250I0J218750D01*
G01*
X58392000Y-48993750D01*
G75*
G02*
X58610750Y-48775000I218750J0D01*
G01*
X59123250Y-48775000D01*
G75*
G02*
X59342000Y-48993750I0J-218750D01*
G01*
X59342000Y-49431250D01*
G75*
G02*
X59123250Y-49650000I-218750J0D01*
G01*
G37*
%TD.AperFunction*%
%TO.P,R9,1*%
%TO.N,D*%
%TA.AperFunction,SMDPad,CuDef*%
G36*
G01*
X59123250Y-51225000D02*
X58610750Y-51225000D01*
G75*
G02*
X58392000Y-51006250I0J218750D01*
G01*
X58392000Y-50568750D01*
G75*
G02*
X58610750Y-50350000I218750J0D01*
G01*
X59123250Y-50350000D01*
G75*
G02*
X59342000Y-50568750I0J-218750D01*
G01*
X59342000Y-51006250D01*
G75*
G02*
X59123250Y-51225000I-218750J0D01*
G01*
G37*
%TD.AperFunction*%
%TD*%
%TO.P,R8,2*%
%TO.N,Net-(LED1-Pad4)*%
%TA.AperFunction,SMDPad,CuDef*%
G36*
G01*
X55923250Y-49650000D02*
X55410750Y-49650000D01*
G75*
G02*
X55192000Y-49431250I0J218750D01*
G01*
X55192000Y-48993750D01*
G75*
G02*
X55410750Y-48775000I218750J0D01*
G01*
X55923250Y-48775000D01*
G75*
G02*
X56142000Y-48993750I0J-218750D01*
G01*
X56142000Y-49431250D01*
G75*
G02*
X55923250Y-49650000I-218750J0D01*
G01*
G37*
%TD.AperFunction*%
%TO.P,R8,1*%
%TO.N,C*%
%TA.AperFunction,SMDPad,CuDef*%
G36*
G01*
X55923250Y-51225000D02*
X55410750Y-51225000D01*
G75*
G02*
X55192000Y-51006250I0J218750D01*
G01*
X55192000Y-50568750D01*
G75*
G02*
X55410750Y-50350000I218750J0D01*
G01*
X55923250Y-50350000D01*
G75*
G02*
X56142000Y-50568750I0J-218750D01*
G01*
X56142000Y-51006250D01*
G75*
G02*
X55923250Y-51225000I-218750J0D01*
G01*
G37*
%TD.AperFunction*%
%TD*%
%TO.P,R7,2*%
%TO.N,Net-(LED1-Pad7)*%
%TA.AperFunction,SMDPad,CuDef*%
G36*
G01*
X65523250Y-49650000D02*
X65010750Y-49650000D01*
G75*
G02*
X64792000Y-49431250I0J218750D01*
G01*
X64792000Y-48993750D01*
G75*
G02*
X65010750Y-48775000I218750J0D01*
G01*
X65523250Y-48775000D01*
G75*
G02*
X65742000Y-48993750I0J-218750D01*
G01*
X65742000Y-49431250D01*
G75*
G02*
X65523250Y-49650000I-218750J0D01*
G01*
G37*
%TD.AperFunction*%
%TO.P,R7,1*%
%TO.N,B*%
%TA.AperFunction,SMDPad,CuDef*%
G36*
G01*
X65523250Y-51225000D02*
X65010750Y-51225000D01*
G75*
G02*
X64792000Y-51006250I0J218750D01*
G01*
X64792000Y-50568750D01*
G75*
G02*
X65010750Y-50350000I218750J0D01*
G01*
X65523250Y-50350000D01*
G75*
G02*
X65742000Y-50568750I0J-218750D01*
G01*
X65742000Y-51006250D01*
G75*
G02*
X65523250Y-51225000I-218750J0D01*
G01*
G37*
%TD.AperFunction*%
%TD*%
%TO.P,R6,2*%
%TO.N,Net-(LED1-Pad11)*%
%TA.AperFunction,SMDPad,CuDef*%
G36*
G01*
X62323250Y-49650000D02*
X61810750Y-49650000D01*
G75*
G02*
X61592000Y-49431250I0J218750D01*
G01*
X61592000Y-48993750D01*
G75*
G02*
X61810750Y-48775000I218750J0D01*
G01*
X62323250Y-48775000D01*
G75*
G02*
X62542000Y-48993750I0J-218750D01*
G01*
X62542000Y-49431250D01*
G75*
G02*
X62323250Y-49650000I-218750J0D01*
G01*
G37*
%TD.AperFunction*%
%TO.P,R6,1*%
%TO.N,A*%
%TA.AperFunction,SMDPad,CuDef*%
G36*
G01*
X62323250Y-51225000D02*
X61810750Y-51225000D01*
G75*
G02*
X61592000Y-51006250I0J218750D01*
G01*
X61592000Y-50568750D01*
G75*
G02*
X61810750Y-50350000I218750J0D01*
G01*
X62323250Y-50350000D01*
G75*
G02*
X62542000Y-50568750I0J-218750D01*
G01*
X62542000Y-51006250D01*
G75*
G02*
X62323250Y-51225000I-218750J0D01*
G01*
G37*
%TD.AperFunction*%
%TD*%
%TO.P,R5,2*%
%TO.N,DIG3*%
%TA.AperFunction,SMDPad,CuDef*%
G36*
G01*
X39759750Y-76602500D02*
X40272250Y-76602500D01*
G75*
G02*
X40491000Y-76821250I0J-218750D01*
G01*
X40491000Y-77258750D01*
G75*
G02*
X40272250Y-77477500I-218750J0D01*
G01*
X39759750Y-77477500D01*
G75*
G02*
X39541000Y-77258750I0J218750D01*
G01*
X39541000Y-76821250D01*
G75*
G02*
X39759750Y-76602500I218750J0D01*
G01*
G37*
%TD.AperFunction*%
%TO.P,R5,1*%
%TO.N,+5V*%
%TA.AperFunction,SMDPad,CuDef*%
G36*
G01*
X39759750Y-75027500D02*
X40272250Y-75027500D01*
G75*
G02*
X40491000Y-75246250I0J-218750D01*
G01*
X40491000Y-75683750D01*
G75*
G02*
X40272250Y-75902500I-218750J0D01*
G01*
X39759750Y-75902500D01*
G75*
G02*
X39541000Y-75683750I0J218750D01*
G01*
X39541000Y-75246250D01*
G75*
G02*
X39759750Y-75027500I218750J0D01*
G01*
G37*
%TD.AperFunction*%
%TD*%
%TO.P,R4,2*%
%TO.N,DIG2*%
%TA.AperFunction,SMDPad,CuDef*%
G36*
G01*
X39759750Y-72936500D02*
X40272250Y-72936500D01*
G75*
G02*
X40491000Y-73155250I0J-218750D01*
G01*
X40491000Y-73592750D01*
G75*
G02*
X40272250Y-73811500I-218750J0D01*
G01*
X39759750Y-73811500D01*
G75*
G02*
X39541000Y-73592750I0J218750D01*
G01*
X39541000Y-73155250D01*
G75*
G02*
X39759750Y-72936500I218750J0D01*
G01*
G37*
%TD.AperFunction*%
%TO.P,R4,1*%
%TO.N,+5V*%
%TA.AperFunction,SMDPad,CuDef*%
G36*
G01*
X39759750Y-71361500D02*
X40272250Y-71361500D01*
G75*
G02*
X40491000Y-71580250I0J-218750D01*
G01*
X40491000Y-72017750D01*
G75*
G02*
X40272250Y-72236500I-218750J0D01*
G01*
X39759750Y-72236500D01*
G75*
G02*
X39541000Y-72017750I0J218750D01*
G01*
X39541000Y-71580250D01*
G75*
G02*
X39759750Y-71361500I218750J0D01*
G01*
G37*
%TD.AperFunction*%
%TD*%
%TO.P,R3,2*%
%TO.N,DIG1*%
%TA.AperFunction,SMDPad,CuDef*%
G36*
G01*
X39759750Y-69270500D02*
X40272250Y-69270500D01*
G75*
G02*
X40491000Y-69489250I0J-218750D01*
G01*
X40491000Y-69926750D01*
G75*
G02*
X40272250Y-70145500I-218750J0D01*
G01*
X39759750Y-70145500D01*
G75*
G02*
X39541000Y-69926750I0J218750D01*
G01*
X39541000Y-69489250D01*
G75*
G02*
X39759750Y-69270500I218750J0D01*
G01*
G37*
%TD.AperFunction*%
%TO.P,R3,1*%
%TO.N,+5V*%
%TA.AperFunction,SMDPad,CuDef*%
G36*
G01*
X39759750Y-67695500D02*
X40272250Y-67695500D01*
G75*
G02*
X40491000Y-67914250I0J-218750D01*
G01*
X40491000Y-68351750D01*
G75*
G02*
X40272250Y-68570500I-218750J0D01*
G01*
X39759750Y-68570500D01*
G75*
G02*
X39541000Y-68351750I0J218750D01*
G01*
X39541000Y-67914250D01*
G75*
G02*
X39759750Y-67695500I218750J0D01*
G01*
G37*
%TD.AperFunction*%
%TD*%
%TO.P,R2,2*%
%TO.N,Net-(J1-Pad2)*%
%TA.AperFunction,SMDPad,CuDef*%
G36*
G01*
X61470250Y-62261000D02*
X60957750Y-62261000D01*
G75*
G02*
X60739000Y-62042250I0J218750D01*
G01*
X60739000Y-61604750D01*
G75*
G02*
X60957750Y-61386000I218750J0D01*
G01*
X61470250Y-61386000D01*
G75*
G02*
X61689000Y-61604750I0J-218750D01*
G01*
X61689000Y-62042250D01*
G75*
G02*
X61470250Y-62261000I-218750J0D01*
G01*
G37*
%TD.AperFunction*%
%TO.P,R2,1*%
%TO.N,+5V*%
%TA.AperFunction,SMDPad,CuDef*%
G36*
G01*
X61470250Y-63836000D02*
X60957750Y-63836000D01*
G75*
G02*
X60739000Y-63617250I0J218750D01*
G01*
X60739000Y-63179750D01*
G75*
G02*
X60957750Y-62961000I218750J0D01*
G01*
X61470250Y-62961000D01*
G75*
G02*
X61689000Y-63179750I0J-218750D01*
G01*
X61689000Y-63617250D01*
G75*
G02*
X61470250Y-63836000I-218750J0D01*
G01*
G37*
%TD.AperFunction*%
%TD*%
%TO.P,R1,2*%
%TO.N,~MCLR*%
%TA.AperFunction,SMDPad,CuDef*%
G36*
G01*
X40129750Y-61056000D02*
X40642250Y-61056000D01*
G75*
G02*
X40861000Y-61274750I0J-218750D01*
G01*
X40861000Y-61712250D01*
G75*
G02*
X40642250Y-61931000I-218750J0D01*
G01*
X40129750Y-61931000D01*
G75*
G02*
X39911000Y-61712250I0J218750D01*
G01*
X39911000Y-61274750D01*
G75*
G02*
X40129750Y-61056000I218750J0D01*
G01*
G37*
%TD.AperFunction*%
%TO.P,R1,1*%
%TO.N,+5V*%
%TA.AperFunction,SMDPad,CuDef*%
G36*
G01*
X40129750Y-59481000D02*
X40642250Y-59481000D01*
G75*
G02*
X40861000Y-59699750I0J-218750D01*
G01*
X40861000Y-60137250D01*
G75*
G02*
X40642250Y-60356000I-218750J0D01*
G01*
X40129750Y-60356000D01*
G75*
G02*
X39911000Y-60137250I0J218750D01*
G01*
X39911000Y-59699750D01*
G75*
G02*
X40129750Y-59481000I218750J0D01*
G01*
G37*
%TD.AperFunction*%
%TD*%
D11*
%TO.P,LED1,7*%
%TO.N,Net-(LED1-Pad7)*%
X57200000Y-33828000D03*
%TO.P,LED1,4*%
%TO.N,Net-(LED1-Pad4)*%
X52120000Y-46528000D03*
%TO.P,LED1,12*%
%TO.N,Net-(LED1-Pad12)*%
X44500000Y-33828000D03*
%TO.P,LED1,9*%
%TO.N,Net-(LED1-Pad9)*%
X52120000Y-33828000D03*
D12*
%TO.P,LED1,1*%
%TO.N,Net-(LED1-Pad1)*%
X44500000Y-46528000D03*
D11*
%TO.P,LED1,8*%
%TO.N,Net-(LED1-Pad8)*%
X54660000Y-33828000D03*
%TO.P,LED1,11*%
%TO.N,Net-(LED1-Pad11)*%
X47040000Y-33828000D03*
%TO.P,LED1,3*%
%TO.N,Net-(LED1-Pad3)*%
X49580000Y-46528000D03*
%TO.P,LED1,10*%
%TO.N,Net-(LED1-Pad10)*%
X49580000Y-33828000D03*
%TO.P,LED1,5*%
%TO.N,Net-(LED1-Pad5)*%
X54660000Y-46528000D03*
%TO.P,LED1,2*%
%TO.N,Net-(LED1-Pad2)*%
X47040000Y-46528000D03*
%TD*%
D13*
%TO.P,J4,2*%
%TO.N,GND*%
X65278000Y-71091000D03*
D14*
%TO.P,J4,1*%
%TO.N,+5V*%
X65278000Y-68551000D03*
%TD*%
D13*
%TO.P,J3,8*%
%TO.N,Net-(J3-Pad8)*%
X59780000Y-79756000D03*
%TO.P,J3,7*%
%TO.N,Net-(J3-Pad7)*%
X57240000Y-79756000D03*
%TO.P,J3,6*%
%TO.N,Net-(J3-Pad6)*%
X54700000Y-79756000D03*
%TO.P,J3,5*%
%TO.N,Net-(J3-Pad5)*%
X52160000Y-79756000D03*
%TO.P,J3,4*%
%TO.N,Net-(J3-Pad4)*%
X49620000Y-79756000D03*
%TO.P,J3,3*%
%TO.N,Net-(J3-Pad3)*%
X47080000Y-79756000D03*
%TO.P,J3,2*%
%TO.N,Net-(J3-Pad2)*%
X44540000Y-79756000D03*
D14*
%TO.P,J3,1*%
%TO.N,Net-(J3-Pad1)*%
X42000000Y-79756000D03*
%TD*%
%TO.P,J2,1*%
%TO.N,~MCLR*%
X37465000Y-60452000D03*
D13*
%TO.P,J2,2*%
%TO.N,+5V*%
X37465000Y-57912000D03*
%TO.P,J2,3*%
%TO.N,GND*%
X37465000Y-55372000D03*
%TO.P,J2,4*%
%TO.N,Net-(J2-Pad4)*%
X37465000Y-52832000D03*
%TO.P,J2,5*%
%TO.N,Net-(J2-Pad5)*%
X37465000Y-50292000D03*
%TD*%
%TO.P,J1,3*%
%TO.N,+5V*%
X65278000Y-63571000D03*
%TO.P,J1,2*%
%TO.N,Net-(J1-Pad2)*%
X65278000Y-61031000D03*
D14*
%TO.P,J1,1*%
%TO.N,GND*%
X65278000Y-58491000D03*
%TD*%
%TO.P,C2,2*%
%TO.N,GND*%
%TA.AperFunction,SMDPad,CuDef*%
G36*
G01*
X42923750Y-71216000D02*
X43436250Y-71216000D01*
G75*
G02*
X43655000Y-71434750I0J-218750D01*
G01*
X43655000Y-71872250D01*
G75*
G02*
X43436250Y-72091000I-218750J0D01*
G01*
X42923750Y-72091000D01*
G75*
G02*
X42705000Y-71872250I0J218750D01*
G01*
X42705000Y-71434750D01*
G75*
G02*
X42923750Y-71216000I218750J0D01*
G01*
G37*
%TD.AperFunction*%
%TO.P,C2,1*%
%TO.N,+5V*%
%TA.AperFunction,SMDPad,CuDef*%
G36*
G01*
X42923750Y-69641000D02*
X43436250Y-69641000D01*
G75*
G02*
X43655000Y-69859750I0J-218750D01*
G01*
X43655000Y-70297250D01*
G75*
G02*
X43436250Y-70516000I-218750J0D01*
G01*
X42923750Y-70516000D01*
G75*
G02*
X42705000Y-70297250I0J218750D01*
G01*
X42705000Y-69859750D01*
G75*
G02*
X42923750Y-69641000I218750J0D01*
G01*
G37*
%TD.AperFunction*%
%TD*%
%TO.P,C1,2*%
%TO.N,GND*%
%TA.AperFunction,SMDPad,CuDef*%
G36*
G01*
X52707250Y-49650000D02*
X52194750Y-49650000D01*
G75*
G02*
X51976000Y-49431250I0J218750D01*
G01*
X51976000Y-48993750D01*
G75*
G02*
X52194750Y-48775000I218750J0D01*
G01*
X52707250Y-48775000D01*
G75*
G02*
X52926000Y-48993750I0J-218750D01*
G01*
X52926000Y-49431250D01*
G75*
G02*
X52707250Y-49650000I-218750J0D01*
G01*
G37*
%TD.AperFunction*%
%TO.P,C1,1*%
%TO.N,+5V*%
%TA.AperFunction,SMDPad,CuDef*%
G36*
G01*
X52707250Y-51225000D02*
X52194750Y-51225000D01*
G75*
G02*
X51976000Y-51006250I0J218750D01*
G01*
X51976000Y-50568750D01*
G75*
G02*
X52194750Y-50350000I218750J0D01*
G01*
X52707250Y-50350000D01*
G75*
G02*
X52926000Y-50568750I0J-218750D01*
G01*
X52926000Y-51006250D01*
G75*
G02*
X52707250Y-51225000I-218750J0D01*
G01*
G37*
%TD.AperFunction*%
%TD*%
D15*
%TO.N,GND*%
X43180000Y-72771000D03*
X53975000Y-55245000D03*
X52070000Y-64516000D03*
X46482000Y-70866000D03*
X58039000Y-75946000D03*
X58674000Y-76962000D03*
X43180000Y-55880000D03*
X42672000Y-58420000D03*
X49784000Y-56642000D03*
X49276000Y-59690000D03*
X35814000Y-77978000D03*
X35560000Y-65024000D03*
X63500000Y-38862000D03*
X61468000Y-34036000D03*
X64770000Y-43688000D03*
X37338000Y-46228000D03*
X37338000Y-41402000D03*
X37338000Y-36322000D03*
X43942000Y-43688000D03*
X42926000Y-39624000D03*
X56896000Y-56388000D03*
X62992000Y-77470000D03*
X65278000Y-74422000D03*
X47752000Y-72644000D03*
X65278000Y-77470000D03*
X49974500Y-49212500D03*
D16*
%TO.N,Net-(J1-Pad2)*%
X55753000Y-58928000D03*
X61214000Y-60325000D03*
%TO.N,Net-(LED1-Pad12)*%
X36068000Y-68072000D03*
%TO.N,Net-(LED1-Pad9)*%
X36068000Y-71628000D03*
%TO.N,Net-(LED1-Pad8)*%
X36068000Y-75438000D03*
%TO.N,DIG1*%
X42545000Y-60833000D03*
X41148000Y-65024000D03*
%TO.N,DIG3*%
X45085000Y-60833000D03*
X42926000Y-65024000D03*
%TO.N,DIG2*%
X43815000Y-60833000D03*
X42037000Y-65024000D03*
%TD*%
D17*
%TO.N,GND*%
X53975000Y-53516000D02*
X53975000Y-55245000D01*
X43180000Y-71653500D02*
X43180000Y-72771000D01*
D18*
X51435000Y-63881000D02*
X51435000Y-62816000D01*
X52070000Y-64516000D02*
X51435000Y-63881000D01*
X46482000Y-69181500D02*
X46482000Y-70866000D01*
D17*
X57878500Y-76106500D02*
X56642000Y-76106500D01*
X58039000Y-75946000D02*
X57878500Y-76106500D01*
X60264500Y-76962000D02*
X60388500Y-76838000D01*
X58674000Y-76962000D02*
X60264500Y-76962000D01*
X49974500Y-49212500D02*
X52451000Y-49212500D01*
%TO.N,+5V*%
X38478500Y-68133000D02*
X38316000Y-67970500D01*
X40016000Y-68133000D02*
X38478500Y-68133000D01*
X38478500Y-71799000D02*
X38316000Y-71636500D01*
X40016000Y-71799000D02*
X38478500Y-71799000D01*
X38478500Y-75465000D02*
X38316000Y-75302500D01*
X40016000Y-75465000D02*
X38478500Y-75465000D01*
X37376000Y-67970500D02*
X37338000Y-68008500D01*
X38316000Y-67970500D02*
X37376000Y-67970500D01*
X37393000Y-71636500D02*
X37338000Y-71691500D01*
X38316000Y-71636500D02*
X37393000Y-71636500D01*
X37338000Y-71691500D02*
X37338000Y-68008500D01*
X37338000Y-75302500D02*
X37338000Y-71691500D01*
X38316000Y-75302500D02*
X37338000Y-75302500D01*
X60388500Y-74038000D02*
X60579000Y-74038000D01*
X60391500Y-74041000D02*
X60388500Y-74038000D01*
X36068000Y-62103000D02*
X36068000Y-58674000D01*
X37338000Y-63373000D02*
X36068000Y-62103000D01*
X37338000Y-68008500D02*
X37338000Y-63373000D01*
X65278000Y-63571000D02*
X65278000Y-68551000D01*
X65105500Y-63398500D02*
X65278000Y-63571000D01*
X61214000Y-63398500D02*
X65105500Y-63398500D01*
X62230000Y-70104000D02*
X62230000Y-73660000D01*
X63783000Y-68551000D02*
X62230000Y-70104000D01*
X65278000Y-68551000D02*
X63783000Y-68551000D01*
X44221500Y-70078500D02*
X43180000Y-70078500D01*
X44483500Y-69816500D02*
X44221500Y-70078500D01*
X45212000Y-69816500D02*
X44483500Y-69816500D01*
X45212000Y-76106500D02*
X45212000Y-69816500D01*
X61852000Y-74038000D02*
X62230000Y-73660000D01*
X60388500Y-74038000D02*
X61852000Y-74038000D01*
X58928000Y-74422000D02*
X45212000Y-74422000D01*
X59312000Y-74038000D02*
X58928000Y-74422000D01*
X60388500Y-74038000D02*
X59312000Y-74038000D01*
X37338000Y-77787500D02*
X37338000Y-75302500D01*
X37782500Y-78232000D02*
X37338000Y-77787500D01*
X41656000Y-78232000D02*
X37782500Y-78232000D01*
X43781500Y-76106500D02*
X41656000Y-78232000D01*
X45212000Y-76106500D02*
X43781500Y-76106500D01*
X37465000Y-57912000D02*
X39370000Y-57912000D01*
X40386000Y-58928000D02*
X40386000Y-59918500D01*
X39370000Y-57912000D02*
X40386000Y-58928000D01*
X36068000Y-57912000D02*
X37465000Y-57912000D01*
X36068000Y-58674000D02*
X36068000Y-57912000D01*
X36068000Y-49530000D02*
X36068000Y-58674000D01*
X36830000Y-48768000D02*
X36068000Y-49530000D01*
X43053000Y-48768000D02*
X36830000Y-48768000D01*
X45072500Y-50787500D02*
X43053000Y-48768000D01*
X52451000Y-50787500D02*
X45072500Y-50787500D01*
X52451000Y-51816000D02*
X52451000Y-50787500D01*
X52705000Y-52070000D02*
X52451000Y-51816000D01*
X52705000Y-53516000D02*
X52705000Y-52070000D01*
D18*
%TO.N,Net-(J1-Pad2)*%
X51435000Y-53516000D02*
X51435000Y-58293000D01*
X51435000Y-58293000D02*
X52070000Y-58928000D01*
X52070000Y-58928000D02*
X55753000Y-58928000D01*
X61214000Y-60325000D02*
X61214000Y-61823500D01*
X64445000Y-61031000D02*
X65278000Y-61031000D01*
X63652500Y-61823500D02*
X64445000Y-61031000D01*
X61214000Y-61823500D02*
X63652500Y-61823500D01*
%TO.N,~MCLR*%
X38506500Y-61493500D02*
X37465000Y-60452000D01*
X40386000Y-61493500D02*
X38506500Y-61493500D01*
X42545000Y-62816000D02*
X40718000Y-62816000D01*
X40386000Y-62484000D02*
X40386000Y-61493500D01*
X40718000Y-62816000D02*
X40386000Y-62484000D01*
%TO.N,Net-(J3-Pad8)*%
X59780000Y-80138000D02*
X59780000Y-78957000D01*
X59780000Y-78957000D02*
X58547000Y-77724000D01*
X58547000Y-77724000D02*
X55880000Y-77724000D01*
X55372000Y-77216000D02*
X55372000Y-75979500D01*
X55880000Y-77724000D02*
X55372000Y-77216000D01*
%TO.N,Net-(J3-Pad7)*%
X54102000Y-77216000D02*
X54102000Y-75979500D01*
X56515000Y-78359000D02*
X55245000Y-78359000D01*
X55245000Y-78359000D02*
X54102000Y-77216000D01*
X57240000Y-79084000D02*
X56515000Y-78359000D01*
X57240000Y-80138000D02*
X57240000Y-79084000D01*
%TO.N,Net-(J3-Pad6)*%
X54700000Y-80138000D02*
X54700000Y-79084000D01*
X52832000Y-77216000D02*
X52832000Y-75979500D01*
X54700000Y-79084000D02*
X52832000Y-77216000D01*
%TO.N,Net-(J3-Pad5)*%
X51562000Y-77216000D02*
X51562000Y-75979500D01*
X52160000Y-77814000D02*
X51562000Y-77216000D01*
X52160000Y-80138000D02*
X52160000Y-77814000D01*
%TO.N,Net-(J3-Pad4)*%
X49620000Y-80138000D02*
X49620000Y-77888000D01*
X50292000Y-77216000D02*
X50292000Y-75979500D01*
X49620000Y-77888000D02*
X50292000Y-77216000D01*
%TO.N,Net-(J3-Pad3)*%
X49022000Y-77216000D02*
X49022000Y-75979500D01*
X47080000Y-79158000D02*
X49022000Y-77216000D01*
X47080000Y-80138000D02*
X47080000Y-79158000D01*
%TO.N,Net-(J3-Pad2)*%
X44540000Y-80138000D02*
X44540000Y-79031000D01*
X44540000Y-79031000D02*
X45212000Y-78359000D01*
X47752000Y-77343000D02*
X47752000Y-75979500D01*
X45212000Y-78359000D02*
X46736000Y-78359000D01*
X46736000Y-78359000D02*
X47752000Y-77343000D01*
%TO.N,Net-(J3-Pad1)*%
X46482000Y-77343000D02*
X46482000Y-75979500D01*
X42000000Y-80138000D02*
X42000000Y-78904000D01*
X42000000Y-78904000D02*
X43180000Y-77724000D01*
X46101000Y-77724000D02*
X46482000Y-77343000D01*
X43180000Y-77724000D02*
X46101000Y-77724000D01*
%TO.N,Net-(LED1-Pad7)*%
X65267000Y-46979000D02*
X65267000Y-49212500D01*
X59309000Y-41021000D02*
X65267000Y-46979000D01*
X59309000Y-37465000D02*
X59309000Y-41021000D01*
X57200000Y-35356000D02*
X59309000Y-37465000D01*
X57200000Y-33828000D02*
X57200000Y-35356000D01*
%TO.N,Net-(LED1-Pad4)*%
X55667000Y-48555000D02*
X55667000Y-49212500D01*
X54864000Y-47752000D02*
X55667000Y-48555000D01*
X52324000Y-47752000D02*
X54864000Y-47752000D01*
X52120000Y-47548000D02*
X52324000Y-47752000D01*
X52120000Y-46532000D02*
X52120000Y-47548000D01*
%TO.N,Net-(LED1-Pad12)*%
X36068000Y-68672500D02*
X36316000Y-68920500D01*
X36068000Y-68072000D02*
X36068000Y-68672500D01*
%TO.N,Net-(LED1-Pad9)*%
X36068000Y-72338500D02*
X36316000Y-72586500D01*
X36068000Y-71628000D02*
X36068000Y-72338500D01*
%TO.N,Net-(LED1-Pad1)*%
X60467000Y-47005000D02*
X60467000Y-49212500D01*
X57658000Y-44196000D02*
X60467000Y-47005000D01*
X45720000Y-44196000D02*
X57658000Y-44196000D01*
X44500000Y-45416000D02*
X45720000Y-44196000D01*
X44500000Y-46528000D02*
X44500000Y-45416000D01*
%TO.N,Net-(LED1-Pad8)*%
X36068000Y-76004500D02*
X36316000Y-76252500D01*
X36068000Y-75438000D02*
X36068000Y-76004500D01*
%TO.N,Net-(LED1-Pad11)*%
X48514000Y-36322000D02*
X47040000Y-34848000D01*
X47040000Y-34848000D02*
X47040000Y-33828000D01*
X55626000Y-36322000D02*
X48514000Y-36322000D01*
X57658000Y-38354000D02*
X55626000Y-36322000D01*
X57658000Y-42545000D02*
X57658000Y-38354000D01*
X62067000Y-46954000D02*
X57658000Y-42545000D01*
X62067000Y-49212500D02*
X62067000Y-46954000D01*
%TO.N,Net-(LED1-Pad3)*%
X54067000Y-48606000D02*
X54067000Y-49212500D01*
X53721000Y-48260000D02*
X54067000Y-48606000D01*
X50165000Y-48260000D02*
X53721000Y-48260000D01*
X49580000Y-47675000D02*
X50165000Y-48260000D01*
X49580000Y-46528000D02*
X49580000Y-47675000D01*
%TO.N,Net-(LED1-Pad10)*%
X49580000Y-34848000D02*
X49580000Y-33828000D01*
X50292000Y-35560000D02*
X49580000Y-34848000D01*
X58547000Y-37973000D02*
X56134000Y-35560000D01*
X56134000Y-35560000D02*
X50292000Y-35560000D01*
X58547000Y-41783000D02*
X58547000Y-37973000D01*
X63667000Y-46903000D02*
X58547000Y-41783000D01*
X63667000Y-49212500D02*
X63667000Y-46903000D01*
%TO.N,Net-(LED1-Pad5)*%
X57267000Y-46980000D02*
X56815000Y-46528000D01*
X56815000Y-46528000D02*
X54660000Y-46528000D01*
X57267000Y-49212500D02*
X57267000Y-46980000D01*
%TO.N,Net-(LED1-Pad2)*%
X58867000Y-46929000D02*
X58867000Y-49212500D01*
X56896000Y-44958000D02*
X58867000Y-46929000D01*
X47498000Y-44958000D02*
X56896000Y-44958000D01*
X47040000Y-45416000D02*
X47498000Y-44958000D01*
X47040000Y-46528000D02*
X47040000Y-45416000D01*
%TO.N,DIG1*%
X38478500Y-69708000D02*
X38316000Y-69870500D01*
X40016000Y-69708000D02*
X38478500Y-69708000D01*
X45085000Y-53516000D02*
X45085000Y-58293000D01*
X45085000Y-58293000D02*
X42545000Y-60833000D01*
X40845500Y-69708000D02*
X40016000Y-69708000D01*
X41148000Y-69405500D02*
X40845500Y-69708000D01*
X41148000Y-65024000D02*
X41148000Y-69405500D01*
%TO.N,BUF6*%
X49022000Y-70358000D02*
X49022000Y-69181500D01*
X51816000Y-73152000D02*
X49022000Y-70358000D01*
X58420000Y-73152000D02*
X51816000Y-73152000D01*
X59944000Y-71628000D02*
X58420000Y-73152000D01*
X59944000Y-66040000D02*
X59944000Y-71628000D01*
X54610000Y-64770000D02*
X58674000Y-64770000D01*
X53975000Y-64135000D02*
X54610000Y-64770000D01*
X58674000Y-64770000D02*
X59944000Y-66040000D01*
X53975000Y-62816000D02*
X53975000Y-64135000D01*
%TO.N,BUF7*%
X52705000Y-61595000D02*
X52705000Y-62816000D01*
X53086000Y-61214000D02*
X52705000Y-61595000D01*
X54102000Y-61214000D02*
X53086000Y-61214000D01*
X58928000Y-64262000D02*
X54864000Y-64262000D01*
X60452000Y-65786000D02*
X58928000Y-64262000D01*
X60452000Y-71882000D02*
X60452000Y-65786000D01*
X54610000Y-64008000D02*
X54610000Y-61722000D01*
X58674000Y-73660000D02*
X60452000Y-71882000D01*
X51054000Y-73660000D02*
X58674000Y-73660000D01*
X54610000Y-61722000D02*
X54102000Y-61214000D01*
X54864000Y-64262000D02*
X54610000Y-64008000D01*
X47752000Y-70358000D02*
X51054000Y-73660000D01*
X47752000Y-69181500D02*
X47752000Y-70358000D01*
%TO.N,A*%
X56515000Y-61214000D02*
X56515000Y-62816000D01*
X62067000Y-50787500D02*
X62067000Y-55662000D01*
X62067000Y-55662000D02*
X62039500Y-55689500D01*
X62039500Y-55689500D02*
X56515000Y-61214000D01*
%TO.N,B*%
X59055000Y-60960000D02*
X59055000Y-62816000D01*
X65267000Y-54726000D02*
X65278000Y-54737000D01*
X65267000Y-50787500D02*
X65267000Y-54726000D01*
X65278000Y-54737000D02*
X59055000Y-60960000D01*
%TO.N,C*%
X55667000Y-51349000D02*
X55667000Y-50787500D01*
X56515000Y-52197000D02*
X55667000Y-51349000D01*
X56515000Y-53516000D02*
X56515000Y-52197000D01*
%TO.N,D*%
X58867000Y-52009000D02*
X58867000Y-50787500D01*
X59055000Y-52197000D02*
X58867000Y-52009000D01*
X59055000Y-53516000D02*
X59055000Y-52197000D01*
%TO.N,E*%
X55245000Y-61404500D02*
X55245000Y-62816000D01*
X60467000Y-56149000D02*
X60483750Y-56165750D01*
X60467000Y-50787500D02*
X60467000Y-56149000D01*
X60483750Y-56165750D02*
X55245000Y-61404500D01*
%TO.N,F*%
X57785000Y-61087000D02*
X57785000Y-62816000D01*
X63667000Y-55205000D02*
X63627000Y-55245000D01*
X63667000Y-50787500D02*
X63667000Y-55205000D01*
X63627000Y-55245000D02*
X57785000Y-61087000D01*
%TO.N,G*%
X57785000Y-52197000D02*
X57785000Y-53516000D01*
X57267000Y-51679000D02*
X57785000Y-52197000D01*
X57267000Y-50787500D02*
X57267000Y-51679000D01*
%TO.N,DP*%
X54102000Y-50822500D02*
X54067000Y-50787500D01*
X54067000Y-51019000D02*
X54067000Y-50787500D01*
X55245000Y-52197000D02*
X54067000Y-51019000D01*
X55245000Y-53516000D02*
X55245000Y-52197000D01*
%TO.N,BUF5*%
X50292000Y-70358000D02*
X50292000Y-69181500D01*
X52578000Y-72644000D02*
X50292000Y-70358000D01*
X58166000Y-72644000D02*
X52578000Y-72644000D01*
X59436000Y-66294000D02*
X59436000Y-71374000D01*
X58420000Y-65278000D02*
X59436000Y-66294000D01*
X50546000Y-65278000D02*
X58420000Y-65278000D01*
X59436000Y-71374000D02*
X58166000Y-72644000D01*
X50165000Y-64897000D02*
X50546000Y-65278000D01*
X50165000Y-62816000D02*
X50165000Y-64897000D01*
%TO.N,BUF4*%
X57912000Y-72136000D02*
X53340000Y-72136000D01*
X58928000Y-71120000D02*
X57912000Y-72136000D01*
X53340000Y-72136000D02*
X51562000Y-70358000D01*
X58928000Y-66548000D02*
X58928000Y-71120000D01*
X58166000Y-65786000D02*
X58928000Y-66548000D01*
X49276000Y-65786000D02*
X58166000Y-65786000D01*
X51562000Y-70358000D02*
X51562000Y-69181500D01*
X48895000Y-65405000D02*
X49276000Y-65786000D01*
X48895000Y-62816000D02*
X48895000Y-65405000D01*
%TO.N,BUF3*%
X52832000Y-70358000D02*
X52832000Y-69181500D01*
X54102000Y-71628000D02*
X52832000Y-70358000D01*
X57658000Y-71628000D02*
X54102000Y-71628000D01*
X58420000Y-66802000D02*
X58420000Y-70866000D01*
X58420000Y-70866000D02*
X57658000Y-71628000D01*
X57912000Y-66294000D02*
X58420000Y-66802000D01*
X47625000Y-65849500D02*
X48069500Y-66294000D01*
X48069500Y-66294000D02*
X57912000Y-66294000D01*
X47625000Y-62816000D02*
X47625000Y-65849500D01*
%TO.N,BUF2*%
X54864000Y-71120000D02*
X54102000Y-70358000D01*
X57404000Y-71120000D02*
X54864000Y-71120000D01*
X57912000Y-70612000D02*
X57404000Y-71120000D01*
X56896000Y-66802000D02*
X57912000Y-67818000D01*
X57912000Y-67818000D02*
X57912000Y-70612000D01*
X46990000Y-66802000D02*
X56896000Y-66802000D01*
X54102000Y-70358000D02*
X54102000Y-69181500D01*
X46355000Y-66167000D02*
X46990000Y-66802000D01*
X46355000Y-62816000D02*
X46355000Y-66167000D01*
%TO.N,BUF1*%
X55372000Y-70358000D02*
X55372000Y-69181500D01*
X55626000Y-70612000D02*
X55372000Y-70358000D01*
X57150000Y-70612000D02*
X55626000Y-70612000D01*
X57404000Y-70358000D02*
X57150000Y-70612000D01*
X57404000Y-68072000D02*
X57404000Y-70358000D01*
X56642000Y-67310000D02*
X57404000Y-68072000D01*
X45085000Y-66675000D02*
X45720000Y-67310000D01*
X45720000Y-67310000D02*
X56642000Y-67310000D01*
X45085000Y-62816000D02*
X45085000Y-66675000D01*
%TO.N,BUF0*%
X44450000Y-67818000D02*
X56388000Y-67818000D01*
X56642000Y-68072000D02*
X56642000Y-69181500D01*
X43815000Y-67183000D02*
X44450000Y-67818000D01*
X56388000Y-67818000D02*
X56642000Y-68072000D01*
X43815000Y-62816000D02*
X43815000Y-67183000D01*
%TO.N,DIG3*%
X38478500Y-77040000D02*
X38316000Y-77202500D01*
X40016000Y-77040000D02*
X38478500Y-77040000D01*
X47625000Y-58293000D02*
X45085000Y-60833000D01*
X47625000Y-53516000D02*
X47625000Y-58293000D01*
X42164000Y-75628500D02*
X40752500Y-77040000D01*
X42164000Y-66548000D02*
X42164000Y-75628500D01*
X42926000Y-65786000D02*
X42164000Y-66548000D01*
X42926000Y-65024000D02*
X42926000Y-65786000D01*
X40752500Y-77040000D02*
X40016000Y-77040000D01*
%TO.N,DIG2*%
X38478500Y-73374000D02*
X38316000Y-73536500D01*
X40016000Y-73374000D02*
X38478500Y-73374000D01*
X46355000Y-58293000D02*
X43815000Y-60833000D01*
X46355000Y-53516000D02*
X46355000Y-58293000D01*
X40735500Y-73374000D02*
X40016000Y-73374000D01*
X41656000Y-72453500D02*
X40735500Y-73374000D01*
X42037000Y-65849500D02*
X41656000Y-66230500D01*
X41656000Y-66230500D02*
X41656000Y-72453500D01*
X42037000Y-65151000D02*
X42037000Y-65849500D01*
%TO.N,Net-(J2-Pad5)*%
X37465000Y-50292000D02*
X41910000Y-50292000D01*
X43815000Y-52197000D02*
X43815000Y-53516000D01*
X41910000Y-50292000D02*
X43815000Y-52197000D01*
%TO.N,Net-(J2-Pad4)*%
X41861000Y-52832000D02*
X42545000Y-53516000D01*
X37465000Y-52832000D02*
X41861000Y-52832000D01*
%TD*%
D19*
%TO.N,GND*%
X63897463Y-69755494D02*
X63976815Y-69852185D01*
X64073506Y-69931537D01*
X64183820Y-69990502D01*
X64264466Y-70014966D01*
X64180412Y-70090731D01*
X64006359Y-70324080D01*
X63881175Y-70586901D01*
X63836524Y-70734110D01*
X63957845Y-70964000D01*
X65151000Y-70964000D01*
X65151000Y-70944000D01*
X65405000Y-70944000D01*
X65405000Y-70964000D01*
X65425000Y-70964000D01*
X65425000Y-71218000D01*
X65405000Y-71218000D01*
X65405000Y-72411814D01*
X65634891Y-72532481D01*
X65909252Y-72435157D01*
X66159355Y-72286178D01*
X66375588Y-72091269D01*
X66549641Y-71857920D01*
X66674825Y-71595099D01*
X66719476Y-71447890D01*
X66598156Y-71218002D01*
X66740001Y-71218002D01*
X66740001Y-81140000D01*
X60319220Y-81140000D01*
X60483411Y-81071990D01*
X60726632Y-80909475D01*
X60933475Y-80702632D01*
X61095990Y-80459411D01*
X61207932Y-80189158D01*
X61265000Y-79902260D01*
X61265000Y-79609740D01*
X61207932Y-79322842D01*
X61095990Y-79052589D01*
X60933475Y-78809368D01*
X60726632Y-78602525D01*
X60483411Y-78440010D01*
X60234859Y-78337057D01*
X59996356Y-78098555D01*
X60102750Y-78098000D01*
X60261500Y-77939250D01*
X60261500Y-76965000D01*
X60515500Y-76965000D01*
X60515500Y-77939250D01*
X60674250Y-78098000D01*
X61263500Y-78101072D01*
X61387982Y-78088812D01*
X61507680Y-78052502D01*
X61617994Y-77993537D01*
X61714685Y-77914185D01*
X61794037Y-77817494D01*
X61853002Y-77707180D01*
X61889312Y-77587482D01*
X61901572Y-77463000D01*
X61898500Y-77123750D01*
X61739750Y-76965000D01*
X60515500Y-76965000D01*
X60261500Y-76965000D01*
X59037250Y-76965000D01*
X58933445Y-77068805D01*
X58839247Y-77018454D01*
X58695986Y-76974997D01*
X58584333Y-76964000D01*
X58584322Y-76964000D01*
X58547000Y-76960324D01*
X58509678Y-76964000D01*
X57579503Y-76964000D01*
X57577000Y-76392250D01*
X57418250Y-76233500D01*
X56769000Y-76233500D01*
X56769000Y-76253500D01*
X56515000Y-76253500D01*
X56515000Y-76233500D01*
X56495000Y-76233500D01*
X56495000Y-76213000D01*
X58875428Y-76213000D01*
X58878500Y-76552250D01*
X59037250Y-76711000D01*
X60261500Y-76711000D01*
X60261500Y-75736750D01*
X60515500Y-75736750D01*
X60515500Y-76711000D01*
X61739750Y-76711000D01*
X61898500Y-76552250D01*
X61901572Y-76213000D01*
X61889312Y-76088518D01*
X61853002Y-75968820D01*
X61794037Y-75858506D01*
X61714685Y-75761815D01*
X61617994Y-75682463D01*
X61507680Y-75623498D01*
X61387982Y-75587188D01*
X61263500Y-75574928D01*
X60674250Y-75578000D01*
X60515500Y-75736750D01*
X60261500Y-75736750D01*
X60102750Y-75578000D01*
X59513500Y-75574928D01*
X59389018Y-75587188D01*
X59269320Y-75623498D01*
X59159006Y-75682463D01*
X59062315Y-75761815D01*
X58982963Y-75858506D01*
X58923998Y-75968820D01*
X58887688Y-76088518D01*
X58875428Y-76213000D01*
X56495000Y-76213000D01*
X56495000Y-75979500D01*
X56515000Y-75979500D01*
X56515000Y-75959500D01*
X56769000Y-75959500D01*
X56769000Y-75979500D01*
X57418250Y-75979500D01*
X57577000Y-75820750D01*
X57579468Y-75257000D01*
X58886982Y-75257000D01*
X58928000Y-75261040D01*
X58969018Y-75257000D01*
X58969019Y-75257000D01*
X59091689Y-75244918D01*
X59249087Y-75197172D01*
X59302412Y-75168669D01*
X59423650Y-75233472D01*
X59590246Y-75284008D01*
X59763500Y-75301072D01*
X61013500Y-75301072D01*
X61186754Y-75284008D01*
X61353350Y-75233472D01*
X61506886Y-75151405D01*
X61641462Y-75040962D01*
X61751905Y-74906386D01*
X61769750Y-74873000D01*
X61810982Y-74873000D01*
X61852000Y-74877040D01*
X61893018Y-74873000D01*
X61893019Y-74873000D01*
X62015689Y-74860918D01*
X62173087Y-74813172D01*
X62318146Y-74735636D01*
X62445291Y-74631291D01*
X62471445Y-74599422D01*
X62791426Y-74279442D01*
X62823291Y-74253291D01*
X62927636Y-74126146D01*
X63005172Y-73981087D01*
X63052918Y-73823689D01*
X63065000Y-73701019D01*
X63065000Y-73701018D01*
X63069040Y-73660000D01*
X63065000Y-73618982D01*
X63065000Y-71447890D01*
X63836524Y-71447890D01*
X63881175Y-71595099D01*
X64006359Y-71857920D01*
X64180412Y-72091269D01*
X64396645Y-72286178D01*
X64646748Y-72435157D01*
X64921109Y-72532481D01*
X65151000Y-72411814D01*
X65151000Y-71218000D01*
X63957845Y-71218000D01*
X63836524Y-71447890D01*
X63065000Y-71447890D01*
X63065000Y-70449867D01*
X63849363Y-69665506D01*
X63897463Y-69755494D01*
%TA.AperFunction,Conductor*%
D20*
G36*
X63897463Y-69755494D02*
G01*
X63976815Y-69852185D01*
X64073506Y-69931537D01*
X64183820Y-69990502D01*
X64264466Y-70014966D01*
X64180412Y-70090731D01*
X64006359Y-70324080D01*
X63881175Y-70586901D01*
X63836524Y-70734110D01*
X63957845Y-70964000D01*
X65151000Y-70964000D01*
X65151000Y-70944000D01*
X65405000Y-70944000D01*
X65405000Y-70964000D01*
X65425000Y-70964000D01*
X65425000Y-71218000D01*
X65405000Y-71218000D01*
X65405000Y-72411814D01*
X65634891Y-72532481D01*
X65909252Y-72435157D01*
X66159355Y-72286178D01*
X66375588Y-72091269D01*
X66549641Y-71857920D01*
X66674825Y-71595099D01*
X66719476Y-71447890D01*
X66598156Y-71218002D01*
X66740001Y-71218002D01*
X66740001Y-81140000D01*
X60319220Y-81140000D01*
X60483411Y-81071990D01*
X60726632Y-80909475D01*
X60933475Y-80702632D01*
X61095990Y-80459411D01*
X61207932Y-80189158D01*
X61265000Y-79902260D01*
X61265000Y-79609740D01*
X61207932Y-79322842D01*
X61095990Y-79052589D01*
X60933475Y-78809368D01*
X60726632Y-78602525D01*
X60483411Y-78440010D01*
X60234859Y-78337057D01*
X59996356Y-78098555D01*
X60102750Y-78098000D01*
X60261500Y-77939250D01*
X60261500Y-76965000D01*
X60515500Y-76965000D01*
X60515500Y-77939250D01*
X60674250Y-78098000D01*
X61263500Y-78101072D01*
X61387982Y-78088812D01*
X61507680Y-78052502D01*
X61617994Y-77993537D01*
X61714685Y-77914185D01*
X61794037Y-77817494D01*
X61853002Y-77707180D01*
X61889312Y-77587482D01*
X61901572Y-77463000D01*
X61898500Y-77123750D01*
X61739750Y-76965000D01*
X60515500Y-76965000D01*
X60261500Y-76965000D01*
X59037250Y-76965000D01*
X58933445Y-77068805D01*
X58839247Y-77018454D01*
X58695986Y-76974997D01*
X58584333Y-76964000D01*
X58584322Y-76964000D01*
X58547000Y-76960324D01*
X58509678Y-76964000D01*
X57579503Y-76964000D01*
X57577000Y-76392250D01*
X57418250Y-76233500D01*
X56769000Y-76233500D01*
X56769000Y-76253500D01*
X56515000Y-76253500D01*
X56515000Y-76233500D01*
X56495000Y-76233500D01*
X56495000Y-76213000D01*
X58875428Y-76213000D01*
X58878500Y-76552250D01*
X59037250Y-76711000D01*
X60261500Y-76711000D01*
X60261500Y-75736750D01*
X60515500Y-75736750D01*
X60515500Y-76711000D01*
X61739750Y-76711000D01*
X61898500Y-76552250D01*
X61901572Y-76213000D01*
X61889312Y-76088518D01*
X61853002Y-75968820D01*
X61794037Y-75858506D01*
X61714685Y-75761815D01*
X61617994Y-75682463D01*
X61507680Y-75623498D01*
X61387982Y-75587188D01*
X61263500Y-75574928D01*
X60674250Y-75578000D01*
X60515500Y-75736750D01*
X60261500Y-75736750D01*
X60102750Y-75578000D01*
X59513500Y-75574928D01*
X59389018Y-75587188D01*
X59269320Y-75623498D01*
X59159006Y-75682463D01*
X59062315Y-75761815D01*
X58982963Y-75858506D01*
X58923998Y-75968820D01*
X58887688Y-76088518D01*
X58875428Y-76213000D01*
X56495000Y-76213000D01*
X56495000Y-75979500D01*
X56515000Y-75979500D01*
X56515000Y-75959500D01*
X56769000Y-75959500D01*
X56769000Y-75979500D01*
X57418250Y-75979500D01*
X57577000Y-75820750D01*
X57579468Y-75257000D01*
X58886982Y-75257000D01*
X58928000Y-75261040D01*
X58969018Y-75257000D01*
X58969019Y-75257000D01*
X59091689Y-75244918D01*
X59249087Y-75197172D01*
X59302412Y-75168669D01*
X59423650Y-75233472D01*
X59590246Y-75284008D01*
X59763500Y-75301072D01*
X61013500Y-75301072D01*
X61186754Y-75284008D01*
X61353350Y-75233472D01*
X61506886Y-75151405D01*
X61641462Y-75040962D01*
X61751905Y-74906386D01*
X61769750Y-74873000D01*
X61810982Y-74873000D01*
X61852000Y-74877040D01*
X61893018Y-74873000D01*
X61893019Y-74873000D01*
X62015689Y-74860918D01*
X62173087Y-74813172D01*
X62318146Y-74735636D01*
X62445291Y-74631291D01*
X62471445Y-74599422D01*
X62791426Y-74279442D01*
X62823291Y-74253291D01*
X62927636Y-74126146D01*
X63005172Y-73981087D01*
X63052918Y-73823689D01*
X63065000Y-73701019D01*
X63065000Y-73701018D01*
X63069040Y-73660000D01*
X63065000Y-73618982D01*
X63065000Y-71447890D01*
X63836524Y-71447890D01*
X63881175Y-71595099D01*
X64006359Y-71857920D01*
X64180412Y-72091269D01*
X64396645Y-72286178D01*
X64646748Y-72435157D01*
X64921109Y-72532481D01*
X65151000Y-72411814D01*
X65151000Y-71218000D01*
X63957845Y-71218000D01*
X63836524Y-71447890D01*
X63065000Y-71447890D01*
X63065000Y-70449867D01*
X63849363Y-69665506D01*
X63897463Y-69755494D01*
G37*
%TD.AperFunction*%
D19*
X44096011Y-32496225D02*
X43843957Y-32600629D01*
X43617114Y-32752201D01*
X43424201Y-32945114D01*
X43272629Y-33171957D01*
X43168225Y-33424011D01*
X43115000Y-33691589D01*
X43115000Y-33964411D01*
X43168225Y-34231989D01*
X43272629Y-34484043D01*
X43424201Y-34710886D01*
X43617114Y-34903799D01*
X43843957Y-35055371D01*
X44096011Y-35159775D01*
X44363589Y-35213000D01*
X44636411Y-35213000D01*
X44903989Y-35159775D01*
X45156043Y-35055371D01*
X45382886Y-34903799D01*
X45575799Y-34710886D01*
X45727371Y-34484043D01*
X45770000Y-34381127D01*
X45812629Y-34484043D01*
X45964201Y-34710886D01*
X46157114Y-34903799D01*
X46290604Y-34992994D01*
X46290997Y-34996985D01*
X46308708Y-35055371D01*
X46334454Y-35140246D01*
X46405026Y-35272276D01*
X46444871Y-35320826D01*
X46499999Y-35388001D01*
X46529003Y-35411804D01*
X47950200Y-36833002D01*
X47973999Y-36862001D01*
X48089724Y-36956974D01*
X48221753Y-37027546D01*
X48365014Y-37071003D01*
X48476667Y-37082000D01*
X48476675Y-37082000D01*
X48514000Y-37085676D01*
X48551325Y-37082000D01*
X55311199Y-37082000D01*
X56898001Y-38668803D01*
X56898000Y-42507677D01*
X56894324Y-42545000D01*
X56898000Y-42582322D01*
X56898000Y-42582332D01*
X56908997Y-42693985D01*
X56952454Y-42837246D01*
X57023026Y-42969276D01*
X57062871Y-43017826D01*
X57117999Y-43085001D01*
X57147003Y-43108804D01*
X57474199Y-43436000D01*
X45757333Y-43436000D01*
X45720000Y-43432323D01*
X45682667Y-43436000D01*
X45571014Y-43446997D01*
X45427753Y-43490454D01*
X45295724Y-43561026D01*
X45179999Y-43655999D01*
X45156201Y-43684997D01*
X43988998Y-44852201D01*
X43960000Y-44875999D01*
X43936202Y-44904997D01*
X43936201Y-44904998D01*
X43865026Y-44991724D01*
X43794454Y-45123754D01*
X43789548Y-45139928D01*
X43750000Y-45139928D01*
X43625518Y-45152188D01*
X43505820Y-45188498D01*
X43395506Y-45247463D01*
X43298815Y-45326815D01*
X43219463Y-45423506D01*
X43160498Y-45533820D01*
X43124188Y-45653518D01*
X43111928Y-45778000D01*
X43111928Y-47278000D01*
X43124188Y-47402482D01*
X43160498Y-47522180D01*
X43219463Y-47632494D01*
X43298815Y-47729185D01*
X43395506Y-47808537D01*
X43505820Y-47867502D01*
X43625518Y-47903812D01*
X43750000Y-47916072D01*
X45250000Y-47916072D01*
X45374482Y-47903812D01*
X45494180Y-47867502D01*
X45604494Y-47808537D01*
X45701185Y-47729185D01*
X45780537Y-47632494D01*
X45839502Y-47522180D01*
X45875812Y-47402482D01*
X45886445Y-47294517D01*
X45964201Y-47410886D01*
X46157114Y-47603799D01*
X46383957Y-47755371D01*
X46636011Y-47859775D01*
X46903589Y-47913000D01*
X47176411Y-47913000D01*
X47443989Y-47859775D01*
X47696043Y-47755371D01*
X47922886Y-47603799D01*
X48115799Y-47410886D01*
X48267371Y-47184043D01*
X48310000Y-47081127D01*
X48352629Y-47184043D01*
X48504201Y-47410886D01*
X48697114Y-47603799D01*
X48817215Y-47684048D01*
X48820001Y-47712333D01*
X48830998Y-47823986D01*
X48838724Y-47849454D01*
X48874454Y-47967246D01*
X48945026Y-48099276D01*
X49016201Y-48186002D01*
X49040000Y-48215001D01*
X49068998Y-48238799D01*
X49601200Y-48771002D01*
X49624999Y-48800001D01*
X49653997Y-48823799D01*
X49740723Y-48894974D01*
X49872753Y-48965546D01*
X50016014Y-49009003D01*
X50127667Y-49020000D01*
X50127677Y-49020000D01*
X50165000Y-49023676D01*
X50202323Y-49020000D01*
X51434250Y-49020000D01*
X51499750Y-49085500D01*
X52324000Y-49085500D01*
X52324000Y-49065500D01*
X52578000Y-49065500D01*
X52578000Y-49085500D01*
X52598000Y-49085500D01*
X52598000Y-49339500D01*
X52578000Y-49339500D01*
X52578000Y-49359500D01*
X52324000Y-49359500D01*
X52324000Y-49339500D01*
X51499750Y-49339500D01*
X51341000Y-49498250D01*
X51337928Y-49650000D01*
X51350188Y-49774482D01*
X51386498Y-49894180D01*
X51417671Y-49952500D01*
X45418368Y-49952500D01*
X43672446Y-48206579D01*
X43646291Y-48174709D01*
X43519146Y-48070364D01*
X43374087Y-47992828D01*
X43216689Y-47945082D01*
X43094019Y-47933000D01*
X43094018Y-47933000D01*
X43053000Y-47928960D01*
X43011982Y-47933000D01*
X36871018Y-47933000D01*
X36830000Y-47928960D01*
X36788982Y-47933000D01*
X36788981Y-47933000D01*
X36666311Y-47945082D01*
X36508913Y-47992828D01*
X36363854Y-48070364D01*
X36290304Y-48130725D01*
X36236709Y-48174709D01*
X36210563Y-48206569D01*
X35506578Y-48910555D01*
X35474709Y-48936709D01*
X35370365Y-49063854D01*
X35370364Y-49063855D01*
X35292828Y-49208914D01*
X35245082Y-49366312D01*
X35228960Y-49530000D01*
X35233000Y-49571019D01*
X35233001Y-57870972D01*
X35228960Y-57912000D01*
X35233000Y-57953019D01*
X35233000Y-58715018D01*
X35233001Y-58715028D01*
X35233000Y-62061981D01*
X35228960Y-62103000D01*
X35233000Y-62144018D01*
X35245082Y-62266688D01*
X35292828Y-62424086D01*
X35370364Y-62569145D01*
X35474709Y-62696291D01*
X35506579Y-62722446D01*
X36503001Y-63718869D01*
X36503000Y-67240146D01*
X36340729Y-67172932D01*
X36160089Y-67137000D01*
X35975911Y-67137000D01*
X35795271Y-67172932D01*
X35625111Y-67243414D01*
X35471972Y-67345738D01*
X35341738Y-67475972D01*
X35239414Y-67629111D01*
X35168932Y-67799271D01*
X35133000Y-67979911D01*
X35133000Y-68164089D01*
X35168932Y-68344729D01*
X35230581Y-68493564D01*
X35227928Y-68520500D01*
X35227928Y-69320500D01*
X35240188Y-69444982D01*
X35276498Y-69564680D01*
X35335463Y-69674994D01*
X35414815Y-69771685D01*
X35511506Y-69851037D01*
X35621820Y-69910002D01*
X35741518Y-69946312D01*
X35866000Y-69958572D01*
X36503000Y-69958572D01*
X36503000Y-70796146D01*
X36340729Y-70728932D01*
X36160089Y-70693000D01*
X35975911Y-70693000D01*
X35795271Y-70728932D01*
X35625111Y-70799414D01*
X35471972Y-70901738D01*
X35341738Y-71031972D01*
X35239414Y-71185111D01*
X35168932Y-71355271D01*
X35133000Y-71535911D01*
X35133000Y-71720089D01*
X35168932Y-71900729D01*
X35239333Y-72070695D01*
X35227928Y-72186500D01*
X35227928Y-72986500D01*
X35240188Y-73110982D01*
X35276498Y-73230680D01*
X35335463Y-73340994D01*
X35414815Y-73437685D01*
X35511506Y-73517037D01*
X35621820Y-73576002D01*
X35741518Y-73612312D01*
X35866000Y-73624572D01*
X36503000Y-73624572D01*
X36503000Y-74606146D01*
X36340729Y-74538932D01*
X36160089Y-74503000D01*
X35975911Y-74503000D01*
X35795271Y-74538932D01*
X35625111Y-74609414D01*
X35471972Y-74711738D01*
X35341738Y-74841972D01*
X35239414Y-74995111D01*
X35168932Y-75165271D01*
X35133000Y-75345911D01*
X35133000Y-75530089D01*
X35168932Y-75710729D01*
X35227928Y-75853159D01*
X35227928Y-76652500D01*
X35240188Y-76776982D01*
X35276498Y-76896680D01*
X35335463Y-77006994D01*
X35414815Y-77103685D01*
X35511506Y-77183037D01*
X35621820Y-77242002D01*
X35741518Y-77278312D01*
X35866000Y-77290572D01*
X36503000Y-77290572D01*
X36503000Y-77746481D01*
X36498960Y-77787500D01*
X36513460Y-77934723D01*
X36515082Y-77951188D01*
X36562828Y-78108586D01*
X36640364Y-78253645D01*
X36744709Y-78380791D01*
X36776578Y-78406945D01*
X37163058Y-78793426D01*
X37189209Y-78825291D01*
X37316354Y-78929636D01*
X37461413Y-79007172D01*
X37618811Y-79054918D01*
X37782500Y-79071040D01*
X37823518Y-79067000D01*
X40511928Y-79067000D01*
X40511928Y-80606000D01*
X40524188Y-80730482D01*
X40560498Y-80850180D01*
X40619463Y-80960494D01*
X40698815Y-81057185D01*
X40795506Y-81136537D01*
X40801985Y-81140000D01*
X35060000Y-81140000D01*
X35060000Y-32460000D01*
X44278125Y-32460000D01*
X44096011Y-32496225D01*
%TA.AperFunction,Conductor*%
D20*
G36*
X44096011Y-32496225D02*
G01*
X43843957Y-32600629D01*
X43617114Y-32752201D01*
X43424201Y-32945114D01*
X43272629Y-33171957D01*
X43168225Y-33424011D01*
X43115000Y-33691589D01*
X43115000Y-33964411D01*
X43168225Y-34231989D01*
X43272629Y-34484043D01*
X43424201Y-34710886D01*
X43617114Y-34903799D01*
X43843957Y-35055371D01*
X44096011Y-35159775D01*
X44363589Y-35213000D01*
X44636411Y-35213000D01*
X44903989Y-35159775D01*
X45156043Y-35055371D01*
X45382886Y-34903799D01*
X45575799Y-34710886D01*
X45727371Y-34484043D01*
X45770000Y-34381127D01*
X45812629Y-34484043D01*
X45964201Y-34710886D01*
X46157114Y-34903799D01*
X46290604Y-34992994D01*
X46290997Y-34996985D01*
X46308708Y-35055371D01*
X46334454Y-35140246D01*
X46405026Y-35272276D01*
X46444871Y-35320826D01*
X46499999Y-35388001D01*
X46529003Y-35411804D01*
X47950200Y-36833002D01*
X47973999Y-36862001D01*
X48089724Y-36956974D01*
X48221753Y-37027546D01*
X48365014Y-37071003D01*
X48476667Y-37082000D01*
X48476675Y-37082000D01*
X48514000Y-37085676D01*
X48551325Y-37082000D01*
X55311199Y-37082000D01*
X56898001Y-38668803D01*
X56898000Y-42507677D01*
X56894324Y-42545000D01*
X56898000Y-42582322D01*
X56898000Y-42582332D01*
X56908997Y-42693985D01*
X56952454Y-42837246D01*
X57023026Y-42969276D01*
X57062871Y-43017826D01*
X57117999Y-43085001D01*
X57147003Y-43108804D01*
X57474199Y-43436000D01*
X45757333Y-43436000D01*
X45720000Y-43432323D01*
X45682667Y-43436000D01*
X45571014Y-43446997D01*
X45427753Y-43490454D01*
X45295724Y-43561026D01*
X45179999Y-43655999D01*
X45156201Y-43684997D01*
X43988998Y-44852201D01*
X43960000Y-44875999D01*
X43936202Y-44904997D01*
X43936201Y-44904998D01*
X43865026Y-44991724D01*
X43794454Y-45123754D01*
X43789548Y-45139928D01*
X43750000Y-45139928D01*
X43625518Y-45152188D01*
X43505820Y-45188498D01*
X43395506Y-45247463D01*
X43298815Y-45326815D01*
X43219463Y-45423506D01*
X43160498Y-45533820D01*
X43124188Y-45653518D01*
X43111928Y-45778000D01*
X43111928Y-47278000D01*
X43124188Y-47402482D01*
X43160498Y-47522180D01*
X43219463Y-47632494D01*
X43298815Y-47729185D01*
X43395506Y-47808537D01*
X43505820Y-47867502D01*
X43625518Y-47903812D01*
X43750000Y-47916072D01*
X45250000Y-47916072D01*
X45374482Y-47903812D01*
X45494180Y-47867502D01*
X45604494Y-47808537D01*
X45701185Y-47729185D01*
X45780537Y-47632494D01*
X45839502Y-47522180D01*
X45875812Y-47402482D01*
X45886445Y-47294517D01*
X45964201Y-47410886D01*
X46157114Y-47603799D01*
X46383957Y-47755371D01*
X46636011Y-47859775D01*
X46903589Y-47913000D01*
X47176411Y-47913000D01*
X47443989Y-47859775D01*
X47696043Y-47755371D01*
X47922886Y-47603799D01*
X48115799Y-47410886D01*
X48267371Y-47184043D01*
X48310000Y-47081127D01*
X48352629Y-47184043D01*
X48504201Y-47410886D01*
X48697114Y-47603799D01*
X48817215Y-47684048D01*
X48820001Y-47712333D01*
X48830998Y-47823986D01*
X48838724Y-47849454D01*
X48874454Y-47967246D01*
X48945026Y-48099276D01*
X49016201Y-48186002D01*
X49040000Y-48215001D01*
X49068998Y-48238799D01*
X49601200Y-48771002D01*
X49624999Y-48800001D01*
X49653997Y-48823799D01*
X49740723Y-48894974D01*
X49872753Y-48965546D01*
X50016014Y-49009003D01*
X50127667Y-49020000D01*
X50127677Y-49020000D01*
X50165000Y-49023676D01*
X50202323Y-49020000D01*
X51434250Y-49020000D01*
X51499750Y-49085500D01*
X52324000Y-49085500D01*
X52324000Y-49065500D01*
X52578000Y-49065500D01*
X52578000Y-49085500D01*
X52598000Y-49085500D01*
X52598000Y-49339500D01*
X52578000Y-49339500D01*
X52578000Y-49359500D01*
X52324000Y-49359500D01*
X52324000Y-49339500D01*
X51499750Y-49339500D01*
X51341000Y-49498250D01*
X51337928Y-49650000D01*
X51350188Y-49774482D01*
X51386498Y-49894180D01*
X51417671Y-49952500D01*
X45418368Y-49952500D01*
X43672446Y-48206579D01*
X43646291Y-48174709D01*
X43519146Y-48070364D01*
X43374087Y-47992828D01*
X43216689Y-47945082D01*
X43094019Y-47933000D01*
X43094018Y-47933000D01*
X43053000Y-47928960D01*
X43011982Y-47933000D01*
X36871018Y-47933000D01*
X36830000Y-47928960D01*
X36788982Y-47933000D01*
X36788981Y-47933000D01*
X36666311Y-47945082D01*
X36508913Y-47992828D01*
X36363854Y-48070364D01*
X36290304Y-48130725D01*
X36236709Y-48174709D01*
X36210563Y-48206569D01*
X35506578Y-48910555D01*
X35474709Y-48936709D01*
X35370365Y-49063854D01*
X35370364Y-49063855D01*
X35292828Y-49208914D01*
X35245082Y-49366312D01*
X35228960Y-49530000D01*
X35233000Y-49571019D01*
X35233001Y-57870972D01*
X35228960Y-57912000D01*
X35233000Y-57953019D01*
X35233000Y-58715018D01*
X35233001Y-58715028D01*
X35233000Y-62061981D01*
X35228960Y-62103000D01*
X35233000Y-62144018D01*
X35245082Y-62266688D01*
X35292828Y-62424086D01*
X35370364Y-62569145D01*
X35474709Y-62696291D01*
X35506579Y-62722446D01*
X36503001Y-63718869D01*
X36503000Y-67240146D01*
X36340729Y-67172932D01*
X36160089Y-67137000D01*
X35975911Y-67137000D01*
X35795271Y-67172932D01*
X35625111Y-67243414D01*
X35471972Y-67345738D01*
X35341738Y-67475972D01*
X35239414Y-67629111D01*
X35168932Y-67799271D01*
X35133000Y-67979911D01*
X35133000Y-68164089D01*
X35168932Y-68344729D01*
X35230581Y-68493564D01*
X35227928Y-68520500D01*
X35227928Y-69320500D01*
X35240188Y-69444982D01*
X35276498Y-69564680D01*
X35335463Y-69674994D01*
X35414815Y-69771685D01*
X35511506Y-69851037D01*
X35621820Y-69910002D01*
X35741518Y-69946312D01*
X35866000Y-69958572D01*
X36503000Y-69958572D01*
X36503000Y-70796146D01*
X36340729Y-70728932D01*
X36160089Y-70693000D01*
X35975911Y-70693000D01*
X35795271Y-70728932D01*
X35625111Y-70799414D01*
X35471972Y-70901738D01*
X35341738Y-71031972D01*
X35239414Y-71185111D01*
X35168932Y-71355271D01*
X35133000Y-71535911D01*
X35133000Y-71720089D01*
X35168932Y-71900729D01*
X35239333Y-72070695D01*
X35227928Y-72186500D01*
X35227928Y-72986500D01*
X35240188Y-73110982D01*
X35276498Y-73230680D01*
X35335463Y-73340994D01*
X35414815Y-73437685D01*
X35511506Y-73517037D01*
X35621820Y-73576002D01*
X35741518Y-73612312D01*
X35866000Y-73624572D01*
X36503000Y-73624572D01*
X36503000Y-74606146D01*
X36340729Y-74538932D01*
X36160089Y-74503000D01*
X35975911Y-74503000D01*
X35795271Y-74538932D01*
X35625111Y-74609414D01*
X35471972Y-74711738D01*
X35341738Y-74841972D01*
X35239414Y-74995111D01*
X35168932Y-75165271D01*
X35133000Y-75345911D01*
X35133000Y-75530089D01*
X35168932Y-75710729D01*
X35227928Y-75853159D01*
X35227928Y-76652500D01*
X35240188Y-76776982D01*
X35276498Y-76896680D01*
X35335463Y-77006994D01*
X35414815Y-77103685D01*
X35511506Y-77183037D01*
X35621820Y-77242002D01*
X35741518Y-77278312D01*
X35866000Y-77290572D01*
X36503000Y-77290572D01*
X36503000Y-77746481D01*
X36498960Y-77787500D01*
X36513460Y-77934723D01*
X36515082Y-77951188D01*
X36562828Y-78108586D01*
X36640364Y-78253645D01*
X36744709Y-78380791D01*
X36776578Y-78406945D01*
X37163058Y-78793426D01*
X37189209Y-78825291D01*
X37316354Y-78929636D01*
X37461413Y-79007172D01*
X37618811Y-79054918D01*
X37782500Y-79071040D01*
X37823518Y-79067000D01*
X40511928Y-79067000D01*
X40511928Y-80606000D01*
X40524188Y-80730482D01*
X40560498Y-80850180D01*
X40619463Y-80960494D01*
X40698815Y-81057185D01*
X40795506Y-81136537D01*
X40801985Y-81140000D01*
X35060000Y-81140000D01*
X35060000Y-32460000D01*
X44278125Y-32460000D01*
X44096011Y-32496225D01*
G37*
%TD.AperFunction*%
D19*
X44377000Y-74380978D02*
X44372960Y-74422000D01*
X44377000Y-74463021D01*
X44377000Y-74886814D01*
X44333916Y-74967418D01*
X44289071Y-75115255D01*
X44273928Y-75269000D01*
X44273928Y-75271500D01*
X43822518Y-75271500D01*
X43781500Y-75267460D01*
X43740481Y-75271500D01*
X43617811Y-75283582D01*
X43460413Y-75331328D01*
X43315354Y-75408864D01*
X43188209Y-75513209D01*
X43162063Y-75545068D01*
X42905757Y-75801375D01*
X42913003Y-75777486D01*
X42924000Y-75665833D01*
X42924000Y-75665824D01*
X42927676Y-75628501D01*
X42924000Y-75591178D01*
X42924000Y-72696250D01*
X43053000Y-72567250D01*
X43053000Y-71780500D01*
X43307000Y-71780500D01*
X43307000Y-72567250D01*
X43465750Y-72726000D01*
X43655000Y-72729072D01*
X43779482Y-72716812D01*
X43899180Y-72680502D01*
X44009494Y-72621537D01*
X44106185Y-72542185D01*
X44185537Y-72445494D01*
X44244502Y-72335180D01*
X44280812Y-72215482D01*
X44293072Y-72091000D01*
X44290000Y-71939250D01*
X44131250Y-71780500D01*
X43307000Y-71780500D01*
X43053000Y-71780500D01*
X43033000Y-71780500D01*
X43033000Y-71526500D01*
X43053000Y-71526500D01*
X43053000Y-71506500D01*
X43307000Y-71506500D01*
X43307000Y-71526500D01*
X44131250Y-71526500D01*
X44290000Y-71367750D01*
X44293072Y-71216000D01*
X44280812Y-71091518D01*
X44244502Y-70971820D01*
X44215154Y-70916915D01*
X44221500Y-70917540D01*
X44262518Y-70913500D01*
X44262519Y-70913500D01*
X44377001Y-70902224D01*
X44377000Y-74380978D01*
%TA.AperFunction,Conductor*%
D20*
G36*
X44377000Y-74380978D02*
G01*
X44372960Y-74422000D01*
X44377000Y-74463021D01*
X44377000Y-74886814D01*
X44333916Y-74967418D01*
X44289071Y-75115255D01*
X44273928Y-75269000D01*
X44273928Y-75271500D01*
X43822518Y-75271500D01*
X43781500Y-75267460D01*
X43740481Y-75271500D01*
X43617811Y-75283582D01*
X43460413Y-75331328D01*
X43315354Y-75408864D01*
X43188209Y-75513209D01*
X43162063Y-75545068D01*
X42905757Y-75801375D01*
X42913003Y-75777486D01*
X42924000Y-75665833D01*
X42924000Y-75665824D01*
X42927676Y-75628501D01*
X42924000Y-75591178D01*
X42924000Y-72696250D01*
X43053000Y-72567250D01*
X43053000Y-71780500D01*
X43307000Y-71780500D01*
X43307000Y-72567250D01*
X43465750Y-72726000D01*
X43655000Y-72729072D01*
X43779482Y-72716812D01*
X43899180Y-72680502D01*
X44009494Y-72621537D01*
X44106185Y-72542185D01*
X44185537Y-72445494D01*
X44244502Y-72335180D01*
X44280812Y-72215482D01*
X44293072Y-72091000D01*
X44290000Y-71939250D01*
X44131250Y-71780500D01*
X43307000Y-71780500D01*
X43053000Y-71780500D01*
X43033000Y-71780500D01*
X43033000Y-71526500D01*
X43053000Y-71526500D01*
X43053000Y-71506500D01*
X43307000Y-71506500D01*
X43307000Y-71526500D01*
X44131250Y-71526500D01*
X44290000Y-71367750D01*
X44293072Y-71216000D01*
X44280812Y-71091518D01*
X44244502Y-70971820D01*
X44215154Y-70916915D01*
X44221500Y-70917540D01*
X44262518Y-70913500D01*
X44262519Y-70913500D01*
X44377001Y-70902224D01*
X44377000Y-74380978D01*
G37*
%TD.AperFunction*%
D19*
X46609000Y-69054500D02*
X46629000Y-69054500D01*
X46629000Y-69308500D01*
X46609000Y-69308500D01*
X46609000Y-70645250D01*
X46767750Y-70804000D01*
X46782000Y-70807072D01*
X46906482Y-70794812D01*
X47026180Y-70758502D01*
X47086955Y-70726017D01*
X47117026Y-70782276D01*
X47174625Y-70852460D01*
X47212000Y-70898001D01*
X47240998Y-70921799D01*
X49906198Y-73587000D01*
X46047000Y-73587000D01*
X46047000Y-70791621D01*
X46057518Y-70794812D01*
X46182000Y-70807072D01*
X46196250Y-70804000D01*
X46355000Y-70645250D01*
X46355000Y-69308500D01*
X46335000Y-69308500D01*
X46335000Y-69054500D01*
X46355000Y-69054500D01*
X46355000Y-69034500D01*
X46609000Y-69034500D01*
X46609000Y-69054500D01*
%TA.AperFunction,Conductor*%
D20*
G36*
X46609000Y-69054500D02*
G01*
X46629000Y-69054500D01*
X46629000Y-69308500D01*
X46609000Y-69308500D01*
X46609000Y-70645250D01*
X46767750Y-70804000D01*
X46782000Y-70807072D01*
X46906482Y-70794812D01*
X47026180Y-70758502D01*
X47086955Y-70726017D01*
X47117026Y-70782276D01*
X47174625Y-70852460D01*
X47212000Y-70898001D01*
X47240998Y-70921799D01*
X49906198Y-73587000D01*
X46047000Y-73587000D01*
X46047000Y-70791621D01*
X46057518Y-70794812D01*
X46182000Y-70807072D01*
X46196250Y-70804000D01*
X46355000Y-70645250D01*
X46355000Y-69308500D01*
X46335000Y-69308500D01*
X46335000Y-69054500D01*
X46355000Y-69054500D01*
X46355000Y-69034500D01*
X46609000Y-69034500D01*
X46609000Y-69054500D01*
G37*
%TD.AperFunction*%
D19*
X49577171Y-55046258D02*
X49713418Y-55119084D01*
X49861255Y-55163929D01*
X50015000Y-55179072D01*
X50315000Y-55179072D01*
X50468745Y-55163929D01*
X50616582Y-55119084D01*
X50675000Y-55087859D01*
X50675001Y-58255668D01*
X50671324Y-58293000D01*
X50675001Y-58330333D01*
X50685998Y-58441986D01*
X50692025Y-58461854D01*
X50729454Y-58585246D01*
X50800026Y-58717276D01*
X50838628Y-58764312D01*
X50895000Y-58833001D01*
X50923998Y-58856799D01*
X51506200Y-59439002D01*
X51529999Y-59468001D01*
X51584879Y-59513040D01*
X51645724Y-59562974D01*
X51777753Y-59633546D01*
X51921014Y-59677003D01*
X52070000Y-59691677D01*
X52107333Y-59688000D01*
X55207465Y-59688000D01*
X55310111Y-59756586D01*
X55480271Y-59827068D01*
X55660911Y-59863000D01*
X55711699Y-59863000D01*
X54768750Y-60805949D01*
X54665803Y-60703002D01*
X54642001Y-60673999D01*
X54526276Y-60579026D01*
X54394247Y-60508454D01*
X54250986Y-60464997D01*
X54139333Y-60454000D01*
X54139322Y-60454000D01*
X54102000Y-60450324D01*
X54064678Y-60454000D01*
X53123322Y-60454000D01*
X53085999Y-60450324D01*
X53048676Y-60454000D01*
X53048667Y-60454000D01*
X52937014Y-60464997D01*
X52793753Y-60508454D01*
X52661724Y-60579026D01*
X52545999Y-60673999D01*
X52522196Y-60703003D01*
X52194003Y-61031196D01*
X52164999Y-61054999D01*
X52113334Y-61117954D01*
X52070026Y-61170724D01*
X52037044Y-61232428D01*
X51979180Y-61201498D01*
X51859482Y-61165188D01*
X51735000Y-61152928D01*
X51720750Y-61156000D01*
X51562000Y-61314750D01*
X51562000Y-62689000D01*
X51582000Y-62689000D01*
X51582000Y-62943000D01*
X51562000Y-62943000D01*
X51562000Y-64317250D01*
X51720750Y-64476000D01*
X51735000Y-64479072D01*
X51859482Y-64466812D01*
X51979180Y-64430502D01*
X52089494Y-64371537D01*
X52119064Y-64347270D01*
X52253418Y-64419084D01*
X52401255Y-64463929D01*
X52555000Y-64479072D01*
X52855000Y-64479072D01*
X53008745Y-64463929D01*
X53156582Y-64419084D01*
X53251576Y-64368308D01*
X53269454Y-64427246D01*
X53317963Y-64518000D01*
X50925000Y-64518000D01*
X50925000Y-64440870D01*
X51010518Y-64466812D01*
X51135000Y-64479072D01*
X51149250Y-64476000D01*
X51308000Y-64317250D01*
X51308000Y-62943000D01*
X51288000Y-62943000D01*
X51288000Y-62689000D01*
X51308000Y-62689000D01*
X51308000Y-61314750D01*
X51149250Y-61156000D01*
X51135000Y-61152928D01*
X51010518Y-61165188D01*
X50890820Y-61201498D01*
X50780506Y-61260463D01*
X50750936Y-61284730D01*
X50616582Y-61212916D01*
X50468745Y-61168071D01*
X50315000Y-61152928D01*
X50015000Y-61152928D01*
X49861255Y-61168071D01*
X49713418Y-61212916D01*
X49577171Y-61285742D01*
X49530000Y-61324454D01*
X49482829Y-61285742D01*
X49346582Y-61212916D01*
X49198745Y-61168071D01*
X49045000Y-61152928D01*
X48745000Y-61152928D01*
X48591255Y-61168071D01*
X48443418Y-61212916D01*
X48307171Y-61285742D01*
X48260000Y-61324454D01*
X48212829Y-61285742D01*
X48076582Y-61212916D01*
X47928745Y-61168071D01*
X47775000Y-61152928D01*
X47475000Y-61152928D01*
X47321255Y-61168071D01*
X47173418Y-61212916D01*
X47037171Y-61285742D01*
X46990000Y-61324454D01*
X46942829Y-61285742D01*
X46806582Y-61212916D01*
X46658745Y-61168071D01*
X46505000Y-61152928D01*
X46205000Y-61152928D01*
X46051255Y-61168071D01*
X45944880Y-61200339D01*
X45984068Y-61105729D01*
X46008153Y-60984649D01*
X48136008Y-58856795D01*
X48165001Y-58833001D01*
X48188795Y-58804008D01*
X48188799Y-58804004D01*
X48259973Y-58717277D01*
X48261180Y-58715019D01*
X48330546Y-58585247D01*
X48374003Y-58441986D01*
X48385000Y-58330333D01*
X48385000Y-58330324D01*
X48388676Y-58293001D01*
X48385000Y-58255678D01*
X48385000Y-55087859D01*
X48443418Y-55119084D01*
X48591255Y-55163929D01*
X48745000Y-55179072D01*
X49045000Y-55179072D01*
X49198745Y-55163929D01*
X49346582Y-55119084D01*
X49482829Y-55046258D01*
X49530000Y-55007546D01*
X49577171Y-55046258D01*
%TA.AperFunction,Conductor*%
D20*
G36*
X49577171Y-55046258D02*
G01*
X49713418Y-55119084D01*
X49861255Y-55163929D01*
X50015000Y-55179072D01*
X50315000Y-55179072D01*
X50468745Y-55163929D01*
X50616582Y-55119084D01*
X50675000Y-55087859D01*
X50675001Y-58255668D01*
X50671324Y-58293000D01*
X50675001Y-58330333D01*
X50685998Y-58441986D01*
X50692025Y-58461854D01*
X50729454Y-58585246D01*
X50800026Y-58717276D01*
X50838628Y-58764312D01*
X50895000Y-58833001D01*
X50923998Y-58856799D01*
X51506200Y-59439002D01*
X51529999Y-59468001D01*
X51584879Y-59513040D01*
X51645724Y-59562974D01*
X51777753Y-59633546D01*
X51921014Y-59677003D01*
X52070000Y-59691677D01*
X52107333Y-59688000D01*
X55207465Y-59688000D01*
X55310111Y-59756586D01*
X55480271Y-59827068D01*
X55660911Y-59863000D01*
X55711699Y-59863000D01*
X54768750Y-60805949D01*
X54665803Y-60703002D01*
X54642001Y-60673999D01*
X54526276Y-60579026D01*
X54394247Y-60508454D01*
X54250986Y-60464997D01*
X54139333Y-60454000D01*
X54139322Y-60454000D01*
X54102000Y-60450324D01*
X54064678Y-60454000D01*
X53123322Y-60454000D01*
X53085999Y-60450324D01*
X53048676Y-60454000D01*
X53048667Y-60454000D01*
X52937014Y-60464997D01*
X52793753Y-60508454D01*
X52661724Y-60579026D01*
X52545999Y-60673999D01*
X52522196Y-60703003D01*
X52194003Y-61031196D01*
X52164999Y-61054999D01*
X52113334Y-61117954D01*
X52070026Y-61170724D01*
X52037044Y-61232428D01*
X51979180Y-61201498D01*
X51859482Y-61165188D01*
X51735000Y-61152928D01*
X51720750Y-61156000D01*
X51562000Y-61314750D01*
X51562000Y-62689000D01*
X51582000Y-62689000D01*
X51582000Y-62943000D01*
X51562000Y-62943000D01*
X51562000Y-64317250D01*
X51720750Y-64476000D01*
X51735000Y-64479072D01*
X51859482Y-64466812D01*
X51979180Y-64430502D01*
X52089494Y-64371537D01*
X52119064Y-64347270D01*
X52253418Y-64419084D01*
X52401255Y-64463929D01*
X52555000Y-64479072D01*
X52855000Y-64479072D01*
X53008745Y-64463929D01*
X53156582Y-64419084D01*
X53251576Y-64368308D01*
X53269454Y-64427246D01*
X53317963Y-64518000D01*
X50925000Y-64518000D01*
X50925000Y-64440870D01*
X51010518Y-64466812D01*
X51135000Y-64479072D01*
X51149250Y-64476000D01*
X51308000Y-64317250D01*
X51308000Y-62943000D01*
X51288000Y-62943000D01*
X51288000Y-62689000D01*
X51308000Y-62689000D01*
X51308000Y-61314750D01*
X51149250Y-61156000D01*
X51135000Y-61152928D01*
X51010518Y-61165188D01*
X50890820Y-61201498D01*
X50780506Y-61260463D01*
X50750936Y-61284730D01*
X50616582Y-61212916D01*
X50468745Y-61168071D01*
X50315000Y-61152928D01*
X50015000Y-61152928D01*
X49861255Y-61168071D01*
X49713418Y-61212916D01*
X49577171Y-61285742D01*
X49530000Y-61324454D01*
X49482829Y-61285742D01*
X49346582Y-61212916D01*
X49198745Y-61168071D01*
X49045000Y-61152928D01*
X48745000Y-61152928D01*
X48591255Y-61168071D01*
X48443418Y-61212916D01*
X48307171Y-61285742D01*
X48260000Y-61324454D01*
X48212829Y-61285742D01*
X48076582Y-61212916D01*
X47928745Y-61168071D01*
X47775000Y-61152928D01*
X47475000Y-61152928D01*
X47321255Y-61168071D01*
X47173418Y-61212916D01*
X47037171Y-61285742D01*
X46990000Y-61324454D01*
X46942829Y-61285742D01*
X46806582Y-61212916D01*
X46658745Y-61168071D01*
X46505000Y-61152928D01*
X46205000Y-61152928D01*
X46051255Y-61168071D01*
X45944880Y-61200339D01*
X45984068Y-61105729D01*
X46008153Y-60984649D01*
X48136008Y-58856795D01*
X48165001Y-58833001D01*
X48188795Y-58804008D01*
X48188799Y-58804004D01*
X48259973Y-58717277D01*
X48261180Y-58715019D01*
X48330546Y-58585247D01*
X48374003Y-58441986D01*
X48385000Y-58330333D01*
X48385000Y-58330324D01*
X48388676Y-58293001D01*
X48385000Y-58255678D01*
X48385000Y-55087859D01*
X48443418Y-55119084D01*
X48591255Y-55163929D01*
X48745000Y-55179072D01*
X49045000Y-55179072D01*
X49198745Y-55163929D01*
X49346582Y-55119084D01*
X49482829Y-55046258D01*
X49530000Y-55007546D01*
X49577171Y-55046258D01*
G37*
%TD.AperFunction*%
D19*
X41606928Y-53652729D02*
X41606928Y-54391000D01*
X41622071Y-54544745D01*
X41666916Y-54692582D01*
X41739742Y-54828829D01*
X41837749Y-54948251D01*
X41957171Y-55046258D01*
X42093418Y-55119084D01*
X42241255Y-55163929D01*
X42395000Y-55179072D01*
X42695000Y-55179072D01*
X42848745Y-55163929D01*
X42996582Y-55119084D01*
X43132829Y-55046258D01*
X43180000Y-55007546D01*
X43227171Y-55046258D01*
X43363418Y-55119084D01*
X43511255Y-55163929D01*
X43665000Y-55179072D01*
X43965000Y-55179072D01*
X44118745Y-55163929D01*
X44266582Y-55119084D01*
X44325000Y-55087859D01*
X44325001Y-57978196D01*
X42393351Y-59909847D01*
X42272271Y-59933932D01*
X42102111Y-60004414D01*
X41948972Y-60106738D01*
X41818738Y-60236972D01*
X41716414Y-60390111D01*
X41645932Y-60560271D01*
X41610000Y-60740911D01*
X41610000Y-60925089D01*
X41645932Y-61105729D01*
X41716414Y-61275889D01*
X41810593Y-61416838D01*
X41739742Y-61503171D01*
X41666916Y-61639418D01*
X41622071Y-61787255D01*
X41606928Y-61941000D01*
X41606928Y-62056000D01*
X41425374Y-62056000D01*
X41433850Y-62040142D01*
X41482608Y-61879408D01*
X41499072Y-61712250D01*
X41499072Y-61274750D01*
X41482608Y-61107592D01*
X41433850Y-60946858D01*
X41354671Y-60798725D01*
X41278574Y-60706000D01*
X41354671Y-60613275D01*
X41433850Y-60465142D01*
X41482608Y-60304408D01*
X41499072Y-60137250D01*
X41499072Y-59699750D01*
X41482608Y-59532592D01*
X41433850Y-59371858D01*
X41354671Y-59223725D01*
X41248115Y-59093885D01*
X41221000Y-59071632D01*
X41221000Y-58969018D01*
X41225040Y-58928000D01*
X41208918Y-58764311D01*
X41161172Y-58606913D01*
X41083636Y-58461854D01*
X40979291Y-58334709D01*
X40947428Y-58308560D01*
X39989446Y-57350579D01*
X39963291Y-57318709D01*
X39836146Y-57214364D01*
X39691087Y-57136828D01*
X39533689Y-57089082D01*
X39411019Y-57077000D01*
X39411018Y-57077000D01*
X39370000Y-57072960D01*
X39328982Y-57077000D01*
X38693065Y-57077000D01*
X38618475Y-56965368D01*
X38411632Y-56758525D01*
X38229466Y-56636805D01*
X38346355Y-56567178D01*
X38562588Y-56372269D01*
X38736641Y-56138920D01*
X38861825Y-55876099D01*
X38906476Y-55728890D01*
X38785155Y-55499000D01*
X37592000Y-55499000D01*
X37592000Y-55519000D01*
X37338000Y-55519000D01*
X37338000Y-55499000D01*
X37318000Y-55499000D01*
X37318000Y-55245000D01*
X37338000Y-55245000D01*
X37338000Y-55225000D01*
X37592000Y-55225000D01*
X37592000Y-55245000D01*
X38785155Y-55245000D01*
X38906476Y-55015110D01*
X38861825Y-54867901D01*
X38736641Y-54605080D01*
X38562588Y-54371731D01*
X38346355Y-54176822D01*
X38229466Y-54107195D01*
X38411632Y-53985475D01*
X38618475Y-53778632D01*
X38743178Y-53592000D01*
X41546199Y-53592000D01*
X41606928Y-53652729D01*
%TA.AperFunction,Conductor*%
D20*
G36*
X41606928Y-53652729D02*
G01*
X41606928Y-54391000D01*
X41622071Y-54544745D01*
X41666916Y-54692582D01*
X41739742Y-54828829D01*
X41837749Y-54948251D01*
X41957171Y-55046258D01*
X42093418Y-55119084D01*
X42241255Y-55163929D01*
X42395000Y-55179072D01*
X42695000Y-55179072D01*
X42848745Y-55163929D01*
X42996582Y-55119084D01*
X43132829Y-55046258D01*
X43180000Y-55007546D01*
X43227171Y-55046258D01*
X43363418Y-55119084D01*
X43511255Y-55163929D01*
X43665000Y-55179072D01*
X43965000Y-55179072D01*
X44118745Y-55163929D01*
X44266582Y-55119084D01*
X44325000Y-55087859D01*
X44325001Y-57978196D01*
X42393351Y-59909847D01*
X42272271Y-59933932D01*
X42102111Y-60004414D01*
X41948972Y-60106738D01*
X41818738Y-60236972D01*
X41716414Y-60390111D01*
X41645932Y-60560271D01*
X41610000Y-60740911D01*
X41610000Y-60925089D01*
X41645932Y-61105729D01*
X41716414Y-61275889D01*
X41810593Y-61416838D01*
X41739742Y-61503171D01*
X41666916Y-61639418D01*
X41622071Y-61787255D01*
X41606928Y-61941000D01*
X41606928Y-62056000D01*
X41425374Y-62056000D01*
X41433850Y-62040142D01*
X41482608Y-61879408D01*
X41499072Y-61712250D01*
X41499072Y-61274750D01*
X41482608Y-61107592D01*
X41433850Y-60946858D01*
X41354671Y-60798725D01*
X41278574Y-60706000D01*
X41354671Y-60613275D01*
X41433850Y-60465142D01*
X41482608Y-60304408D01*
X41499072Y-60137250D01*
X41499072Y-59699750D01*
X41482608Y-59532592D01*
X41433850Y-59371858D01*
X41354671Y-59223725D01*
X41248115Y-59093885D01*
X41221000Y-59071632D01*
X41221000Y-58969018D01*
X41225040Y-58928000D01*
X41208918Y-58764311D01*
X41161172Y-58606913D01*
X41083636Y-58461854D01*
X40979291Y-58334709D01*
X40947428Y-58308560D01*
X39989446Y-57350579D01*
X39963291Y-57318709D01*
X39836146Y-57214364D01*
X39691087Y-57136828D01*
X39533689Y-57089082D01*
X39411019Y-57077000D01*
X39411018Y-57077000D01*
X39370000Y-57072960D01*
X39328982Y-57077000D01*
X38693065Y-57077000D01*
X38618475Y-56965368D01*
X38411632Y-56758525D01*
X38229466Y-56636805D01*
X38346355Y-56567178D01*
X38562588Y-56372269D01*
X38736641Y-56138920D01*
X38861825Y-55876099D01*
X38906476Y-55728890D01*
X38785155Y-55499000D01*
X37592000Y-55499000D01*
X37592000Y-55519000D01*
X37338000Y-55519000D01*
X37338000Y-55499000D01*
X37318000Y-55499000D01*
X37318000Y-55245000D01*
X37338000Y-55245000D01*
X37338000Y-55225000D01*
X37592000Y-55225000D01*
X37592000Y-55245000D01*
X38785155Y-55245000D01*
X38906476Y-55015110D01*
X38861825Y-54867901D01*
X38736641Y-54605080D01*
X38562588Y-54371731D01*
X38346355Y-54176822D01*
X38229466Y-54107195D01*
X38411632Y-53985475D01*
X38618475Y-53778632D01*
X38743178Y-53592000D01*
X41546199Y-53592000D01*
X41606928Y-53652729D01*
G37*
%TD.AperFunction*%
D19*
X66740001Y-57470988D02*
X66717502Y-57396820D01*
X66658537Y-57286506D01*
X66579185Y-57189815D01*
X66482494Y-57110463D01*
X66372180Y-57051498D01*
X66252482Y-57015188D01*
X66128000Y-57002928D01*
X65563750Y-57006000D01*
X65405000Y-57164750D01*
X65405000Y-58364000D01*
X65425000Y-58364000D01*
X65425000Y-58618000D01*
X65405000Y-58618000D01*
X65405000Y-58638000D01*
X65151000Y-58638000D01*
X65151000Y-58618000D01*
X63951750Y-58618000D01*
X63793000Y-58776750D01*
X63789928Y-59341000D01*
X63802188Y-59465482D01*
X63838498Y-59585180D01*
X63897463Y-59695494D01*
X63976815Y-59792185D01*
X64073506Y-59871537D01*
X64183820Y-59930502D01*
X64256380Y-59952513D01*
X64124525Y-60084368D01*
X63962010Y-60327589D01*
X63883445Y-60517263D01*
X63881201Y-60519998D01*
X63337699Y-61063500D01*
X62129143Y-61063500D01*
X62076115Y-60998885D01*
X61974000Y-60915082D01*
X61974000Y-60870535D01*
X62042586Y-60767889D01*
X62113068Y-60597729D01*
X62149000Y-60417089D01*
X62149000Y-60232911D01*
X62113068Y-60052271D01*
X62042586Y-59882111D01*
X61940262Y-59728972D01*
X61810028Y-59598738D01*
X61656889Y-59496414D01*
X61611986Y-59477815D01*
X63448801Y-57641000D01*
X63789928Y-57641000D01*
X63793000Y-58205250D01*
X63951750Y-58364000D01*
X65151000Y-58364000D01*
X65151000Y-57164750D01*
X64992250Y-57006000D01*
X64428000Y-57002928D01*
X64303518Y-57015188D01*
X64183820Y-57051498D01*
X64073506Y-57110463D01*
X63976815Y-57189815D01*
X63897463Y-57286506D01*
X63838498Y-57396820D01*
X63802188Y-57516518D01*
X63789928Y-57641000D01*
X63448801Y-57641000D01*
X65789013Y-55300789D01*
X65818000Y-55277000D01*
X65841789Y-55248013D01*
X65841799Y-55248003D01*
X65912974Y-55161277D01*
X65983546Y-55029247D01*
X66027002Y-54885986D01*
X66041676Y-54737000D01*
X66034584Y-54664999D01*
X66027002Y-54588014D01*
X66027000Y-54588007D01*
X66027000Y-51695918D01*
X66129115Y-51612115D01*
X66235671Y-51482275D01*
X66314850Y-51334142D01*
X66363608Y-51173408D01*
X66380072Y-51006250D01*
X66380072Y-50568750D01*
X66363608Y-50401592D01*
X66314850Y-50240858D01*
X66235671Y-50092725D01*
X66159574Y-50000000D01*
X66235671Y-49907275D01*
X66314850Y-49759142D01*
X66363608Y-49598408D01*
X66380072Y-49431250D01*
X66380072Y-48993750D01*
X66363608Y-48826592D01*
X66314850Y-48665858D01*
X66235671Y-48517725D01*
X66129115Y-48387885D01*
X66027000Y-48304082D01*
X66027000Y-47016322D01*
X66030676Y-46978999D01*
X66027000Y-46941676D01*
X66027000Y-46941667D01*
X66016003Y-46830014D01*
X65972546Y-46686753D01*
X65901974Y-46554724D01*
X65860940Y-46504724D01*
X65830799Y-46467996D01*
X65830795Y-46467992D01*
X65807001Y-46438999D01*
X65778009Y-46415206D01*
X60069000Y-40706199D01*
X60069000Y-37502322D01*
X60072676Y-37464999D01*
X60069000Y-37427676D01*
X60069000Y-37427667D01*
X60058003Y-37316014D01*
X60014546Y-37172753D01*
X59943974Y-37040724D01*
X59930811Y-37024685D01*
X59872799Y-36953996D01*
X59872795Y-36953992D01*
X59849001Y-36924999D01*
X59820009Y-36901206D01*
X57960000Y-35041199D01*
X57960000Y-34985909D01*
X58082886Y-34903799D01*
X58275799Y-34710886D01*
X58427371Y-34484043D01*
X58531775Y-34231989D01*
X58585000Y-33964411D01*
X58585000Y-33691589D01*
X58531775Y-33424011D01*
X58427371Y-33171957D01*
X58275799Y-32945114D01*
X58082886Y-32752201D01*
X57856043Y-32600629D01*
X57603989Y-32496225D01*
X57421875Y-32460000D01*
X66740000Y-32460000D01*
X66740001Y-57470988D01*
%TA.AperFunction,Conductor*%
D20*
G36*
X66740001Y-57470988D02*
G01*
X66717502Y-57396820D01*
X66658537Y-57286506D01*
X66579185Y-57189815D01*
X66482494Y-57110463D01*
X66372180Y-57051498D01*
X66252482Y-57015188D01*
X66128000Y-57002928D01*
X65563750Y-57006000D01*
X65405000Y-57164750D01*
X65405000Y-58364000D01*
X65425000Y-58364000D01*
X65425000Y-58618000D01*
X65405000Y-58618000D01*
X65405000Y-58638000D01*
X65151000Y-58638000D01*
X65151000Y-58618000D01*
X63951750Y-58618000D01*
X63793000Y-58776750D01*
X63789928Y-59341000D01*
X63802188Y-59465482D01*
X63838498Y-59585180D01*
X63897463Y-59695494D01*
X63976815Y-59792185D01*
X64073506Y-59871537D01*
X64183820Y-59930502D01*
X64256380Y-59952513D01*
X64124525Y-60084368D01*
X63962010Y-60327589D01*
X63883445Y-60517263D01*
X63881201Y-60519998D01*
X63337699Y-61063500D01*
X62129143Y-61063500D01*
X62076115Y-60998885D01*
X61974000Y-60915082D01*
X61974000Y-60870535D01*
X62042586Y-60767889D01*
X62113068Y-60597729D01*
X62149000Y-60417089D01*
X62149000Y-60232911D01*
X62113068Y-60052271D01*
X62042586Y-59882111D01*
X61940262Y-59728972D01*
X61810028Y-59598738D01*
X61656889Y-59496414D01*
X61611986Y-59477815D01*
X63448801Y-57641000D01*
X63789928Y-57641000D01*
X63793000Y-58205250D01*
X63951750Y-58364000D01*
X65151000Y-58364000D01*
X65151000Y-57164750D01*
X64992250Y-57006000D01*
X64428000Y-57002928D01*
X64303518Y-57015188D01*
X64183820Y-57051498D01*
X64073506Y-57110463D01*
X63976815Y-57189815D01*
X63897463Y-57286506D01*
X63838498Y-57396820D01*
X63802188Y-57516518D01*
X63789928Y-57641000D01*
X63448801Y-57641000D01*
X65789013Y-55300789D01*
X65818000Y-55277000D01*
X65841789Y-55248013D01*
X65841799Y-55248003D01*
X65912974Y-55161277D01*
X65983546Y-55029247D01*
X66027002Y-54885986D01*
X66041676Y-54737000D01*
X66034584Y-54664999D01*
X66027002Y-54588014D01*
X66027000Y-54588007D01*
X66027000Y-51695918D01*
X66129115Y-51612115D01*
X66235671Y-51482275D01*
X66314850Y-51334142D01*
X66363608Y-51173408D01*
X66380072Y-51006250D01*
X66380072Y-50568750D01*
X66363608Y-50401592D01*
X66314850Y-50240858D01*
X66235671Y-50092725D01*
X66159574Y-50000000D01*
X66235671Y-49907275D01*
X66314850Y-49759142D01*
X66363608Y-49598408D01*
X66380072Y-49431250D01*
X66380072Y-48993750D01*
X66363608Y-48826592D01*
X66314850Y-48665858D01*
X66235671Y-48517725D01*
X66129115Y-48387885D01*
X66027000Y-48304082D01*
X66027000Y-47016322D01*
X66030676Y-46978999D01*
X66027000Y-46941676D01*
X66027000Y-46941667D01*
X66016003Y-46830014D01*
X65972546Y-46686753D01*
X65901974Y-46554724D01*
X65860940Y-46504724D01*
X65830799Y-46467996D01*
X65830795Y-46467992D01*
X65807001Y-46438999D01*
X65778009Y-46415206D01*
X60069000Y-40706199D01*
X60069000Y-37502322D01*
X60072676Y-37464999D01*
X60069000Y-37427676D01*
X60069000Y-37427667D01*
X60058003Y-37316014D01*
X60014546Y-37172753D01*
X59943974Y-37040724D01*
X59930811Y-37024685D01*
X59872799Y-36953996D01*
X59872795Y-36953992D01*
X59849001Y-36924999D01*
X59820009Y-36901206D01*
X57960000Y-35041199D01*
X57960000Y-34985909D01*
X58082886Y-34903799D01*
X58275799Y-34710886D01*
X58427371Y-34484043D01*
X58531775Y-34231989D01*
X58585000Y-33964411D01*
X58585000Y-33691589D01*
X58531775Y-33424011D01*
X58427371Y-33171957D01*
X58275799Y-32945114D01*
X58082886Y-32752201D01*
X57856043Y-32600629D01*
X57603989Y-32496225D01*
X57421875Y-32460000D01*
X66740000Y-32460000D01*
X66740001Y-57470988D01*
G37*
%TD.AperFunction*%
D19*
X54102000Y-53389000D02*
X54122000Y-53389000D01*
X54122000Y-53643000D01*
X54102000Y-53643000D01*
X54102000Y-55017250D01*
X54260750Y-55176000D01*
X54275000Y-55179072D01*
X54399482Y-55166812D01*
X54519180Y-55130502D01*
X54629494Y-55071537D01*
X54659064Y-55047270D01*
X54793418Y-55119084D01*
X54941255Y-55163929D01*
X55095000Y-55179072D01*
X55395000Y-55179072D01*
X55548745Y-55163929D01*
X55696582Y-55119084D01*
X55832829Y-55046258D01*
X55880000Y-55007546D01*
X55927171Y-55046258D01*
X56063418Y-55119084D01*
X56211255Y-55163929D01*
X56365000Y-55179072D01*
X56665000Y-55179072D01*
X56818745Y-55163929D01*
X56966582Y-55119084D01*
X57102829Y-55046258D01*
X57150000Y-55007546D01*
X57197171Y-55046258D01*
X57333418Y-55119084D01*
X57481255Y-55163929D01*
X57635000Y-55179072D01*
X57935000Y-55179072D01*
X58088745Y-55163929D01*
X58236582Y-55119084D01*
X58372829Y-55046258D01*
X58420000Y-55007546D01*
X58467171Y-55046258D01*
X58603418Y-55119084D01*
X58751255Y-55163929D01*
X58905000Y-55179072D01*
X59205000Y-55179072D01*
X59358745Y-55163929D01*
X59506582Y-55119084D01*
X59642829Y-55046258D01*
X59707001Y-54993594D01*
X59707001Y-55867697D01*
X56688000Y-58886699D01*
X56688000Y-58835911D01*
X56652068Y-58655271D01*
X56581586Y-58485111D01*
X56479262Y-58331972D01*
X56349028Y-58201738D01*
X56195889Y-58099414D01*
X56025729Y-58028932D01*
X55845089Y-57993000D01*
X55660911Y-57993000D01*
X55480271Y-58028932D01*
X55310111Y-58099414D01*
X55207465Y-58168000D01*
X52384802Y-58168000D01*
X52195000Y-57978199D01*
X52195000Y-55087859D01*
X52253418Y-55119084D01*
X52401255Y-55163929D01*
X52555000Y-55179072D01*
X52855000Y-55179072D01*
X53008745Y-55163929D01*
X53156582Y-55119084D01*
X53290936Y-55047270D01*
X53320506Y-55071537D01*
X53430820Y-55130502D01*
X53550518Y-55166812D01*
X53675000Y-55179072D01*
X53689250Y-55176000D01*
X53848000Y-55017250D01*
X53848000Y-53643000D01*
X53828000Y-53643000D01*
X53828000Y-53389000D01*
X53848000Y-53389000D01*
X53848000Y-53369000D01*
X54102000Y-53369000D01*
X54102000Y-53389000D01*
%TA.AperFunction,Conductor*%
D20*
G36*
X54102000Y-53389000D02*
G01*
X54122000Y-53389000D01*
X54122000Y-53643000D01*
X54102000Y-53643000D01*
X54102000Y-55017250D01*
X54260750Y-55176000D01*
X54275000Y-55179072D01*
X54399482Y-55166812D01*
X54519180Y-55130502D01*
X54629494Y-55071537D01*
X54659064Y-55047270D01*
X54793418Y-55119084D01*
X54941255Y-55163929D01*
X55095000Y-55179072D01*
X55395000Y-55179072D01*
X55548745Y-55163929D01*
X55696582Y-55119084D01*
X55832829Y-55046258D01*
X55880000Y-55007546D01*
X55927171Y-55046258D01*
X56063418Y-55119084D01*
X56211255Y-55163929D01*
X56365000Y-55179072D01*
X56665000Y-55179072D01*
X56818745Y-55163929D01*
X56966582Y-55119084D01*
X57102829Y-55046258D01*
X57150000Y-55007546D01*
X57197171Y-55046258D01*
X57333418Y-55119084D01*
X57481255Y-55163929D01*
X57635000Y-55179072D01*
X57935000Y-55179072D01*
X58088745Y-55163929D01*
X58236582Y-55119084D01*
X58372829Y-55046258D01*
X58420000Y-55007546D01*
X58467171Y-55046258D01*
X58603418Y-55119084D01*
X58751255Y-55163929D01*
X58905000Y-55179072D01*
X59205000Y-55179072D01*
X59358745Y-55163929D01*
X59506582Y-55119084D01*
X59642829Y-55046258D01*
X59707001Y-54993594D01*
X59707001Y-55867697D01*
X56688000Y-58886699D01*
X56688000Y-58835911D01*
X56652068Y-58655271D01*
X56581586Y-58485111D01*
X56479262Y-58331972D01*
X56349028Y-58201738D01*
X56195889Y-58099414D01*
X56025729Y-58028932D01*
X55845089Y-57993000D01*
X55660911Y-57993000D01*
X55480271Y-58028932D01*
X55310111Y-58099414D01*
X55207465Y-58168000D01*
X52384802Y-58168000D01*
X52195000Y-57978199D01*
X52195000Y-55087859D01*
X52253418Y-55119084D01*
X52401255Y-55163929D01*
X52555000Y-55179072D01*
X52855000Y-55179072D01*
X53008745Y-55163929D01*
X53156582Y-55119084D01*
X53290936Y-55047270D01*
X53320506Y-55071537D01*
X53430820Y-55130502D01*
X53550518Y-55166812D01*
X53675000Y-55179072D01*
X53689250Y-55176000D01*
X53848000Y-55017250D01*
X53848000Y-53643000D01*
X53828000Y-53643000D01*
X53828000Y-53389000D01*
X53848000Y-53389000D01*
X53848000Y-53369000D01*
X54102000Y-53369000D01*
X54102000Y-53389000D01*
G37*
%TD.AperFunction*%
%TD*%
M02*
