M48
; DRILL file {KiCad (5.1.10)-1} date 08/04/21 23:13:13
; FORMAT={-:-/ absolute / inch / decimal}
; #@! TF.CreationDate,2021-08-04T23:13:13+07:00
; #@! TF.GenerationSoftware,Kicad,Pcbnew,(5.1.10)-1
; #@! TF.FileFunction,Plated,1,2,PTH
FMAT,2
INCH
T1C0.0118
T2C0.0157
T3C0.0394
%
G90
G05
T1
X1.42Y-2.68
X1.42Y-2.82
X1.42Y-2.97
X1.62Y-2.56
X1.655Y-2.56
X1.675Y-2.395
X1.69Y-2.56
X1.725Y-2.395
X1.775Y-2.395
X2.195Y-2.32
X2.41Y-2.375
T2
X1.4Y-2.56
X1.41Y-3.07
X1.47Y-1.43
X1.47Y-1.63
X1.47Y-1.82
X1.68Y-2.3
X1.69Y-1.56
X1.7Y-2.2
X1.7Y-2.865
X1.73Y-1.72
X1.83Y-2.79
X1.88Y-2.86
X1.94Y-2.35
X1.96Y-2.23
X1.9675Y-1.9375
X2.05Y-2.54
X2.125Y-2.175
X2.24Y-2.22
X2.285Y-2.99
X2.31Y-3.03
X2.42Y-1.34
X2.48Y-3.05
X2.5Y-1.53
X2.55Y-1.72
X2.57Y-2.93
X2.57Y-3.05
T3
X1.475Y-1.98
X1.475Y-2.08
X1.475Y-2.18
X1.475Y-2.28
X1.475Y-2.38
X1.6535Y-3.14
X1.752Y-1.3318
X1.752Y-1.8318
X1.7535Y-3.14
X1.852Y-1.3318
X1.852Y-1.8318
X1.8535Y-3.14
X1.952Y-1.3318
X1.952Y-1.8318
X1.9535Y-3.14
X2.052Y-1.3318
X2.052Y-1.8318
X2.0535Y-3.14
X2.152Y-1.3318
X2.152Y-1.8318
X2.1535Y-3.14
X2.252Y-1.3318
X2.2535Y-3.14
X2.3535Y-3.14
X2.57Y-2.3028
X2.57Y-2.4028
X2.57Y-2.5028
X2.57Y-2.6989
X2.57Y-2.7989
T0
M30
