M48
; DRILL file {KiCad (5.1.10)-1} date 06/06/21 23:27:35
; FORMAT={-:-/ absolute / inch / decimal}
; #@! TF.CreationDate,2021-06-06T23:27:35+07:00
; #@! TF.GenerationSoftware,Kicad,Pcbnew,(5.1.10)-1
; #@! TF.FileFunction,Plated,1,2,PTH
FMAT,2
INCH
T1C0.0118
T2C0.0157
T3C0.0394
%
G90
G05
T1
X1.565Y-2.65
X1.57Y-1.9
X1.825Y-2.19
X1.84Y-2.58
X1.84Y-2.65
X1.875Y-2.19
X1.88Y-2.685
X1.925Y-1.9
X1.925Y-2.19
X1.93Y-2.685
X1.975Y-2.19
X1.98Y-2.685
X2.025Y-2.04
X2.025Y-2.19
X2.075Y-2.19
X2.085Y-2.04
X2.11Y-2.605
X2.11Y-2.64
X2.11Y-2.675
X2.125Y-2.19
X2.15Y-2.04
X2.175Y-2.19
X2.21Y-2.04
X2.225Y-2.235
X2.275Y-2.04
X2.275Y-2.235
X2.325Y-2.235
X2.335Y-2.04
X2.4Y-2.04
X2.415Y-2.685
X2.415Y-2.83
X2.415Y-2.975
X2.45Y-2.62
X2.465Y-2.04
T2
X1.435Y-2.755
X1.445Y-3.18
X1.48Y-1.66
X1.485Y-1.44
X1.595Y-1.825
X1.605Y-2.105
X1.61Y-1.51
X1.615Y-1.31
X1.7Y-1.65
X1.7Y-2.995
X1.745Y-1.52
X1.755Y-2.28
X1.915Y-2.28
X2.09Y-2.28
X2.285Y-3.025
X2.315Y-2.365
X2.4Y-2.365
X2.465Y-3.16
X2.63Y-3.185
T3
X1.4213Y-2.1378
X1.4213Y-2.2378
X1.4213Y-2.3378
X1.4213Y-2.5339
X1.4213Y-2.6339
X1.6535Y-3.185
X1.752Y-1.2953
X1.752Y-1.7953
X1.7535Y-3.185
X1.852Y-1.2953
X1.852Y-1.7953
X1.8535Y-3.185
X1.952Y-1.2953
X1.952Y-1.7953
X1.9535Y-3.185
X2.052Y-1.2953
X2.052Y-1.7953
X2.0535Y-3.185
X2.152Y-1.2953
X2.152Y-1.7953
X2.1535Y-3.185
X2.252Y-1.2953
X2.2535Y-3.185
X2.3535Y-3.185
X2.56Y-2.135
X2.56Y-2.235
X2.56Y-2.335
X2.56Y-2.435
X2.56Y-2.535
T0
M30
