%TF.GenerationSoftware,KiCad,Pcbnew,(5.1.10)-1*%
%TF.CreationDate,2021-06-06T23:27:32+07:00*%
%TF.ProjectId,busdisplay_r2,62757364-6973-4706-9c61-795f72322e6b,2*%
%TF.SameCoordinates,Original*%
%TF.FileFunction,Copper,L2,Bot*%
%TF.FilePolarity,Positive*%
%FSLAX46Y46*%
G04 Gerber Fmt 4.6, Leading zero omitted, Abs format (unit mm)*
G04 Created by KiCad (PCBNEW (5.1.10)-1) date 2021-06-06 23:27:32*
%MOMM*%
%LPD*%
G01*
G04 APERTURE LIST*
%TA.AperFunction,ComponentPad*%
%ADD10C,1.500000*%
%TD*%
%TA.AperFunction,ComponentPad*%
%ADD11R,1.500000X1.500000*%
%TD*%
%TA.AperFunction,ComponentPad*%
%ADD12O,1.700000X1.700000*%
%TD*%
%TA.AperFunction,ComponentPad*%
%ADD13R,1.700000X1.700000*%
%TD*%
%TA.AperFunction,ViaPad*%
%ADD14C,0.600000*%
%TD*%
%TA.AperFunction,ViaPad*%
%ADD15C,0.800000*%
%TD*%
%TA.AperFunction,Conductor*%
%ADD16C,0.400000*%
%TD*%
%TA.AperFunction,Conductor*%
%ADD17C,0.250000*%
%TD*%
%TA.AperFunction,Conductor*%
%ADD18C,0.254000*%
%TD*%
%TA.AperFunction,Conductor*%
%ADD19C,0.100000*%
%TD*%
G04 APERTURE END LIST*
D10*
%TO.P,LED1,7*%
%TO.N,Net-(LED1-Pad7)*%
X57200000Y-32900000D03*
%TO.P,LED1,4*%
%TO.N,Net-(LED1-Pad4)*%
X52120000Y-45600000D03*
%TO.P,LED1,12*%
%TO.N,Net-(LED1-Pad12)*%
X44500000Y-32900000D03*
%TO.P,LED1,9*%
%TO.N,Net-(LED1-Pad9)*%
X52120000Y-32900000D03*
D11*
%TO.P,LED1,1*%
%TO.N,Net-(LED1-Pad1)*%
X44500000Y-45600000D03*
D10*
%TO.P,LED1,8*%
%TO.N,Net-(LED1-Pad8)*%
X54660000Y-32900000D03*
%TO.P,LED1,11*%
%TO.N,Net-(LED1-Pad11)*%
X47040000Y-32900000D03*
%TO.P,LED1,3*%
%TO.N,Net-(LED1-Pad3)*%
X49580000Y-45600000D03*
%TO.P,LED1,10*%
%TO.N,Net-(LED1-Pad10)*%
X49580000Y-32900000D03*
%TO.P,LED1,5*%
%TO.N,Net-(LED1-Pad5)*%
X54660000Y-45600000D03*
%TO.P,LED1,2*%
%TO.N,Net-(LED1-Pad2)*%
X47040000Y-45600000D03*
%TD*%
D12*
%TO.P,J4,2*%
%TO.N,GND*%
X36100000Y-66900000D03*
D13*
%TO.P,J4,1*%
%TO.N,+5V*%
X36100000Y-64360000D03*
%TD*%
D12*
%TO.P,J3,8*%
%TO.N,Net-(J3-Pad8)*%
X59780000Y-80900000D03*
%TO.P,J3,7*%
%TO.N,Net-(J3-Pad7)*%
X57240000Y-80900000D03*
%TO.P,J3,6*%
%TO.N,Net-(J3-Pad6)*%
X54700000Y-80900000D03*
%TO.P,J3,5*%
%TO.N,Net-(J3-Pad5)*%
X52160000Y-80900000D03*
%TO.P,J3,4*%
%TO.N,Net-(J3-Pad4)*%
X49620000Y-80900000D03*
%TO.P,J3,3*%
%TO.N,Net-(J3-Pad3)*%
X47080000Y-80900000D03*
%TO.P,J3,2*%
%TO.N,Net-(J3-Pad2)*%
X44540000Y-80900000D03*
D13*
%TO.P,J3,1*%
%TO.N,Net-(J3-Pad1)*%
X42000000Y-80900000D03*
%TD*%
D12*
%TO.P,J2,5*%
%TO.N,BUF6*%
X65024000Y-54229000D03*
%TO.P,J2,4*%
%TO.N,BUF7*%
X65024000Y-56769000D03*
%TO.P,J2,3*%
%TO.N,GND*%
X65024000Y-59309000D03*
%TO.P,J2,2*%
%TO.N,+5V*%
X65024000Y-61849000D03*
D13*
%TO.P,J2,1*%
%TO.N,~MCLR*%
X65024000Y-64389000D03*
%TD*%
D12*
%TO.P,J1,3*%
%TO.N,+5V*%
X36100000Y-59380000D03*
%TO.P,J1,2*%
%TO.N,Net-(J1-Pad2)*%
X36100000Y-56840000D03*
D13*
%TO.P,J1,1*%
%TO.N,GND*%
X36100000Y-54300000D03*
%TD*%
D14*
%TO.N,GND*%
X48895000Y-48260000D03*
X39878000Y-48260000D03*
D15*
X58039000Y-76835000D03*
D14*
X39751000Y-67310000D03*
X46736000Y-65532000D03*
X46736000Y-67310000D03*
D15*
X44323000Y-38608000D03*
X41021000Y-33274000D03*
X37719000Y-36576000D03*
X43180000Y-41910000D03*
X40894000Y-38354000D03*
X37592000Y-42164000D03*
X40513000Y-46355000D03*
X40767000Y-53467000D03*
X62611000Y-80264000D03*
X66802000Y-80899000D03*
X44577000Y-57912000D03*
X48641000Y-57912000D03*
X53086000Y-57912000D03*
X58801000Y-60071000D03*
X36449000Y-69977000D03*
X36703000Y-80772000D03*
X43180000Y-76073000D03*
X60960000Y-60071000D03*
D14*
%TO.N,+5V*%
X62230000Y-66548000D03*
%TO.N,DIG1*%
X61341000Y-75565000D03*
X53594000Y-67945000D03*
%TO.N,BUF6*%
X57785000Y-56769000D03*
X49022000Y-68199000D03*
%TO.N,BUF7*%
X56515000Y-56769000D03*
X47752000Y-68199000D03*
%TO.N,A*%
X52705000Y-55626000D03*
X59309000Y-51816000D03*
%TO.N,B*%
X55245000Y-55626000D03*
X62611000Y-51816000D03*
%TO.N,C*%
X47625000Y-55626000D03*
X52959000Y-51816000D03*
%TO.N,D*%
X50165000Y-55626000D03*
X56134000Y-51816000D03*
%TO.N,E*%
X51435000Y-55626000D03*
X57785000Y-51816000D03*
%TO.N,F*%
X53975000Y-55626000D03*
X60960000Y-51816000D03*
%TO.N,G*%
X48895000Y-55626000D03*
X54610000Y-51816000D03*
%TO.N,DP*%
X46355000Y-55626000D03*
X51435000Y-51816000D03*
%TO.N,BUF5*%
X59055000Y-56769000D03*
X50292000Y-68199000D03*
%TO.N,DIG3*%
X61341000Y-68199000D03*
X53594000Y-66167000D03*
%TO.N,DIG2*%
X61341000Y-71882000D03*
X53594000Y-67056000D03*
%TD*%
D16*
%TO.N,+5V*%
X63627000Y-61849000D02*
X65024000Y-61849000D01*
X62230000Y-66548000D02*
X62230000Y-63246000D01*
X62230000Y-63246000D02*
X63627000Y-61849000D01*
D17*
%TO.N,DIG1*%
X60452000Y-74676000D02*
X61341000Y-75565000D01*
X60452000Y-69850000D02*
X60452000Y-74676000D01*
X58547000Y-67945000D02*
X60452000Y-69850000D01*
X53594000Y-67945000D02*
X58547000Y-67945000D01*
%TO.N,BUF6*%
X57785000Y-57404000D02*
X57785000Y-56769000D01*
X49022000Y-66167000D02*
X57785000Y-57404000D01*
X49022000Y-68199000D02*
X49022000Y-66167000D01*
%TO.N,BUF7*%
X47752000Y-68199000D02*
X47752000Y-66167000D01*
X56515000Y-57404000D02*
X56515000Y-56769000D01*
X47752000Y-66167000D02*
X56515000Y-57404000D01*
%TO.N,A*%
X56642000Y-54483000D02*
X59309000Y-51816000D01*
X53340000Y-54483000D02*
X56642000Y-54483000D01*
X52705000Y-55118000D02*
X53340000Y-54483000D01*
X52705000Y-55626000D02*
X52705000Y-55118000D01*
%TO.N,B*%
X58801000Y-55626000D02*
X62611000Y-51816000D01*
X55245000Y-55626000D02*
X58801000Y-55626000D01*
%TO.N,C*%
X52324000Y-52451000D02*
X52959000Y-51816000D01*
X49530000Y-52451000D02*
X52324000Y-52451000D01*
X47625000Y-54356000D02*
X49530000Y-52451000D01*
X47625000Y-55626000D02*
X47625000Y-54356000D01*
%TO.N,D*%
X54483000Y-53467000D02*
X56134000Y-51816000D01*
X51435000Y-53467000D02*
X54483000Y-53467000D01*
X50165000Y-54737000D02*
X51435000Y-53467000D01*
X50165000Y-55626000D02*
X50165000Y-54737000D01*
%TO.N,E*%
X55626000Y-53975000D02*
X57785000Y-51816000D01*
X52451000Y-53975000D02*
X55626000Y-53975000D01*
X51435000Y-54991000D02*
X52451000Y-53975000D01*
X51435000Y-55626000D02*
X51435000Y-54991000D01*
%TO.N,F*%
X53975000Y-55626000D02*
X53975000Y-55372000D01*
X53975000Y-55372000D02*
X54356000Y-54991000D01*
X57785000Y-54991000D02*
X60960000Y-51816000D01*
X54356000Y-54991000D02*
X57785000Y-54991000D01*
%TO.N,G*%
X53467000Y-52959000D02*
X54610000Y-51816000D01*
X50546000Y-52959000D02*
X53467000Y-52959000D01*
X48895000Y-54610000D02*
X50546000Y-52959000D01*
X48895000Y-55626000D02*
X48895000Y-54610000D01*
%TO.N,DP*%
X48641000Y-51816000D02*
X51435000Y-51816000D01*
X46355000Y-54102000D02*
X48641000Y-51816000D01*
X46355000Y-55626000D02*
X46355000Y-54102000D01*
%TO.N,BUF5*%
X50292000Y-68199000D02*
X50292000Y-66167000D01*
X59055000Y-57404000D02*
X59055000Y-56769000D01*
X50292000Y-66167000D02*
X59055000Y-57404000D01*
%TO.N,DIG3*%
X59309000Y-66167000D02*
X61341000Y-68199000D01*
X53594000Y-66167000D02*
X59309000Y-66167000D01*
%TO.N,DIG2*%
X61341000Y-69469000D02*
X61341000Y-71882000D01*
X58928000Y-67056000D02*
X61341000Y-69469000D01*
X53594000Y-67056000D02*
X58928000Y-67056000D01*
%TD*%
D18*
%TO.N,GND*%
X67740001Y-82140000D02*
X60597138Y-82140000D01*
X60726632Y-82053475D01*
X60933475Y-81846632D01*
X61095990Y-81603411D01*
X61207932Y-81333158D01*
X61265000Y-81046260D01*
X61265000Y-80753740D01*
X61207932Y-80466842D01*
X61095990Y-80196589D01*
X60933475Y-79953368D01*
X60726632Y-79746525D01*
X60483411Y-79584010D01*
X60213158Y-79472068D01*
X59926260Y-79415000D01*
X59633740Y-79415000D01*
X59346842Y-79472068D01*
X59076589Y-79584010D01*
X58833368Y-79746525D01*
X58626525Y-79953368D01*
X58510000Y-80127760D01*
X58393475Y-79953368D01*
X58186632Y-79746525D01*
X57943411Y-79584010D01*
X57673158Y-79472068D01*
X57386260Y-79415000D01*
X57093740Y-79415000D01*
X56806842Y-79472068D01*
X56536589Y-79584010D01*
X56293368Y-79746525D01*
X56086525Y-79953368D01*
X55970000Y-80127760D01*
X55853475Y-79953368D01*
X55646632Y-79746525D01*
X55403411Y-79584010D01*
X55133158Y-79472068D01*
X54846260Y-79415000D01*
X54553740Y-79415000D01*
X54266842Y-79472068D01*
X53996589Y-79584010D01*
X53753368Y-79746525D01*
X53546525Y-79953368D01*
X53430000Y-80127760D01*
X53313475Y-79953368D01*
X53106632Y-79746525D01*
X52863411Y-79584010D01*
X52593158Y-79472068D01*
X52306260Y-79415000D01*
X52013740Y-79415000D01*
X51726842Y-79472068D01*
X51456589Y-79584010D01*
X51213368Y-79746525D01*
X51006525Y-79953368D01*
X50890000Y-80127760D01*
X50773475Y-79953368D01*
X50566632Y-79746525D01*
X50323411Y-79584010D01*
X50053158Y-79472068D01*
X49766260Y-79415000D01*
X49473740Y-79415000D01*
X49186842Y-79472068D01*
X48916589Y-79584010D01*
X48673368Y-79746525D01*
X48466525Y-79953368D01*
X48350000Y-80127760D01*
X48233475Y-79953368D01*
X48026632Y-79746525D01*
X47783411Y-79584010D01*
X47513158Y-79472068D01*
X47226260Y-79415000D01*
X46933740Y-79415000D01*
X46646842Y-79472068D01*
X46376589Y-79584010D01*
X46133368Y-79746525D01*
X45926525Y-79953368D01*
X45810000Y-80127760D01*
X45693475Y-79953368D01*
X45486632Y-79746525D01*
X45243411Y-79584010D01*
X44973158Y-79472068D01*
X44686260Y-79415000D01*
X44393740Y-79415000D01*
X44106842Y-79472068D01*
X43836589Y-79584010D01*
X43593368Y-79746525D01*
X43461513Y-79878380D01*
X43439502Y-79805820D01*
X43380537Y-79695506D01*
X43301185Y-79598815D01*
X43204494Y-79519463D01*
X43094180Y-79460498D01*
X42974482Y-79424188D01*
X42850000Y-79411928D01*
X41150000Y-79411928D01*
X41025518Y-79424188D01*
X40905820Y-79460498D01*
X40795506Y-79519463D01*
X40698815Y-79598815D01*
X40619463Y-79695506D01*
X40560498Y-79805820D01*
X40524188Y-79925518D01*
X40511928Y-80050000D01*
X40511928Y-81750000D01*
X40524188Y-81874482D01*
X40560498Y-81994180D01*
X40619463Y-82104494D01*
X40648602Y-82140000D01*
X34060000Y-82140000D01*
X34060000Y-67256890D01*
X34658524Y-67256890D01*
X34703175Y-67404099D01*
X34828359Y-67666920D01*
X35002412Y-67900269D01*
X35218645Y-68095178D01*
X35468748Y-68244157D01*
X35743109Y-68341481D01*
X35973000Y-68220814D01*
X35973000Y-67027000D01*
X36227000Y-67027000D01*
X36227000Y-68220814D01*
X36456891Y-68341481D01*
X36731252Y-68244157D01*
X36981355Y-68095178D01*
X37197588Y-67900269D01*
X37371641Y-67666920D01*
X37496825Y-67404099D01*
X37541476Y-67256890D01*
X37420155Y-67027000D01*
X36227000Y-67027000D01*
X35973000Y-67027000D01*
X34779845Y-67027000D01*
X34658524Y-67256890D01*
X34060000Y-67256890D01*
X34060000Y-63510000D01*
X34611928Y-63510000D01*
X34611928Y-65210000D01*
X34624188Y-65334482D01*
X34660498Y-65454180D01*
X34719463Y-65564494D01*
X34798815Y-65661185D01*
X34895506Y-65740537D01*
X35005820Y-65799502D01*
X35086466Y-65823966D01*
X35002412Y-65899731D01*
X34828359Y-66133080D01*
X34703175Y-66395901D01*
X34658524Y-66543110D01*
X34779845Y-66773000D01*
X35973000Y-66773000D01*
X35973000Y-66753000D01*
X36227000Y-66753000D01*
X36227000Y-66773000D01*
X37420155Y-66773000D01*
X37541476Y-66543110D01*
X37496825Y-66395901D01*
X37371641Y-66133080D01*
X37197588Y-65899731D01*
X37113534Y-65823966D01*
X37194180Y-65799502D01*
X37304494Y-65740537D01*
X37401185Y-65661185D01*
X37480537Y-65564494D01*
X37539502Y-65454180D01*
X37575812Y-65334482D01*
X37588072Y-65210000D01*
X37588072Y-63510000D01*
X37575812Y-63385518D01*
X37539502Y-63265820D01*
X37480537Y-63155506D01*
X37401185Y-63058815D01*
X37304494Y-62979463D01*
X37194180Y-62920498D01*
X37074482Y-62884188D01*
X36950000Y-62871928D01*
X35250000Y-62871928D01*
X35125518Y-62884188D01*
X35005820Y-62920498D01*
X34895506Y-62979463D01*
X34798815Y-63058815D01*
X34719463Y-63155506D01*
X34660498Y-63265820D01*
X34624188Y-63385518D01*
X34611928Y-63510000D01*
X34060000Y-63510000D01*
X34060000Y-55150000D01*
X34611928Y-55150000D01*
X34624188Y-55274482D01*
X34660498Y-55394180D01*
X34719463Y-55504494D01*
X34798815Y-55601185D01*
X34895506Y-55680537D01*
X35005820Y-55739502D01*
X35078380Y-55761513D01*
X34946525Y-55893368D01*
X34784010Y-56136589D01*
X34672068Y-56406842D01*
X34615000Y-56693740D01*
X34615000Y-56986260D01*
X34672068Y-57273158D01*
X34784010Y-57543411D01*
X34946525Y-57786632D01*
X35153368Y-57993475D01*
X35327760Y-58110000D01*
X35153368Y-58226525D01*
X34946525Y-58433368D01*
X34784010Y-58676589D01*
X34672068Y-58946842D01*
X34615000Y-59233740D01*
X34615000Y-59526260D01*
X34672068Y-59813158D01*
X34784010Y-60083411D01*
X34946525Y-60326632D01*
X35153368Y-60533475D01*
X35396589Y-60695990D01*
X35666842Y-60807932D01*
X35953740Y-60865000D01*
X36246260Y-60865000D01*
X36533158Y-60807932D01*
X36803411Y-60695990D01*
X37046632Y-60533475D01*
X37253475Y-60326632D01*
X37415990Y-60083411D01*
X37527932Y-59813158D01*
X37585000Y-59526260D01*
X37585000Y-59233740D01*
X37527932Y-58946842D01*
X37415990Y-58676589D01*
X37253475Y-58433368D01*
X37046632Y-58226525D01*
X36872240Y-58110000D01*
X37046632Y-57993475D01*
X37253475Y-57786632D01*
X37415990Y-57543411D01*
X37527932Y-57273158D01*
X37585000Y-56986260D01*
X37585000Y-56693740D01*
X37527932Y-56406842D01*
X37415990Y-56136589D01*
X37253475Y-55893368D01*
X37121620Y-55761513D01*
X37194180Y-55739502D01*
X37304494Y-55680537D01*
X37401185Y-55601185D01*
X37456395Y-55533911D01*
X45420000Y-55533911D01*
X45420000Y-55718089D01*
X45455932Y-55898729D01*
X45526414Y-56068889D01*
X45628738Y-56222028D01*
X45758972Y-56352262D01*
X45912111Y-56454586D01*
X46082271Y-56525068D01*
X46262911Y-56561000D01*
X46447089Y-56561000D01*
X46627729Y-56525068D01*
X46797889Y-56454586D01*
X46951028Y-56352262D01*
X46990000Y-56313290D01*
X47028972Y-56352262D01*
X47182111Y-56454586D01*
X47352271Y-56525068D01*
X47532911Y-56561000D01*
X47717089Y-56561000D01*
X47897729Y-56525068D01*
X48067889Y-56454586D01*
X48221028Y-56352262D01*
X48260000Y-56313290D01*
X48298972Y-56352262D01*
X48452111Y-56454586D01*
X48622271Y-56525068D01*
X48802911Y-56561000D01*
X48987089Y-56561000D01*
X49167729Y-56525068D01*
X49337889Y-56454586D01*
X49491028Y-56352262D01*
X49530000Y-56313290D01*
X49568972Y-56352262D01*
X49722111Y-56454586D01*
X49892271Y-56525068D01*
X50072911Y-56561000D01*
X50257089Y-56561000D01*
X50437729Y-56525068D01*
X50607889Y-56454586D01*
X50761028Y-56352262D01*
X50800000Y-56313290D01*
X50838972Y-56352262D01*
X50992111Y-56454586D01*
X51162271Y-56525068D01*
X51342911Y-56561000D01*
X51527089Y-56561000D01*
X51707729Y-56525068D01*
X51877889Y-56454586D01*
X52031028Y-56352262D01*
X52070000Y-56313290D01*
X52108972Y-56352262D01*
X52262111Y-56454586D01*
X52432271Y-56525068D01*
X52612911Y-56561000D01*
X52797089Y-56561000D01*
X52977729Y-56525068D01*
X53147889Y-56454586D01*
X53301028Y-56352262D01*
X53340000Y-56313290D01*
X53378972Y-56352262D01*
X53532111Y-56454586D01*
X53702271Y-56525068D01*
X53882911Y-56561000D01*
X54067089Y-56561000D01*
X54247729Y-56525068D01*
X54417889Y-56454586D01*
X54571028Y-56352262D01*
X54610000Y-56313290D01*
X54648972Y-56352262D01*
X54802111Y-56454586D01*
X54972271Y-56525068D01*
X55152911Y-56561000D01*
X55337089Y-56561000D01*
X55517729Y-56525068D01*
X55621872Y-56481931D01*
X55615932Y-56496271D01*
X55580000Y-56676911D01*
X55580000Y-56861089D01*
X55615932Y-57041729D01*
X55670567Y-57173630D01*
X47240998Y-65603201D01*
X47212000Y-65626999D01*
X47188202Y-65655997D01*
X47188201Y-65655998D01*
X47117026Y-65742724D01*
X47046454Y-65874754D01*
X47002998Y-66018015D01*
X46988324Y-66167000D01*
X46992001Y-66204332D01*
X46992000Y-67653464D01*
X46923414Y-67756111D01*
X46852932Y-67926271D01*
X46817000Y-68106911D01*
X46817000Y-68291089D01*
X46852932Y-68471729D01*
X46923414Y-68641889D01*
X47025738Y-68795028D01*
X47155972Y-68925262D01*
X47309111Y-69027586D01*
X47479271Y-69098068D01*
X47659911Y-69134000D01*
X47844089Y-69134000D01*
X48024729Y-69098068D01*
X48194889Y-69027586D01*
X48348028Y-68925262D01*
X48387000Y-68886290D01*
X48425972Y-68925262D01*
X48579111Y-69027586D01*
X48749271Y-69098068D01*
X48929911Y-69134000D01*
X49114089Y-69134000D01*
X49294729Y-69098068D01*
X49464889Y-69027586D01*
X49618028Y-68925262D01*
X49657000Y-68886290D01*
X49695972Y-68925262D01*
X49849111Y-69027586D01*
X50019271Y-69098068D01*
X50199911Y-69134000D01*
X50384089Y-69134000D01*
X50564729Y-69098068D01*
X50734889Y-69027586D01*
X50888028Y-68925262D01*
X51018262Y-68795028D01*
X51120586Y-68641889D01*
X51191068Y-68471729D01*
X51227000Y-68291089D01*
X51227000Y-68106911D01*
X51191068Y-67926271D01*
X51120586Y-67756111D01*
X51052000Y-67653465D01*
X51052000Y-66481801D01*
X51458890Y-66074911D01*
X52659000Y-66074911D01*
X52659000Y-66259089D01*
X52694932Y-66439729D01*
X52765414Y-66609889D01*
X52766490Y-66611500D01*
X52765414Y-66613111D01*
X52694932Y-66783271D01*
X52659000Y-66963911D01*
X52659000Y-67148089D01*
X52694932Y-67328729D01*
X52765414Y-67498889D01*
X52766490Y-67500500D01*
X52765414Y-67502111D01*
X52694932Y-67672271D01*
X52659000Y-67852911D01*
X52659000Y-68037089D01*
X52694932Y-68217729D01*
X52765414Y-68387889D01*
X52867738Y-68541028D01*
X52997972Y-68671262D01*
X53151111Y-68773586D01*
X53321271Y-68844068D01*
X53501911Y-68880000D01*
X53686089Y-68880000D01*
X53866729Y-68844068D01*
X54036889Y-68773586D01*
X54139535Y-68705000D01*
X58232199Y-68705000D01*
X59692000Y-70164802D01*
X59692001Y-74638668D01*
X59688324Y-74676000D01*
X59702998Y-74824985D01*
X59746454Y-74968246D01*
X59817026Y-75100276D01*
X59888201Y-75187002D01*
X59912000Y-75216001D01*
X59940998Y-75239799D01*
X60417847Y-75716649D01*
X60441932Y-75837729D01*
X60512414Y-76007889D01*
X60614738Y-76161028D01*
X60744972Y-76291262D01*
X60898111Y-76393586D01*
X61068271Y-76464068D01*
X61248911Y-76500000D01*
X61433089Y-76500000D01*
X61613729Y-76464068D01*
X61783889Y-76393586D01*
X61937028Y-76291262D01*
X62067262Y-76161028D01*
X62169586Y-76007889D01*
X62240068Y-75837729D01*
X62276000Y-75657089D01*
X62276000Y-75472911D01*
X62240068Y-75292271D01*
X62169586Y-75122111D01*
X62067262Y-74968972D01*
X61937028Y-74838738D01*
X61783889Y-74736414D01*
X61613729Y-74665932D01*
X61492649Y-74641847D01*
X61212000Y-74361199D01*
X61212000Y-72809658D01*
X61248911Y-72817000D01*
X61433089Y-72817000D01*
X61613729Y-72781068D01*
X61783889Y-72710586D01*
X61937028Y-72608262D01*
X62067262Y-72478028D01*
X62169586Y-72324889D01*
X62240068Y-72154729D01*
X62276000Y-71974089D01*
X62276000Y-71789911D01*
X62240068Y-71609271D01*
X62169586Y-71439111D01*
X62101000Y-71336465D01*
X62101000Y-69506322D01*
X62104676Y-69468999D01*
X62101000Y-69431676D01*
X62101000Y-69431667D01*
X62090003Y-69320014D01*
X62046546Y-69176753D01*
X61975974Y-69044724D01*
X61898863Y-68950763D01*
X61937028Y-68925262D01*
X62067262Y-68795028D01*
X62169586Y-68641889D01*
X62240068Y-68471729D01*
X62276000Y-68291089D01*
X62276000Y-68106911D01*
X62240068Y-67926271D01*
X62169586Y-67756111D01*
X62067262Y-67602972D01*
X61937028Y-67472738D01*
X61802936Y-67383141D01*
X61957271Y-67447068D01*
X62137911Y-67483000D01*
X62322089Y-67483000D01*
X62502729Y-67447068D01*
X62672889Y-67376586D01*
X62826028Y-67274262D01*
X62956262Y-67144028D01*
X63058586Y-66990889D01*
X63129068Y-66820729D01*
X63165000Y-66640089D01*
X63165000Y-66455911D01*
X63129068Y-66275271D01*
X63065000Y-66120596D01*
X63065000Y-63591867D01*
X63866804Y-62790063D01*
X63870525Y-62795632D01*
X64002380Y-62927487D01*
X63929820Y-62949498D01*
X63819506Y-63008463D01*
X63722815Y-63087815D01*
X63643463Y-63184506D01*
X63584498Y-63294820D01*
X63548188Y-63414518D01*
X63535928Y-63539000D01*
X63535928Y-65239000D01*
X63548188Y-65363482D01*
X63584498Y-65483180D01*
X63643463Y-65593494D01*
X63722815Y-65690185D01*
X63819506Y-65769537D01*
X63929820Y-65828502D01*
X64049518Y-65864812D01*
X64174000Y-65877072D01*
X65874000Y-65877072D01*
X65998482Y-65864812D01*
X66118180Y-65828502D01*
X66228494Y-65769537D01*
X66325185Y-65690185D01*
X66404537Y-65593494D01*
X66463502Y-65483180D01*
X66499812Y-65363482D01*
X66512072Y-65239000D01*
X66512072Y-63539000D01*
X66499812Y-63414518D01*
X66463502Y-63294820D01*
X66404537Y-63184506D01*
X66325185Y-63087815D01*
X66228494Y-63008463D01*
X66118180Y-62949498D01*
X66045620Y-62927487D01*
X66177475Y-62795632D01*
X66339990Y-62552411D01*
X66451932Y-62282158D01*
X66509000Y-61995260D01*
X66509000Y-61702740D01*
X66451932Y-61415842D01*
X66339990Y-61145589D01*
X66177475Y-60902368D01*
X65970632Y-60695525D01*
X65788466Y-60573805D01*
X65905355Y-60504178D01*
X66121588Y-60309269D01*
X66295641Y-60075920D01*
X66420825Y-59813099D01*
X66465476Y-59665890D01*
X66344155Y-59436000D01*
X65151000Y-59436000D01*
X65151000Y-59456000D01*
X64897000Y-59456000D01*
X64897000Y-59436000D01*
X63703845Y-59436000D01*
X63582524Y-59665890D01*
X63627175Y-59813099D01*
X63752359Y-60075920D01*
X63926412Y-60309269D01*
X64142645Y-60504178D01*
X64259534Y-60573805D01*
X64077368Y-60695525D01*
X63870525Y-60902368D01*
X63795935Y-61014000D01*
X63668007Y-61014000D01*
X63626999Y-61009961D01*
X63585991Y-61014000D01*
X63585981Y-61014000D01*
X63463311Y-61026082D01*
X63305913Y-61073828D01*
X63160854Y-61151364D01*
X63033709Y-61255709D01*
X63007558Y-61287574D01*
X61668574Y-62626559D01*
X61636710Y-62652709D01*
X61610562Y-62684571D01*
X61532364Y-62779855D01*
X61454828Y-62924914D01*
X61407082Y-63082312D01*
X61390960Y-63246000D01*
X61395001Y-63287028D01*
X61395000Y-66120596D01*
X61330932Y-66275271D01*
X61295000Y-66455911D01*
X61295000Y-66640089D01*
X61330932Y-66820729D01*
X61401414Y-66990889D01*
X61503738Y-67144028D01*
X61633972Y-67274262D01*
X61768064Y-67363859D01*
X61613729Y-67299932D01*
X61492649Y-67275847D01*
X59872804Y-65656003D01*
X59849001Y-65626999D01*
X59733276Y-65532026D01*
X59601247Y-65461454D01*
X59457986Y-65417997D01*
X59346333Y-65407000D01*
X59346322Y-65407000D01*
X59309000Y-65403324D01*
X59271678Y-65407000D01*
X54139535Y-65407000D01*
X54036889Y-65338414D01*
X53866729Y-65267932D01*
X53686089Y-65232000D01*
X53501911Y-65232000D01*
X53321271Y-65267932D01*
X53151111Y-65338414D01*
X52997972Y-65440738D01*
X52867738Y-65570972D01*
X52765414Y-65724111D01*
X52694932Y-65894271D01*
X52659000Y-66074911D01*
X51458890Y-66074911D01*
X59566009Y-57967794D01*
X59595001Y-57944001D01*
X59618795Y-57915008D01*
X59618799Y-57915004D01*
X59689973Y-57828277D01*
X59689974Y-57828276D01*
X59760546Y-57696247D01*
X59804003Y-57552986D01*
X59815000Y-57441333D01*
X59815000Y-57441324D01*
X59818676Y-57404001D01*
X59815000Y-57366678D01*
X59815000Y-57314535D01*
X59883586Y-57211889D01*
X59954068Y-57041729D01*
X59990000Y-56861089D01*
X59990000Y-56676911D01*
X59954068Y-56496271D01*
X59883586Y-56326111D01*
X59781262Y-56172972D01*
X59651028Y-56042738D01*
X59535953Y-55965848D01*
X61419061Y-54082740D01*
X63539000Y-54082740D01*
X63539000Y-54375260D01*
X63596068Y-54662158D01*
X63708010Y-54932411D01*
X63870525Y-55175632D01*
X64077368Y-55382475D01*
X64251760Y-55499000D01*
X64077368Y-55615525D01*
X63870525Y-55822368D01*
X63708010Y-56065589D01*
X63596068Y-56335842D01*
X63539000Y-56622740D01*
X63539000Y-56915260D01*
X63596068Y-57202158D01*
X63708010Y-57472411D01*
X63870525Y-57715632D01*
X64077368Y-57922475D01*
X64259534Y-58044195D01*
X64142645Y-58113822D01*
X63926412Y-58308731D01*
X63752359Y-58542080D01*
X63627175Y-58804901D01*
X63582524Y-58952110D01*
X63703845Y-59182000D01*
X64897000Y-59182000D01*
X64897000Y-59162000D01*
X65151000Y-59162000D01*
X65151000Y-59182000D01*
X66344155Y-59182000D01*
X66465476Y-58952110D01*
X66420825Y-58804901D01*
X66295641Y-58542080D01*
X66121588Y-58308731D01*
X65905355Y-58113822D01*
X65788466Y-58044195D01*
X65970632Y-57922475D01*
X66177475Y-57715632D01*
X66339990Y-57472411D01*
X66451932Y-57202158D01*
X66509000Y-56915260D01*
X66509000Y-56622740D01*
X66451932Y-56335842D01*
X66339990Y-56065589D01*
X66177475Y-55822368D01*
X65970632Y-55615525D01*
X65796240Y-55499000D01*
X65970632Y-55382475D01*
X66177475Y-55175632D01*
X66339990Y-54932411D01*
X66451932Y-54662158D01*
X66509000Y-54375260D01*
X66509000Y-54082740D01*
X66451932Y-53795842D01*
X66339990Y-53525589D01*
X66177475Y-53282368D01*
X65970632Y-53075525D01*
X65727411Y-52913010D01*
X65457158Y-52801068D01*
X65170260Y-52744000D01*
X64877740Y-52744000D01*
X64590842Y-52801068D01*
X64320589Y-52913010D01*
X64077368Y-53075525D01*
X63870525Y-53282368D01*
X63708010Y-53525589D01*
X63596068Y-53795842D01*
X63539000Y-54082740D01*
X61419061Y-54082740D01*
X62762649Y-52739153D01*
X62883729Y-52715068D01*
X63053889Y-52644586D01*
X63207028Y-52542262D01*
X63337262Y-52412028D01*
X63439586Y-52258889D01*
X63510068Y-52088729D01*
X63546000Y-51908089D01*
X63546000Y-51723911D01*
X63510068Y-51543271D01*
X63439586Y-51373111D01*
X63337262Y-51219972D01*
X63207028Y-51089738D01*
X63053889Y-50987414D01*
X62883729Y-50916932D01*
X62703089Y-50881000D01*
X62518911Y-50881000D01*
X62338271Y-50916932D01*
X62168111Y-50987414D01*
X62014972Y-51089738D01*
X61884738Y-51219972D01*
X61785500Y-51368492D01*
X61686262Y-51219972D01*
X61556028Y-51089738D01*
X61402889Y-50987414D01*
X61232729Y-50916932D01*
X61052089Y-50881000D01*
X60867911Y-50881000D01*
X60687271Y-50916932D01*
X60517111Y-50987414D01*
X60363972Y-51089738D01*
X60233738Y-51219972D01*
X60134500Y-51368492D01*
X60035262Y-51219972D01*
X59905028Y-51089738D01*
X59751889Y-50987414D01*
X59581729Y-50916932D01*
X59401089Y-50881000D01*
X59216911Y-50881000D01*
X59036271Y-50916932D01*
X58866111Y-50987414D01*
X58712972Y-51089738D01*
X58582738Y-51219972D01*
X58547000Y-51273458D01*
X58511262Y-51219972D01*
X58381028Y-51089738D01*
X58227889Y-50987414D01*
X58057729Y-50916932D01*
X57877089Y-50881000D01*
X57692911Y-50881000D01*
X57512271Y-50916932D01*
X57342111Y-50987414D01*
X57188972Y-51089738D01*
X57058738Y-51219972D01*
X56959500Y-51368492D01*
X56860262Y-51219972D01*
X56730028Y-51089738D01*
X56576889Y-50987414D01*
X56406729Y-50916932D01*
X56226089Y-50881000D01*
X56041911Y-50881000D01*
X55861271Y-50916932D01*
X55691111Y-50987414D01*
X55537972Y-51089738D01*
X55407738Y-51219972D01*
X55372000Y-51273458D01*
X55336262Y-51219972D01*
X55206028Y-51089738D01*
X55052889Y-50987414D01*
X54882729Y-50916932D01*
X54702089Y-50881000D01*
X54517911Y-50881000D01*
X54337271Y-50916932D01*
X54167111Y-50987414D01*
X54013972Y-51089738D01*
X53883738Y-51219972D01*
X53784500Y-51368492D01*
X53685262Y-51219972D01*
X53555028Y-51089738D01*
X53401889Y-50987414D01*
X53231729Y-50916932D01*
X53051089Y-50881000D01*
X52866911Y-50881000D01*
X52686271Y-50916932D01*
X52516111Y-50987414D01*
X52362972Y-51089738D01*
X52232738Y-51219972D01*
X52197000Y-51273458D01*
X52161262Y-51219972D01*
X52031028Y-51089738D01*
X51877889Y-50987414D01*
X51707729Y-50916932D01*
X51527089Y-50881000D01*
X51342911Y-50881000D01*
X51162271Y-50916932D01*
X50992111Y-50987414D01*
X50889465Y-51056000D01*
X48678322Y-51056000D01*
X48640999Y-51052324D01*
X48603676Y-51056000D01*
X48603667Y-51056000D01*
X48492014Y-51066997D01*
X48348753Y-51110454D01*
X48216724Y-51181026D01*
X48100999Y-51275999D01*
X48077201Y-51304997D01*
X45843998Y-53538201D01*
X45815000Y-53561999D01*
X45791202Y-53590997D01*
X45791201Y-53590998D01*
X45720026Y-53677724D01*
X45649454Y-53809754D01*
X45624726Y-53891276D01*
X45605998Y-53953014D01*
X45600681Y-54007001D01*
X45591324Y-54102000D01*
X45595001Y-54139332D01*
X45595000Y-55080464D01*
X45526414Y-55183111D01*
X45455932Y-55353271D01*
X45420000Y-55533911D01*
X37456395Y-55533911D01*
X37480537Y-55504494D01*
X37539502Y-55394180D01*
X37575812Y-55274482D01*
X37588072Y-55150000D01*
X37585000Y-54585750D01*
X37426250Y-54427000D01*
X36227000Y-54427000D01*
X36227000Y-54447000D01*
X35973000Y-54447000D01*
X35973000Y-54427000D01*
X34773750Y-54427000D01*
X34615000Y-54585750D01*
X34611928Y-55150000D01*
X34060000Y-55150000D01*
X34060000Y-53450000D01*
X34611928Y-53450000D01*
X34615000Y-54014250D01*
X34773750Y-54173000D01*
X35973000Y-54173000D01*
X35973000Y-52973750D01*
X36227000Y-52973750D01*
X36227000Y-54173000D01*
X37426250Y-54173000D01*
X37585000Y-54014250D01*
X37588072Y-53450000D01*
X37575812Y-53325518D01*
X37539502Y-53205820D01*
X37480537Y-53095506D01*
X37401185Y-52998815D01*
X37304494Y-52919463D01*
X37194180Y-52860498D01*
X37074482Y-52824188D01*
X36950000Y-52811928D01*
X36385750Y-52815000D01*
X36227000Y-52973750D01*
X35973000Y-52973750D01*
X35814250Y-52815000D01*
X35250000Y-52811928D01*
X35125518Y-52824188D01*
X35005820Y-52860498D01*
X34895506Y-52919463D01*
X34798815Y-52998815D01*
X34719463Y-53095506D01*
X34660498Y-53205820D01*
X34624188Y-53325518D01*
X34611928Y-53450000D01*
X34060000Y-53450000D01*
X34060000Y-44850000D01*
X43111928Y-44850000D01*
X43111928Y-46350000D01*
X43124188Y-46474482D01*
X43160498Y-46594180D01*
X43219463Y-46704494D01*
X43298815Y-46801185D01*
X43395506Y-46880537D01*
X43505820Y-46939502D01*
X43625518Y-46975812D01*
X43750000Y-46988072D01*
X45250000Y-46988072D01*
X45374482Y-46975812D01*
X45494180Y-46939502D01*
X45604494Y-46880537D01*
X45701185Y-46801185D01*
X45780537Y-46704494D01*
X45839502Y-46594180D01*
X45875812Y-46474482D01*
X45886445Y-46366517D01*
X45964201Y-46482886D01*
X46157114Y-46675799D01*
X46383957Y-46827371D01*
X46636011Y-46931775D01*
X46903589Y-46985000D01*
X47176411Y-46985000D01*
X47443989Y-46931775D01*
X47696043Y-46827371D01*
X47922886Y-46675799D01*
X48115799Y-46482886D01*
X48267371Y-46256043D01*
X48310000Y-46153127D01*
X48352629Y-46256043D01*
X48504201Y-46482886D01*
X48697114Y-46675799D01*
X48923957Y-46827371D01*
X49176011Y-46931775D01*
X49443589Y-46985000D01*
X49716411Y-46985000D01*
X49983989Y-46931775D01*
X50236043Y-46827371D01*
X50462886Y-46675799D01*
X50655799Y-46482886D01*
X50807371Y-46256043D01*
X50850000Y-46153127D01*
X50892629Y-46256043D01*
X51044201Y-46482886D01*
X51237114Y-46675799D01*
X51463957Y-46827371D01*
X51716011Y-46931775D01*
X51983589Y-46985000D01*
X52256411Y-46985000D01*
X52523989Y-46931775D01*
X52776043Y-46827371D01*
X53002886Y-46675799D01*
X53195799Y-46482886D01*
X53347371Y-46256043D01*
X53390000Y-46153127D01*
X53432629Y-46256043D01*
X53584201Y-46482886D01*
X53777114Y-46675799D01*
X54003957Y-46827371D01*
X54256011Y-46931775D01*
X54523589Y-46985000D01*
X54796411Y-46985000D01*
X55063989Y-46931775D01*
X55316043Y-46827371D01*
X55542886Y-46675799D01*
X55735799Y-46482886D01*
X55887371Y-46256043D01*
X55991775Y-46003989D01*
X56045000Y-45736411D01*
X56045000Y-45463589D01*
X55991775Y-45196011D01*
X55887371Y-44943957D01*
X55735799Y-44717114D01*
X55542886Y-44524201D01*
X55316043Y-44372629D01*
X55063989Y-44268225D01*
X54796411Y-44215000D01*
X54523589Y-44215000D01*
X54256011Y-44268225D01*
X54003957Y-44372629D01*
X53777114Y-44524201D01*
X53584201Y-44717114D01*
X53432629Y-44943957D01*
X53390000Y-45046873D01*
X53347371Y-44943957D01*
X53195799Y-44717114D01*
X53002886Y-44524201D01*
X52776043Y-44372629D01*
X52523989Y-44268225D01*
X52256411Y-44215000D01*
X51983589Y-44215000D01*
X51716011Y-44268225D01*
X51463957Y-44372629D01*
X51237114Y-44524201D01*
X51044201Y-44717114D01*
X50892629Y-44943957D01*
X50850000Y-45046873D01*
X50807371Y-44943957D01*
X50655799Y-44717114D01*
X50462886Y-44524201D01*
X50236043Y-44372629D01*
X49983989Y-44268225D01*
X49716411Y-44215000D01*
X49443589Y-44215000D01*
X49176011Y-44268225D01*
X48923957Y-44372629D01*
X48697114Y-44524201D01*
X48504201Y-44717114D01*
X48352629Y-44943957D01*
X48310000Y-45046873D01*
X48267371Y-44943957D01*
X48115799Y-44717114D01*
X47922886Y-44524201D01*
X47696043Y-44372629D01*
X47443989Y-44268225D01*
X47176411Y-44215000D01*
X46903589Y-44215000D01*
X46636011Y-44268225D01*
X46383957Y-44372629D01*
X46157114Y-44524201D01*
X45964201Y-44717114D01*
X45886445Y-44833483D01*
X45875812Y-44725518D01*
X45839502Y-44605820D01*
X45780537Y-44495506D01*
X45701185Y-44398815D01*
X45604494Y-44319463D01*
X45494180Y-44260498D01*
X45374482Y-44224188D01*
X45250000Y-44211928D01*
X43750000Y-44211928D01*
X43625518Y-44224188D01*
X43505820Y-44260498D01*
X43395506Y-44319463D01*
X43298815Y-44398815D01*
X43219463Y-44495506D01*
X43160498Y-44605820D01*
X43124188Y-44725518D01*
X43111928Y-44850000D01*
X34060000Y-44850000D01*
X34060000Y-32763589D01*
X43115000Y-32763589D01*
X43115000Y-33036411D01*
X43168225Y-33303989D01*
X43272629Y-33556043D01*
X43424201Y-33782886D01*
X43617114Y-33975799D01*
X43843957Y-34127371D01*
X44096011Y-34231775D01*
X44363589Y-34285000D01*
X44636411Y-34285000D01*
X44903989Y-34231775D01*
X45156043Y-34127371D01*
X45382886Y-33975799D01*
X45575799Y-33782886D01*
X45727371Y-33556043D01*
X45770000Y-33453127D01*
X45812629Y-33556043D01*
X45964201Y-33782886D01*
X46157114Y-33975799D01*
X46383957Y-34127371D01*
X46636011Y-34231775D01*
X46903589Y-34285000D01*
X47176411Y-34285000D01*
X47443989Y-34231775D01*
X47696043Y-34127371D01*
X47922886Y-33975799D01*
X48115799Y-33782886D01*
X48267371Y-33556043D01*
X48310000Y-33453127D01*
X48352629Y-33556043D01*
X48504201Y-33782886D01*
X48697114Y-33975799D01*
X48923957Y-34127371D01*
X49176011Y-34231775D01*
X49443589Y-34285000D01*
X49716411Y-34285000D01*
X49983989Y-34231775D01*
X50236043Y-34127371D01*
X50462886Y-33975799D01*
X50655799Y-33782886D01*
X50807371Y-33556043D01*
X50850000Y-33453127D01*
X50892629Y-33556043D01*
X51044201Y-33782886D01*
X51237114Y-33975799D01*
X51463957Y-34127371D01*
X51716011Y-34231775D01*
X51983589Y-34285000D01*
X52256411Y-34285000D01*
X52523989Y-34231775D01*
X52776043Y-34127371D01*
X53002886Y-33975799D01*
X53195799Y-33782886D01*
X53347371Y-33556043D01*
X53390000Y-33453127D01*
X53432629Y-33556043D01*
X53584201Y-33782886D01*
X53777114Y-33975799D01*
X54003957Y-34127371D01*
X54256011Y-34231775D01*
X54523589Y-34285000D01*
X54796411Y-34285000D01*
X55063989Y-34231775D01*
X55316043Y-34127371D01*
X55542886Y-33975799D01*
X55735799Y-33782886D01*
X55887371Y-33556043D01*
X55930000Y-33453127D01*
X55972629Y-33556043D01*
X56124201Y-33782886D01*
X56317114Y-33975799D01*
X56543957Y-34127371D01*
X56796011Y-34231775D01*
X57063589Y-34285000D01*
X57336411Y-34285000D01*
X57603989Y-34231775D01*
X57856043Y-34127371D01*
X58082886Y-33975799D01*
X58275799Y-33782886D01*
X58427371Y-33556043D01*
X58531775Y-33303989D01*
X58585000Y-33036411D01*
X58585000Y-32763589D01*
X58531775Y-32496011D01*
X58427371Y-32243957D01*
X58275799Y-32017114D01*
X58082886Y-31824201D01*
X57856043Y-31672629D01*
X57603989Y-31568225D01*
X57336411Y-31515000D01*
X57063589Y-31515000D01*
X56796011Y-31568225D01*
X56543957Y-31672629D01*
X56317114Y-31824201D01*
X56124201Y-32017114D01*
X55972629Y-32243957D01*
X55930000Y-32346873D01*
X55887371Y-32243957D01*
X55735799Y-32017114D01*
X55542886Y-31824201D01*
X55316043Y-31672629D01*
X55063989Y-31568225D01*
X54796411Y-31515000D01*
X54523589Y-31515000D01*
X54256011Y-31568225D01*
X54003957Y-31672629D01*
X53777114Y-31824201D01*
X53584201Y-32017114D01*
X53432629Y-32243957D01*
X53390000Y-32346873D01*
X53347371Y-32243957D01*
X53195799Y-32017114D01*
X53002886Y-31824201D01*
X52776043Y-31672629D01*
X52523989Y-31568225D01*
X52256411Y-31515000D01*
X51983589Y-31515000D01*
X51716011Y-31568225D01*
X51463957Y-31672629D01*
X51237114Y-31824201D01*
X51044201Y-32017114D01*
X50892629Y-32243957D01*
X50850000Y-32346873D01*
X50807371Y-32243957D01*
X50655799Y-32017114D01*
X50462886Y-31824201D01*
X50236043Y-31672629D01*
X49983989Y-31568225D01*
X49716411Y-31515000D01*
X49443589Y-31515000D01*
X49176011Y-31568225D01*
X48923957Y-31672629D01*
X48697114Y-31824201D01*
X48504201Y-32017114D01*
X48352629Y-32243957D01*
X48310000Y-32346873D01*
X48267371Y-32243957D01*
X48115799Y-32017114D01*
X47922886Y-31824201D01*
X47696043Y-31672629D01*
X47443989Y-31568225D01*
X47176411Y-31515000D01*
X46903589Y-31515000D01*
X46636011Y-31568225D01*
X46383957Y-31672629D01*
X46157114Y-31824201D01*
X45964201Y-32017114D01*
X45812629Y-32243957D01*
X45770000Y-32346873D01*
X45727371Y-32243957D01*
X45575799Y-32017114D01*
X45382886Y-31824201D01*
X45156043Y-31672629D01*
X44903989Y-31568225D01*
X44636411Y-31515000D01*
X44363589Y-31515000D01*
X44096011Y-31568225D01*
X43843957Y-31672629D01*
X43617114Y-31824201D01*
X43424201Y-32017114D01*
X43272629Y-32243957D01*
X43168225Y-32496011D01*
X43115000Y-32763589D01*
X34060000Y-32763589D01*
X34060000Y-30460000D01*
X67740000Y-30460000D01*
X67740001Y-82140000D01*
%TA.AperFunction,Conductor*%
D19*
G36*
X67740001Y-82140000D02*
G01*
X60597138Y-82140000D01*
X60726632Y-82053475D01*
X60933475Y-81846632D01*
X61095990Y-81603411D01*
X61207932Y-81333158D01*
X61265000Y-81046260D01*
X61265000Y-80753740D01*
X61207932Y-80466842D01*
X61095990Y-80196589D01*
X60933475Y-79953368D01*
X60726632Y-79746525D01*
X60483411Y-79584010D01*
X60213158Y-79472068D01*
X59926260Y-79415000D01*
X59633740Y-79415000D01*
X59346842Y-79472068D01*
X59076589Y-79584010D01*
X58833368Y-79746525D01*
X58626525Y-79953368D01*
X58510000Y-80127760D01*
X58393475Y-79953368D01*
X58186632Y-79746525D01*
X57943411Y-79584010D01*
X57673158Y-79472068D01*
X57386260Y-79415000D01*
X57093740Y-79415000D01*
X56806842Y-79472068D01*
X56536589Y-79584010D01*
X56293368Y-79746525D01*
X56086525Y-79953368D01*
X55970000Y-80127760D01*
X55853475Y-79953368D01*
X55646632Y-79746525D01*
X55403411Y-79584010D01*
X55133158Y-79472068D01*
X54846260Y-79415000D01*
X54553740Y-79415000D01*
X54266842Y-79472068D01*
X53996589Y-79584010D01*
X53753368Y-79746525D01*
X53546525Y-79953368D01*
X53430000Y-80127760D01*
X53313475Y-79953368D01*
X53106632Y-79746525D01*
X52863411Y-79584010D01*
X52593158Y-79472068D01*
X52306260Y-79415000D01*
X52013740Y-79415000D01*
X51726842Y-79472068D01*
X51456589Y-79584010D01*
X51213368Y-79746525D01*
X51006525Y-79953368D01*
X50890000Y-80127760D01*
X50773475Y-79953368D01*
X50566632Y-79746525D01*
X50323411Y-79584010D01*
X50053158Y-79472068D01*
X49766260Y-79415000D01*
X49473740Y-79415000D01*
X49186842Y-79472068D01*
X48916589Y-79584010D01*
X48673368Y-79746525D01*
X48466525Y-79953368D01*
X48350000Y-80127760D01*
X48233475Y-79953368D01*
X48026632Y-79746525D01*
X47783411Y-79584010D01*
X47513158Y-79472068D01*
X47226260Y-79415000D01*
X46933740Y-79415000D01*
X46646842Y-79472068D01*
X46376589Y-79584010D01*
X46133368Y-79746525D01*
X45926525Y-79953368D01*
X45810000Y-80127760D01*
X45693475Y-79953368D01*
X45486632Y-79746525D01*
X45243411Y-79584010D01*
X44973158Y-79472068D01*
X44686260Y-79415000D01*
X44393740Y-79415000D01*
X44106842Y-79472068D01*
X43836589Y-79584010D01*
X43593368Y-79746525D01*
X43461513Y-79878380D01*
X43439502Y-79805820D01*
X43380537Y-79695506D01*
X43301185Y-79598815D01*
X43204494Y-79519463D01*
X43094180Y-79460498D01*
X42974482Y-79424188D01*
X42850000Y-79411928D01*
X41150000Y-79411928D01*
X41025518Y-79424188D01*
X40905820Y-79460498D01*
X40795506Y-79519463D01*
X40698815Y-79598815D01*
X40619463Y-79695506D01*
X40560498Y-79805820D01*
X40524188Y-79925518D01*
X40511928Y-80050000D01*
X40511928Y-81750000D01*
X40524188Y-81874482D01*
X40560498Y-81994180D01*
X40619463Y-82104494D01*
X40648602Y-82140000D01*
X34060000Y-82140000D01*
X34060000Y-67256890D01*
X34658524Y-67256890D01*
X34703175Y-67404099D01*
X34828359Y-67666920D01*
X35002412Y-67900269D01*
X35218645Y-68095178D01*
X35468748Y-68244157D01*
X35743109Y-68341481D01*
X35973000Y-68220814D01*
X35973000Y-67027000D01*
X36227000Y-67027000D01*
X36227000Y-68220814D01*
X36456891Y-68341481D01*
X36731252Y-68244157D01*
X36981355Y-68095178D01*
X37197588Y-67900269D01*
X37371641Y-67666920D01*
X37496825Y-67404099D01*
X37541476Y-67256890D01*
X37420155Y-67027000D01*
X36227000Y-67027000D01*
X35973000Y-67027000D01*
X34779845Y-67027000D01*
X34658524Y-67256890D01*
X34060000Y-67256890D01*
X34060000Y-63510000D01*
X34611928Y-63510000D01*
X34611928Y-65210000D01*
X34624188Y-65334482D01*
X34660498Y-65454180D01*
X34719463Y-65564494D01*
X34798815Y-65661185D01*
X34895506Y-65740537D01*
X35005820Y-65799502D01*
X35086466Y-65823966D01*
X35002412Y-65899731D01*
X34828359Y-66133080D01*
X34703175Y-66395901D01*
X34658524Y-66543110D01*
X34779845Y-66773000D01*
X35973000Y-66773000D01*
X35973000Y-66753000D01*
X36227000Y-66753000D01*
X36227000Y-66773000D01*
X37420155Y-66773000D01*
X37541476Y-66543110D01*
X37496825Y-66395901D01*
X37371641Y-66133080D01*
X37197588Y-65899731D01*
X37113534Y-65823966D01*
X37194180Y-65799502D01*
X37304494Y-65740537D01*
X37401185Y-65661185D01*
X37480537Y-65564494D01*
X37539502Y-65454180D01*
X37575812Y-65334482D01*
X37588072Y-65210000D01*
X37588072Y-63510000D01*
X37575812Y-63385518D01*
X37539502Y-63265820D01*
X37480537Y-63155506D01*
X37401185Y-63058815D01*
X37304494Y-62979463D01*
X37194180Y-62920498D01*
X37074482Y-62884188D01*
X36950000Y-62871928D01*
X35250000Y-62871928D01*
X35125518Y-62884188D01*
X35005820Y-62920498D01*
X34895506Y-62979463D01*
X34798815Y-63058815D01*
X34719463Y-63155506D01*
X34660498Y-63265820D01*
X34624188Y-63385518D01*
X34611928Y-63510000D01*
X34060000Y-63510000D01*
X34060000Y-55150000D01*
X34611928Y-55150000D01*
X34624188Y-55274482D01*
X34660498Y-55394180D01*
X34719463Y-55504494D01*
X34798815Y-55601185D01*
X34895506Y-55680537D01*
X35005820Y-55739502D01*
X35078380Y-55761513D01*
X34946525Y-55893368D01*
X34784010Y-56136589D01*
X34672068Y-56406842D01*
X34615000Y-56693740D01*
X34615000Y-56986260D01*
X34672068Y-57273158D01*
X34784010Y-57543411D01*
X34946525Y-57786632D01*
X35153368Y-57993475D01*
X35327760Y-58110000D01*
X35153368Y-58226525D01*
X34946525Y-58433368D01*
X34784010Y-58676589D01*
X34672068Y-58946842D01*
X34615000Y-59233740D01*
X34615000Y-59526260D01*
X34672068Y-59813158D01*
X34784010Y-60083411D01*
X34946525Y-60326632D01*
X35153368Y-60533475D01*
X35396589Y-60695990D01*
X35666842Y-60807932D01*
X35953740Y-60865000D01*
X36246260Y-60865000D01*
X36533158Y-60807932D01*
X36803411Y-60695990D01*
X37046632Y-60533475D01*
X37253475Y-60326632D01*
X37415990Y-60083411D01*
X37527932Y-59813158D01*
X37585000Y-59526260D01*
X37585000Y-59233740D01*
X37527932Y-58946842D01*
X37415990Y-58676589D01*
X37253475Y-58433368D01*
X37046632Y-58226525D01*
X36872240Y-58110000D01*
X37046632Y-57993475D01*
X37253475Y-57786632D01*
X37415990Y-57543411D01*
X37527932Y-57273158D01*
X37585000Y-56986260D01*
X37585000Y-56693740D01*
X37527932Y-56406842D01*
X37415990Y-56136589D01*
X37253475Y-55893368D01*
X37121620Y-55761513D01*
X37194180Y-55739502D01*
X37304494Y-55680537D01*
X37401185Y-55601185D01*
X37456395Y-55533911D01*
X45420000Y-55533911D01*
X45420000Y-55718089D01*
X45455932Y-55898729D01*
X45526414Y-56068889D01*
X45628738Y-56222028D01*
X45758972Y-56352262D01*
X45912111Y-56454586D01*
X46082271Y-56525068D01*
X46262911Y-56561000D01*
X46447089Y-56561000D01*
X46627729Y-56525068D01*
X46797889Y-56454586D01*
X46951028Y-56352262D01*
X46990000Y-56313290D01*
X47028972Y-56352262D01*
X47182111Y-56454586D01*
X47352271Y-56525068D01*
X47532911Y-56561000D01*
X47717089Y-56561000D01*
X47897729Y-56525068D01*
X48067889Y-56454586D01*
X48221028Y-56352262D01*
X48260000Y-56313290D01*
X48298972Y-56352262D01*
X48452111Y-56454586D01*
X48622271Y-56525068D01*
X48802911Y-56561000D01*
X48987089Y-56561000D01*
X49167729Y-56525068D01*
X49337889Y-56454586D01*
X49491028Y-56352262D01*
X49530000Y-56313290D01*
X49568972Y-56352262D01*
X49722111Y-56454586D01*
X49892271Y-56525068D01*
X50072911Y-56561000D01*
X50257089Y-56561000D01*
X50437729Y-56525068D01*
X50607889Y-56454586D01*
X50761028Y-56352262D01*
X50800000Y-56313290D01*
X50838972Y-56352262D01*
X50992111Y-56454586D01*
X51162271Y-56525068D01*
X51342911Y-56561000D01*
X51527089Y-56561000D01*
X51707729Y-56525068D01*
X51877889Y-56454586D01*
X52031028Y-56352262D01*
X52070000Y-56313290D01*
X52108972Y-56352262D01*
X52262111Y-56454586D01*
X52432271Y-56525068D01*
X52612911Y-56561000D01*
X52797089Y-56561000D01*
X52977729Y-56525068D01*
X53147889Y-56454586D01*
X53301028Y-56352262D01*
X53340000Y-56313290D01*
X53378972Y-56352262D01*
X53532111Y-56454586D01*
X53702271Y-56525068D01*
X53882911Y-56561000D01*
X54067089Y-56561000D01*
X54247729Y-56525068D01*
X54417889Y-56454586D01*
X54571028Y-56352262D01*
X54610000Y-56313290D01*
X54648972Y-56352262D01*
X54802111Y-56454586D01*
X54972271Y-56525068D01*
X55152911Y-56561000D01*
X55337089Y-56561000D01*
X55517729Y-56525068D01*
X55621872Y-56481931D01*
X55615932Y-56496271D01*
X55580000Y-56676911D01*
X55580000Y-56861089D01*
X55615932Y-57041729D01*
X55670567Y-57173630D01*
X47240998Y-65603201D01*
X47212000Y-65626999D01*
X47188202Y-65655997D01*
X47188201Y-65655998D01*
X47117026Y-65742724D01*
X47046454Y-65874754D01*
X47002998Y-66018015D01*
X46988324Y-66167000D01*
X46992001Y-66204332D01*
X46992000Y-67653464D01*
X46923414Y-67756111D01*
X46852932Y-67926271D01*
X46817000Y-68106911D01*
X46817000Y-68291089D01*
X46852932Y-68471729D01*
X46923414Y-68641889D01*
X47025738Y-68795028D01*
X47155972Y-68925262D01*
X47309111Y-69027586D01*
X47479271Y-69098068D01*
X47659911Y-69134000D01*
X47844089Y-69134000D01*
X48024729Y-69098068D01*
X48194889Y-69027586D01*
X48348028Y-68925262D01*
X48387000Y-68886290D01*
X48425972Y-68925262D01*
X48579111Y-69027586D01*
X48749271Y-69098068D01*
X48929911Y-69134000D01*
X49114089Y-69134000D01*
X49294729Y-69098068D01*
X49464889Y-69027586D01*
X49618028Y-68925262D01*
X49657000Y-68886290D01*
X49695972Y-68925262D01*
X49849111Y-69027586D01*
X50019271Y-69098068D01*
X50199911Y-69134000D01*
X50384089Y-69134000D01*
X50564729Y-69098068D01*
X50734889Y-69027586D01*
X50888028Y-68925262D01*
X51018262Y-68795028D01*
X51120586Y-68641889D01*
X51191068Y-68471729D01*
X51227000Y-68291089D01*
X51227000Y-68106911D01*
X51191068Y-67926271D01*
X51120586Y-67756111D01*
X51052000Y-67653465D01*
X51052000Y-66481801D01*
X51458890Y-66074911D01*
X52659000Y-66074911D01*
X52659000Y-66259089D01*
X52694932Y-66439729D01*
X52765414Y-66609889D01*
X52766490Y-66611500D01*
X52765414Y-66613111D01*
X52694932Y-66783271D01*
X52659000Y-66963911D01*
X52659000Y-67148089D01*
X52694932Y-67328729D01*
X52765414Y-67498889D01*
X52766490Y-67500500D01*
X52765414Y-67502111D01*
X52694932Y-67672271D01*
X52659000Y-67852911D01*
X52659000Y-68037089D01*
X52694932Y-68217729D01*
X52765414Y-68387889D01*
X52867738Y-68541028D01*
X52997972Y-68671262D01*
X53151111Y-68773586D01*
X53321271Y-68844068D01*
X53501911Y-68880000D01*
X53686089Y-68880000D01*
X53866729Y-68844068D01*
X54036889Y-68773586D01*
X54139535Y-68705000D01*
X58232199Y-68705000D01*
X59692000Y-70164802D01*
X59692001Y-74638668D01*
X59688324Y-74676000D01*
X59702998Y-74824985D01*
X59746454Y-74968246D01*
X59817026Y-75100276D01*
X59888201Y-75187002D01*
X59912000Y-75216001D01*
X59940998Y-75239799D01*
X60417847Y-75716649D01*
X60441932Y-75837729D01*
X60512414Y-76007889D01*
X60614738Y-76161028D01*
X60744972Y-76291262D01*
X60898111Y-76393586D01*
X61068271Y-76464068D01*
X61248911Y-76500000D01*
X61433089Y-76500000D01*
X61613729Y-76464068D01*
X61783889Y-76393586D01*
X61937028Y-76291262D01*
X62067262Y-76161028D01*
X62169586Y-76007889D01*
X62240068Y-75837729D01*
X62276000Y-75657089D01*
X62276000Y-75472911D01*
X62240068Y-75292271D01*
X62169586Y-75122111D01*
X62067262Y-74968972D01*
X61937028Y-74838738D01*
X61783889Y-74736414D01*
X61613729Y-74665932D01*
X61492649Y-74641847D01*
X61212000Y-74361199D01*
X61212000Y-72809658D01*
X61248911Y-72817000D01*
X61433089Y-72817000D01*
X61613729Y-72781068D01*
X61783889Y-72710586D01*
X61937028Y-72608262D01*
X62067262Y-72478028D01*
X62169586Y-72324889D01*
X62240068Y-72154729D01*
X62276000Y-71974089D01*
X62276000Y-71789911D01*
X62240068Y-71609271D01*
X62169586Y-71439111D01*
X62101000Y-71336465D01*
X62101000Y-69506322D01*
X62104676Y-69468999D01*
X62101000Y-69431676D01*
X62101000Y-69431667D01*
X62090003Y-69320014D01*
X62046546Y-69176753D01*
X61975974Y-69044724D01*
X61898863Y-68950763D01*
X61937028Y-68925262D01*
X62067262Y-68795028D01*
X62169586Y-68641889D01*
X62240068Y-68471729D01*
X62276000Y-68291089D01*
X62276000Y-68106911D01*
X62240068Y-67926271D01*
X62169586Y-67756111D01*
X62067262Y-67602972D01*
X61937028Y-67472738D01*
X61802936Y-67383141D01*
X61957271Y-67447068D01*
X62137911Y-67483000D01*
X62322089Y-67483000D01*
X62502729Y-67447068D01*
X62672889Y-67376586D01*
X62826028Y-67274262D01*
X62956262Y-67144028D01*
X63058586Y-66990889D01*
X63129068Y-66820729D01*
X63165000Y-66640089D01*
X63165000Y-66455911D01*
X63129068Y-66275271D01*
X63065000Y-66120596D01*
X63065000Y-63591867D01*
X63866804Y-62790063D01*
X63870525Y-62795632D01*
X64002380Y-62927487D01*
X63929820Y-62949498D01*
X63819506Y-63008463D01*
X63722815Y-63087815D01*
X63643463Y-63184506D01*
X63584498Y-63294820D01*
X63548188Y-63414518D01*
X63535928Y-63539000D01*
X63535928Y-65239000D01*
X63548188Y-65363482D01*
X63584498Y-65483180D01*
X63643463Y-65593494D01*
X63722815Y-65690185D01*
X63819506Y-65769537D01*
X63929820Y-65828502D01*
X64049518Y-65864812D01*
X64174000Y-65877072D01*
X65874000Y-65877072D01*
X65998482Y-65864812D01*
X66118180Y-65828502D01*
X66228494Y-65769537D01*
X66325185Y-65690185D01*
X66404537Y-65593494D01*
X66463502Y-65483180D01*
X66499812Y-65363482D01*
X66512072Y-65239000D01*
X66512072Y-63539000D01*
X66499812Y-63414518D01*
X66463502Y-63294820D01*
X66404537Y-63184506D01*
X66325185Y-63087815D01*
X66228494Y-63008463D01*
X66118180Y-62949498D01*
X66045620Y-62927487D01*
X66177475Y-62795632D01*
X66339990Y-62552411D01*
X66451932Y-62282158D01*
X66509000Y-61995260D01*
X66509000Y-61702740D01*
X66451932Y-61415842D01*
X66339990Y-61145589D01*
X66177475Y-60902368D01*
X65970632Y-60695525D01*
X65788466Y-60573805D01*
X65905355Y-60504178D01*
X66121588Y-60309269D01*
X66295641Y-60075920D01*
X66420825Y-59813099D01*
X66465476Y-59665890D01*
X66344155Y-59436000D01*
X65151000Y-59436000D01*
X65151000Y-59456000D01*
X64897000Y-59456000D01*
X64897000Y-59436000D01*
X63703845Y-59436000D01*
X63582524Y-59665890D01*
X63627175Y-59813099D01*
X63752359Y-60075920D01*
X63926412Y-60309269D01*
X64142645Y-60504178D01*
X64259534Y-60573805D01*
X64077368Y-60695525D01*
X63870525Y-60902368D01*
X63795935Y-61014000D01*
X63668007Y-61014000D01*
X63626999Y-61009961D01*
X63585991Y-61014000D01*
X63585981Y-61014000D01*
X63463311Y-61026082D01*
X63305913Y-61073828D01*
X63160854Y-61151364D01*
X63033709Y-61255709D01*
X63007558Y-61287574D01*
X61668574Y-62626559D01*
X61636710Y-62652709D01*
X61610562Y-62684571D01*
X61532364Y-62779855D01*
X61454828Y-62924914D01*
X61407082Y-63082312D01*
X61390960Y-63246000D01*
X61395001Y-63287028D01*
X61395000Y-66120596D01*
X61330932Y-66275271D01*
X61295000Y-66455911D01*
X61295000Y-66640089D01*
X61330932Y-66820729D01*
X61401414Y-66990889D01*
X61503738Y-67144028D01*
X61633972Y-67274262D01*
X61768064Y-67363859D01*
X61613729Y-67299932D01*
X61492649Y-67275847D01*
X59872804Y-65656003D01*
X59849001Y-65626999D01*
X59733276Y-65532026D01*
X59601247Y-65461454D01*
X59457986Y-65417997D01*
X59346333Y-65407000D01*
X59346322Y-65407000D01*
X59309000Y-65403324D01*
X59271678Y-65407000D01*
X54139535Y-65407000D01*
X54036889Y-65338414D01*
X53866729Y-65267932D01*
X53686089Y-65232000D01*
X53501911Y-65232000D01*
X53321271Y-65267932D01*
X53151111Y-65338414D01*
X52997972Y-65440738D01*
X52867738Y-65570972D01*
X52765414Y-65724111D01*
X52694932Y-65894271D01*
X52659000Y-66074911D01*
X51458890Y-66074911D01*
X59566009Y-57967794D01*
X59595001Y-57944001D01*
X59618795Y-57915008D01*
X59618799Y-57915004D01*
X59689973Y-57828277D01*
X59689974Y-57828276D01*
X59760546Y-57696247D01*
X59804003Y-57552986D01*
X59815000Y-57441333D01*
X59815000Y-57441324D01*
X59818676Y-57404001D01*
X59815000Y-57366678D01*
X59815000Y-57314535D01*
X59883586Y-57211889D01*
X59954068Y-57041729D01*
X59990000Y-56861089D01*
X59990000Y-56676911D01*
X59954068Y-56496271D01*
X59883586Y-56326111D01*
X59781262Y-56172972D01*
X59651028Y-56042738D01*
X59535953Y-55965848D01*
X61419061Y-54082740D01*
X63539000Y-54082740D01*
X63539000Y-54375260D01*
X63596068Y-54662158D01*
X63708010Y-54932411D01*
X63870525Y-55175632D01*
X64077368Y-55382475D01*
X64251760Y-55499000D01*
X64077368Y-55615525D01*
X63870525Y-55822368D01*
X63708010Y-56065589D01*
X63596068Y-56335842D01*
X63539000Y-56622740D01*
X63539000Y-56915260D01*
X63596068Y-57202158D01*
X63708010Y-57472411D01*
X63870525Y-57715632D01*
X64077368Y-57922475D01*
X64259534Y-58044195D01*
X64142645Y-58113822D01*
X63926412Y-58308731D01*
X63752359Y-58542080D01*
X63627175Y-58804901D01*
X63582524Y-58952110D01*
X63703845Y-59182000D01*
X64897000Y-59182000D01*
X64897000Y-59162000D01*
X65151000Y-59162000D01*
X65151000Y-59182000D01*
X66344155Y-59182000D01*
X66465476Y-58952110D01*
X66420825Y-58804901D01*
X66295641Y-58542080D01*
X66121588Y-58308731D01*
X65905355Y-58113822D01*
X65788466Y-58044195D01*
X65970632Y-57922475D01*
X66177475Y-57715632D01*
X66339990Y-57472411D01*
X66451932Y-57202158D01*
X66509000Y-56915260D01*
X66509000Y-56622740D01*
X66451932Y-56335842D01*
X66339990Y-56065589D01*
X66177475Y-55822368D01*
X65970632Y-55615525D01*
X65796240Y-55499000D01*
X65970632Y-55382475D01*
X66177475Y-55175632D01*
X66339990Y-54932411D01*
X66451932Y-54662158D01*
X66509000Y-54375260D01*
X66509000Y-54082740D01*
X66451932Y-53795842D01*
X66339990Y-53525589D01*
X66177475Y-53282368D01*
X65970632Y-53075525D01*
X65727411Y-52913010D01*
X65457158Y-52801068D01*
X65170260Y-52744000D01*
X64877740Y-52744000D01*
X64590842Y-52801068D01*
X64320589Y-52913010D01*
X64077368Y-53075525D01*
X63870525Y-53282368D01*
X63708010Y-53525589D01*
X63596068Y-53795842D01*
X63539000Y-54082740D01*
X61419061Y-54082740D01*
X62762649Y-52739153D01*
X62883729Y-52715068D01*
X63053889Y-52644586D01*
X63207028Y-52542262D01*
X63337262Y-52412028D01*
X63439586Y-52258889D01*
X63510068Y-52088729D01*
X63546000Y-51908089D01*
X63546000Y-51723911D01*
X63510068Y-51543271D01*
X63439586Y-51373111D01*
X63337262Y-51219972D01*
X63207028Y-51089738D01*
X63053889Y-50987414D01*
X62883729Y-50916932D01*
X62703089Y-50881000D01*
X62518911Y-50881000D01*
X62338271Y-50916932D01*
X62168111Y-50987414D01*
X62014972Y-51089738D01*
X61884738Y-51219972D01*
X61785500Y-51368492D01*
X61686262Y-51219972D01*
X61556028Y-51089738D01*
X61402889Y-50987414D01*
X61232729Y-50916932D01*
X61052089Y-50881000D01*
X60867911Y-50881000D01*
X60687271Y-50916932D01*
X60517111Y-50987414D01*
X60363972Y-51089738D01*
X60233738Y-51219972D01*
X60134500Y-51368492D01*
X60035262Y-51219972D01*
X59905028Y-51089738D01*
X59751889Y-50987414D01*
X59581729Y-50916932D01*
X59401089Y-50881000D01*
X59216911Y-50881000D01*
X59036271Y-50916932D01*
X58866111Y-50987414D01*
X58712972Y-51089738D01*
X58582738Y-51219972D01*
X58547000Y-51273458D01*
X58511262Y-51219972D01*
X58381028Y-51089738D01*
X58227889Y-50987414D01*
X58057729Y-50916932D01*
X57877089Y-50881000D01*
X57692911Y-50881000D01*
X57512271Y-50916932D01*
X57342111Y-50987414D01*
X57188972Y-51089738D01*
X57058738Y-51219972D01*
X56959500Y-51368492D01*
X56860262Y-51219972D01*
X56730028Y-51089738D01*
X56576889Y-50987414D01*
X56406729Y-50916932D01*
X56226089Y-50881000D01*
X56041911Y-50881000D01*
X55861271Y-50916932D01*
X55691111Y-50987414D01*
X55537972Y-51089738D01*
X55407738Y-51219972D01*
X55372000Y-51273458D01*
X55336262Y-51219972D01*
X55206028Y-51089738D01*
X55052889Y-50987414D01*
X54882729Y-50916932D01*
X54702089Y-50881000D01*
X54517911Y-50881000D01*
X54337271Y-50916932D01*
X54167111Y-50987414D01*
X54013972Y-51089738D01*
X53883738Y-51219972D01*
X53784500Y-51368492D01*
X53685262Y-51219972D01*
X53555028Y-51089738D01*
X53401889Y-50987414D01*
X53231729Y-50916932D01*
X53051089Y-50881000D01*
X52866911Y-50881000D01*
X52686271Y-50916932D01*
X52516111Y-50987414D01*
X52362972Y-51089738D01*
X52232738Y-51219972D01*
X52197000Y-51273458D01*
X52161262Y-51219972D01*
X52031028Y-51089738D01*
X51877889Y-50987414D01*
X51707729Y-50916932D01*
X51527089Y-50881000D01*
X51342911Y-50881000D01*
X51162271Y-50916932D01*
X50992111Y-50987414D01*
X50889465Y-51056000D01*
X48678322Y-51056000D01*
X48640999Y-51052324D01*
X48603676Y-51056000D01*
X48603667Y-51056000D01*
X48492014Y-51066997D01*
X48348753Y-51110454D01*
X48216724Y-51181026D01*
X48100999Y-51275999D01*
X48077201Y-51304997D01*
X45843998Y-53538201D01*
X45815000Y-53561999D01*
X45791202Y-53590997D01*
X45791201Y-53590998D01*
X45720026Y-53677724D01*
X45649454Y-53809754D01*
X45624726Y-53891276D01*
X45605998Y-53953014D01*
X45600681Y-54007001D01*
X45591324Y-54102000D01*
X45595001Y-54139332D01*
X45595000Y-55080464D01*
X45526414Y-55183111D01*
X45455932Y-55353271D01*
X45420000Y-55533911D01*
X37456395Y-55533911D01*
X37480537Y-55504494D01*
X37539502Y-55394180D01*
X37575812Y-55274482D01*
X37588072Y-55150000D01*
X37585000Y-54585750D01*
X37426250Y-54427000D01*
X36227000Y-54427000D01*
X36227000Y-54447000D01*
X35973000Y-54447000D01*
X35973000Y-54427000D01*
X34773750Y-54427000D01*
X34615000Y-54585750D01*
X34611928Y-55150000D01*
X34060000Y-55150000D01*
X34060000Y-53450000D01*
X34611928Y-53450000D01*
X34615000Y-54014250D01*
X34773750Y-54173000D01*
X35973000Y-54173000D01*
X35973000Y-52973750D01*
X36227000Y-52973750D01*
X36227000Y-54173000D01*
X37426250Y-54173000D01*
X37585000Y-54014250D01*
X37588072Y-53450000D01*
X37575812Y-53325518D01*
X37539502Y-53205820D01*
X37480537Y-53095506D01*
X37401185Y-52998815D01*
X37304494Y-52919463D01*
X37194180Y-52860498D01*
X37074482Y-52824188D01*
X36950000Y-52811928D01*
X36385750Y-52815000D01*
X36227000Y-52973750D01*
X35973000Y-52973750D01*
X35814250Y-52815000D01*
X35250000Y-52811928D01*
X35125518Y-52824188D01*
X35005820Y-52860498D01*
X34895506Y-52919463D01*
X34798815Y-52998815D01*
X34719463Y-53095506D01*
X34660498Y-53205820D01*
X34624188Y-53325518D01*
X34611928Y-53450000D01*
X34060000Y-53450000D01*
X34060000Y-44850000D01*
X43111928Y-44850000D01*
X43111928Y-46350000D01*
X43124188Y-46474482D01*
X43160498Y-46594180D01*
X43219463Y-46704494D01*
X43298815Y-46801185D01*
X43395506Y-46880537D01*
X43505820Y-46939502D01*
X43625518Y-46975812D01*
X43750000Y-46988072D01*
X45250000Y-46988072D01*
X45374482Y-46975812D01*
X45494180Y-46939502D01*
X45604494Y-46880537D01*
X45701185Y-46801185D01*
X45780537Y-46704494D01*
X45839502Y-46594180D01*
X45875812Y-46474482D01*
X45886445Y-46366517D01*
X45964201Y-46482886D01*
X46157114Y-46675799D01*
X46383957Y-46827371D01*
X46636011Y-46931775D01*
X46903589Y-46985000D01*
X47176411Y-46985000D01*
X47443989Y-46931775D01*
X47696043Y-46827371D01*
X47922886Y-46675799D01*
X48115799Y-46482886D01*
X48267371Y-46256043D01*
X48310000Y-46153127D01*
X48352629Y-46256043D01*
X48504201Y-46482886D01*
X48697114Y-46675799D01*
X48923957Y-46827371D01*
X49176011Y-46931775D01*
X49443589Y-46985000D01*
X49716411Y-46985000D01*
X49983989Y-46931775D01*
X50236043Y-46827371D01*
X50462886Y-46675799D01*
X50655799Y-46482886D01*
X50807371Y-46256043D01*
X50850000Y-46153127D01*
X50892629Y-46256043D01*
X51044201Y-46482886D01*
X51237114Y-46675799D01*
X51463957Y-46827371D01*
X51716011Y-46931775D01*
X51983589Y-46985000D01*
X52256411Y-46985000D01*
X52523989Y-46931775D01*
X52776043Y-46827371D01*
X53002886Y-46675799D01*
X53195799Y-46482886D01*
X53347371Y-46256043D01*
X53390000Y-46153127D01*
X53432629Y-46256043D01*
X53584201Y-46482886D01*
X53777114Y-46675799D01*
X54003957Y-46827371D01*
X54256011Y-46931775D01*
X54523589Y-46985000D01*
X54796411Y-46985000D01*
X55063989Y-46931775D01*
X55316043Y-46827371D01*
X55542886Y-46675799D01*
X55735799Y-46482886D01*
X55887371Y-46256043D01*
X55991775Y-46003989D01*
X56045000Y-45736411D01*
X56045000Y-45463589D01*
X55991775Y-45196011D01*
X55887371Y-44943957D01*
X55735799Y-44717114D01*
X55542886Y-44524201D01*
X55316043Y-44372629D01*
X55063989Y-44268225D01*
X54796411Y-44215000D01*
X54523589Y-44215000D01*
X54256011Y-44268225D01*
X54003957Y-44372629D01*
X53777114Y-44524201D01*
X53584201Y-44717114D01*
X53432629Y-44943957D01*
X53390000Y-45046873D01*
X53347371Y-44943957D01*
X53195799Y-44717114D01*
X53002886Y-44524201D01*
X52776043Y-44372629D01*
X52523989Y-44268225D01*
X52256411Y-44215000D01*
X51983589Y-44215000D01*
X51716011Y-44268225D01*
X51463957Y-44372629D01*
X51237114Y-44524201D01*
X51044201Y-44717114D01*
X50892629Y-44943957D01*
X50850000Y-45046873D01*
X50807371Y-44943957D01*
X50655799Y-44717114D01*
X50462886Y-44524201D01*
X50236043Y-44372629D01*
X49983989Y-44268225D01*
X49716411Y-44215000D01*
X49443589Y-44215000D01*
X49176011Y-44268225D01*
X48923957Y-44372629D01*
X48697114Y-44524201D01*
X48504201Y-44717114D01*
X48352629Y-44943957D01*
X48310000Y-45046873D01*
X48267371Y-44943957D01*
X48115799Y-44717114D01*
X47922886Y-44524201D01*
X47696043Y-44372629D01*
X47443989Y-44268225D01*
X47176411Y-44215000D01*
X46903589Y-44215000D01*
X46636011Y-44268225D01*
X46383957Y-44372629D01*
X46157114Y-44524201D01*
X45964201Y-44717114D01*
X45886445Y-44833483D01*
X45875812Y-44725518D01*
X45839502Y-44605820D01*
X45780537Y-44495506D01*
X45701185Y-44398815D01*
X45604494Y-44319463D01*
X45494180Y-44260498D01*
X45374482Y-44224188D01*
X45250000Y-44211928D01*
X43750000Y-44211928D01*
X43625518Y-44224188D01*
X43505820Y-44260498D01*
X43395506Y-44319463D01*
X43298815Y-44398815D01*
X43219463Y-44495506D01*
X43160498Y-44605820D01*
X43124188Y-44725518D01*
X43111928Y-44850000D01*
X34060000Y-44850000D01*
X34060000Y-32763589D01*
X43115000Y-32763589D01*
X43115000Y-33036411D01*
X43168225Y-33303989D01*
X43272629Y-33556043D01*
X43424201Y-33782886D01*
X43617114Y-33975799D01*
X43843957Y-34127371D01*
X44096011Y-34231775D01*
X44363589Y-34285000D01*
X44636411Y-34285000D01*
X44903989Y-34231775D01*
X45156043Y-34127371D01*
X45382886Y-33975799D01*
X45575799Y-33782886D01*
X45727371Y-33556043D01*
X45770000Y-33453127D01*
X45812629Y-33556043D01*
X45964201Y-33782886D01*
X46157114Y-33975799D01*
X46383957Y-34127371D01*
X46636011Y-34231775D01*
X46903589Y-34285000D01*
X47176411Y-34285000D01*
X47443989Y-34231775D01*
X47696043Y-34127371D01*
X47922886Y-33975799D01*
X48115799Y-33782886D01*
X48267371Y-33556043D01*
X48310000Y-33453127D01*
X48352629Y-33556043D01*
X48504201Y-33782886D01*
X48697114Y-33975799D01*
X48923957Y-34127371D01*
X49176011Y-34231775D01*
X49443589Y-34285000D01*
X49716411Y-34285000D01*
X49983989Y-34231775D01*
X50236043Y-34127371D01*
X50462886Y-33975799D01*
X50655799Y-33782886D01*
X50807371Y-33556043D01*
X50850000Y-33453127D01*
X50892629Y-33556043D01*
X51044201Y-33782886D01*
X51237114Y-33975799D01*
X51463957Y-34127371D01*
X51716011Y-34231775D01*
X51983589Y-34285000D01*
X52256411Y-34285000D01*
X52523989Y-34231775D01*
X52776043Y-34127371D01*
X53002886Y-33975799D01*
X53195799Y-33782886D01*
X53347371Y-33556043D01*
X53390000Y-33453127D01*
X53432629Y-33556043D01*
X53584201Y-33782886D01*
X53777114Y-33975799D01*
X54003957Y-34127371D01*
X54256011Y-34231775D01*
X54523589Y-34285000D01*
X54796411Y-34285000D01*
X55063989Y-34231775D01*
X55316043Y-34127371D01*
X55542886Y-33975799D01*
X55735799Y-33782886D01*
X55887371Y-33556043D01*
X55930000Y-33453127D01*
X55972629Y-33556043D01*
X56124201Y-33782886D01*
X56317114Y-33975799D01*
X56543957Y-34127371D01*
X56796011Y-34231775D01*
X57063589Y-34285000D01*
X57336411Y-34285000D01*
X57603989Y-34231775D01*
X57856043Y-34127371D01*
X58082886Y-33975799D01*
X58275799Y-33782886D01*
X58427371Y-33556043D01*
X58531775Y-33303989D01*
X58585000Y-33036411D01*
X58585000Y-32763589D01*
X58531775Y-32496011D01*
X58427371Y-32243957D01*
X58275799Y-32017114D01*
X58082886Y-31824201D01*
X57856043Y-31672629D01*
X57603989Y-31568225D01*
X57336411Y-31515000D01*
X57063589Y-31515000D01*
X56796011Y-31568225D01*
X56543957Y-31672629D01*
X56317114Y-31824201D01*
X56124201Y-32017114D01*
X55972629Y-32243957D01*
X55930000Y-32346873D01*
X55887371Y-32243957D01*
X55735799Y-32017114D01*
X55542886Y-31824201D01*
X55316043Y-31672629D01*
X55063989Y-31568225D01*
X54796411Y-31515000D01*
X54523589Y-31515000D01*
X54256011Y-31568225D01*
X54003957Y-31672629D01*
X53777114Y-31824201D01*
X53584201Y-32017114D01*
X53432629Y-32243957D01*
X53390000Y-32346873D01*
X53347371Y-32243957D01*
X53195799Y-32017114D01*
X53002886Y-31824201D01*
X52776043Y-31672629D01*
X52523989Y-31568225D01*
X52256411Y-31515000D01*
X51983589Y-31515000D01*
X51716011Y-31568225D01*
X51463957Y-31672629D01*
X51237114Y-31824201D01*
X51044201Y-32017114D01*
X50892629Y-32243957D01*
X50850000Y-32346873D01*
X50807371Y-32243957D01*
X50655799Y-32017114D01*
X50462886Y-31824201D01*
X50236043Y-31672629D01*
X49983989Y-31568225D01*
X49716411Y-31515000D01*
X49443589Y-31515000D01*
X49176011Y-31568225D01*
X48923957Y-31672629D01*
X48697114Y-31824201D01*
X48504201Y-32017114D01*
X48352629Y-32243957D01*
X48310000Y-32346873D01*
X48267371Y-32243957D01*
X48115799Y-32017114D01*
X47922886Y-31824201D01*
X47696043Y-31672629D01*
X47443989Y-31568225D01*
X47176411Y-31515000D01*
X46903589Y-31515000D01*
X46636011Y-31568225D01*
X46383957Y-31672629D01*
X46157114Y-31824201D01*
X45964201Y-32017114D01*
X45812629Y-32243957D01*
X45770000Y-32346873D01*
X45727371Y-32243957D01*
X45575799Y-32017114D01*
X45382886Y-31824201D01*
X45156043Y-31672629D01*
X44903989Y-31568225D01*
X44636411Y-31515000D01*
X44363589Y-31515000D01*
X44096011Y-31568225D01*
X43843957Y-31672629D01*
X43617114Y-31824201D01*
X43424201Y-32017114D01*
X43272629Y-32243957D01*
X43168225Y-32496011D01*
X43115000Y-32763589D01*
X34060000Y-32763589D01*
X34060000Y-30460000D01*
X67740000Y-30460000D01*
X67740001Y-82140000D01*
G37*
%TD.AperFunction*%
%TD*%
M02*
