%TF.GenerationSoftware,KiCad,Pcbnew,(5.1.10)-1*%
%TF.CreationDate,2021-06-06T23:27:32+07:00*%
%TF.ProjectId,busdisplay_r2,62757364-6973-4706-9c61-795f72322e6b,2*%
%TF.SameCoordinates,Original*%
%TF.FileFunction,Copper,L1,Top*%
%TF.FilePolarity,Positive*%
%FSLAX46Y46*%
G04 Gerber Fmt 4.6, Leading zero omitted, Abs format (unit mm)*
G04 Created by KiCad (PCBNEW (5.1.10)-1) date 2021-06-06 23:27:32*
%MOMM*%
%LPD*%
G01*
G04 APERTURE LIST*
%TA.AperFunction,SMDPad,CuDef*%
%ADD10R,2.000000X2.400000*%
%TD*%
%TA.AperFunction,SMDPad,CuDef*%
%ADD11R,0.900000X0.800000*%
%TD*%
%TA.AperFunction,ComponentPad*%
%ADD12C,1.500000*%
%TD*%
%TA.AperFunction,ComponentPad*%
%ADD13R,1.500000X1.500000*%
%TD*%
%TA.AperFunction,ComponentPad*%
%ADD14O,1.700000X1.700000*%
%TD*%
%TA.AperFunction,ComponentPad*%
%ADD15R,1.700000X1.700000*%
%TD*%
%TA.AperFunction,ViaPad*%
%ADD16C,0.600000*%
%TD*%
%TA.AperFunction,ViaPad*%
%ADD17C,0.800000*%
%TD*%
%TA.AperFunction,Conductor*%
%ADD18C,0.250000*%
%TD*%
%TA.AperFunction,Conductor*%
%ADD19C,0.400000*%
%TD*%
%TA.AperFunction,Conductor*%
%ADD20C,0.254000*%
%TD*%
%TA.AperFunction,Conductor*%
%ADD21C,0.100000*%
%TD*%
G04 APERTURE END LIST*
%TO.P,R14,2*%
%TO.N,Net-(JP1-Pad1)*%
%TA.AperFunction,SMDPad,CuDef*%
G36*
G01*
X41726500Y-65788250D02*
X41726500Y-65275750D01*
G75*
G02*
X41945250Y-65057000I218750J0D01*
G01*
X42382750Y-65057000D01*
G75*
G02*
X42601500Y-65275750I0J-218750D01*
G01*
X42601500Y-65788250D01*
G75*
G02*
X42382750Y-66007000I-218750J0D01*
G01*
X41945250Y-66007000D01*
G75*
G02*
X41726500Y-65788250I0J218750D01*
G01*
G37*
%TD.AperFunction*%
%TO.P,R14,1*%
%TO.N,+5V*%
%TA.AperFunction,SMDPad,CuDef*%
G36*
G01*
X40151500Y-65788250D02*
X40151500Y-65275750D01*
G75*
G02*
X40370250Y-65057000I218750J0D01*
G01*
X40807750Y-65057000D01*
G75*
G02*
X41026500Y-65275750I0J-218750D01*
G01*
X41026500Y-65788250D01*
G75*
G02*
X40807750Y-66007000I-218750J0D01*
G01*
X40370250Y-66007000D01*
G75*
G02*
X40151500Y-65788250I0J218750D01*
G01*
G37*
%TD.AperFunction*%
%TD*%
%TO.P,JP1,2*%
%TO.N,GND*%
%TA.AperFunction,SMDPad,CuDef*%
G36*
G01*
X41026500Y-67053750D02*
X41026500Y-67566250D01*
G75*
G02*
X40807750Y-67785000I-218750J0D01*
G01*
X40370250Y-67785000D01*
G75*
G02*
X40151500Y-67566250I0J218750D01*
G01*
X40151500Y-67053750D01*
G75*
G02*
X40370250Y-66835000I218750J0D01*
G01*
X40807750Y-66835000D01*
G75*
G02*
X41026500Y-67053750I0J-218750D01*
G01*
G37*
%TD.AperFunction*%
%TO.P,JP1,1*%
%TO.N,Net-(JP1-Pad1)*%
%TA.AperFunction,SMDPad,CuDef*%
G36*
G01*
X42601500Y-67053750D02*
X42601500Y-67566250D01*
G75*
G02*
X42382750Y-67785000I-218750J0D01*
G01*
X41945250Y-67785000D01*
G75*
G02*
X41726500Y-67566250I0J218750D01*
G01*
X41726500Y-67053750D01*
G75*
G02*
X41945250Y-66835000I218750J0D01*
G01*
X42382750Y-66835000D01*
G75*
G02*
X42601500Y-67053750I0J-218750D01*
G01*
G37*
%TD.AperFunction*%
%TD*%
%TO.P,U2,20*%
%TO.N,+5V*%
%TA.AperFunction,SMDPad,CuDef*%
G36*
G01*
X45362000Y-70804000D02*
X45062000Y-70804000D01*
G75*
G02*
X44912000Y-70654000I0J150000D01*
G01*
X44912000Y-68979000D01*
G75*
G02*
X45062000Y-68829000I150000J0D01*
G01*
X45362000Y-68829000D01*
G75*
G02*
X45512000Y-68979000I0J-150000D01*
G01*
X45512000Y-70654000D01*
G75*
G02*
X45362000Y-70804000I-150000J0D01*
G01*
G37*
%TD.AperFunction*%
%TO.P,U2,19*%
%TO.N,Net-(JP1-Pad1)*%
%TA.AperFunction,SMDPad,CuDef*%
G36*
G01*
X46632000Y-70804000D02*
X46332000Y-70804000D01*
G75*
G02*
X46182000Y-70654000I0J150000D01*
G01*
X46182000Y-68979000D01*
G75*
G02*
X46332000Y-68829000I150000J0D01*
G01*
X46632000Y-68829000D01*
G75*
G02*
X46782000Y-68979000I0J-150000D01*
G01*
X46782000Y-70654000D01*
G75*
G02*
X46632000Y-70804000I-150000J0D01*
G01*
G37*
%TD.AperFunction*%
%TO.P,U2,18*%
%TO.N,BUF7*%
%TA.AperFunction,SMDPad,CuDef*%
G36*
G01*
X47902000Y-70804000D02*
X47602000Y-70804000D01*
G75*
G02*
X47452000Y-70654000I0J150000D01*
G01*
X47452000Y-68979000D01*
G75*
G02*
X47602000Y-68829000I150000J0D01*
G01*
X47902000Y-68829000D01*
G75*
G02*
X48052000Y-68979000I0J-150000D01*
G01*
X48052000Y-70654000D01*
G75*
G02*
X47902000Y-70804000I-150000J0D01*
G01*
G37*
%TD.AperFunction*%
%TO.P,U2,17*%
%TO.N,BUF6*%
%TA.AperFunction,SMDPad,CuDef*%
G36*
G01*
X49172000Y-70804000D02*
X48872000Y-70804000D01*
G75*
G02*
X48722000Y-70654000I0J150000D01*
G01*
X48722000Y-68979000D01*
G75*
G02*
X48872000Y-68829000I150000J0D01*
G01*
X49172000Y-68829000D01*
G75*
G02*
X49322000Y-68979000I0J-150000D01*
G01*
X49322000Y-70654000D01*
G75*
G02*
X49172000Y-70804000I-150000J0D01*
G01*
G37*
%TD.AperFunction*%
%TO.P,U2,16*%
%TO.N,BUF5*%
%TA.AperFunction,SMDPad,CuDef*%
G36*
G01*
X50442000Y-70804000D02*
X50142000Y-70804000D01*
G75*
G02*
X49992000Y-70654000I0J150000D01*
G01*
X49992000Y-68979000D01*
G75*
G02*
X50142000Y-68829000I150000J0D01*
G01*
X50442000Y-68829000D01*
G75*
G02*
X50592000Y-68979000I0J-150000D01*
G01*
X50592000Y-70654000D01*
G75*
G02*
X50442000Y-70804000I-150000J0D01*
G01*
G37*
%TD.AperFunction*%
%TO.P,U2,15*%
%TO.N,BUF4*%
%TA.AperFunction,SMDPad,CuDef*%
G36*
G01*
X51712000Y-70804000D02*
X51412000Y-70804000D01*
G75*
G02*
X51262000Y-70654000I0J150000D01*
G01*
X51262000Y-68979000D01*
G75*
G02*
X51412000Y-68829000I150000J0D01*
G01*
X51712000Y-68829000D01*
G75*
G02*
X51862000Y-68979000I0J-150000D01*
G01*
X51862000Y-70654000D01*
G75*
G02*
X51712000Y-70804000I-150000J0D01*
G01*
G37*
%TD.AperFunction*%
%TO.P,U2,14*%
%TO.N,BUF3*%
%TA.AperFunction,SMDPad,CuDef*%
G36*
G01*
X52982000Y-70804000D02*
X52682000Y-70804000D01*
G75*
G02*
X52532000Y-70654000I0J150000D01*
G01*
X52532000Y-68979000D01*
G75*
G02*
X52682000Y-68829000I150000J0D01*
G01*
X52982000Y-68829000D01*
G75*
G02*
X53132000Y-68979000I0J-150000D01*
G01*
X53132000Y-70654000D01*
G75*
G02*
X52982000Y-70804000I-150000J0D01*
G01*
G37*
%TD.AperFunction*%
%TO.P,U2,13*%
%TO.N,BUF2*%
%TA.AperFunction,SMDPad,CuDef*%
G36*
G01*
X54252000Y-70804000D02*
X53952000Y-70804000D01*
G75*
G02*
X53802000Y-70654000I0J150000D01*
G01*
X53802000Y-68979000D01*
G75*
G02*
X53952000Y-68829000I150000J0D01*
G01*
X54252000Y-68829000D01*
G75*
G02*
X54402000Y-68979000I0J-150000D01*
G01*
X54402000Y-70654000D01*
G75*
G02*
X54252000Y-70804000I-150000J0D01*
G01*
G37*
%TD.AperFunction*%
%TO.P,U2,12*%
%TO.N,BUF1*%
%TA.AperFunction,SMDPad,CuDef*%
G36*
G01*
X55522000Y-70804000D02*
X55222000Y-70804000D01*
G75*
G02*
X55072000Y-70654000I0J150000D01*
G01*
X55072000Y-68979000D01*
G75*
G02*
X55222000Y-68829000I150000J0D01*
G01*
X55522000Y-68829000D01*
G75*
G02*
X55672000Y-68979000I0J-150000D01*
G01*
X55672000Y-70654000D01*
G75*
G02*
X55522000Y-70804000I-150000J0D01*
G01*
G37*
%TD.AperFunction*%
%TO.P,U2,11*%
%TO.N,BUF0*%
%TA.AperFunction,SMDPad,CuDef*%
G36*
G01*
X56792000Y-70804000D02*
X56492000Y-70804000D01*
G75*
G02*
X56342000Y-70654000I0J150000D01*
G01*
X56342000Y-68979000D01*
G75*
G02*
X56492000Y-68829000I150000J0D01*
G01*
X56792000Y-68829000D01*
G75*
G02*
X56942000Y-68979000I0J-150000D01*
G01*
X56942000Y-70654000D01*
G75*
G02*
X56792000Y-70804000I-150000J0D01*
G01*
G37*
%TD.AperFunction*%
%TO.P,U2,10*%
%TO.N,GND*%
%TA.AperFunction,SMDPad,CuDef*%
G36*
G01*
X56792000Y-77729000D02*
X56492000Y-77729000D01*
G75*
G02*
X56342000Y-77579000I0J150000D01*
G01*
X56342000Y-75904000D01*
G75*
G02*
X56492000Y-75754000I150000J0D01*
G01*
X56792000Y-75754000D01*
G75*
G02*
X56942000Y-75904000I0J-150000D01*
G01*
X56942000Y-77579000D01*
G75*
G02*
X56792000Y-77729000I-150000J0D01*
G01*
G37*
%TD.AperFunction*%
%TO.P,U2,9*%
%TO.N,Net-(J3-Pad8)*%
%TA.AperFunction,SMDPad,CuDef*%
G36*
G01*
X55522000Y-77729000D02*
X55222000Y-77729000D01*
G75*
G02*
X55072000Y-77579000I0J150000D01*
G01*
X55072000Y-75904000D01*
G75*
G02*
X55222000Y-75754000I150000J0D01*
G01*
X55522000Y-75754000D01*
G75*
G02*
X55672000Y-75904000I0J-150000D01*
G01*
X55672000Y-77579000D01*
G75*
G02*
X55522000Y-77729000I-150000J0D01*
G01*
G37*
%TD.AperFunction*%
%TO.P,U2,8*%
%TO.N,Net-(J3-Pad7)*%
%TA.AperFunction,SMDPad,CuDef*%
G36*
G01*
X54252000Y-77729000D02*
X53952000Y-77729000D01*
G75*
G02*
X53802000Y-77579000I0J150000D01*
G01*
X53802000Y-75904000D01*
G75*
G02*
X53952000Y-75754000I150000J0D01*
G01*
X54252000Y-75754000D01*
G75*
G02*
X54402000Y-75904000I0J-150000D01*
G01*
X54402000Y-77579000D01*
G75*
G02*
X54252000Y-77729000I-150000J0D01*
G01*
G37*
%TD.AperFunction*%
%TO.P,U2,7*%
%TO.N,Net-(J3-Pad6)*%
%TA.AperFunction,SMDPad,CuDef*%
G36*
G01*
X52982000Y-77729000D02*
X52682000Y-77729000D01*
G75*
G02*
X52532000Y-77579000I0J150000D01*
G01*
X52532000Y-75904000D01*
G75*
G02*
X52682000Y-75754000I150000J0D01*
G01*
X52982000Y-75754000D01*
G75*
G02*
X53132000Y-75904000I0J-150000D01*
G01*
X53132000Y-77579000D01*
G75*
G02*
X52982000Y-77729000I-150000J0D01*
G01*
G37*
%TD.AperFunction*%
%TO.P,U2,6*%
%TO.N,Net-(J3-Pad5)*%
%TA.AperFunction,SMDPad,CuDef*%
G36*
G01*
X51712000Y-77729000D02*
X51412000Y-77729000D01*
G75*
G02*
X51262000Y-77579000I0J150000D01*
G01*
X51262000Y-75904000D01*
G75*
G02*
X51412000Y-75754000I150000J0D01*
G01*
X51712000Y-75754000D01*
G75*
G02*
X51862000Y-75904000I0J-150000D01*
G01*
X51862000Y-77579000D01*
G75*
G02*
X51712000Y-77729000I-150000J0D01*
G01*
G37*
%TD.AperFunction*%
%TO.P,U2,5*%
%TO.N,Net-(J3-Pad4)*%
%TA.AperFunction,SMDPad,CuDef*%
G36*
G01*
X50442000Y-77729000D02*
X50142000Y-77729000D01*
G75*
G02*
X49992000Y-77579000I0J150000D01*
G01*
X49992000Y-75904000D01*
G75*
G02*
X50142000Y-75754000I150000J0D01*
G01*
X50442000Y-75754000D01*
G75*
G02*
X50592000Y-75904000I0J-150000D01*
G01*
X50592000Y-77579000D01*
G75*
G02*
X50442000Y-77729000I-150000J0D01*
G01*
G37*
%TD.AperFunction*%
%TO.P,U2,4*%
%TO.N,Net-(J3-Pad3)*%
%TA.AperFunction,SMDPad,CuDef*%
G36*
G01*
X49172000Y-77729000D02*
X48872000Y-77729000D01*
G75*
G02*
X48722000Y-77579000I0J150000D01*
G01*
X48722000Y-75904000D01*
G75*
G02*
X48872000Y-75754000I150000J0D01*
G01*
X49172000Y-75754000D01*
G75*
G02*
X49322000Y-75904000I0J-150000D01*
G01*
X49322000Y-77579000D01*
G75*
G02*
X49172000Y-77729000I-150000J0D01*
G01*
G37*
%TD.AperFunction*%
%TO.P,U2,3*%
%TO.N,Net-(J3-Pad2)*%
%TA.AperFunction,SMDPad,CuDef*%
G36*
G01*
X47902000Y-77729000D02*
X47602000Y-77729000D01*
G75*
G02*
X47452000Y-77579000I0J150000D01*
G01*
X47452000Y-75904000D01*
G75*
G02*
X47602000Y-75754000I150000J0D01*
G01*
X47902000Y-75754000D01*
G75*
G02*
X48052000Y-75904000I0J-150000D01*
G01*
X48052000Y-77579000D01*
G75*
G02*
X47902000Y-77729000I-150000J0D01*
G01*
G37*
%TD.AperFunction*%
%TO.P,U2,2*%
%TO.N,Net-(J3-Pad1)*%
%TA.AperFunction,SMDPad,CuDef*%
G36*
G01*
X46632000Y-77729000D02*
X46332000Y-77729000D01*
G75*
G02*
X46182000Y-77579000I0J150000D01*
G01*
X46182000Y-75904000D01*
G75*
G02*
X46332000Y-75754000I150000J0D01*
G01*
X46632000Y-75754000D01*
G75*
G02*
X46782000Y-75904000I0J-150000D01*
G01*
X46782000Y-77579000D01*
G75*
G02*
X46632000Y-77729000I-150000J0D01*
G01*
G37*
%TD.AperFunction*%
%TO.P,U2,1*%
%TO.N,+5V*%
%TA.AperFunction,SMDPad,CuDef*%
G36*
G01*
X45362000Y-77729000D02*
X45062000Y-77729000D01*
G75*
G02*
X44912000Y-77579000I0J150000D01*
G01*
X44912000Y-75904000D01*
G75*
G02*
X45062000Y-75754000I150000J0D01*
G01*
X45362000Y-75754000D01*
G75*
G02*
X45512000Y-75904000I0J-150000D01*
G01*
X45512000Y-77579000D01*
G75*
G02*
X45362000Y-77729000I-150000J0D01*
G01*
G37*
%TD.AperFunction*%
%TD*%
D10*
%TO.P,Y1,2*%
%TO.N,Net-(C4-Pad1)*%
X46250000Y-50000000D03*
%TO.P,Y1,1*%
%TO.N,Net-(C3-Pad1)*%
X42550000Y-50000000D03*
%TD*%
%TO.P,U1,28*%
%TO.N,~MCLR*%
%TA.AperFunction,SMDPad,CuDef*%
G36*
G01*
X42695000Y-54675000D02*
X42395000Y-54675000D01*
G75*
G02*
X42245000Y-54525000I0J150000D01*
G01*
X42245000Y-52775000D01*
G75*
G02*
X42395000Y-52625000I150000J0D01*
G01*
X42695000Y-52625000D01*
G75*
G02*
X42845000Y-52775000I0J-150000D01*
G01*
X42845000Y-54525000D01*
G75*
G02*
X42695000Y-54675000I-150000J0D01*
G01*
G37*
%TD.AperFunction*%
%TO.P,U1,27*%
%TO.N,Net-(C3-Pad1)*%
%TA.AperFunction,SMDPad,CuDef*%
G36*
G01*
X43965000Y-54675000D02*
X43665000Y-54675000D01*
G75*
G02*
X43515000Y-54525000I0J150000D01*
G01*
X43515000Y-52775000D01*
G75*
G02*
X43665000Y-52625000I150000J0D01*
G01*
X43965000Y-52625000D01*
G75*
G02*
X44115000Y-52775000I0J-150000D01*
G01*
X44115000Y-54525000D01*
G75*
G02*
X43965000Y-54675000I-150000J0D01*
G01*
G37*
%TD.AperFunction*%
%TO.P,U1,26*%
%TO.N,Net-(C4-Pad1)*%
%TA.AperFunction,SMDPad,CuDef*%
G36*
G01*
X45235000Y-54675000D02*
X44935000Y-54675000D01*
G75*
G02*
X44785000Y-54525000I0J150000D01*
G01*
X44785000Y-52775000D01*
G75*
G02*
X44935000Y-52625000I150000J0D01*
G01*
X45235000Y-52625000D01*
G75*
G02*
X45385000Y-52775000I0J-150000D01*
G01*
X45385000Y-54525000D01*
G75*
G02*
X45235000Y-54675000I-150000J0D01*
G01*
G37*
%TD.AperFunction*%
%TO.P,U1,25*%
%TO.N,DP*%
%TA.AperFunction,SMDPad,CuDef*%
G36*
G01*
X46505000Y-54675000D02*
X46205000Y-54675000D01*
G75*
G02*
X46055000Y-54525000I0J150000D01*
G01*
X46055000Y-52775000D01*
G75*
G02*
X46205000Y-52625000I150000J0D01*
G01*
X46505000Y-52625000D01*
G75*
G02*
X46655000Y-52775000I0J-150000D01*
G01*
X46655000Y-54525000D01*
G75*
G02*
X46505000Y-54675000I-150000J0D01*
G01*
G37*
%TD.AperFunction*%
%TO.P,U1,24*%
%TO.N,C*%
%TA.AperFunction,SMDPad,CuDef*%
G36*
G01*
X47775000Y-54675000D02*
X47475000Y-54675000D01*
G75*
G02*
X47325000Y-54525000I0J150000D01*
G01*
X47325000Y-52775000D01*
G75*
G02*
X47475000Y-52625000I150000J0D01*
G01*
X47775000Y-52625000D01*
G75*
G02*
X47925000Y-52775000I0J-150000D01*
G01*
X47925000Y-54525000D01*
G75*
G02*
X47775000Y-54675000I-150000J0D01*
G01*
G37*
%TD.AperFunction*%
%TO.P,U1,23*%
%TO.N,G*%
%TA.AperFunction,SMDPad,CuDef*%
G36*
G01*
X49045000Y-54675000D02*
X48745000Y-54675000D01*
G75*
G02*
X48595000Y-54525000I0J150000D01*
G01*
X48595000Y-52775000D01*
G75*
G02*
X48745000Y-52625000I150000J0D01*
G01*
X49045000Y-52625000D01*
G75*
G02*
X49195000Y-52775000I0J-150000D01*
G01*
X49195000Y-54525000D01*
G75*
G02*
X49045000Y-54675000I-150000J0D01*
G01*
G37*
%TD.AperFunction*%
%TO.P,U1,22*%
%TO.N,D*%
%TA.AperFunction,SMDPad,CuDef*%
G36*
G01*
X50315000Y-54675000D02*
X50015000Y-54675000D01*
G75*
G02*
X49865000Y-54525000I0J150000D01*
G01*
X49865000Y-52775000D01*
G75*
G02*
X50015000Y-52625000I150000J0D01*
G01*
X50315000Y-52625000D01*
G75*
G02*
X50465000Y-52775000I0J-150000D01*
G01*
X50465000Y-54525000D01*
G75*
G02*
X50315000Y-54675000I-150000J0D01*
G01*
G37*
%TD.AperFunction*%
%TO.P,U1,21*%
%TO.N,E*%
%TA.AperFunction,SMDPad,CuDef*%
G36*
G01*
X51585000Y-54675000D02*
X51285000Y-54675000D01*
G75*
G02*
X51135000Y-54525000I0J150000D01*
G01*
X51135000Y-52775000D01*
G75*
G02*
X51285000Y-52625000I150000J0D01*
G01*
X51585000Y-52625000D01*
G75*
G02*
X51735000Y-52775000I0J-150000D01*
G01*
X51735000Y-54525000D01*
G75*
G02*
X51585000Y-54675000I-150000J0D01*
G01*
G37*
%TD.AperFunction*%
%TO.P,U1,20*%
%TO.N,A*%
%TA.AperFunction,SMDPad,CuDef*%
G36*
G01*
X52855000Y-54675000D02*
X52555000Y-54675000D01*
G75*
G02*
X52405000Y-54525000I0J150000D01*
G01*
X52405000Y-52775000D01*
G75*
G02*
X52555000Y-52625000I150000J0D01*
G01*
X52855000Y-52625000D01*
G75*
G02*
X53005000Y-52775000I0J-150000D01*
G01*
X53005000Y-54525000D01*
G75*
G02*
X52855000Y-54675000I-150000J0D01*
G01*
G37*
%TD.AperFunction*%
%TO.P,U1,19*%
%TO.N,F*%
%TA.AperFunction,SMDPad,CuDef*%
G36*
G01*
X54125000Y-54675000D02*
X53825000Y-54675000D01*
G75*
G02*
X53675000Y-54525000I0J150000D01*
G01*
X53675000Y-52775000D01*
G75*
G02*
X53825000Y-52625000I150000J0D01*
G01*
X54125000Y-52625000D01*
G75*
G02*
X54275000Y-52775000I0J-150000D01*
G01*
X54275000Y-54525000D01*
G75*
G02*
X54125000Y-54675000I-150000J0D01*
G01*
G37*
%TD.AperFunction*%
%TO.P,U1,18*%
%TO.N,B*%
%TA.AperFunction,SMDPad,CuDef*%
G36*
G01*
X55395000Y-54675000D02*
X55095000Y-54675000D01*
G75*
G02*
X54945000Y-54525000I0J150000D01*
G01*
X54945000Y-52775000D01*
G75*
G02*
X55095000Y-52625000I150000J0D01*
G01*
X55395000Y-52625000D01*
G75*
G02*
X55545000Y-52775000I0J-150000D01*
G01*
X55545000Y-54525000D01*
G75*
G02*
X55395000Y-54675000I-150000J0D01*
G01*
G37*
%TD.AperFunction*%
%TO.P,U1,17*%
%TO.N,BUF7*%
%TA.AperFunction,SMDPad,CuDef*%
G36*
G01*
X56665000Y-54675000D02*
X56365000Y-54675000D01*
G75*
G02*
X56215000Y-54525000I0J150000D01*
G01*
X56215000Y-52775000D01*
G75*
G02*
X56365000Y-52625000I150000J0D01*
G01*
X56665000Y-52625000D01*
G75*
G02*
X56815000Y-52775000I0J-150000D01*
G01*
X56815000Y-54525000D01*
G75*
G02*
X56665000Y-54675000I-150000J0D01*
G01*
G37*
%TD.AperFunction*%
%TO.P,U1,16*%
%TO.N,BUF6*%
%TA.AperFunction,SMDPad,CuDef*%
G36*
G01*
X57935000Y-54675000D02*
X57635000Y-54675000D01*
G75*
G02*
X57485000Y-54525000I0J150000D01*
G01*
X57485000Y-52775000D01*
G75*
G02*
X57635000Y-52625000I150000J0D01*
G01*
X57935000Y-52625000D01*
G75*
G02*
X58085000Y-52775000I0J-150000D01*
G01*
X58085000Y-54525000D01*
G75*
G02*
X57935000Y-54675000I-150000J0D01*
G01*
G37*
%TD.AperFunction*%
%TO.P,U1,15*%
%TO.N,BUF5*%
%TA.AperFunction,SMDPad,CuDef*%
G36*
G01*
X59205000Y-54675000D02*
X58905000Y-54675000D01*
G75*
G02*
X58755000Y-54525000I0J150000D01*
G01*
X58755000Y-52775000D01*
G75*
G02*
X58905000Y-52625000I150000J0D01*
G01*
X59205000Y-52625000D01*
G75*
G02*
X59355000Y-52775000I0J-150000D01*
G01*
X59355000Y-54525000D01*
G75*
G02*
X59205000Y-54675000I-150000J0D01*
G01*
G37*
%TD.AperFunction*%
%TO.P,U1,14*%
%TO.N,BUF4*%
%TA.AperFunction,SMDPad,CuDef*%
G36*
G01*
X59205000Y-63975000D02*
X58905000Y-63975000D01*
G75*
G02*
X58755000Y-63825000I0J150000D01*
G01*
X58755000Y-62075000D01*
G75*
G02*
X58905000Y-61925000I150000J0D01*
G01*
X59205000Y-61925000D01*
G75*
G02*
X59355000Y-62075000I0J-150000D01*
G01*
X59355000Y-63825000D01*
G75*
G02*
X59205000Y-63975000I-150000J0D01*
G01*
G37*
%TD.AperFunction*%
%TO.P,U1,13*%
%TO.N,BUF3*%
%TA.AperFunction,SMDPad,CuDef*%
G36*
G01*
X57935000Y-63975000D02*
X57635000Y-63975000D01*
G75*
G02*
X57485000Y-63825000I0J150000D01*
G01*
X57485000Y-62075000D01*
G75*
G02*
X57635000Y-61925000I150000J0D01*
G01*
X57935000Y-61925000D01*
G75*
G02*
X58085000Y-62075000I0J-150000D01*
G01*
X58085000Y-63825000D01*
G75*
G02*
X57935000Y-63975000I-150000J0D01*
G01*
G37*
%TD.AperFunction*%
%TO.P,U1,12*%
%TO.N,BUF2*%
%TA.AperFunction,SMDPad,CuDef*%
G36*
G01*
X56665000Y-63975000D02*
X56365000Y-63975000D01*
G75*
G02*
X56215000Y-63825000I0J150000D01*
G01*
X56215000Y-62075000D01*
G75*
G02*
X56365000Y-61925000I150000J0D01*
G01*
X56665000Y-61925000D01*
G75*
G02*
X56815000Y-62075000I0J-150000D01*
G01*
X56815000Y-63825000D01*
G75*
G02*
X56665000Y-63975000I-150000J0D01*
G01*
G37*
%TD.AperFunction*%
%TO.P,U1,11*%
%TO.N,BUF1*%
%TA.AperFunction,SMDPad,CuDef*%
G36*
G01*
X55395000Y-63975000D02*
X55095000Y-63975000D01*
G75*
G02*
X54945000Y-63825000I0J150000D01*
G01*
X54945000Y-62075000D01*
G75*
G02*
X55095000Y-61925000I150000J0D01*
G01*
X55395000Y-61925000D01*
G75*
G02*
X55545000Y-62075000I0J-150000D01*
G01*
X55545000Y-63825000D01*
G75*
G02*
X55395000Y-63975000I-150000J0D01*
G01*
G37*
%TD.AperFunction*%
%TO.P,U1,10*%
%TO.N,BUF0*%
%TA.AperFunction,SMDPad,CuDef*%
G36*
G01*
X54125000Y-63975000D02*
X53825000Y-63975000D01*
G75*
G02*
X53675000Y-63825000I0J150000D01*
G01*
X53675000Y-62075000D01*
G75*
G02*
X53825000Y-61925000I150000J0D01*
G01*
X54125000Y-61925000D01*
G75*
G02*
X54275000Y-62075000I0J-150000D01*
G01*
X54275000Y-63825000D01*
G75*
G02*
X54125000Y-63975000I-150000J0D01*
G01*
G37*
%TD.AperFunction*%
%TO.P,U1,9*%
%TO.N,Net-(J1-Pad2)*%
%TA.AperFunction,SMDPad,CuDef*%
G36*
G01*
X52855000Y-63975000D02*
X52555000Y-63975000D01*
G75*
G02*
X52405000Y-63825000I0J150000D01*
G01*
X52405000Y-62075000D01*
G75*
G02*
X52555000Y-61925000I150000J0D01*
G01*
X52855000Y-61925000D01*
G75*
G02*
X53005000Y-62075000I0J-150000D01*
G01*
X53005000Y-63825000D01*
G75*
G02*
X52855000Y-63975000I-150000J0D01*
G01*
G37*
%TD.AperFunction*%
%TO.P,U1,8*%
%TO.N,DIG3*%
%TA.AperFunction,SMDPad,CuDef*%
G36*
G01*
X51585000Y-63975000D02*
X51285000Y-63975000D01*
G75*
G02*
X51135000Y-63825000I0J150000D01*
G01*
X51135000Y-62075000D01*
G75*
G02*
X51285000Y-61925000I150000J0D01*
G01*
X51585000Y-61925000D01*
G75*
G02*
X51735000Y-62075000I0J-150000D01*
G01*
X51735000Y-63825000D01*
G75*
G02*
X51585000Y-63975000I-150000J0D01*
G01*
G37*
%TD.AperFunction*%
%TO.P,U1,7*%
%TO.N,DIG2*%
%TA.AperFunction,SMDPad,CuDef*%
G36*
G01*
X50315000Y-63975000D02*
X50015000Y-63975000D01*
G75*
G02*
X49865000Y-63825000I0J150000D01*
G01*
X49865000Y-62075000D01*
G75*
G02*
X50015000Y-61925000I150000J0D01*
G01*
X50315000Y-61925000D01*
G75*
G02*
X50465000Y-62075000I0J-150000D01*
G01*
X50465000Y-63825000D01*
G75*
G02*
X50315000Y-63975000I-150000J0D01*
G01*
G37*
%TD.AperFunction*%
%TO.P,U1,6*%
%TO.N,DIG1*%
%TA.AperFunction,SMDPad,CuDef*%
G36*
G01*
X49045000Y-63975000D02*
X48745000Y-63975000D01*
G75*
G02*
X48595000Y-63825000I0J150000D01*
G01*
X48595000Y-62075000D01*
G75*
G02*
X48745000Y-61925000I150000J0D01*
G01*
X49045000Y-61925000D01*
G75*
G02*
X49195000Y-62075000I0J-150000D01*
G01*
X49195000Y-63825000D01*
G75*
G02*
X49045000Y-63975000I-150000J0D01*
G01*
G37*
%TD.AperFunction*%
%TO.P,U1,5*%
%TO.N,N/C*%
%TA.AperFunction,SMDPad,CuDef*%
G36*
G01*
X47775000Y-63975000D02*
X47475000Y-63975000D01*
G75*
G02*
X47325000Y-63825000I0J150000D01*
G01*
X47325000Y-62075000D01*
G75*
G02*
X47475000Y-61925000I150000J0D01*
G01*
X47775000Y-61925000D01*
G75*
G02*
X47925000Y-62075000I0J-150000D01*
G01*
X47925000Y-63825000D01*
G75*
G02*
X47775000Y-63975000I-150000J0D01*
G01*
G37*
%TD.AperFunction*%
%TO.P,U1,4*%
%TO.N,GND*%
%TA.AperFunction,SMDPad,CuDef*%
G36*
G01*
X46505000Y-63975000D02*
X46205000Y-63975000D01*
G75*
G02*
X46055000Y-63825000I0J150000D01*
G01*
X46055000Y-62075000D01*
G75*
G02*
X46205000Y-61925000I150000J0D01*
G01*
X46505000Y-61925000D01*
G75*
G02*
X46655000Y-62075000I0J-150000D01*
G01*
X46655000Y-63825000D01*
G75*
G02*
X46505000Y-63975000I-150000J0D01*
G01*
G37*
%TD.AperFunction*%
%TO.P,U1,3*%
%TO.N,N/C*%
%TA.AperFunction,SMDPad,CuDef*%
G36*
G01*
X45235000Y-63975000D02*
X44935000Y-63975000D01*
G75*
G02*
X44785000Y-63825000I0J150000D01*
G01*
X44785000Y-62075000D01*
G75*
G02*
X44935000Y-61925000I150000J0D01*
G01*
X45235000Y-61925000D01*
G75*
G02*
X45385000Y-62075000I0J-150000D01*
G01*
X45385000Y-63825000D01*
G75*
G02*
X45235000Y-63975000I-150000J0D01*
G01*
G37*
%TD.AperFunction*%
%TO.P,U1,2*%
%TO.N,+5V*%
%TA.AperFunction,SMDPad,CuDef*%
G36*
G01*
X43965000Y-63975000D02*
X43665000Y-63975000D01*
G75*
G02*
X43515000Y-63825000I0J150000D01*
G01*
X43515000Y-62075000D01*
G75*
G02*
X43665000Y-61925000I150000J0D01*
G01*
X43965000Y-61925000D01*
G75*
G02*
X44115000Y-62075000I0J-150000D01*
G01*
X44115000Y-63825000D01*
G75*
G02*
X43965000Y-63975000I-150000J0D01*
G01*
G37*
%TD.AperFunction*%
%TO.P,U1,1*%
%TO.N,Net-(U1-Pad1)*%
%TA.AperFunction,SMDPad,CuDef*%
G36*
G01*
X42695000Y-63975000D02*
X42395000Y-63975000D01*
G75*
G02*
X42245000Y-63825000I0J150000D01*
G01*
X42245000Y-62075000D01*
G75*
G02*
X42395000Y-61925000I150000J0D01*
G01*
X42695000Y-61925000D01*
G75*
G02*
X42845000Y-62075000I0J-150000D01*
G01*
X42845000Y-63825000D01*
G75*
G02*
X42695000Y-63975000I-150000J0D01*
G01*
G37*
%TD.AperFunction*%
%TD*%
%TO.P,R13,2*%
%TO.N,Net-(LED1-Pad3)*%
%TA.AperFunction,SMDPad,CuDef*%
G36*
G01*
X51656250Y-49650000D02*
X51143750Y-49650000D01*
G75*
G02*
X50925000Y-49431250I0J218750D01*
G01*
X50925000Y-48993750D01*
G75*
G02*
X51143750Y-48775000I218750J0D01*
G01*
X51656250Y-48775000D01*
G75*
G02*
X51875000Y-48993750I0J-218750D01*
G01*
X51875000Y-49431250D01*
G75*
G02*
X51656250Y-49650000I-218750J0D01*
G01*
G37*
%TD.AperFunction*%
%TO.P,R13,1*%
%TO.N,DP*%
%TA.AperFunction,SMDPad,CuDef*%
G36*
G01*
X51656250Y-51225000D02*
X51143750Y-51225000D01*
G75*
G02*
X50925000Y-51006250I0J218750D01*
G01*
X50925000Y-50568750D01*
G75*
G02*
X51143750Y-50350000I218750J0D01*
G01*
X51656250Y-50350000D01*
G75*
G02*
X51875000Y-50568750I0J-218750D01*
G01*
X51875000Y-51006250D01*
G75*
G02*
X51656250Y-51225000I-218750J0D01*
G01*
G37*
%TD.AperFunction*%
%TD*%
%TO.P,R12,2*%
%TO.N,Net-(LED1-Pad5)*%
%TA.AperFunction,SMDPad,CuDef*%
G36*
G01*
X54856250Y-49650000D02*
X54343750Y-49650000D01*
G75*
G02*
X54125000Y-49431250I0J218750D01*
G01*
X54125000Y-48993750D01*
G75*
G02*
X54343750Y-48775000I218750J0D01*
G01*
X54856250Y-48775000D01*
G75*
G02*
X55075000Y-48993750I0J-218750D01*
G01*
X55075000Y-49431250D01*
G75*
G02*
X54856250Y-49650000I-218750J0D01*
G01*
G37*
%TD.AperFunction*%
%TO.P,R12,1*%
%TO.N,G*%
%TA.AperFunction,SMDPad,CuDef*%
G36*
G01*
X54856250Y-51225000D02*
X54343750Y-51225000D01*
G75*
G02*
X54125000Y-51006250I0J218750D01*
G01*
X54125000Y-50568750D01*
G75*
G02*
X54343750Y-50350000I218750J0D01*
G01*
X54856250Y-50350000D01*
G75*
G02*
X55075000Y-50568750I0J-218750D01*
G01*
X55075000Y-51006250D01*
G75*
G02*
X54856250Y-51225000I-218750J0D01*
G01*
G37*
%TD.AperFunction*%
%TD*%
%TO.P,R11,2*%
%TO.N,Net-(LED1-Pad10)*%
%TA.AperFunction,SMDPad,CuDef*%
G36*
G01*
X61256250Y-49650000D02*
X60743750Y-49650000D01*
G75*
G02*
X60525000Y-49431250I0J218750D01*
G01*
X60525000Y-48993750D01*
G75*
G02*
X60743750Y-48775000I218750J0D01*
G01*
X61256250Y-48775000D01*
G75*
G02*
X61475000Y-48993750I0J-218750D01*
G01*
X61475000Y-49431250D01*
G75*
G02*
X61256250Y-49650000I-218750J0D01*
G01*
G37*
%TD.AperFunction*%
%TO.P,R11,1*%
%TO.N,F*%
%TA.AperFunction,SMDPad,CuDef*%
G36*
G01*
X61256250Y-51225000D02*
X60743750Y-51225000D01*
G75*
G02*
X60525000Y-51006250I0J218750D01*
G01*
X60525000Y-50568750D01*
G75*
G02*
X60743750Y-50350000I218750J0D01*
G01*
X61256250Y-50350000D01*
G75*
G02*
X61475000Y-50568750I0J-218750D01*
G01*
X61475000Y-51006250D01*
G75*
G02*
X61256250Y-51225000I-218750J0D01*
G01*
G37*
%TD.AperFunction*%
%TD*%
%TO.P,R10,2*%
%TO.N,Net-(LED1-Pad1)*%
%TA.AperFunction,SMDPad,CuDef*%
G36*
G01*
X58056250Y-49650000D02*
X57543750Y-49650000D01*
G75*
G02*
X57325000Y-49431250I0J218750D01*
G01*
X57325000Y-48993750D01*
G75*
G02*
X57543750Y-48775000I218750J0D01*
G01*
X58056250Y-48775000D01*
G75*
G02*
X58275000Y-48993750I0J-218750D01*
G01*
X58275000Y-49431250D01*
G75*
G02*
X58056250Y-49650000I-218750J0D01*
G01*
G37*
%TD.AperFunction*%
%TO.P,R10,1*%
%TO.N,E*%
%TA.AperFunction,SMDPad,CuDef*%
G36*
G01*
X58056250Y-51225000D02*
X57543750Y-51225000D01*
G75*
G02*
X57325000Y-51006250I0J218750D01*
G01*
X57325000Y-50568750D01*
G75*
G02*
X57543750Y-50350000I218750J0D01*
G01*
X58056250Y-50350000D01*
G75*
G02*
X58275000Y-50568750I0J-218750D01*
G01*
X58275000Y-51006250D01*
G75*
G02*
X58056250Y-51225000I-218750J0D01*
G01*
G37*
%TD.AperFunction*%
%TD*%
%TO.P,R9,2*%
%TO.N,Net-(LED1-Pad2)*%
%TA.AperFunction,SMDPad,CuDef*%
G36*
G01*
X56456250Y-49650000D02*
X55943750Y-49650000D01*
G75*
G02*
X55725000Y-49431250I0J218750D01*
G01*
X55725000Y-48993750D01*
G75*
G02*
X55943750Y-48775000I218750J0D01*
G01*
X56456250Y-48775000D01*
G75*
G02*
X56675000Y-48993750I0J-218750D01*
G01*
X56675000Y-49431250D01*
G75*
G02*
X56456250Y-49650000I-218750J0D01*
G01*
G37*
%TD.AperFunction*%
%TO.P,R9,1*%
%TO.N,D*%
%TA.AperFunction,SMDPad,CuDef*%
G36*
G01*
X56456250Y-51225000D02*
X55943750Y-51225000D01*
G75*
G02*
X55725000Y-51006250I0J218750D01*
G01*
X55725000Y-50568750D01*
G75*
G02*
X55943750Y-50350000I218750J0D01*
G01*
X56456250Y-50350000D01*
G75*
G02*
X56675000Y-50568750I0J-218750D01*
G01*
X56675000Y-51006250D01*
G75*
G02*
X56456250Y-51225000I-218750J0D01*
G01*
G37*
%TD.AperFunction*%
%TD*%
%TO.P,R8,2*%
%TO.N,Net-(LED1-Pad4)*%
%TA.AperFunction,SMDPad,CuDef*%
G36*
G01*
X53256250Y-49650000D02*
X52743750Y-49650000D01*
G75*
G02*
X52525000Y-49431250I0J218750D01*
G01*
X52525000Y-48993750D01*
G75*
G02*
X52743750Y-48775000I218750J0D01*
G01*
X53256250Y-48775000D01*
G75*
G02*
X53475000Y-48993750I0J-218750D01*
G01*
X53475000Y-49431250D01*
G75*
G02*
X53256250Y-49650000I-218750J0D01*
G01*
G37*
%TD.AperFunction*%
%TO.P,R8,1*%
%TO.N,C*%
%TA.AperFunction,SMDPad,CuDef*%
G36*
G01*
X53256250Y-51225000D02*
X52743750Y-51225000D01*
G75*
G02*
X52525000Y-51006250I0J218750D01*
G01*
X52525000Y-50568750D01*
G75*
G02*
X52743750Y-50350000I218750J0D01*
G01*
X53256250Y-50350000D01*
G75*
G02*
X53475000Y-50568750I0J-218750D01*
G01*
X53475000Y-51006250D01*
G75*
G02*
X53256250Y-51225000I-218750J0D01*
G01*
G37*
%TD.AperFunction*%
%TD*%
%TO.P,R7,2*%
%TO.N,Net-(LED1-Pad7)*%
%TA.AperFunction,SMDPad,CuDef*%
G36*
G01*
X62856250Y-49650000D02*
X62343750Y-49650000D01*
G75*
G02*
X62125000Y-49431250I0J218750D01*
G01*
X62125000Y-48993750D01*
G75*
G02*
X62343750Y-48775000I218750J0D01*
G01*
X62856250Y-48775000D01*
G75*
G02*
X63075000Y-48993750I0J-218750D01*
G01*
X63075000Y-49431250D01*
G75*
G02*
X62856250Y-49650000I-218750J0D01*
G01*
G37*
%TD.AperFunction*%
%TO.P,R7,1*%
%TO.N,B*%
%TA.AperFunction,SMDPad,CuDef*%
G36*
G01*
X62856250Y-51225000D02*
X62343750Y-51225000D01*
G75*
G02*
X62125000Y-51006250I0J218750D01*
G01*
X62125000Y-50568750D01*
G75*
G02*
X62343750Y-50350000I218750J0D01*
G01*
X62856250Y-50350000D01*
G75*
G02*
X63075000Y-50568750I0J-218750D01*
G01*
X63075000Y-51006250D01*
G75*
G02*
X62856250Y-51225000I-218750J0D01*
G01*
G37*
%TD.AperFunction*%
%TD*%
%TO.P,R6,2*%
%TO.N,Net-(LED1-Pad11)*%
%TA.AperFunction,SMDPad,CuDef*%
G36*
G01*
X59656250Y-49650000D02*
X59143750Y-49650000D01*
G75*
G02*
X58925000Y-49431250I0J218750D01*
G01*
X58925000Y-48993750D01*
G75*
G02*
X59143750Y-48775000I218750J0D01*
G01*
X59656250Y-48775000D01*
G75*
G02*
X59875000Y-48993750I0J-218750D01*
G01*
X59875000Y-49431250D01*
G75*
G02*
X59656250Y-49650000I-218750J0D01*
G01*
G37*
%TD.AperFunction*%
%TO.P,R6,1*%
%TO.N,A*%
%TA.AperFunction,SMDPad,CuDef*%
G36*
G01*
X59656250Y-51225000D02*
X59143750Y-51225000D01*
G75*
G02*
X58925000Y-51006250I0J218750D01*
G01*
X58925000Y-50568750D01*
G75*
G02*
X59143750Y-50350000I218750J0D01*
G01*
X59656250Y-50350000D01*
G75*
G02*
X59875000Y-50568750I0J-218750D01*
G01*
X59875000Y-51006250D01*
G75*
G02*
X59656250Y-51225000I-218750J0D01*
G01*
G37*
%TD.AperFunction*%
%TD*%
%TO.P,R5,2*%
%TO.N,DIG3*%
%TA.AperFunction,SMDPad,CuDef*%
G36*
G01*
X62856250Y-69384000D02*
X62343750Y-69384000D01*
G75*
G02*
X62125000Y-69165250I0J218750D01*
G01*
X62125000Y-68727750D01*
G75*
G02*
X62343750Y-68509000I218750J0D01*
G01*
X62856250Y-68509000D01*
G75*
G02*
X63075000Y-68727750I0J-218750D01*
G01*
X63075000Y-69165250D01*
G75*
G02*
X62856250Y-69384000I-218750J0D01*
G01*
G37*
%TD.AperFunction*%
%TO.P,R5,1*%
%TO.N,+5V*%
%TA.AperFunction,SMDPad,CuDef*%
G36*
G01*
X62856250Y-70959000D02*
X62343750Y-70959000D01*
G75*
G02*
X62125000Y-70740250I0J218750D01*
G01*
X62125000Y-70302750D01*
G75*
G02*
X62343750Y-70084000I218750J0D01*
G01*
X62856250Y-70084000D01*
G75*
G02*
X63075000Y-70302750I0J-218750D01*
G01*
X63075000Y-70740250D01*
G75*
G02*
X62856250Y-70959000I-218750J0D01*
G01*
G37*
%TD.AperFunction*%
%TD*%
%TO.P,R4,2*%
%TO.N,DIG2*%
%TA.AperFunction,SMDPad,CuDef*%
G36*
G01*
X62856250Y-73050000D02*
X62343750Y-73050000D01*
G75*
G02*
X62125000Y-72831250I0J218750D01*
G01*
X62125000Y-72393750D01*
G75*
G02*
X62343750Y-72175000I218750J0D01*
G01*
X62856250Y-72175000D01*
G75*
G02*
X63075000Y-72393750I0J-218750D01*
G01*
X63075000Y-72831250D01*
G75*
G02*
X62856250Y-73050000I-218750J0D01*
G01*
G37*
%TD.AperFunction*%
%TO.P,R4,1*%
%TO.N,+5V*%
%TA.AperFunction,SMDPad,CuDef*%
G36*
G01*
X62856250Y-74625000D02*
X62343750Y-74625000D01*
G75*
G02*
X62125000Y-74406250I0J218750D01*
G01*
X62125000Y-73968750D01*
G75*
G02*
X62343750Y-73750000I218750J0D01*
G01*
X62856250Y-73750000D01*
G75*
G02*
X63075000Y-73968750I0J-218750D01*
G01*
X63075000Y-74406250D01*
G75*
G02*
X62856250Y-74625000I-218750J0D01*
G01*
G37*
%TD.AperFunction*%
%TD*%
%TO.P,R3,2*%
%TO.N,DIG1*%
%TA.AperFunction,SMDPad,CuDef*%
G36*
G01*
X62856250Y-76716000D02*
X62343750Y-76716000D01*
G75*
G02*
X62125000Y-76497250I0J218750D01*
G01*
X62125000Y-76059750D01*
G75*
G02*
X62343750Y-75841000I218750J0D01*
G01*
X62856250Y-75841000D01*
G75*
G02*
X63075000Y-76059750I0J-218750D01*
G01*
X63075000Y-76497250D01*
G75*
G02*
X62856250Y-76716000I-218750J0D01*
G01*
G37*
%TD.AperFunction*%
%TO.P,R3,1*%
%TO.N,+5V*%
%TA.AperFunction,SMDPad,CuDef*%
G36*
G01*
X62856250Y-78291000D02*
X62343750Y-78291000D01*
G75*
G02*
X62125000Y-78072250I0J218750D01*
G01*
X62125000Y-77634750D01*
G75*
G02*
X62343750Y-77416000I218750J0D01*
G01*
X62856250Y-77416000D01*
G75*
G02*
X63075000Y-77634750I0J-218750D01*
G01*
X63075000Y-78072250D01*
G75*
G02*
X62856250Y-78291000I-218750J0D01*
G01*
G37*
%TD.AperFunction*%
%TD*%
%TO.P,R2,2*%
%TO.N,Net-(J1-Pad2)*%
%TA.AperFunction,SMDPad,CuDef*%
G36*
G01*
X40261250Y-62388000D02*
X39748750Y-62388000D01*
G75*
G02*
X39530000Y-62169250I0J218750D01*
G01*
X39530000Y-61731750D01*
G75*
G02*
X39748750Y-61513000I218750J0D01*
G01*
X40261250Y-61513000D01*
G75*
G02*
X40480000Y-61731750I0J-218750D01*
G01*
X40480000Y-62169250D01*
G75*
G02*
X40261250Y-62388000I-218750J0D01*
G01*
G37*
%TD.AperFunction*%
%TO.P,R2,1*%
%TO.N,+5V*%
%TA.AperFunction,SMDPad,CuDef*%
G36*
G01*
X40261250Y-63963000D02*
X39748750Y-63963000D01*
G75*
G02*
X39530000Y-63744250I0J218750D01*
G01*
X39530000Y-63306750D01*
G75*
G02*
X39748750Y-63088000I218750J0D01*
G01*
X40261250Y-63088000D01*
G75*
G02*
X40480000Y-63306750I0J-218750D01*
G01*
X40480000Y-63744250D01*
G75*
G02*
X40261250Y-63963000I-218750J0D01*
G01*
G37*
%TD.AperFunction*%
%TD*%
%TO.P,R1,2*%
%TO.N,~MCLR*%
%TA.AperFunction,SMDPad,CuDef*%
G36*
G01*
X61616750Y-63437500D02*
X62129250Y-63437500D01*
G75*
G02*
X62348000Y-63656250I0J-218750D01*
G01*
X62348000Y-64093750D01*
G75*
G02*
X62129250Y-64312500I-218750J0D01*
G01*
X61616750Y-64312500D01*
G75*
G02*
X61398000Y-64093750I0J218750D01*
G01*
X61398000Y-63656250D01*
G75*
G02*
X61616750Y-63437500I218750J0D01*
G01*
G37*
%TD.AperFunction*%
%TO.P,R1,1*%
%TO.N,+5V*%
%TA.AperFunction,SMDPad,CuDef*%
G36*
G01*
X61616750Y-61862500D02*
X62129250Y-61862500D01*
G75*
G02*
X62348000Y-62081250I0J-218750D01*
G01*
X62348000Y-62518750D01*
G75*
G02*
X62129250Y-62737500I-218750J0D01*
G01*
X61616750Y-62737500D01*
G75*
G02*
X61398000Y-62518750I0J218750D01*
G01*
X61398000Y-62081250D01*
G75*
G02*
X61616750Y-61862500I218750J0D01*
G01*
G37*
%TD.AperFunction*%
%TD*%
D11*
%TO.P,Q3,3*%
%TO.N,Net-(LED1-Pad8)*%
X66300000Y-69734000D03*
%TO.P,Q3,2*%
%TO.N,+5V*%
X64300000Y-70684000D03*
%TO.P,Q3,1*%
%TO.N,DIG3*%
X64300000Y-68784000D03*
%TD*%
%TO.P,Q2,3*%
%TO.N,Net-(LED1-Pad9)*%
X66300000Y-73400000D03*
%TO.P,Q2,2*%
%TO.N,+5V*%
X64300000Y-74350000D03*
%TO.P,Q2,1*%
%TO.N,DIG2*%
X64300000Y-72450000D03*
%TD*%
%TO.P,Q1,3*%
%TO.N,Net-(LED1-Pad12)*%
X66300000Y-77066000D03*
%TO.P,Q1,2*%
%TO.N,+5V*%
X64300000Y-78016000D03*
%TO.P,Q1,1*%
%TO.N,DIG1*%
X64300000Y-76116000D03*
%TD*%
D12*
%TO.P,LED1,7*%
%TO.N,Net-(LED1-Pad7)*%
X57200000Y-32900000D03*
%TO.P,LED1,4*%
%TO.N,Net-(LED1-Pad4)*%
X52120000Y-45600000D03*
%TO.P,LED1,12*%
%TO.N,Net-(LED1-Pad12)*%
X44500000Y-32900000D03*
%TO.P,LED1,9*%
%TO.N,Net-(LED1-Pad9)*%
X52120000Y-32900000D03*
D13*
%TO.P,LED1,1*%
%TO.N,Net-(LED1-Pad1)*%
X44500000Y-45600000D03*
D12*
%TO.P,LED1,8*%
%TO.N,Net-(LED1-Pad8)*%
X54660000Y-32900000D03*
%TO.P,LED1,11*%
%TO.N,Net-(LED1-Pad11)*%
X47040000Y-32900000D03*
%TO.P,LED1,3*%
%TO.N,Net-(LED1-Pad3)*%
X49580000Y-45600000D03*
%TO.P,LED1,10*%
%TO.N,Net-(LED1-Pad10)*%
X49580000Y-32900000D03*
%TO.P,LED1,5*%
%TO.N,Net-(LED1-Pad5)*%
X54660000Y-45600000D03*
%TO.P,LED1,2*%
%TO.N,Net-(LED1-Pad2)*%
X47040000Y-45600000D03*
%TD*%
D14*
%TO.P,J4,2*%
%TO.N,GND*%
X36100000Y-66900000D03*
D15*
%TO.P,J4,1*%
%TO.N,+5V*%
X36100000Y-64360000D03*
%TD*%
D14*
%TO.P,J3,8*%
%TO.N,Net-(J3-Pad8)*%
X59780000Y-80900000D03*
%TO.P,J3,7*%
%TO.N,Net-(J3-Pad7)*%
X57240000Y-80900000D03*
%TO.P,J3,6*%
%TO.N,Net-(J3-Pad6)*%
X54700000Y-80900000D03*
%TO.P,J3,5*%
%TO.N,Net-(J3-Pad5)*%
X52160000Y-80900000D03*
%TO.P,J3,4*%
%TO.N,Net-(J3-Pad4)*%
X49620000Y-80900000D03*
%TO.P,J3,3*%
%TO.N,Net-(J3-Pad3)*%
X47080000Y-80900000D03*
%TO.P,J3,2*%
%TO.N,Net-(J3-Pad2)*%
X44540000Y-80900000D03*
D15*
%TO.P,J3,1*%
%TO.N,Net-(J3-Pad1)*%
X42000000Y-80900000D03*
%TD*%
D14*
%TO.P,J2,5*%
%TO.N,BUF6*%
X65024000Y-54229000D03*
%TO.P,J2,4*%
%TO.N,BUF7*%
X65024000Y-56769000D03*
%TO.P,J2,3*%
%TO.N,GND*%
X65024000Y-59309000D03*
%TO.P,J2,2*%
%TO.N,+5V*%
X65024000Y-61849000D03*
D15*
%TO.P,J2,1*%
%TO.N,~MCLR*%
X65024000Y-64389000D03*
%TD*%
D14*
%TO.P,J1,3*%
%TO.N,+5V*%
X36100000Y-59380000D03*
%TO.P,J1,2*%
%TO.N,Net-(J1-Pad2)*%
X36100000Y-56840000D03*
D15*
%TO.P,J1,1*%
%TO.N,GND*%
X36100000Y-54300000D03*
%TD*%
%TO.P,C4,2*%
%TO.N,GND*%
%TA.AperFunction,SMDPad,CuDef*%
G36*
G01*
X49156250Y-49650000D02*
X48643750Y-49650000D01*
G75*
G02*
X48425000Y-49431250I0J218750D01*
G01*
X48425000Y-48993750D01*
G75*
G02*
X48643750Y-48775000I218750J0D01*
G01*
X49156250Y-48775000D01*
G75*
G02*
X49375000Y-48993750I0J-218750D01*
G01*
X49375000Y-49431250D01*
G75*
G02*
X49156250Y-49650000I-218750J0D01*
G01*
G37*
%TD.AperFunction*%
%TO.P,C4,1*%
%TO.N,Net-(C4-Pad1)*%
%TA.AperFunction,SMDPad,CuDef*%
G36*
G01*
X49156250Y-51225000D02*
X48643750Y-51225000D01*
G75*
G02*
X48425000Y-51006250I0J218750D01*
G01*
X48425000Y-50568750D01*
G75*
G02*
X48643750Y-50350000I218750J0D01*
G01*
X49156250Y-50350000D01*
G75*
G02*
X49375000Y-50568750I0J-218750D01*
G01*
X49375000Y-51006250D01*
G75*
G02*
X49156250Y-51225000I-218750J0D01*
G01*
G37*
%TD.AperFunction*%
%TD*%
%TO.P,C3,2*%
%TO.N,GND*%
%TA.AperFunction,SMDPad,CuDef*%
G36*
G01*
X40156250Y-49650000D02*
X39643750Y-49650000D01*
G75*
G02*
X39425000Y-49431250I0J218750D01*
G01*
X39425000Y-48993750D01*
G75*
G02*
X39643750Y-48775000I218750J0D01*
G01*
X40156250Y-48775000D01*
G75*
G02*
X40375000Y-48993750I0J-218750D01*
G01*
X40375000Y-49431250D01*
G75*
G02*
X40156250Y-49650000I-218750J0D01*
G01*
G37*
%TD.AperFunction*%
%TO.P,C3,1*%
%TO.N,Net-(C3-Pad1)*%
%TA.AperFunction,SMDPad,CuDef*%
G36*
G01*
X40156250Y-51225000D02*
X39643750Y-51225000D01*
G75*
G02*
X39425000Y-51006250I0J218750D01*
G01*
X39425000Y-50568750D01*
G75*
G02*
X39643750Y-50350000I218750J0D01*
G01*
X40156250Y-50350000D01*
G75*
G02*
X40375000Y-50568750I0J-218750D01*
G01*
X40375000Y-51006250D01*
G75*
G02*
X40156250Y-51225000I-218750J0D01*
G01*
G37*
%TD.AperFunction*%
%TD*%
%TO.P,C2,2*%
%TO.N,GND*%
%TA.AperFunction,SMDPad,CuDef*%
G36*
G01*
X45435000Y-67566250D02*
X45435000Y-67053750D01*
G75*
G02*
X45653750Y-66835000I218750J0D01*
G01*
X46091250Y-66835000D01*
G75*
G02*
X46310000Y-67053750I0J-218750D01*
G01*
X46310000Y-67566250D01*
G75*
G02*
X46091250Y-67785000I-218750J0D01*
G01*
X45653750Y-67785000D01*
G75*
G02*
X45435000Y-67566250I0J218750D01*
G01*
G37*
%TD.AperFunction*%
%TO.P,C2,1*%
%TO.N,+5V*%
%TA.AperFunction,SMDPad,CuDef*%
G36*
G01*
X43860000Y-67566250D02*
X43860000Y-67053750D01*
G75*
G02*
X44078750Y-66835000I218750J0D01*
G01*
X44516250Y-66835000D01*
G75*
G02*
X44735000Y-67053750I0J-218750D01*
G01*
X44735000Y-67566250D01*
G75*
G02*
X44516250Y-67785000I-218750J0D01*
G01*
X44078750Y-67785000D01*
G75*
G02*
X43860000Y-67566250I0J218750D01*
G01*
G37*
%TD.AperFunction*%
%TD*%
%TO.P,C1,2*%
%TO.N,GND*%
%TA.AperFunction,SMDPad,CuDef*%
G36*
G01*
X45435000Y-65788250D02*
X45435000Y-65275750D01*
G75*
G02*
X45653750Y-65057000I218750J0D01*
G01*
X46091250Y-65057000D01*
G75*
G02*
X46310000Y-65275750I0J-218750D01*
G01*
X46310000Y-65788250D01*
G75*
G02*
X46091250Y-66007000I-218750J0D01*
G01*
X45653750Y-66007000D01*
G75*
G02*
X45435000Y-65788250I0J218750D01*
G01*
G37*
%TD.AperFunction*%
%TO.P,C1,1*%
%TO.N,+5V*%
%TA.AperFunction,SMDPad,CuDef*%
G36*
G01*
X43860000Y-65788250D02*
X43860000Y-65275750D01*
G75*
G02*
X44078750Y-65057000I218750J0D01*
G01*
X44516250Y-65057000D01*
G75*
G02*
X44735000Y-65275750I0J-218750D01*
G01*
X44735000Y-65788250D01*
G75*
G02*
X44516250Y-66007000I-218750J0D01*
G01*
X44078750Y-66007000D01*
G75*
G02*
X43860000Y-65788250I0J218750D01*
G01*
G37*
%TD.AperFunction*%
%TD*%
D16*
%TO.N,GND*%
X48895000Y-48260000D03*
X39878000Y-48260000D03*
D17*
X58039000Y-76835000D03*
D16*
X39751000Y-67310000D03*
X46736000Y-65532000D03*
X46736000Y-67310000D03*
D17*
X44323000Y-38608000D03*
X41021000Y-33274000D03*
X37719000Y-36576000D03*
X43180000Y-41910000D03*
X40894000Y-38354000D03*
X37592000Y-42164000D03*
X40513000Y-46355000D03*
X40767000Y-53467000D03*
X62611000Y-80264000D03*
X66802000Y-80899000D03*
X44577000Y-57912000D03*
X48641000Y-57912000D03*
X53086000Y-57912000D03*
X58801000Y-60071000D03*
X36449000Y-69977000D03*
X36703000Y-80772000D03*
X43180000Y-76073000D03*
X60960000Y-60071000D03*
D16*
%TO.N,+5V*%
X62230000Y-66548000D03*
%TO.N,DIG1*%
X61341000Y-75565000D03*
X53594000Y-67945000D03*
%TO.N,BUF6*%
X57785000Y-56769000D03*
X49022000Y-68199000D03*
%TO.N,BUF7*%
X56515000Y-56769000D03*
X47752000Y-68199000D03*
%TO.N,A*%
X52705000Y-55626000D03*
X59309000Y-51816000D03*
%TO.N,B*%
X55245000Y-55626000D03*
X62611000Y-51816000D03*
%TO.N,C*%
X47625000Y-55626000D03*
X52959000Y-51816000D03*
%TO.N,D*%
X50165000Y-55626000D03*
X56134000Y-51816000D03*
%TO.N,E*%
X51435000Y-55626000D03*
X57785000Y-51816000D03*
%TO.N,F*%
X53975000Y-55626000D03*
X60960000Y-51816000D03*
%TO.N,G*%
X48895000Y-55626000D03*
X54610000Y-51816000D03*
%TO.N,DP*%
X46355000Y-55626000D03*
X51435000Y-51816000D03*
%TO.N,BUF5*%
X59055000Y-56769000D03*
X50292000Y-68199000D03*
%TO.N,DIG3*%
X61341000Y-68199000D03*
X53594000Y-66167000D03*
%TO.N,DIG2*%
X61341000Y-71882000D03*
X53594000Y-67056000D03*
%TD*%
D18*
%TO.N,GND*%
X48900000Y-48265000D02*
X48895000Y-48260000D01*
X48900000Y-49212500D02*
X48900000Y-48265000D01*
X39900000Y-48282000D02*
X39878000Y-48260000D01*
X39900000Y-49212500D02*
X39900000Y-48282000D01*
D19*
X57945500Y-76741500D02*
X58039000Y-76835000D01*
X56642000Y-76741500D02*
X57945500Y-76741500D01*
X46355000Y-62950000D02*
X46355000Y-64135000D01*
X45872500Y-64617500D02*
X45872500Y-65532000D01*
X46355000Y-64135000D02*
X45872500Y-64617500D01*
X40589000Y-67310000D02*
X39751000Y-67310000D01*
X45872500Y-65532000D02*
X46736000Y-65532000D01*
X45872500Y-67310000D02*
X46736000Y-67310000D01*
%TO.N,+5V*%
X64137500Y-77853500D02*
X64300000Y-78016000D01*
X62600000Y-77853500D02*
X64137500Y-77853500D01*
X64137500Y-74187500D02*
X64300000Y-74350000D01*
X62600000Y-74187500D02*
X64137500Y-74187500D01*
X64137500Y-70521500D02*
X64300000Y-70684000D01*
X62600000Y-70521500D02*
X64137500Y-70521500D01*
X65240000Y-78016000D02*
X65278000Y-77978000D01*
X64300000Y-78016000D02*
X65240000Y-78016000D01*
X65223000Y-74350000D02*
X65278000Y-74295000D01*
X64300000Y-74350000D02*
X65223000Y-74350000D01*
X65278000Y-74295000D02*
X65278000Y-77978000D01*
X36100000Y-64360000D02*
X36100000Y-59380000D01*
X64573000Y-62300000D02*
X65024000Y-61849000D01*
X61873000Y-62300000D02*
X64573000Y-62300000D01*
X36100000Y-64360000D02*
X37748000Y-64360000D01*
X38582500Y-63525500D02*
X40005000Y-63525500D01*
X37748000Y-64360000D02*
X38582500Y-63525500D01*
X40005000Y-63525500D02*
X40005000Y-64135000D01*
X40589000Y-64719000D02*
X40589000Y-65532000D01*
X43815000Y-62950000D02*
X43815000Y-64262000D01*
X44297500Y-64744500D02*
X44297500Y-65532000D01*
X44297500Y-67310000D02*
X44297500Y-67792500D01*
X45212000Y-68707000D02*
X45212000Y-69816500D01*
X44297500Y-67792500D02*
X45212000Y-68707000D01*
X44297500Y-65532000D02*
X44297500Y-67310000D01*
X40386000Y-64516000D02*
X44069000Y-64516000D01*
X44069000Y-64516000D02*
X44297500Y-64744500D01*
X43815000Y-64262000D02*
X44069000Y-64516000D01*
X40005000Y-64135000D02*
X40386000Y-64516000D01*
X40386000Y-64516000D02*
X40589000Y-64719000D01*
X65278000Y-70684000D02*
X65278000Y-74295000D01*
X64300000Y-70684000D02*
X65278000Y-70684000D01*
X38735000Y-68199000D02*
X38735000Y-65347000D01*
X38735000Y-65347000D02*
X37748000Y-64360000D01*
X39624000Y-69088000D02*
X38735000Y-68199000D01*
X42926000Y-70231000D02*
X41783000Y-69088000D01*
X41783000Y-69088000D02*
X39624000Y-69088000D01*
X57658000Y-74549000D02*
X46101000Y-74549000D01*
X60962500Y-77853500D02*
X57658000Y-74549000D01*
X62600000Y-77853500D02*
X60962500Y-77853500D01*
X46101000Y-74549000D02*
X44450000Y-74549000D01*
X42926000Y-73025000D02*
X42926000Y-70231000D01*
X44450000Y-74549000D02*
X42926000Y-73025000D01*
X45212000Y-74549000D02*
X45212000Y-76741500D01*
X46101000Y-74549000D02*
X45212000Y-74549000D01*
X64389000Y-67056000D02*
X65278000Y-67945000D01*
X65278000Y-67945000D02*
X65278000Y-70684000D01*
X62738000Y-67056000D02*
X64389000Y-67056000D01*
X62230000Y-66548000D02*
X62738000Y-67056000D01*
D18*
%TO.N,Net-(C3-Pad1)*%
X42550000Y-50000000D02*
X42550000Y-51440000D01*
X42550000Y-51440000D02*
X42926000Y-51816000D01*
X42926000Y-51816000D02*
X43561000Y-51816000D01*
X43815000Y-52070000D02*
X43815000Y-53650000D01*
X43561000Y-51816000D02*
X43815000Y-52070000D01*
X41762500Y-50787500D02*
X42550000Y-50000000D01*
X39900000Y-50787500D02*
X41762500Y-50787500D01*
%TO.N,Net-(C4-Pad1)*%
X46250000Y-51413000D02*
X46250000Y-50000000D01*
X45847000Y-51816000D02*
X46250000Y-51413000D01*
X45339000Y-51816000D02*
X45847000Y-51816000D01*
X45085000Y-52070000D02*
X45339000Y-51816000D01*
X45085000Y-53650000D02*
X45085000Y-52070000D01*
X47037500Y-50787500D02*
X46250000Y-50000000D01*
X48900000Y-50787500D02*
X47037500Y-50787500D01*
%TO.N,Net-(J1-Pad2)*%
X40792500Y-61950500D02*
X40005000Y-61950500D01*
X42545000Y-60198000D02*
X40792500Y-61950500D01*
X51562000Y-60198000D02*
X42545000Y-60198000D01*
X52705000Y-61341000D02*
X51562000Y-60198000D01*
X52705000Y-62950000D02*
X52705000Y-61341000D01*
X38425000Y-56840000D02*
X36100000Y-56840000D01*
X40005000Y-58420000D02*
X38425000Y-56840000D01*
X40005000Y-61950500D02*
X40005000Y-58420000D01*
%TO.N,~MCLR*%
X64510000Y-63875000D02*
X65024000Y-64389000D01*
X61873000Y-63875000D02*
X64510000Y-63875000D01*
X42545000Y-58420000D02*
X42545000Y-53650000D01*
X43688000Y-59563000D02*
X42545000Y-58420000D01*
X52197000Y-59563000D02*
X43688000Y-59563000D01*
X53848000Y-61214000D02*
X52197000Y-59563000D01*
X60071000Y-61214000D02*
X53848000Y-61214000D01*
X60452000Y-63246000D02*
X60452000Y-61595000D01*
X61081000Y-63875000D02*
X60452000Y-63246000D01*
X60452000Y-61595000D02*
X60071000Y-61214000D01*
X61873000Y-63875000D02*
X61081000Y-63875000D01*
%TO.N,Net-(J3-Pad8)*%
X59780000Y-80900000D02*
X59780000Y-79719000D01*
X59780000Y-79719000D02*
X58547000Y-78486000D01*
X58547000Y-78486000D02*
X55880000Y-78486000D01*
X55372000Y-77978000D02*
X55372000Y-76741500D01*
X55880000Y-78486000D02*
X55372000Y-77978000D01*
%TO.N,Net-(J3-Pad7)*%
X57240000Y-80900000D02*
X57240000Y-80862000D01*
X54102000Y-77978000D02*
X54102000Y-76741500D01*
X56515000Y-79121000D02*
X55245000Y-79121000D01*
X55245000Y-79121000D02*
X54102000Y-77978000D01*
X57240000Y-79846000D02*
X56515000Y-79121000D01*
X57240000Y-80900000D02*
X57240000Y-79846000D01*
%TO.N,Net-(J3-Pad6)*%
X54700000Y-80900000D02*
X54700000Y-79846000D01*
X52832000Y-77978000D02*
X52832000Y-76741500D01*
X54700000Y-79846000D02*
X52832000Y-77978000D01*
%TO.N,Net-(J3-Pad5)*%
X51562000Y-77978000D02*
X51562000Y-76741500D01*
X52160000Y-78576000D02*
X51562000Y-77978000D01*
X52160000Y-80900000D02*
X52160000Y-78576000D01*
%TO.N,Net-(J3-Pad4)*%
X49620000Y-80900000D02*
X49620000Y-78650000D01*
X50292000Y-77978000D02*
X50292000Y-76741500D01*
X49620000Y-78650000D02*
X50292000Y-77978000D01*
%TO.N,Net-(J3-Pad3)*%
X47080000Y-80900000D02*
X47080000Y-79920000D01*
X49022000Y-77978000D02*
X49022000Y-76741500D01*
X47080000Y-79920000D02*
X49022000Y-77978000D01*
%TO.N,Net-(J3-Pad2)*%
X47752000Y-78105000D02*
X47752000Y-76741500D01*
X46736000Y-79121000D02*
X47752000Y-78105000D01*
X45212000Y-79121000D02*
X46736000Y-79121000D01*
X44540000Y-79793000D02*
X45212000Y-79121000D01*
X44540000Y-80900000D02*
X44540000Y-79793000D01*
%TO.N,Net-(J3-Pad1)*%
X42000000Y-80900000D02*
X42000000Y-79666000D01*
X42000000Y-79666000D02*
X43180000Y-78486000D01*
X43180000Y-78486000D02*
X46101000Y-78486000D01*
X46482000Y-78105000D02*
X46482000Y-76741500D01*
X46101000Y-78486000D02*
X46482000Y-78105000D01*
%TO.N,Net-(LED1-Pad7)*%
X62600000Y-44312000D02*
X62600000Y-49212500D01*
X59309000Y-41021000D02*
X62600000Y-44312000D01*
X58039000Y-41021000D02*
X59309000Y-41021000D01*
X57200000Y-40182000D02*
X58039000Y-41021000D01*
X57200000Y-32900000D02*
X57200000Y-40182000D01*
%TO.N,Net-(LED1-Pad4)*%
X53000000Y-46480000D02*
X52120000Y-45600000D01*
X53000000Y-49212500D02*
X53000000Y-46480000D01*
%TO.N,Net-(LED1-Pad12)*%
X67691000Y-35687000D02*
X67691000Y-75675000D01*
X62611000Y-30607000D02*
X67691000Y-35687000D01*
X45466000Y-30607000D02*
X62611000Y-30607000D01*
X44500000Y-31573000D02*
X45466000Y-30607000D01*
X67691000Y-75675000D02*
X66300000Y-77066000D01*
X44500000Y-32900000D02*
X44500000Y-31573000D01*
%TO.N,Net-(LED1-Pad9)*%
X67183000Y-72517000D02*
X66300000Y-73400000D01*
X67183000Y-35941000D02*
X67183000Y-72517000D01*
X62357000Y-31115000D02*
X67183000Y-35941000D01*
X52959000Y-31115000D02*
X62357000Y-31115000D01*
X52120000Y-31954000D02*
X52959000Y-31115000D01*
X52120000Y-32900000D02*
X52120000Y-31954000D01*
%TO.N,Net-(LED1-Pad1)*%
X57800000Y-44973000D02*
X57800000Y-49212500D01*
X55880000Y-43053000D02*
X57800000Y-44973000D01*
X44500000Y-44146000D02*
X45593000Y-43053000D01*
X45593000Y-43053000D02*
X55880000Y-43053000D01*
X44500000Y-45600000D02*
X44500000Y-44146000D01*
%TO.N,Net-(LED1-Pad8)*%
X66675000Y-36195000D02*
X66675000Y-69359000D01*
X62103000Y-31623000D02*
X66675000Y-36195000D01*
X66675000Y-69359000D02*
X66300000Y-69734000D01*
X55245000Y-31623000D02*
X62103000Y-31623000D01*
X54660000Y-32208000D02*
X55245000Y-31623000D01*
X54660000Y-32900000D02*
X54660000Y-32208000D01*
%TO.N,Net-(LED1-Pad11)*%
X59400000Y-43652000D02*
X59400000Y-49212500D01*
X58166000Y-42418000D02*
X59400000Y-43652000D01*
X48133000Y-42418000D02*
X58166000Y-42418000D01*
X47040000Y-41325000D02*
X48133000Y-42418000D01*
X47040000Y-32900000D02*
X47040000Y-41325000D01*
%TO.N,Net-(LED1-Pad3)*%
X51400000Y-47420000D02*
X49580000Y-45600000D01*
X51400000Y-49212500D02*
X51400000Y-47420000D01*
%TO.N,Net-(LED1-Pad10)*%
X61000000Y-43982000D02*
X61000000Y-49212500D01*
X58801000Y-41783000D02*
X61000000Y-43982000D01*
X50546000Y-41783000D02*
X58801000Y-41783000D01*
X49580000Y-40817000D02*
X50546000Y-41783000D01*
X49580000Y-32900000D02*
X49580000Y-40817000D01*
%TO.N,Net-(LED1-Pad5)*%
X54600000Y-45660000D02*
X54660000Y-45600000D01*
X54600000Y-49212500D02*
X54600000Y-45660000D01*
%TO.N,Net-(LED1-Pad2)*%
X56200000Y-44643000D02*
X56200000Y-49212500D01*
X55245000Y-43688000D02*
X56200000Y-44643000D01*
X47879000Y-43688000D02*
X55245000Y-43688000D01*
X47040000Y-44527000D02*
X47879000Y-43688000D01*
X47040000Y-45600000D02*
X47040000Y-44527000D01*
%TO.N,DIG1*%
X64137500Y-76278500D02*
X64300000Y-76116000D01*
X62600000Y-76278500D02*
X64137500Y-76278500D01*
X62054500Y-76278500D02*
X61341000Y-75565000D01*
X62600000Y-76278500D02*
X62054500Y-76278500D01*
X48895000Y-65278000D02*
X48895000Y-62950000D01*
X51562000Y-67945000D02*
X48895000Y-65278000D01*
X53594000Y-67945000D02*
X51562000Y-67945000D01*
%TO.N,BUF6*%
X49022000Y-69816500D02*
X49022000Y-68199000D01*
X57785000Y-53650000D02*
X57785000Y-56769000D01*
X61849000Y-54229000D02*
X65024000Y-54229000D01*
X61087000Y-54991000D02*
X61849000Y-54229000D01*
X61087000Y-57404000D02*
X61087000Y-54991000D01*
X58420000Y-58039000D02*
X60452000Y-58039000D01*
X60452000Y-58039000D02*
X61087000Y-57404000D01*
X57785000Y-57404000D02*
X58420000Y-58039000D01*
X57785000Y-56769000D02*
X57785000Y-57404000D01*
%TO.N,BUF7*%
X47752000Y-69816500D02*
X47752000Y-68199000D01*
X56515000Y-53650000D02*
X56515000Y-56769000D01*
X62357000Y-56769000D02*
X65024000Y-56769000D01*
X61849000Y-57277000D02*
X62357000Y-56769000D01*
X61849000Y-57785000D02*
X61849000Y-57277000D01*
X60833000Y-58801000D02*
X61849000Y-57785000D01*
X57531000Y-58801000D02*
X60833000Y-58801000D01*
X56515000Y-57785000D02*
X57531000Y-58801000D01*
X56515000Y-56769000D02*
X56515000Y-57785000D01*
%TO.N,A*%
X59309000Y-50878500D02*
X59400000Y-50787500D01*
X59309000Y-51816000D02*
X59309000Y-50878500D01*
X52705000Y-53650000D02*
X52705000Y-55626000D01*
%TO.N,B*%
X62611000Y-50798500D02*
X62600000Y-50787500D01*
X62611000Y-51816000D02*
X62611000Y-50798500D01*
X55245000Y-53650000D02*
X55245000Y-55626000D01*
%TO.N,C*%
X52959000Y-50828500D02*
X53000000Y-50787500D01*
X52959000Y-51816000D02*
X52959000Y-50828500D01*
X47625000Y-53650000D02*
X47625000Y-55626000D01*
%TO.N,D*%
X56134000Y-50853500D02*
X56200000Y-50787500D01*
X56134000Y-51816000D02*
X56134000Y-50853500D01*
X50165000Y-53650000D02*
X50165000Y-55626000D01*
%TO.N,E*%
X57785000Y-50802500D02*
X57800000Y-50787500D01*
X57785000Y-51816000D02*
X57785000Y-50802500D01*
X51435000Y-53650000D02*
X51435000Y-55626000D01*
%TO.N,F*%
X60960000Y-50827500D02*
X61000000Y-50787500D01*
X60960000Y-51816000D02*
X60960000Y-50827500D01*
X53975000Y-53650000D02*
X53975000Y-55626000D01*
%TO.N,G*%
X54610000Y-50797500D02*
X54600000Y-50787500D01*
X54610000Y-51816000D02*
X54610000Y-50797500D01*
X48895000Y-53650000D02*
X48895000Y-55626000D01*
%TO.N,DP*%
X51435000Y-50822500D02*
X51400000Y-50787500D01*
X51435000Y-51816000D02*
X51435000Y-50822500D01*
X46355000Y-53650000D02*
X46355000Y-55626000D01*
%TO.N,BUF5*%
X50292000Y-69816500D02*
X50292000Y-68199000D01*
X59055000Y-53650000D02*
X59055000Y-56769000D01*
%TO.N,BUF4*%
X51562000Y-69816500D02*
X51562000Y-71882000D01*
X51562000Y-71882000D02*
X52705000Y-73025000D01*
X52705000Y-73025000D02*
X58674000Y-73025000D01*
X58674000Y-73025000D02*
X59563000Y-72136000D01*
X59563000Y-72136000D02*
X59563000Y-65405000D01*
X59055000Y-64897000D02*
X59055000Y-62950000D01*
X59563000Y-65405000D02*
X59055000Y-64897000D01*
%TO.N,BUF3*%
X57785000Y-64897000D02*
X57785000Y-62950000D01*
X58928000Y-66040000D02*
X57785000Y-64897000D01*
X58928000Y-71882000D02*
X58928000Y-66040000D01*
X58293000Y-72517000D02*
X58928000Y-71882000D01*
X53594000Y-72517000D02*
X58293000Y-72517000D01*
X52832000Y-71755000D02*
X53594000Y-72517000D01*
X52832000Y-69816500D02*
X52832000Y-71755000D01*
%TO.N,BUF2*%
X56515000Y-64897000D02*
X56515000Y-62950000D01*
X58420000Y-66802000D02*
X56515000Y-64897000D01*
X58420000Y-71501000D02*
X58420000Y-66802000D01*
X57912000Y-72009000D02*
X58420000Y-71501000D01*
X54483000Y-72009000D02*
X57912000Y-72009000D01*
X54102000Y-71628000D02*
X54483000Y-72009000D01*
X54102000Y-69816500D02*
X54102000Y-71628000D01*
%TO.N,BUF1*%
X55245000Y-64897000D02*
X55245000Y-62950000D01*
X57531000Y-71501000D02*
X57912000Y-71120000D01*
X57912000Y-67564000D02*
X55245000Y-64897000D01*
X55753000Y-71501000D02*
X57531000Y-71501000D01*
X57912000Y-71120000D02*
X57912000Y-67564000D01*
X55372000Y-71120000D02*
X55753000Y-71501000D01*
X55372000Y-69816500D02*
X55372000Y-71120000D01*
%TO.N,BUF0*%
X56642000Y-69816500D02*
X56642000Y-67564000D01*
X53975000Y-64897000D02*
X53975000Y-62950000D01*
X56642000Y-67564000D02*
X53975000Y-64897000D01*
%TO.N,DIG3*%
X64137500Y-68946500D02*
X64300000Y-68784000D01*
X62600000Y-68946500D02*
X64137500Y-68946500D01*
X62088500Y-68946500D02*
X61341000Y-68199000D01*
X62600000Y-68946500D02*
X62088500Y-68946500D01*
X51435000Y-65405000D02*
X51435000Y-62950000D01*
X52197000Y-66167000D02*
X51435000Y-65405000D01*
X53594000Y-66167000D02*
X52197000Y-66167000D01*
%TO.N,DIG2*%
X64137500Y-72612500D02*
X64300000Y-72450000D01*
X62600000Y-72612500D02*
X64137500Y-72612500D01*
X62071500Y-72612500D02*
X61341000Y-71882000D01*
X62600000Y-72612500D02*
X62071500Y-72612500D01*
X51879500Y-67056000D02*
X50165000Y-65341500D01*
X53594000Y-67056000D02*
X51879500Y-67056000D01*
X50165000Y-65341500D02*
X50165000Y-62950000D01*
%TO.N,Net-(JP1-Pad1)*%
X42164000Y-65532000D02*
X42164000Y-67310000D01*
X43815000Y-70739000D02*
X43815000Y-68961000D01*
X44450000Y-71374000D02*
X43815000Y-70739000D01*
X43815000Y-68961000D02*
X42164000Y-67310000D01*
X45974000Y-71374000D02*
X44450000Y-71374000D01*
X46482000Y-70866000D02*
X45974000Y-71374000D01*
X46482000Y-69816500D02*
X46482000Y-70866000D01*
%TD*%
D20*
%TO.N,GND*%
X60343063Y-78414932D02*
X60369209Y-78446791D01*
X60401068Y-78472937D01*
X60401070Y-78472939D01*
X60435280Y-78501014D01*
X60496354Y-78551136D01*
X60641413Y-78628672D01*
X60798811Y-78676418D01*
X60921481Y-78688500D01*
X60921482Y-78688500D01*
X60962500Y-78692540D01*
X61003518Y-78688500D01*
X61750539Y-78688500D01*
X61867725Y-78784671D01*
X62015858Y-78863850D01*
X62176592Y-78912608D01*
X62343750Y-78929072D01*
X62856250Y-78929072D01*
X63023408Y-78912608D01*
X63184142Y-78863850D01*
X63331457Y-78785108D01*
X63398815Y-78867185D01*
X63495506Y-78946537D01*
X63605820Y-79005502D01*
X63725518Y-79041812D01*
X63850000Y-79054072D01*
X64750000Y-79054072D01*
X64874482Y-79041812D01*
X64994180Y-79005502D01*
X65104494Y-78946537D01*
X65201185Y-78867185D01*
X65213310Y-78852411D01*
X65240000Y-78855040D01*
X65281018Y-78851000D01*
X65281019Y-78851000D01*
X65403689Y-78838918D01*
X65561087Y-78791172D01*
X65706146Y-78713636D01*
X65833291Y-78609291D01*
X65850420Y-78588420D01*
X65871291Y-78571291D01*
X65975636Y-78444146D01*
X66053172Y-78299087D01*
X66100918Y-78141689D01*
X66104623Y-78104072D01*
X66750000Y-78104072D01*
X66874482Y-78091812D01*
X66994180Y-78055502D01*
X67104494Y-77996537D01*
X67201185Y-77917185D01*
X67280537Y-77820494D01*
X67339502Y-77710180D01*
X67375812Y-77590482D01*
X67388072Y-77466000D01*
X67388072Y-77052729D01*
X67740001Y-76700801D01*
X67740001Y-82140000D01*
X60597138Y-82140000D01*
X60726632Y-82053475D01*
X60933475Y-81846632D01*
X61095990Y-81603411D01*
X61207932Y-81333158D01*
X61265000Y-81046260D01*
X61265000Y-80753740D01*
X61207932Y-80466842D01*
X61095990Y-80196589D01*
X60933475Y-79953368D01*
X60726632Y-79746525D01*
X60533690Y-79617606D01*
X60529003Y-79570014D01*
X60485546Y-79426753D01*
X60414974Y-79294724D01*
X60320001Y-79178999D01*
X60291003Y-79155201D01*
X59110804Y-77975003D01*
X59087001Y-77945999D01*
X58971276Y-77851026D01*
X58839247Y-77780454D01*
X58695986Y-77736997D01*
X58584333Y-77726000D01*
X58584322Y-77726000D01*
X58547000Y-77722324D01*
X58509678Y-77726000D01*
X57580059Y-77726000D01*
X57577000Y-77027250D01*
X57418250Y-76868500D01*
X56769000Y-76868500D01*
X56769000Y-76888500D01*
X56515000Y-76888500D01*
X56515000Y-76868500D01*
X56495000Y-76868500D01*
X56495000Y-76614500D01*
X56515000Y-76614500D01*
X56515000Y-76594500D01*
X56769000Y-76594500D01*
X56769000Y-76614500D01*
X57418250Y-76614500D01*
X57577000Y-76455750D01*
X57580072Y-75754000D01*
X57568922Y-75640789D01*
X60343063Y-78414932D01*
%TA.AperFunction,Conductor*%
D21*
G36*
X60343063Y-78414932D02*
G01*
X60369209Y-78446791D01*
X60401068Y-78472937D01*
X60401070Y-78472939D01*
X60435280Y-78501014D01*
X60496354Y-78551136D01*
X60641413Y-78628672D01*
X60798811Y-78676418D01*
X60921481Y-78688500D01*
X60921482Y-78688500D01*
X60962500Y-78692540D01*
X61003518Y-78688500D01*
X61750539Y-78688500D01*
X61867725Y-78784671D01*
X62015858Y-78863850D01*
X62176592Y-78912608D01*
X62343750Y-78929072D01*
X62856250Y-78929072D01*
X63023408Y-78912608D01*
X63184142Y-78863850D01*
X63331457Y-78785108D01*
X63398815Y-78867185D01*
X63495506Y-78946537D01*
X63605820Y-79005502D01*
X63725518Y-79041812D01*
X63850000Y-79054072D01*
X64750000Y-79054072D01*
X64874482Y-79041812D01*
X64994180Y-79005502D01*
X65104494Y-78946537D01*
X65201185Y-78867185D01*
X65213310Y-78852411D01*
X65240000Y-78855040D01*
X65281018Y-78851000D01*
X65281019Y-78851000D01*
X65403689Y-78838918D01*
X65561087Y-78791172D01*
X65706146Y-78713636D01*
X65833291Y-78609291D01*
X65850420Y-78588420D01*
X65871291Y-78571291D01*
X65975636Y-78444146D01*
X66053172Y-78299087D01*
X66100918Y-78141689D01*
X66104623Y-78104072D01*
X66750000Y-78104072D01*
X66874482Y-78091812D01*
X66994180Y-78055502D01*
X67104494Y-77996537D01*
X67201185Y-77917185D01*
X67280537Y-77820494D01*
X67339502Y-77710180D01*
X67375812Y-77590482D01*
X67388072Y-77466000D01*
X67388072Y-77052729D01*
X67740001Y-76700801D01*
X67740001Y-82140000D01*
X60597138Y-82140000D01*
X60726632Y-82053475D01*
X60933475Y-81846632D01*
X61095990Y-81603411D01*
X61207932Y-81333158D01*
X61265000Y-81046260D01*
X61265000Y-80753740D01*
X61207932Y-80466842D01*
X61095990Y-80196589D01*
X60933475Y-79953368D01*
X60726632Y-79746525D01*
X60533690Y-79617606D01*
X60529003Y-79570014D01*
X60485546Y-79426753D01*
X60414974Y-79294724D01*
X60320001Y-79178999D01*
X60291003Y-79155201D01*
X59110804Y-77975003D01*
X59087001Y-77945999D01*
X58971276Y-77851026D01*
X58839247Y-77780454D01*
X58695986Y-77736997D01*
X58584333Y-77726000D01*
X58584322Y-77726000D01*
X58547000Y-77722324D01*
X58509678Y-77726000D01*
X57580059Y-77726000D01*
X57577000Y-77027250D01*
X57418250Y-76868500D01*
X56769000Y-76868500D01*
X56769000Y-76888500D01*
X56515000Y-76888500D01*
X56515000Y-76868500D01*
X56495000Y-76868500D01*
X56495000Y-76614500D01*
X56515000Y-76614500D01*
X56515000Y-76594500D01*
X56769000Y-76594500D01*
X56769000Y-76614500D01*
X57418250Y-76614500D01*
X57577000Y-76455750D01*
X57580072Y-75754000D01*
X57568922Y-75640789D01*
X60343063Y-78414932D01*
G37*
%TD.AperFunction*%
D20*
X43988998Y-31009201D02*
X43960000Y-31032999D01*
X43936202Y-31061997D01*
X43936201Y-31061998D01*
X43865026Y-31148724D01*
X43794454Y-31280754D01*
X43768293Y-31367000D01*
X43750998Y-31424014D01*
X43746073Y-31474014D01*
X43736324Y-31573000D01*
X43740001Y-31610332D01*
X43740001Y-31742090D01*
X43617114Y-31824201D01*
X43424201Y-32017114D01*
X43272629Y-32243957D01*
X43168225Y-32496011D01*
X43115000Y-32763589D01*
X43115000Y-33036411D01*
X43168225Y-33303989D01*
X43272629Y-33556043D01*
X43424201Y-33782886D01*
X43617114Y-33975799D01*
X43843957Y-34127371D01*
X44096011Y-34231775D01*
X44363589Y-34285000D01*
X44636411Y-34285000D01*
X44903989Y-34231775D01*
X45156043Y-34127371D01*
X45382886Y-33975799D01*
X45575799Y-33782886D01*
X45727371Y-33556043D01*
X45770000Y-33453127D01*
X45812629Y-33556043D01*
X45964201Y-33782886D01*
X46157114Y-33975799D01*
X46280000Y-34057909D01*
X46280001Y-41287668D01*
X46276324Y-41325000D01*
X46280001Y-41362333D01*
X46290998Y-41473986D01*
X46304180Y-41517442D01*
X46334454Y-41617246D01*
X46405026Y-41749276D01*
X46476201Y-41836002D01*
X46500000Y-41865001D01*
X46528998Y-41888799D01*
X46933198Y-42293000D01*
X45630322Y-42293000D01*
X45592999Y-42289324D01*
X45555676Y-42293000D01*
X45555667Y-42293000D01*
X45444014Y-42303997D01*
X45300753Y-42347454D01*
X45168724Y-42418026D01*
X45168722Y-42418027D01*
X45168723Y-42418027D01*
X45081996Y-42489201D01*
X45081992Y-42489205D01*
X45052999Y-42512999D01*
X45029205Y-42541992D01*
X43988998Y-43582201D01*
X43960000Y-43605999D01*
X43936202Y-43634997D01*
X43936201Y-43634998D01*
X43865026Y-43721724D01*
X43794454Y-43853754D01*
X43782845Y-43892026D01*
X43755553Y-43982000D01*
X43750998Y-43997015D01*
X43736324Y-44146000D01*
X43740001Y-44183332D01*
X43740001Y-44212913D01*
X43625518Y-44224188D01*
X43505820Y-44260498D01*
X43395506Y-44319463D01*
X43298815Y-44398815D01*
X43219463Y-44495506D01*
X43160498Y-44605820D01*
X43124188Y-44725518D01*
X43111928Y-44850000D01*
X43111928Y-46350000D01*
X43124188Y-46474482D01*
X43160498Y-46594180D01*
X43219463Y-46704494D01*
X43298815Y-46801185D01*
X43395506Y-46880537D01*
X43505820Y-46939502D01*
X43625518Y-46975812D01*
X43750000Y-46988072D01*
X45250000Y-46988072D01*
X45374482Y-46975812D01*
X45494180Y-46939502D01*
X45604494Y-46880537D01*
X45701185Y-46801185D01*
X45780537Y-46704494D01*
X45839502Y-46594180D01*
X45875812Y-46474482D01*
X45886445Y-46366517D01*
X45964201Y-46482886D01*
X46157114Y-46675799D01*
X46383957Y-46827371D01*
X46636011Y-46931775D01*
X46903589Y-46985000D01*
X47176411Y-46985000D01*
X47443989Y-46931775D01*
X47696043Y-46827371D01*
X47922886Y-46675799D01*
X48115799Y-46482886D01*
X48267371Y-46256043D01*
X48310000Y-46153127D01*
X48352629Y-46256043D01*
X48504201Y-46482886D01*
X48697114Y-46675799D01*
X48923957Y-46827371D01*
X49176011Y-46931775D01*
X49443589Y-46985000D01*
X49716411Y-46985000D01*
X49861365Y-46956167D01*
X50640001Y-47734803D01*
X50640001Y-48304082D01*
X50537885Y-48387885D01*
X50431329Y-48517725D01*
X50352150Y-48665858D01*
X50303392Y-48826592D01*
X50286928Y-48993750D01*
X50286928Y-49431250D01*
X50303392Y-49598408D01*
X50352150Y-49759142D01*
X50431329Y-49907275D01*
X50507426Y-50000000D01*
X50431329Y-50092725D01*
X50352150Y-50240858D01*
X50303392Y-50401592D01*
X50286928Y-50568750D01*
X50286928Y-51006250D01*
X50303392Y-51173408D01*
X50352150Y-51334142D01*
X50431329Y-51482275D01*
X50525291Y-51596768D01*
X50500000Y-51723911D01*
X50500000Y-51908089D01*
X50521902Y-52018196D01*
X50468745Y-52002071D01*
X50315000Y-51986928D01*
X50015000Y-51986928D01*
X49861255Y-52002071D01*
X49713418Y-52046916D01*
X49577171Y-52119742D01*
X49530000Y-52158454D01*
X49482829Y-52119742D01*
X49346582Y-52046916D01*
X49198745Y-52002071D01*
X49045000Y-51986928D01*
X48745000Y-51986928D01*
X48591255Y-52002071D01*
X48443418Y-52046916D01*
X48307171Y-52119742D01*
X48260000Y-52158454D01*
X48212829Y-52119742D01*
X48076582Y-52046916D01*
X47928745Y-52002071D01*
X47775000Y-51986928D01*
X47475000Y-51986928D01*
X47321255Y-52002071D01*
X47173418Y-52046916D01*
X47037171Y-52119742D01*
X46990000Y-52158454D01*
X46942829Y-52119742D01*
X46806582Y-52046916D01*
X46717812Y-52019989D01*
X46760998Y-51976803D01*
X46790001Y-51953001D01*
X46884321Y-51838072D01*
X47250000Y-51838072D01*
X47374482Y-51825812D01*
X47494180Y-51789502D01*
X47604494Y-51730537D01*
X47701185Y-51651185D01*
X47780537Y-51554494D01*
X47784275Y-51547500D01*
X47984857Y-51547500D01*
X48037885Y-51612115D01*
X48167725Y-51718671D01*
X48315858Y-51797850D01*
X48476592Y-51846608D01*
X48643750Y-51863072D01*
X49156250Y-51863072D01*
X49323408Y-51846608D01*
X49484142Y-51797850D01*
X49632275Y-51718671D01*
X49762115Y-51612115D01*
X49868671Y-51482275D01*
X49947850Y-51334142D01*
X49996608Y-51173408D01*
X50013072Y-51006250D01*
X50013072Y-50568750D01*
X49996608Y-50401592D01*
X49947850Y-50240858D01*
X49868671Y-50092725D01*
X49850900Y-50071070D01*
X49905537Y-50004494D01*
X49964502Y-49894180D01*
X50000812Y-49774482D01*
X50013072Y-49650000D01*
X50010000Y-49498250D01*
X49851250Y-49339500D01*
X49027000Y-49339500D01*
X49027000Y-49359500D01*
X48773000Y-49359500D01*
X48773000Y-49339500D01*
X48753000Y-49339500D01*
X48753000Y-49085500D01*
X48773000Y-49085500D01*
X48773000Y-48298750D01*
X49027000Y-48298750D01*
X49027000Y-49085500D01*
X49851250Y-49085500D01*
X50010000Y-48926750D01*
X50013072Y-48775000D01*
X50000812Y-48650518D01*
X49964502Y-48530820D01*
X49905537Y-48420506D01*
X49826185Y-48323815D01*
X49729494Y-48244463D01*
X49619180Y-48185498D01*
X49499482Y-48149188D01*
X49375000Y-48136928D01*
X49185750Y-48140000D01*
X49027000Y-48298750D01*
X48773000Y-48298750D01*
X48614250Y-48140000D01*
X48425000Y-48136928D01*
X48300518Y-48149188D01*
X48180820Y-48185498D01*
X48070506Y-48244463D01*
X47973815Y-48323815D01*
X47894463Y-48420506D01*
X47835498Y-48530820D01*
X47832110Y-48541990D01*
X47780537Y-48445506D01*
X47701185Y-48348815D01*
X47604494Y-48269463D01*
X47494180Y-48210498D01*
X47374482Y-48174188D01*
X47250000Y-48161928D01*
X45250000Y-48161928D01*
X45125518Y-48174188D01*
X45005820Y-48210498D01*
X44895506Y-48269463D01*
X44798815Y-48348815D01*
X44719463Y-48445506D01*
X44660498Y-48555820D01*
X44624188Y-48675518D01*
X44611928Y-48800000D01*
X44611928Y-51200000D01*
X44624188Y-51324482D01*
X44654801Y-51425398D01*
X44573998Y-51506201D01*
X44545000Y-51529999D01*
X44521202Y-51558997D01*
X44521201Y-51558998D01*
X44450026Y-51645724D01*
X44450000Y-51645773D01*
X44449974Y-51645724D01*
X44355001Y-51529999D01*
X44325998Y-51506197D01*
X44168474Y-51348673D01*
X44175812Y-51324482D01*
X44188072Y-51200000D01*
X44188072Y-48800000D01*
X44175812Y-48675518D01*
X44139502Y-48555820D01*
X44080537Y-48445506D01*
X44001185Y-48348815D01*
X43904494Y-48269463D01*
X43794180Y-48210498D01*
X43674482Y-48174188D01*
X43550000Y-48161928D01*
X41550000Y-48161928D01*
X41425518Y-48174188D01*
X41305820Y-48210498D01*
X41195506Y-48269463D01*
X41098815Y-48348815D01*
X41019463Y-48445506D01*
X40967890Y-48541990D01*
X40964502Y-48530820D01*
X40905537Y-48420506D01*
X40826185Y-48323815D01*
X40729494Y-48244463D01*
X40619180Y-48185498D01*
X40499482Y-48149188D01*
X40375000Y-48136928D01*
X40185750Y-48140000D01*
X40027000Y-48298750D01*
X40027000Y-49085500D01*
X40047000Y-49085500D01*
X40047000Y-49339500D01*
X40027000Y-49339500D01*
X40027000Y-49359500D01*
X39773000Y-49359500D01*
X39773000Y-49339500D01*
X38948750Y-49339500D01*
X38790000Y-49498250D01*
X38786928Y-49650000D01*
X38799188Y-49774482D01*
X38835498Y-49894180D01*
X38894463Y-50004494D01*
X38949100Y-50071070D01*
X38931329Y-50092725D01*
X38852150Y-50240858D01*
X38803392Y-50401592D01*
X38786928Y-50568750D01*
X38786928Y-51006250D01*
X38803392Y-51173408D01*
X38852150Y-51334142D01*
X38931329Y-51482275D01*
X39037885Y-51612115D01*
X39167725Y-51718671D01*
X39315858Y-51797850D01*
X39476592Y-51846608D01*
X39643750Y-51863072D01*
X40156250Y-51863072D01*
X40323408Y-51846608D01*
X40484142Y-51797850D01*
X40632275Y-51718671D01*
X40762115Y-51612115D01*
X40815143Y-51547500D01*
X41015725Y-51547500D01*
X41019463Y-51554494D01*
X41098815Y-51651185D01*
X41195506Y-51730537D01*
X41305820Y-51789502D01*
X41425518Y-51825812D01*
X41550000Y-51838072D01*
X41901020Y-51838072D01*
X41915026Y-51864276D01*
X41986201Y-51951002D01*
X42010000Y-51980001D01*
X42038998Y-52003799D01*
X42086052Y-52050853D01*
X41957171Y-52119742D01*
X41837749Y-52217749D01*
X41739742Y-52337171D01*
X41666916Y-52473418D01*
X41622071Y-52621255D01*
X41606928Y-52775000D01*
X41606928Y-54525000D01*
X41622071Y-54678745D01*
X41666916Y-54826582D01*
X41739742Y-54962829D01*
X41785001Y-55017977D01*
X41785000Y-58382677D01*
X41781324Y-58420000D01*
X41785000Y-58457322D01*
X41785000Y-58457332D01*
X41795997Y-58568985D01*
X41827845Y-58673974D01*
X41839454Y-58712246D01*
X41910026Y-58844276D01*
X41949871Y-58892826D01*
X42004999Y-58960001D01*
X42034002Y-58983804D01*
X42489944Y-59439746D01*
X42396014Y-59448997D01*
X42252753Y-59492454D01*
X42120724Y-59563026D01*
X42004999Y-59657999D01*
X41981201Y-59686997D01*
X40765000Y-60903199D01*
X40765000Y-58457322D01*
X40768676Y-58419999D01*
X40765000Y-58382676D01*
X40765000Y-58382667D01*
X40754003Y-58271014D01*
X40710546Y-58127753D01*
X40639974Y-57995724D01*
X40614631Y-57964843D01*
X40568799Y-57908996D01*
X40568795Y-57908992D01*
X40545001Y-57879999D01*
X40516008Y-57856205D01*
X38988803Y-56329002D01*
X38965001Y-56299999D01*
X38849276Y-56205026D01*
X38717247Y-56134454D01*
X38573986Y-56090997D01*
X38462333Y-56080000D01*
X38462322Y-56080000D01*
X38425000Y-56076324D01*
X38387678Y-56080000D01*
X37378178Y-56080000D01*
X37253475Y-55893368D01*
X37121620Y-55761513D01*
X37194180Y-55739502D01*
X37304494Y-55680537D01*
X37401185Y-55601185D01*
X37480537Y-55504494D01*
X37539502Y-55394180D01*
X37575812Y-55274482D01*
X37588072Y-55150000D01*
X37585000Y-54585750D01*
X37426250Y-54427000D01*
X36227000Y-54427000D01*
X36227000Y-54447000D01*
X35973000Y-54447000D01*
X35973000Y-54427000D01*
X34773750Y-54427000D01*
X34615000Y-54585750D01*
X34611928Y-55150000D01*
X34624188Y-55274482D01*
X34660498Y-55394180D01*
X34719463Y-55504494D01*
X34798815Y-55601185D01*
X34895506Y-55680537D01*
X35005820Y-55739502D01*
X35078380Y-55761513D01*
X34946525Y-55893368D01*
X34784010Y-56136589D01*
X34672068Y-56406842D01*
X34615000Y-56693740D01*
X34615000Y-56986260D01*
X34672068Y-57273158D01*
X34784010Y-57543411D01*
X34946525Y-57786632D01*
X35153368Y-57993475D01*
X35327760Y-58110000D01*
X35153368Y-58226525D01*
X34946525Y-58433368D01*
X34784010Y-58676589D01*
X34672068Y-58946842D01*
X34615000Y-59233740D01*
X34615000Y-59526260D01*
X34672068Y-59813158D01*
X34784010Y-60083411D01*
X34946525Y-60326632D01*
X35153368Y-60533475D01*
X35265001Y-60608066D01*
X35265000Y-62871928D01*
X35250000Y-62871928D01*
X35125518Y-62884188D01*
X35005820Y-62920498D01*
X34895506Y-62979463D01*
X34798815Y-63058815D01*
X34719463Y-63155506D01*
X34660498Y-63265820D01*
X34624188Y-63385518D01*
X34611928Y-63510000D01*
X34611928Y-65210000D01*
X34624188Y-65334482D01*
X34660498Y-65454180D01*
X34719463Y-65564494D01*
X34798815Y-65661185D01*
X34895506Y-65740537D01*
X35005820Y-65799502D01*
X35086466Y-65823966D01*
X35002412Y-65899731D01*
X34828359Y-66133080D01*
X34703175Y-66395901D01*
X34658524Y-66543110D01*
X34779845Y-66773000D01*
X35973000Y-66773000D01*
X35973000Y-66753000D01*
X36227000Y-66753000D01*
X36227000Y-66773000D01*
X37420155Y-66773000D01*
X37541476Y-66543110D01*
X37496825Y-66395901D01*
X37371641Y-66133080D01*
X37197588Y-65899731D01*
X37113534Y-65823966D01*
X37194180Y-65799502D01*
X37304494Y-65740537D01*
X37401185Y-65661185D01*
X37480537Y-65564494D01*
X37539502Y-65454180D01*
X37567853Y-65360720D01*
X37900001Y-65692869D01*
X37900000Y-68157981D01*
X37895960Y-68199000D01*
X37900000Y-68240018D01*
X37912082Y-68362688D01*
X37959828Y-68520086D01*
X38037364Y-68665145D01*
X38141709Y-68792291D01*
X38173578Y-68818445D01*
X39004563Y-69649432D01*
X39030709Y-69681291D01*
X39062568Y-69707437D01*
X39062570Y-69707439D01*
X39157854Y-69785636D01*
X39302913Y-69863172D01*
X39460311Y-69910918D01*
X39624000Y-69927040D01*
X39665018Y-69923000D01*
X41437133Y-69923000D01*
X42091001Y-70576869D01*
X42091000Y-72983981D01*
X42086960Y-73025000D01*
X42091000Y-73066018D01*
X42103082Y-73188688D01*
X42150828Y-73346086D01*
X42228364Y-73491145D01*
X42332709Y-73618291D01*
X42364579Y-73644446D01*
X43830559Y-75110426D01*
X43856709Y-75142291D01*
X43983854Y-75246636D01*
X44128913Y-75324172D01*
X44286311Y-75371918D01*
X44377000Y-75380850D01*
X44377000Y-75521813D01*
X44333916Y-75602418D01*
X44289071Y-75750255D01*
X44273928Y-75904000D01*
X44273928Y-77579000D01*
X44288407Y-77726000D01*
X43217322Y-77726000D01*
X43179999Y-77722324D01*
X43142677Y-77726000D01*
X43142667Y-77726000D01*
X43031014Y-77736997D01*
X42887753Y-77780454D01*
X42755723Y-77851026D01*
X42712714Y-77886323D01*
X42639999Y-77945999D01*
X42616201Y-77974997D01*
X41488998Y-79102201D01*
X41460000Y-79125999D01*
X41436202Y-79154997D01*
X41436201Y-79154998D01*
X41365026Y-79241724D01*
X41294454Y-79373754D01*
X41282875Y-79411928D01*
X41150000Y-79411928D01*
X41025518Y-79424188D01*
X40905820Y-79460498D01*
X40795506Y-79519463D01*
X40698815Y-79598815D01*
X40619463Y-79695506D01*
X40560498Y-79805820D01*
X40524188Y-79925518D01*
X40511928Y-80050000D01*
X40511928Y-81750000D01*
X40524188Y-81874482D01*
X40560498Y-81994180D01*
X40619463Y-82104494D01*
X40648602Y-82140000D01*
X34060000Y-82140000D01*
X34060000Y-67256890D01*
X34658524Y-67256890D01*
X34703175Y-67404099D01*
X34828359Y-67666920D01*
X35002412Y-67900269D01*
X35218645Y-68095178D01*
X35468748Y-68244157D01*
X35743109Y-68341481D01*
X35973000Y-68220814D01*
X35973000Y-67027000D01*
X36227000Y-67027000D01*
X36227000Y-68220814D01*
X36456891Y-68341481D01*
X36731252Y-68244157D01*
X36981355Y-68095178D01*
X37197588Y-67900269D01*
X37371641Y-67666920D01*
X37496825Y-67404099D01*
X37541476Y-67256890D01*
X37420155Y-67027000D01*
X36227000Y-67027000D01*
X35973000Y-67027000D01*
X34779845Y-67027000D01*
X34658524Y-67256890D01*
X34060000Y-67256890D01*
X34060000Y-53450000D01*
X34611928Y-53450000D01*
X34615000Y-54014250D01*
X34773750Y-54173000D01*
X35973000Y-54173000D01*
X35973000Y-52973750D01*
X36227000Y-52973750D01*
X36227000Y-54173000D01*
X37426250Y-54173000D01*
X37585000Y-54014250D01*
X37588072Y-53450000D01*
X37575812Y-53325518D01*
X37539502Y-53205820D01*
X37480537Y-53095506D01*
X37401185Y-52998815D01*
X37304494Y-52919463D01*
X37194180Y-52860498D01*
X37074482Y-52824188D01*
X36950000Y-52811928D01*
X36385750Y-52815000D01*
X36227000Y-52973750D01*
X35973000Y-52973750D01*
X35814250Y-52815000D01*
X35250000Y-52811928D01*
X35125518Y-52824188D01*
X35005820Y-52860498D01*
X34895506Y-52919463D01*
X34798815Y-52998815D01*
X34719463Y-53095506D01*
X34660498Y-53205820D01*
X34624188Y-53325518D01*
X34611928Y-53450000D01*
X34060000Y-53450000D01*
X34060000Y-48775000D01*
X38786928Y-48775000D01*
X38790000Y-48926750D01*
X38948750Y-49085500D01*
X39773000Y-49085500D01*
X39773000Y-48298750D01*
X39614250Y-48140000D01*
X39425000Y-48136928D01*
X39300518Y-48149188D01*
X39180820Y-48185498D01*
X39070506Y-48244463D01*
X38973815Y-48323815D01*
X38894463Y-48420506D01*
X38835498Y-48530820D01*
X38799188Y-48650518D01*
X38786928Y-48775000D01*
X34060000Y-48775000D01*
X34060000Y-30460000D01*
X44538198Y-30460000D01*
X43988998Y-31009201D01*
%TA.AperFunction,Conductor*%
D21*
G36*
X43988998Y-31009201D02*
G01*
X43960000Y-31032999D01*
X43936202Y-31061997D01*
X43936201Y-31061998D01*
X43865026Y-31148724D01*
X43794454Y-31280754D01*
X43768293Y-31367000D01*
X43750998Y-31424014D01*
X43746073Y-31474014D01*
X43736324Y-31573000D01*
X43740001Y-31610332D01*
X43740001Y-31742090D01*
X43617114Y-31824201D01*
X43424201Y-32017114D01*
X43272629Y-32243957D01*
X43168225Y-32496011D01*
X43115000Y-32763589D01*
X43115000Y-33036411D01*
X43168225Y-33303989D01*
X43272629Y-33556043D01*
X43424201Y-33782886D01*
X43617114Y-33975799D01*
X43843957Y-34127371D01*
X44096011Y-34231775D01*
X44363589Y-34285000D01*
X44636411Y-34285000D01*
X44903989Y-34231775D01*
X45156043Y-34127371D01*
X45382886Y-33975799D01*
X45575799Y-33782886D01*
X45727371Y-33556043D01*
X45770000Y-33453127D01*
X45812629Y-33556043D01*
X45964201Y-33782886D01*
X46157114Y-33975799D01*
X46280000Y-34057909D01*
X46280001Y-41287668D01*
X46276324Y-41325000D01*
X46280001Y-41362333D01*
X46290998Y-41473986D01*
X46304180Y-41517442D01*
X46334454Y-41617246D01*
X46405026Y-41749276D01*
X46476201Y-41836002D01*
X46500000Y-41865001D01*
X46528998Y-41888799D01*
X46933198Y-42293000D01*
X45630322Y-42293000D01*
X45592999Y-42289324D01*
X45555676Y-42293000D01*
X45555667Y-42293000D01*
X45444014Y-42303997D01*
X45300753Y-42347454D01*
X45168724Y-42418026D01*
X45168722Y-42418027D01*
X45168723Y-42418027D01*
X45081996Y-42489201D01*
X45081992Y-42489205D01*
X45052999Y-42512999D01*
X45029205Y-42541992D01*
X43988998Y-43582201D01*
X43960000Y-43605999D01*
X43936202Y-43634997D01*
X43936201Y-43634998D01*
X43865026Y-43721724D01*
X43794454Y-43853754D01*
X43782845Y-43892026D01*
X43755553Y-43982000D01*
X43750998Y-43997015D01*
X43736324Y-44146000D01*
X43740001Y-44183332D01*
X43740001Y-44212913D01*
X43625518Y-44224188D01*
X43505820Y-44260498D01*
X43395506Y-44319463D01*
X43298815Y-44398815D01*
X43219463Y-44495506D01*
X43160498Y-44605820D01*
X43124188Y-44725518D01*
X43111928Y-44850000D01*
X43111928Y-46350000D01*
X43124188Y-46474482D01*
X43160498Y-46594180D01*
X43219463Y-46704494D01*
X43298815Y-46801185D01*
X43395506Y-46880537D01*
X43505820Y-46939502D01*
X43625518Y-46975812D01*
X43750000Y-46988072D01*
X45250000Y-46988072D01*
X45374482Y-46975812D01*
X45494180Y-46939502D01*
X45604494Y-46880537D01*
X45701185Y-46801185D01*
X45780537Y-46704494D01*
X45839502Y-46594180D01*
X45875812Y-46474482D01*
X45886445Y-46366517D01*
X45964201Y-46482886D01*
X46157114Y-46675799D01*
X46383957Y-46827371D01*
X46636011Y-46931775D01*
X46903589Y-46985000D01*
X47176411Y-46985000D01*
X47443989Y-46931775D01*
X47696043Y-46827371D01*
X47922886Y-46675799D01*
X48115799Y-46482886D01*
X48267371Y-46256043D01*
X48310000Y-46153127D01*
X48352629Y-46256043D01*
X48504201Y-46482886D01*
X48697114Y-46675799D01*
X48923957Y-46827371D01*
X49176011Y-46931775D01*
X49443589Y-46985000D01*
X49716411Y-46985000D01*
X49861365Y-46956167D01*
X50640001Y-47734803D01*
X50640001Y-48304082D01*
X50537885Y-48387885D01*
X50431329Y-48517725D01*
X50352150Y-48665858D01*
X50303392Y-48826592D01*
X50286928Y-48993750D01*
X50286928Y-49431250D01*
X50303392Y-49598408D01*
X50352150Y-49759142D01*
X50431329Y-49907275D01*
X50507426Y-50000000D01*
X50431329Y-50092725D01*
X50352150Y-50240858D01*
X50303392Y-50401592D01*
X50286928Y-50568750D01*
X50286928Y-51006250D01*
X50303392Y-51173408D01*
X50352150Y-51334142D01*
X50431329Y-51482275D01*
X50525291Y-51596768D01*
X50500000Y-51723911D01*
X50500000Y-51908089D01*
X50521902Y-52018196D01*
X50468745Y-52002071D01*
X50315000Y-51986928D01*
X50015000Y-51986928D01*
X49861255Y-52002071D01*
X49713418Y-52046916D01*
X49577171Y-52119742D01*
X49530000Y-52158454D01*
X49482829Y-52119742D01*
X49346582Y-52046916D01*
X49198745Y-52002071D01*
X49045000Y-51986928D01*
X48745000Y-51986928D01*
X48591255Y-52002071D01*
X48443418Y-52046916D01*
X48307171Y-52119742D01*
X48260000Y-52158454D01*
X48212829Y-52119742D01*
X48076582Y-52046916D01*
X47928745Y-52002071D01*
X47775000Y-51986928D01*
X47475000Y-51986928D01*
X47321255Y-52002071D01*
X47173418Y-52046916D01*
X47037171Y-52119742D01*
X46990000Y-52158454D01*
X46942829Y-52119742D01*
X46806582Y-52046916D01*
X46717812Y-52019989D01*
X46760998Y-51976803D01*
X46790001Y-51953001D01*
X46884321Y-51838072D01*
X47250000Y-51838072D01*
X47374482Y-51825812D01*
X47494180Y-51789502D01*
X47604494Y-51730537D01*
X47701185Y-51651185D01*
X47780537Y-51554494D01*
X47784275Y-51547500D01*
X47984857Y-51547500D01*
X48037885Y-51612115D01*
X48167725Y-51718671D01*
X48315858Y-51797850D01*
X48476592Y-51846608D01*
X48643750Y-51863072D01*
X49156250Y-51863072D01*
X49323408Y-51846608D01*
X49484142Y-51797850D01*
X49632275Y-51718671D01*
X49762115Y-51612115D01*
X49868671Y-51482275D01*
X49947850Y-51334142D01*
X49996608Y-51173408D01*
X50013072Y-51006250D01*
X50013072Y-50568750D01*
X49996608Y-50401592D01*
X49947850Y-50240858D01*
X49868671Y-50092725D01*
X49850900Y-50071070D01*
X49905537Y-50004494D01*
X49964502Y-49894180D01*
X50000812Y-49774482D01*
X50013072Y-49650000D01*
X50010000Y-49498250D01*
X49851250Y-49339500D01*
X49027000Y-49339500D01*
X49027000Y-49359500D01*
X48773000Y-49359500D01*
X48773000Y-49339500D01*
X48753000Y-49339500D01*
X48753000Y-49085500D01*
X48773000Y-49085500D01*
X48773000Y-48298750D01*
X49027000Y-48298750D01*
X49027000Y-49085500D01*
X49851250Y-49085500D01*
X50010000Y-48926750D01*
X50013072Y-48775000D01*
X50000812Y-48650518D01*
X49964502Y-48530820D01*
X49905537Y-48420506D01*
X49826185Y-48323815D01*
X49729494Y-48244463D01*
X49619180Y-48185498D01*
X49499482Y-48149188D01*
X49375000Y-48136928D01*
X49185750Y-48140000D01*
X49027000Y-48298750D01*
X48773000Y-48298750D01*
X48614250Y-48140000D01*
X48425000Y-48136928D01*
X48300518Y-48149188D01*
X48180820Y-48185498D01*
X48070506Y-48244463D01*
X47973815Y-48323815D01*
X47894463Y-48420506D01*
X47835498Y-48530820D01*
X47832110Y-48541990D01*
X47780537Y-48445506D01*
X47701185Y-48348815D01*
X47604494Y-48269463D01*
X47494180Y-48210498D01*
X47374482Y-48174188D01*
X47250000Y-48161928D01*
X45250000Y-48161928D01*
X45125518Y-48174188D01*
X45005820Y-48210498D01*
X44895506Y-48269463D01*
X44798815Y-48348815D01*
X44719463Y-48445506D01*
X44660498Y-48555820D01*
X44624188Y-48675518D01*
X44611928Y-48800000D01*
X44611928Y-51200000D01*
X44624188Y-51324482D01*
X44654801Y-51425398D01*
X44573998Y-51506201D01*
X44545000Y-51529999D01*
X44521202Y-51558997D01*
X44521201Y-51558998D01*
X44450026Y-51645724D01*
X44450000Y-51645773D01*
X44449974Y-51645724D01*
X44355001Y-51529999D01*
X44325998Y-51506197D01*
X44168474Y-51348673D01*
X44175812Y-51324482D01*
X44188072Y-51200000D01*
X44188072Y-48800000D01*
X44175812Y-48675518D01*
X44139502Y-48555820D01*
X44080537Y-48445506D01*
X44001185Y-48348815D01*
X43904494Y-48269463D01*
X43794180Y-48210498D01*
X43674482Y-48174188D01*
X43550000Y-48161928D01*
X41550000Y-48161928D01*
X41425518Y-48174188D01*
X41305820Y-48210498D01*
X41195506Y-48269463D01*
X41098815Y-48348815D01*
X41019463Y-48445506D01*
X40967890Y-48541990D01*
X40964502Y-48530820D01*
X40905537Y-48420506D01*
X40826185Y-48323815D01*
X40729494Y-48244463D01*
X40619180Y-48185498D01*
X40499482Y-48149188D01*
X40375000Y-48136928D01*
X40185750Y-48140000D01*
X40027000Y-48298750D01*
X40027000Y-49085500D01*
X40047000Y-49085500D01*
X40047000Y-49339500D01*
X40027000Y-49339500D01*
X40027000Y-49359500D01*
X39773000Y-49359500D01*
X39773000Y-49339500D01*
X38948750Y-49339500D01*
X38790000Y-49498250D01*
X38786928Y-49650000D01*
X38799188Y-49774482D01*
X38835498Y-49894180D01*
X38894463Y-50004494D01*
X38949100Y-50071070D01*
X38931329Y-50092725D01*
X38852150Y-50240858D01*
X38803392Y-50401592D01*
X38786928Y-50568750D01*
X38786928Y-51006250D01*
X38803392Y-51173408D01*
X38852150Y-51334142D01*
X38931329Y-51482275D01*
X39037885Y-51612115D01*
X39167725Y-51718671D01*
X39315858Y-51797850D01*
X39476592Y-51846608D01*
X39643750Y-51863072D01*
X40156250Y-51863072D01*
X40323408Y-51846608D01*
X40484142Y-51797850D01*
X40632275Y-51718671D01*
X40762115Y-51612115D01*
X40815143Y-51547500D01*
X41015725Y-51547500D01*
X41019463Y-51554494D01*
X41098815Y-51651185D01*
X41195506Y-51730537D01*
X41305820Y-51789502D01*
X41425518Y-51825812D01*
X41550000Y-51838072D01*
X41901020Y-51838072D01*
X41915026Y-51864276D01*
X41986201Y-51951002D01*
X42010000Y-51980001D01*
X42038998Y-52003799D01*
X42086052Y-52050853D01*
X41957171Y-52119742D01*
X41837749Y-52217749D01*
X41739742Y-52337171D01*
X41666916Y-52473418D01*
X41622071Y-52621255D01*
X41606928Y-52775000D01*
X41606928Y-54525000D01*
X41622071Y-54678745D01*
X41666916Y-54826582D01*
X41739742Y-54962829D01*
X41785001Y-55017977D01*
X41785000Y-58382677D01*
X41781324Y-58420000D01*
X41785000Y-58457322D01*
X41785000Y-58457332D01*
X41795997Y-58568985D01*
X41827845Y-58673974D01*
X41839454Y-58712246D01*
X41910026Y-58844276D01*
X41949871Y-58892826D01*
X42004999Y-58960001D01*
X42034002Y-58983804D01*
X42489944Y-59439746D01*
X42396014Y-59448997D01*
X42252753Y-59492454D01*
X42120724Y-59563026D01*
X42004999Y-59657999D01*
X41981201Y-59686997D01*
X40765000Y-60903199D01*
X40765000Y-58457322D01*
X40768676Y-58419999D01*
X40765000Y-58382676D01*
X40765000Y-58382667D01*
X40754003Y-58271014D01*
X40710546Y-58127753D01*
X40639974Y-57995724D01*
X40614631Y-57964843D01*
X40568799Y-57908996D01*
X40568795Y-57908992D01*
X40545001Y-57879999D01*
X40516008Y-57856205D01*
X38988803Y-56329002D01*
X38965001Y-56299999D01*
X38849276Y-56205026D01*
X38717247Y-56134454D01*
X38573986Y-56090997D01*
X38462333Y-56080000D01*
X38462322Y-56080000D01*
X38425000Y-56076324D01*
X38387678Y-56080000D01*
X37378178Y-56080000D01*
X37253475Y-55893368D01*
X37121620Y-55761513D01*
X37194180Y-55739502D01*
X37304494Y-55680537D01*
X37401185Y-55601185D01*
X37480537Y-55504494D01*
X37539502Y-55394180D01*
X37575812Y-55274482D01*
X37588072Y-55150000D01*
X37585000Y-54585750D01*
X37426250Y-54427000D01*
X36227000Y-54427000D01*
X36227000Y-54447000D01*
X35973000Y-54447000D01*
X35973000Y-54427000D01*
X34773750Y-54427000D01*
X34615000Y-54585750D01*
X34611928Y-55150000D01*
X34624188Y-55274482D01*
X34660498Y-55394180D01*
X34719463Y-55504494D01*
X34798815Y-55601185D01*
X34895506Y-55680537D01*
X35005820Y-55739502D01*
X35078380Y-55761513D01*
X34946525Y-55893368D01*
X34784010Y-56136589D01*
X34672068Y-56406842D01*
X34615000Y-56693740D01*
X34615000Y-56986260D01*
X34672068Y-57273158D01*
X34784010Y-57543411D01*
X34946525Y-57786632D01*
X35153368Y-57993475D01*
X35327760Y-58110000D01*
X35153368Y-58226525D01*
X34946525Y-58433368D01*
X34784010Y-58676589D01*
X34672068Y-58946842D01*
X34615000Y-59233740D01*
X34615000Y-59526260D01*
X34672068Y-59813158D01*
X34784010Y-60083411D01*
X34946525Y-60326632D01*
X35153368Y-60533475D01*
X35265001Y-60608066D01*
X35265000Y-62871928D01*
X35250000Y-62871928D01*
X35125518Y-62884188D01*
X35005820Y-62920498D01*
X34895506Y-62979463D01*
X34798815Y-63058815D01*
X34719463Y-63155506D01*
X34660498Y-63265820D01*
X34624188Y-63385518D01*
X34611928Y-63510000D01*
X34611928Y-65210000D01*
X34624188Y-65334482D01*
X34660498Y-65454180D01*
X34719463Y-65564494D01*
X34798815Y-65661185D01*
X34895506Y-65740537D01*
X35005820Y-65799502D01*
X35086466Y-65823966D01*
X35002412Y-65899731D01*
X34828359Y-66133080D01*
X34703175Y-66395901D01*
X34658524Y-66543110D01*
X34779845Y-66773000D01*
X35973000Y-66773000D01*
X35973000Y-66753000D01*
X36227000Y-66753000D01*
X36227000Y-66773000D01*
X37420155Y-66773000D01*
X37541476Y-66543110D01*
X37496825Y-66395901D01*
X37371641Y-66133080D01*
X37197588Y-65899731D01*
X37113534Y-65823966D01*
X37194180Y-65799502D01*
X37304494Y-65740537D01*
X37401185Y-65661185D01*
X37480537Y-65564494D01*
X37539502Y-65454180D01*
X37567853Y-65360720D01*
X37900001Y-65692869D01*
X37900000Y-68157981D01*
X37895960Y-68199000D01*
X37900000Y-68240018D01*
X37912082Y-68362688D01*
X37959828Y-68520086D01*
X38037364Y-68665145D01*
X38141709Y-68792291D01*
X38173578Y-68818445D01*
X39004563Y-69649432D01*
X39030709Y-69681291D01*
X39062568Y-69707437D01*
X39062570Y-69707439D01*
X39157854Y-69785636D01*
X39302913Y-69863172D01*
X39460311Y-69910918D01*
X39624000Y-69927040D01*
X39665018Y-69923000D01*
X41437133Y-69923000D01*
X42091001Y-70576869D01*
X42091000Y-72983981D01*
X42086960Y-73025000D01*
X42091000Y-73066018D01*
X42103082Y-73188688D01*
X42150828Y-73346086D01*
X42228364Y-73491145D01*
X42332709Y-73618291D01*
X42364579Y-73644446D01*
X43830559Y-75110426D01*
X43856709Y-75142291D01*
X43983854Y-75246636D01*
X44128913Y-75324172D01*
X44286311Y-75371918D01*
X44377000Y-75380850D01*
X44377000Y-75521813D01*
X44333916Y-75602418D01*
X44289071Y-75750255D01*
X44273928Y-75904000D01*
X44273928Y-77579000D01*
X44288407Y-77726000D01*
X43217322Y-77726000D01*
X43179999Y-77722324D01*
X43142677Y-77726000D01*
X43142667Y-77726000D01*
X43031014Y-77736997D01*
X42887753Y-77780454D01*
X42755723Y-77851026D01*
X42712714Y-77886323D01*
X42639999Y-77945999D01*
X42616201Y-77974997D01*
X41488998Y-79102201D01*
X41460000Y-79125999D01*
X41436202Y-79154997D01*
X41436201Y-79154998D01*
X41365026Y-79241724D01*
X41294454Y-79373754D01*
X41282875Y-79411928D01*
X41150000Y-79411928D01*
X41025518Y-79424188D01*
X40905820Y-79460498D01*
X40795506Y-79519463D01*
X40698815Y-79598815D01*
X40619463Y-79695506D01*
X40560498Y-79805820D01*
X40524188Y-79925518D01*
X40511928Y-80050000D01*
X40511928Y-81750000D01*
X40524188Y-81874482D01*
X40560498Y-81994180D01*
X40619463Y-82104494D01*
X40648602Y-82140000D01*
X34060000Y-82140000D01*
X34060000Y-67256890D01*
X34658524Y-67256890D01*
X34703175Y-67404099D01*
X34828359Y-67666920D01*
X35002412Y-67900269D01*
X35218645Y-68095178D01*
X35468748Y-68244157D01*
X35743109Y-68341481D01*
X35973000Y-68220814D01*
X35973000Y-67027000D01*
X36227000Y-67027000D01*
X36227000Y-68220814D01*
X36456891Y-68341481D01*
X36731252Y-68244157D01*
X36981355Y-68095178D01*
X37197588Y-67900269D01*
X37371641Y-67666920D01*
X37496825Y-67404099D01*
X37541476Y-67256890D01*
X37420155Y-67027000D01*
X36227000Y-67027000D01*
X35973000Y-67027000D01*
X34779845Y-67027000D01*
X34658524Y-67256890D01*
X34060000Y-67256890D01*
X34060000Y-53450000D01*
X34611928Y-53450000D01*
X34615000Y-54014250D01*
X34773750Y-54173000D01*
X35973000Y-54173000D01*
X35973000Y-52973750D01*
X36227000Y-52973750D01*
X36227000Y-54173000D01*
X37426250Y-54173000D01*
X37585000Y-54014250D01*
X37588072Y-53450000D01*
X37575812Y-53325518D01*
X37539502Y-53205820D01*
X37480537Y-53095506D01*
X37401185Y-52998815D01*
X37304494Y-52919463D01*
X37194180Y-52860498D01*
X37074482Y-52824188D01*
X36950000Y-52811928D01*
X36385750Y-52815000D01*
X36227000Y-52973750D01*
X35973000Y-52973750D01*
X35814250Y-52815000D01*
X35250000Y-52811928D01*
X35125518Y-52824188D01*
X35005820Y-52860498D01*
X34895506Y-52919463D01*
X34798815Y-52998815D01*
X34719463Y-53095506D01*
X34660498Y-53205820D01*
X34624188Y-53325518D01*
X34611928Y-53450000D01*
X34060000Y-53450000D01*
X34060000Y-48775000D01*
X38786928Y-48775000D01*
X38790000Y-48926750D01*
X38948750Y-49085500D01*
X39773000Y-49085500D01*
X39773000Y-48298750D01*
X39614250Y-48140000D01*
X39425000Y-48136928D01*
X39300518Y-48149188D01*
X39180820Y-48185498D01*
X39070506Y-48244463D01*
X38973815Y-48323815D01*
X38894463Y-48420506D01*
X38835498Y-48530820D01*
X38799188Y-48650518D01*
X38786928Y-48775000D01*
X34060000Y-48775000D01*
X34060000Y-30460000D01*
X44538198Y-30460000D01*
X43988998Y-31009201D01*
G37*
%TD.AperFunction*%
D20*
X47173418Y-64553084D02*
X47321255Y-64597929D01*
X47475000Y-64613072D01*
X47775000Y-64613072D01*
X47928745Y-64597929D01*
X48076582Y-64553084D01*
X48135000Y-64521859D01*
X48135000Y-65240677D01*
X48131324Y-65278000D01*
X48135000Y-65315322D01*
X48135000Y-65315332D01*
X48145997Y-65426985D01*
X48180861Y-65541917D01*
X48189454Y-65570246D01*
X48260026Y-65702276D01*
X48293221Y-65742724D01*
X48354999Y-65818001D01*
X48384003Y-65841804D01*
X49894013Y-67351815D01*
X49849111Y-67370414D01*
X49695972Y-67472738D01*
X49657000Y-67511710D01*
X49618028Y-67472738D01*
X49464889Y-67370414D01*
X49294729Y-67299932D01*
X49114089Y-67264000D01*
X48929911Y-67264000D01*
X48749271Y-67299932D01*
X48579111Y-67370414D01*
X48425972Y-67472738D01*
X48387000Y-67511710D01*
X48348028Y-67472738D01*
X48194889Y-67370414D01*
X48024729Y-67299932D01*
X47844089Y-67264000D01*
X47659911Y-67264000D01*
X47479271Y-67299932D01*
X47309111Y-67370414D01*
X47155972Y-67472738D01*
X47025738Y-67602972D01*
X46947029Y-67720768D01*
X46945000Y-67595750D01*
X46786250Y-67437000D01*
X45999500Y-67437000D01*
X45999500Y-67457000D01*
X45745500Y-67457000D01*
X45745500Y-67437000D01*
X45725500Y-67437000D01*
X45725500Y-67183000D01*
X45745500Y-67183000D01*
X45745500Y-65659000D01*
X45999500Y-65659000D01*
X45999500Y-67183000D01*
X46786250Y-67183000D01*
X46945000Y-67024250D01*
X46948072Y-66835000D01*
X46935812Y-66710518D01*
X46899502Y-66590820D01*
X46840537Y-66480506D01*
X46791702Y-66421000D01*
X46840537Y-66361494D01*
X46899502Y-66251180D01*
X46935812Y-66131482D01*
X46948072Y-66007000D01*
X46945000Y-65817750D01*
X46786250Y-65659000D01*
X45999500Y-65659000D01*
X45745500Y-65659000D01*
X45725500Y-65659000D01*
X45725500Y-65405000D01*
X45745500Y-65405000D01*
X45745500Y-65385000D01*
X45999500Y-65385000D01*
X45999500Y-65405000D01*
X46786250Y-65405000D01*
X46945000Y-65246250D01*
X46948072Y-65057000D01*
X46935812Y-64932518D01*
X46899502Y-64812820D01*
X46840537Y-64702506D01*
X46761185Y-64605815D01*
X46757703Y-64602957D01*
X46779482Y-64600812D01*
X46899180Y-64564502D01*
X47009494Y-64505537D01*
X47039064Y-64481270D01*
X47173418Y-64553084D01*
%TA.AperFunction,Conductor*%
D21*
G36*
X47173418Y-64553084D02*
G01*
X47321255Y-64597929D01*
X47475000Y-64613072D01*
X47775000Y-64613072D01*
X47928745Y-64597929D01*
X48076582Y-64553084D01*
X48135000Y-64521859D01*
X48135000Y-65240677D01*
X48131324Y-65278000D01*
X48135000Y-65315322D01*
X48135000Y-65315332D01*
X48145997Y-65426985D01*
X48180861Y-65541917D01*
X48189454Y-65570246D01*
X48260026Y-65702276D01*
X48293221Y-65742724D01*
X48354999Y-65818001D01*
X48384003Y-65841804D01*
X49894013Y-67351815D01*
X49849111Y-67370414D01*
X49695972Y-67472738D01*
X49657000Y-67511710D01*
X49618028Y-67472738D01*
X49464889Y-67370414D01*
X49294729Y-67299932D01*
X49114089Y-67264000D01*
X48929911Y-67264000D01*
X48749271Y-67299932D01*
X48579111Y-67370414D01*
X48425972Y-67472738D01*
X48387000Y-67511710D01*
X48348028Y-67472738D01*
X48194889Y-67370414D01*
X48024729Y-67299932D01*
X47844089Y-67264000D01*
X47659911Y-67264000D01*
X47479271Y-67299932D01*
X47309111Y-67370414D01*
X47155972Y-67472738D01*
X47025738Y-67602972D01*
X46947029Y-67720768D01*
X46945000Y-67595750D01*
X46786250Y-67437000D01*
X45999500Y-67437000D01*
X45999500Y-67457000D01*
X45745500Y-67457000D01*
X45745500Y-67437000D01*
X45725500Y-67437000D01*
X45725500Y-67183000D01*
X45745500Y-67183000D01*
X45745500Y-65659000D01*
X45999500Y-65659000D01*
X45999500Y-67183000D01*
X46786250Y-67183000D01*
X46945000Y-67024250D01*
X46948072Y-66835000D01*
X46935812Y-66710518D01*
X46899502Y-66590820D01*
X46840537Y-66480506D01*
X46791702Y-66421000D01*
X46840537Y-66361494D01*
X46899502Y-66251180D01*
X46935812Y-66131482D01*
X46948072Y-66007000D01*
X46945000Y-65817750D01*
X46786250Y-65659000D01*
X45999500Y-65659000D01*
X45745500Y-65659000D01*
X45725500Y-65659000D01*
X45725500Y-65405000D01*
X45745500Y-65405000D01*
X45745500Y-65385000D01*
X45999500Y-65385000D01*
X45999500Y-65405000D01*
X46786250Y-65405000D01*
X46945000Y-65246250D01*
X46948072Y-65057000D01*
X46935812Y-64932518D01*
X46899502Y-64812820D01*
X46840537Y-64702506D01*
X46761185Y-64605815D01*
X46757703Y-64602957D01*
X46779482Y-64600812D01*
X46899180Y-64564502D01*
X47009494Y-64505537D01*
X47039064Y-64481270D01*
X47173418Y-64553084D01*
G37*
%TD.AperFunction*%
D20*
X40716000Y-67183000D02*
X40736000Y-67183000D01*
X40736000Y-67437000D01*
X40716000Y-67437000D01*
X40716000Y-67457000D01*
X40462000Y-67457000D01*
X40462000Y-67437000D01*
X40442000Y-67437000D01*
X40442000Y-67183000D01*
X40462000Y-67183000D01*
X40462000Y-67163000D01*
X40716000Y-67163000D01*
X40716000Y-67183000D01*
%TA.AperFunction,Conductor*%
D21*
G36*
X40716000Y-67183000D02*
G01*
X40736000Y-67183000D01*
X40736000Y-67437000D01*
X40716000Y-67437000D01*
X40716000Y-67457000D01*
X40462000Y-67457000D01*
X40462000Y-67437000D01*
X40442000Y-67437000D01*
X40442000Y-67183000D01*
X40462000Y-67183000D01*
X40462000Y-67163000D01*
X40716000Y-67163000D01*
X40716000Y-67183000D01*
G37*
%TD.AperFunction*%
D20*
X51576127Y-61286928D02*
X51285000Y-61286928D01*
X51131255Y-61302071D01*
X50983418Y-61346916D01*
X50847171Y-61419742D01*
X50800000Y-61458454D01*
X50752829Y-61419742D01*
X50616582Y-61346916D01*
X50468745Y-61302071D01*
X50315000Y-61286928D01*
X50015000Y-61286928D01*
X49861255Y-61302071D01*
X49713418Y-61346916D01*
X49577171Y-61419742D01*
X49530000Y-61458454D01*
X49482829Y-61419742D01*
X49346582Y-61346916D01*
X49198745Y-61302071D01*
X49045000Y-61286928D01*
X48745000Y-61286928D01*
X48591255Y-61302071D01*
X48443418Y-61346916D01*
X48307171Y-61419742D01*
X48260000Y-61458454D01*
X48212829Y-61419742D01*
X48076582Y-61346916D01*
X47928745Y-61302071D01*
X47775000Y-61286928D01*
X47475000Y-61286928D01*
X47321255Y-61302071D01*
X47173418Y-61346916D01*
X47039064Y-61418730D01*
X47009494Y-61394463D01*
X46899180Y-61335498D01*
X46779482Y-61299188D01*
X46655000Y-61286928D01*
X46640750Y-61290000D01*
X46482000Y-61448750D01*
X46482000Y-62823000D01*
X46502000Y-62823000D01*
X46502000Y-63077000D01*
X46482000Y-63077000D01*
X46482000Y-63097000D01*
X46228000Y-63097000D01*
X46228000Y-63077000D01*
X46208000Y-63077000D01*
X46208000Y-62823000D01*
X46228000Y-62823000D01*
X46228000Y-61448750D01*
X46069250Y-61290000D01*
X46055000Y-61286928D01*
X45930518Y-61299188D01*
X45810820Y-61335498D01*
X45700506Y-61394463D01*
X45670936Y-61418730D01*
X45536582Y-61346916D01*
X45388745Y-61302071D01*
X45235000Y-61286928D01*
X44935000Y-61286928D01*
X44781255Y-61302071D01*
X44633418Y-61346916D01*
X44497171Y-61419742D01*
X44450000Y-61458454D01*
X44402829Y-61419742D01*
X44266582Y-61346916D01*
X44118745Y-61302071D01*
X43965000Y-61286928D01*
X43665000Y-61286928D01*
X43511255Y-61302071D01*
X43363418Y-61346916D01*
X43227171Y-61419742D01*
X43180000Y-61458454D01*
X43132829Y-61419742D01*
X42996582Y-61346916D01*
X42848745Y-61302071D01*
X42695000Y-61286928D01*
X42530874Y-61286928D01*
X42859802Y-60958000D01*
X51247199Y-60958000D01*
X51576127Y-61286928D01*
%TA.AperFunction,Conductor*%
D21*
G36*
X51576127Y-61286928D02*
G01*
X51285000Y-61286928D01*
X51131255Y-61302071D01*
X50983418Y-61346916D01*
X50847171Y-61419742D01*
X50800000Y-61458454D01*
X50752829Y-61419742D01*
X50616582Y-61346916D01*
X50468745Y-61302071D01*
X50315000Y-61286928D01*
X50015000Y-61286928D01*
X49861255Y-61302071D01*
X49713418Y-61346916D01*
X49577171Y-61419742D01*
X49530000Y-61458454D01*
X49482829Y-61419742D01*
X49346582Y-61346916D01*
X49198745Y-61302071D01*
X49045000Y-61286928D01*
X48745000Y-61286928D01*
X48591255Y-61302071D01*
X48443418Y-61346916D01*
X48307171Y-61419742D01*
X48260000Y-61458454D01*
X48212829Y-61419742D01*
X48076582Y-61346916D01*
X47928745Y-61302071D01*
X47775000Y-61286928D01*
X47475000Y-61286928D01*
X47321255Y-61302071D01*
X47173418Y-61346916D01*
X47039064Y-61418730D01*
X47009494Y-61394463D01*
X46899180Y-61335498D01*
X46779482Y-61299188D01*
X46655000Y-61286928D01*
X46640750Y-61290000D01*
X46482000Y-61448750D01*
X46482000Y-62823000D01*
X46502000Y-62823000D01*
X46502000Y-63077000D01*
X46482000Y-63077000D01*
X46482000Y-63097000D01*
X46228000Y-63097000D01*
X46228000Y-63077000D01*
X46208000Y-63077000D01*
X46208000Y-62823000D01*
X46228000Y-62823000D01*
X46228000Y-61448750D01*
X46069250Y-61290000D01*
X46055000Y-61286928D01*
X45930518Y-61299188D01*
X45810820Y-61335498D01*
X45700506Y-61394463D01*
X45670936Y-61418730D01*
X45536582Y-61346916D01*
X45388745Y-61302071D01*
X45235000Y-61286928D01*
X44935000Y-61286928D01*
X44781255Y-61302071D01*
X44633418Y-61346916D01*
X44497171Y-61419742D01*
X44450000Y-61458454D01*
X44402829Y-61419742D01*
X44266582Y-61346916D01*
X44118745Y-61302071D01*
X43965000Y-61286928D01*
X43665000Y-61286928D01*
X43511255Y-61302071D01*
X43363418Y-61346916D01*
X43227171Y-61419742D01*
X43180000Y-61458454D01*
X43132829Y-61419742D01*
X42996582Y-61346916D01*
X42848745Y-61302071D01*
X42695000Y-61286928D01*
X42530874Y-61286928D01*
X42859802Y-60958000D01*
X51247199Y-60958000D01*
X51576127Y-61286928D01*
G37*
%TD.AperFunction*%
D20*
X44497171Y-55180258D02*
X44633418Y-55253084D01*
X44781255Y-55297929D01*
X44935000Y-55313072D01*
X45235000Y-55313072D01*
X45388745Y-55297929D01*
X45491804Y-55266667D01*
X45455932Y-55353271D01*
X45420000Y-55533911D01*
X45420000Y-55718089D01*
X45455932Y-55898729D01*
X45526414Y-56068889D01*
X45628738Y-56222028D01*
X45758972Y-56352262D01*
X45912111Y-56454586D01*
X46082271Y-56525068D01*
X46262911Y-56561000D01*
X46447089Y-56561000D01*
X46627729Y-56525068D01*
X46797889Y-56454586D01*
X46951028Y-56352262D01*
X46990000Y-56313290D01*
X47028972Y-56352262D01*
X47182111Y-56454586D01*
X47352271Y-56525068D01*
X47532911Y-56561000D01*
X47717089Y-56561000D01*
X47897729Y-56525068D01*
X48067889Y-56454586D01*
X48221028Y-56352262D01*
X48260000Y-56313290D01*
X48298972Y-56352262D01*
X48452111Y-56454586D01*
X48622271Y-56525068D01*
X48802911Y-56561000D01*
X48987089Y-56561000D01*
X49167729Y-56525068D01*
X49337889Y-56454586D01*
X49491028Y-56352262D01*
X49530000Y-56313290D01*
X49568972Y-56352262D01*
X49722111Y-56454586D01*
X49892271Y-56525068D01*
X50072911Y-56561000D01*
X50257089Y-56561000D01*
X50437729Y-56525068D01*
X50607889Y-56454586D01*
X50761028Y-56352262D01*
X50800000Y-56313290D01*
X50838972Y-56352262D01*
X50992111Y-56454586D01*
X51162271Y-56525068D01*
X51342911Y-56561000D01*
X51527089Y-56561000D01*
X51707729Y-56525068D01*
X51877889Y-56454586D01*
X52031028Y-56352262D01*
X52070000Y-56313290D01*
X52108972Y-56352262D01*
X52262111Y-56454586D01*
X52432271Y-56525068D01*
X52612911Y-56561000D01*
X52797089Y-56561000D01*
X52977729Y-56525068D01*
X53147889Y-56454586D01*
X53301028Y-56352262D01*
X53340000Y-56313290D01*
X53378972Y-56352262D01*
X53532111Y-56454586D01*
X53702271Y-56525068D01*
X53882911Y-56561000D01*
X54067089Y-56561000D01*
X54247729Y-56525068D01*
X54417889Y-56454586D01*
X54571028Y-56352262D01*
X54610000Y-56313290D01*
X54648972Y-56352262D01*
X54802111Y-56454586D01*
X54972271Y-56525068D01*
X55152911Y-56561000D01*
X55337089Y-56561000D01*
X55517729Y-56525068D01*
X55621872Y-56481931D01*
X55615932Y-56496271D01*
X55580000Y-56676911D01*
X55580000Y-56861089D01*
X55615932Y-57041729D01*
X55686414Y-57211889D01*
X55755001Y-57314536D01*
X55755001Y-57747668D01*
X55751324Y-57785000D01*
X55755001Y-57822332D01*
X55755001Y-57822333D01*
X55759452Y-57867519D01*
X55765998Y-57933985D01*
X55809454Y-58077246D01*
X55880026Y-58209276D01*
X55946273Y-58289997D01*
X55975000Y-58325001D01*
X56003998Y-58348799D01*
X56967201Y-59312003D01*
X56990999Y-59341001D01*
X57019997Y-59364799D01*
X57106723Y-59435974D01*
X57212389Y-59492454D01*
X57238753Y-59506546D01*
X57382014Y-59550003D01*
X57493667Y-59561000D01*
X57493677Y-59561000D01*
X57531000Y-59564676D01*
X57568322Y-59561000D01*
X60795678Y-59561000D01*
X60833000Y-59564676D01*
X60870322Y-59561000D01*
X60870333Y-59561000D01*
X60981986Y-59550003D01*
X61125247Y-59506546D01*
X61257276Y-59435974D01*
X61373001Y-59341001D01*
X61396804Y-59311998D01*
X62360004Y-58348798D01*
X62389001Y-58325001D01*
X62433308Y-58271013D01*
X62483974Y-58209277D01*
X62554546Y-58077247D01*
X62565541Y-58041000D01*
X62598003Y-57933986D01*
X62609000Y-57822333D01*
X62609000Y-57822323D01*
X62612676Y-57785000D01*
X62609000Y-57747678D01*
X62609000Y-57591801D01*
X62671802Y-57529000D01*
X63745822Y-57529000D01*
X63870525Y-57715632D01*
X64077368Y-57922475D01*
X64259534Y-58044195D01*
X64142645Y-58113822D01*
X63926412Y-58308731D01*
X63752359Y-58542080D01*
X63627175Y-58804901D01*
X63582524Y-58952110D01*
X63703845Y-59182000D01*
X64897000Y-59182000D01*
X64897000Y-59162000D01*
X65151000Y-59162000D01*
X65151000Y-59182000D01*
X65171000Y-59182000D01*
X65171000Y-59436000D01*
X65151000Y-59436000D01*
X65151000Y-59456000D01*
X64897000Y-59456000D01*
X64897000Y-59436000D01*
X63703845Y-59436000D01*
X63582524Y-59665890D01*
X63627175Y-59813099D01*
X63752359Y-60075920D01*
X63926412Y-60309269D01*
X64142645Y-60504178D01*
X64259534Y-60573805D01*
X64077368Y-60695525D01*
X63870525Y-60902368D01*
X63708010Y-61145589D01*
X63596068Y-61415842D01*
X63586290Y-61465000D01*
X62722461Y-61465000D01*
X62605275Y-61368829D01*
X62457142Y-61289650D01*
X62296408Y-61240892D01*
X62129250Y-61224428D01*
X61616750Y-61224428D01*
X61449592Y-61240892D01*
X61288858Y-61289650D01*
X61172446Y-61351874D01*
X61157546Y-61302753D01*
X61086974Y-61170724D01*
X60992001Y-61054999D01*
X60962997Y-61031196D01*
X60634804Y-60703003D01*
X60611001Y-60673999D01*
X60495276Y-60579026D01*
X60363247Y-60508454D01*
X60219986Y-60464997D01*
X60108333Y-60454000D01*
X60108322Y-60454000D01*
X60071000Y-60450324D01*
X60033678Y-60454000D01*
X54162802Y-60454000D01*
X52760804Y-59052003D01*
X52737001Y-59022999D01*
X52621276Y-58928026D01*
X52489247Y-58857454D01*
X52345986Y-58813997D01*
X52234333Y-58803000D01*
X52234322Y-58803000D01*
X52197000Y-58799324D01*
X52159678Y-58803000D01*
X44002802Y-58803000D01*
X43305000Y-58105199D01*
X43305000Y-55221859D01*
X43363418Y-55253084D01*
X43511255Y-55297929D01*
X43665000Y-55313072D01*
X43965000Y-55313072D01*
X44118745Y-55297929D01*
X44266582Y-55253084D01*
X44402829Y-55180258D01*
X44450000Y-55141546D01*
X44497171Y-55180258D01*
%TA.AperFunction,Conductor*%
D21*
G36*
X44497171Y-55180258D02*
G01*
X44633418Y-55253084D01*
X44781255Y-55297929D01*
X44935000Y-55313072D01*
X45235000Y-55313072D01*
X45388745Y-55297929D01*
X45491804Y-55266667D01*
X45455932Y-55353271D01*
X45420000Y-55533911D01*
X45420000Y-55718089D01*
X45455932Y-55898729D01*
X45526414Y-56068889D01*
X45628738Y-56222028D01*
X45758972Y-56352262D01*
X45912111Y-56454586D01*
X46082271Y-56525068D01*
X46262911Y-56561000D01*
X46447089Y-56561000D01*
X46627729Y-56525068D01*
X46797889Y-56454586D01*
X46951028Y-56352262D01*
X46990000Y-56313290D01*
X47028972Y-56352262D01*
X47182111Y-56454586D01*
X47352271Y-56525068D01*
X47532911Y-56561000D01*
X47717089Y-56561000D01*
X47897729Y-56525068D01*
X48067889Y-56454586D01*
X48221028Y-56352262D01*
X48260000Y-56313290D01*
X48298972Y-56352262D01*
X48452111Y-56454586D01*
X48622271Y-56525068D01*
X48802911Y-56561000D01*
X48987089Y-56561000D01*
X49167729Y-56525068D01*
X49337889Y-56454586D01*
X49491028Y-56352262D01*
X49530000Y-56313290D01*
X49568972Y-56352262D01*
X49722111Y-56454586D01*
X49892271Y-56525068D01*
X50072911Y-56561000D01*
X50257089Y-56561000D01*
X50437729Y-56525068D01*
X50607889Y-56454586D01*
X50761028Y-56352262D01*
X50800000Y-56313290D01*
X50838972Y-56352262D01*
X50992111Y-56454586D01*
X51162271Y-56525068D01*
X51342911Y-56561000D01*
X51527089Y-56561000D01*
X51707729Y-56525068D01*
X51877889Y-56454586D01*
X52031028Y-56352262D01*
X52070000Y-56313290D01*
X52108972Y-56352262D01*
X52262111Y-56454586D01*
X52432271Y-56525068D01*
X52612911Y-56561000D01*
X52797089Y-56561000D01*
X52977729Y-56525068D01*
X53147889Y-56454586D01*
X53301028Y-56352262D01*
X53340000Y-56313290D01*
X53378972Y-56352262D01*
X53532111Y-56454586D01*
X53702271Y-56525068D01*
X53882911Y-56561000D01*
X54067089Y-56561000D01*
X54247729Y-56525068D01*
X54417889Y-56454586D01*
X54571028Y-56352262D01*
X54610000Y-56313290D01*
X54648972Y-56352262D01*
X54802111Y-56454586D01*
X54972271Y-56525068D01*
X55152911Y-56561000D01*
X55337089Y-56561000D01*
X55517729Y-56525068D01*
X55621872Y-56481931D01*
X55615932Y-56496271D01*
X55580000Y-56676911D01*
X55580000Y-56861089D01*
X55615932Y-57041729D01*
X55686414Y-57211889D01*
X55755001Y-57314536D01*
X55755001Y-57747668D01*
X55751324Y-57785000D01*
X55755001Y-57822332D01*
X55755001Y-57822333D01*
X55759452Y-57867519D01*
X55765998Y-57933985D01*
X55809454Y-58077246D01*
X55880026Y-58209276D01*
X55946273Y-58289997D01*
X55975000Y-58325001D01*
X56003998Y-58348799D01*
X56967201Y-59312003D01*
X56990999Y-59341001D01*
X57019997Y-59364799D01*
X57106723Y-59435974D01*
X57212389Y-59492454D01*
X57238753Y-59506546D01*
X57382014Y-59550003D01*
X57493667Y-59561000D01*
X57493677Y-59561000D01*
X57531000Y-59564676D01*
X57568322Y-59561000D01*
X60795678Y-59561000D01*
X60833000Y-59564676D01*
X60870322Y-59561000D01*
X60870333Y-59561000D01*
X60981986Y-59550003D01*
X61125247Y-59506546D01*
X61257276Y-59435974D01*
X61373001Y-59341001D01*
X61396804Y-59311998D01*
X62360004Y-58348798D01*
X62389001Y-58325001D01*
X62433308Y-58271013D01*
X62483974Y-58209277D01*
X62554546Y-58077247D01*
X62565541Y-58041000D01*
X62598003Y-57933986D01*
X62609000Y-57822333D01*
X62609000Y-57822323D01*
X62612676Y-57785000D01*
X62609000Y-57747678D01*
X62609000Y-57591801D01*
X62671802Y-57529000D01*
X63745822Y-57529000D01*
X63870525Y-57715632D01*
X64077368Y-57922475D01*
X64259534Y-58044195D01*
X64142645Y-58113822D01*
X63926412Y-58308731D01*
X63752359Y-58542080D01*
X63627175Y-58804901D01*
X63582524Y-58952110D01*
X63703845Y-59182000D01*
X64897000Y-59182000D01*
X64897000Y-59162000D01*
X65151000Y-59162000D01*
X65151000Y-59182000D01*
X65171000Y-59182000D01*
X65171000Y-59436000D01*
X65151000Y-59436000D01*
X65151000Y-59456000D01*
X64897000Y-59456000D01*
X64897000Y-59436000D01*
X63703845Y-59436000D01*
X63582524Y-59665890D01*
X63627175Y-59813099D01*
X63752359Y-60075920D01*
X63926412Y-60309269D01*
X64142645Y-60504178D01*
X64259534Y-60573805D01*
X64077368Y-60695525D01*
X63870525Y-60902368D01*
X63708010Y-61145589D01*
X63596068Y-61415842D01*
X63586290Y-61465000D01*
X62722461Y-61465000D01*
X62605275Y-61368829D01*
X62457142Y-61289650D01*
X62296408Y-61240892D01*
X62129250Y-61224428D01*
X61616750Y-61224428D01*
X61449592Y-61240892D01*
X61288858Y-61289650D01*
X61172446Y-61351874D01*
X61157546Y-61302753D01*
X61086974Y-61170724D01*
X60992001Y-61054999D01*
X60962997Y-61031196D01*
X60634804Y-60703003D01*
X60611001Y-60673999D01*
X60495276Y-60579026D01*
X60363247Y-60508454D01*
X60219986Y-60464997D01*
X60108333Y-60454000D01*
X60108322Y-60454000D01*
X60071000Y-60450324D01*
X60033678Y-60454000D01*
X54162802Y-60454000D01*
X52760804Y-59052003D01*
X52737001Y-59022999D01*
X52621276Y-58928026D01*
X52489247Y-58857454D01*
X52345986Y-58813997D01*
X52234333Y-58803000D01*
X52234322Y-58803000D01*
X52197000Y-58799324D01*
X52159678Y-58803000D01*
X44002802Y-58803000D01*
X43305000Y-58105199D01*
X43305000Y-55221859D01*
X43363418Y-55253084D01*
X43511255Y-55297929D01*
X43665000Y-55313072D01*
X43965000Y-55313072D01*
X44118745Y-55297929D01*
X44266582Y-55253084D01*
X44402829Y-55180258D01*
X44450000Y-55141546D01*
X44497171Y-55180258D01*
G37*
%TD.AperFunction*%
%TD*%
M02*
