M48
; DRILL file {KiCad (5.1.10)-1} date 06/06/21 23:17:23
; FORMAT={-:-/ absolute / inch / decimal}
; #@! TF.CreationDate,2021-06-06T23:17:23+07:00
; #@! TF.GenerationSoftware,Kicad,Pcbnew,(5.1.10)-1
; #@! TF.FileFunction,Plated,1,2,PTH
FMAT,2
INCH
T1C0.0118
T2C0.0157
T3C0.0394
%
G90
G05
T1
X1.62Y-2.57
X1.655Y-2.57
X1.675Y-2.395
X1.69Y-2.57
X1.725Y-2.395
X1.775Y-2.395
X2.075Y-2.54
X2.175Y-2.54
X2.195Y-2.32
X2.41Y-2.375
T2
X1.7Y-2.865
X1.83Y-2.815
X2.025Y-2.54
X2.125Y-2.175
X2.285Y-3.025
X2.56Y-3.0875
T3
X1.475Y-1.98
X1.475Y-2.08
X1.475Y-2.18
X1.475Y-2.28
X1.475Y-2.38
X1.6535Y-3.185
X1.752Y-1.2953
X1.752Y-1.7953
X1.7535Y-3.185
X1.852Y-1.2953
X1.852Y-1.7953
X1.8535Y-3.185
X1.952Y-1.2953
X1.952Y-1.7953
X1.9535Y-3.185
X2.052Y-1.2953
X2.052Y-1.7953
X2.0535Y-3.185
X2.152Y-1.2953
X2.152Y-1.7953
X2.1535Y-3.185
X2.252Y-1.2953
X2.2535Y-3.185
X2.3535Y-3.185
X2.5863Y-2.3028
X2.5863Y-2.4028
X2.5863Y-2.5028
X2.5863Y-2.6989
X2.5863Y-2.7989
T0
M30
